G04 #@! TF.GenerationSoftware,KiCad,Pcbnew,(5.0.0)*
G04 #@! TF.CreationDate,2018-10-16T14:20:07+10:30*
G04 #@! TF.ProjectId,Paragon,50617261676F6E2E6B696361645F7063,rev?*
G04 #@! TF.SameCoordinates,Original*
G04 #@! TF.FileFunction,Profile,NP*
%FSLAX46Y46*%
G04 Gerber Fmt 4.6, Leading zero omitted, Abs format (unit mm)*
G04 Created by KiCad (PCBNEW (5.0.0)) date 10/16/18 14:20:07*
%MOMM*%
%LPD*%
G01*
G04 APERTURE LIST*
%ADD10C,0.100000*%
G04 APERTURE END LIST*
D10*
X107679176Y-134444370D02*
X107418991Y-133603689D01*
X110901965Y-137082537D02*
X110060287Y-136822661D01*
X169949145Y-134444370D02*
X169537185Y-135204326D01*
X166726358Y-137082537D02*
X165821598Y-137173100D01*
X108091137Y-135204326D02*
X107679176Y-134444370D01*
X165821598Y-137173100D02*
X111806725Y-137173100D01*
X110060287Y-49551846D02*
X110901965Y-49291964D01*
X110901965Y-49291964D02*
X111806725Y-49201400D01*
X107328321Y-132700000D02*
X107328321Y-53674570D01*
X108637135Y-135865837D02*
X108091137Y-135204326D01*
X109299431Y-136411188D02*
X108637135Y-135865837D01*
X168328891Y-136411188D02*
X167568035Y-136822661D01*
X111806725Y-137173100D02*
X110901965Y-137082537D01*
X107418991Y-52770869D02*
X107679176Y-51930176D01*
X108637135Y-50508686D02*
X109299431Y-49963326D01*
X169537185Y-135204326D02*
X168991187Y-135865837D01*
X108091137Y-51170209D02*
X108637135Y-50508686D01*
X167568035Y-136822661D02*
X166726358Y-137082537D01*
X107679176Y-51930176D02*
X108091137Y-51170209D01*
X107328321Y-53674570D02*
X107418991Y-52770869D01*
X168991187Y-135865837D02*
X168328891Y-136411188D01*
X111806725Y-49201400D02*
X111806725Y-49201400D01*
X110060287Y-136822661D02*
X109299431Y-136411188D01*
X109299431Y-49963326D02*
X110060287Y-49551846D01*
X107418991Y-133603689D02*
X107328321Y-132700000D01*
X170209330Y-52770869D02*
X170300000Y-53674570D01*
X169537185Y-51170209D02*
X169949145Y-51930176D01*
X169949145Y-51930176D02*
X170209330Y-52770869D01*
X168991187Y-50508686D02*
X169537185Y-51170209D01*
X168328891Y-49963326D02*
X168991187Y-50508686D01*
X167568035Y-49551846D02*
X168328891Y-49963326D01*
X165821598Y-49201400D02*
X166726358Y-49291964D01*
X166726358Y-49291964D02*
X167568035Y-49551846D01*
X111806725Y-49201400D02*
X165821598Y-49201400D01*
X170300000Y-53674570D02*
X170300000Y-132700000D01*
X170209330Y-133603689D02*
X169949145Y-134444370D01*
X170300000Y-132700000D02*
X170209330Y-133603689D01*
M02*
