G04 #@! TF.GenerationSoftware,KiCad,Pcbnew,(5.0.0)*
G04 #@! TF.CreationDate,2018-10-16T14:20:07+10:30*
G04 #@! TF.ProjectId,Paragon,50617261676F6E2E6B696361645F7063,rev?*
G04 #@! TF.SameCoordinates,Original*
G04 #@! TF.FileFunction,Soldermask,Top*
G04 #@! TF.FilePolarity,Negative*
%FSLAX46Y46*%
G04 Gerber Fmt 4.6, Leading zero omitted, Abs format (unit mm)*
G04 Created by KiCad (PCBNEW (5.0.0)) date 10/16/18 14:20:07*
%MOMM*%
%LPD*%
G01*
G04 APERTURE LIST*
%ADD10C,0.010000*%
G04 APERTURE END LIST*
D10*
G04 #@! TO.C,G\002A\002A\002A*
G36*
X114927231Y-56269916D02*
X115149903Y-56271408D01*
X115331422Y-56274728D01*
X115476636Y-56280557D01*
X115590392Y-56289577D01*
X115677539Y-56302470D01*
X115742924Y-56319916D01*
X115791395Y-56342599D01*
X115827801Y-56371199D01*
X115856987Y-56406399D01*
X115879257Y-56441204D01*
X115903975Y-56509607D01*
X115923319Y-56614557D01*
X115936515Y-56741959D01*
X115942786Y-56877717D01*
X115941356Y-57007737D01*
X115931449Y-57117922D01*
X115919594Y-57173929D01*
X115861892Y-57281887D01*
X115764184Y-57369448D01*
X115635859Y-57428314D01*
X115629935Y-57430036D01*
X115544123Y-57457612D01*
X115507706Y-57478645D01*
X115519935Y-57495038D01*
X115580060Y-57508693D01*
X115597947Y-57511288D01*
X115752539Y-57551699D01*
X115880038Y-57624086D01*
X115970900Y-57723006D01*
X115971762Y-57724385D01*
X115996111Y-57767371D01*
X116012798Y-57811147D01*
X116023251Y-57866223D01*
X116028901Y-57943111D01*
X116031178Y-58052321D01*
X116031531Y-58163764D01*
X116028520Y-58336419D01*
X116017505Y-58466812D01*
X115995509Y-58563281D01*
X115959558Y-58634168D01*
X115906675Y-58687809D01*
X115833886Y-58732546D01*
X115827420Y-58735836D01*
X115799744Y-58748599D01*
X115768881Y-58759072D01*
X115729709Y-58767508D01*
X115677106Y-58774163D01*
X115605950Y-58779290D01*
X115511119Y-58783143D01*
X115387490Y-58785975D01*
X115229943Y-58788042D01*
X115033355Y-58789597D01*
X114792603Y-58790894D01*
X114709409Y-58791278D01*
X114484073Y-58791739D01*
X114272410Y-58791110D01*
X114080330Y-58789485D01*
X113913745Y-58786962D01*
X113778564Y-58783636D01*
X113680698Y-58779605D01*
X113626058Y-58774963D01*
X113619149Y-58773519D01*
X113517631Y-58723974D01*
X113444938Y-58643581D01*
X113398847Y-58527893D01*
X113377133Y-58372466D01*
X113374716Y-58285019D01*
X113376129Y-58193280D01*
X113383066Y-58140249D01*
X113399284Y-58113815D01*
X113428542Y-58101869D01*
X113431781Y-58101126D01*
X113485419Y-58089172D01*
X113569933Y-58070342D01*
X113662188Y-58049791D01*
X113752024Y-58030497D01*
X113822582Y-58016662D01*
X113858902Y-58011215D01*
X113859235Y-58011212D01*
X113870948Y-58034491D01*
X113879456Y-58095793D01*
X113883057Y-58182307D01*
X113883083Y-58190583D01*
X113883083Y-58369954D01*
X114643219Y-58362204D01*
X114876200Y-58360044D01*
X115063353Y-58357548D01*
X115209679Y-58352816D01*
X115320176Y-58343949D01*
X115399845Y-58329047D01*
X115453684Y-58306209D01*
X115486694Y-58273536D01*
X115503874Y-58229128D01*
X115510223Y-58171085D01*
X115510741Y-58097507D01*
X115510310Y-58032696D01*
X115509994Y-57929313D01*
X115505015Y-57850416D01*
X115489323Y-57792698D01*
X115456872Y-57752854D01*
X115401611Y-57727578D01*
X115317493Y-57713563D01*
X115198470Y-57707504D01*
X115038492Y-57706095D01*
X114912812Y-57706107D01*
X114417017Y-57706107D01*
X114417017Y-57302510D01*
X114876772Y-57294548D01*
X115053866Y-57291276D01*
X115186542Y-57286023D01*
X115281207Y-57275171D01*
X115344269Y-57255102D01*
X115382134Y-57222197D01*
X115401210Y-57172839D01*
X115407903Y-57103408D01*
X115408620Y-57010287D01*
X115408608Y-56994195D01*
X115409207Y-56912311D01*
X115407506Y-56847312D01*
X115398257Y-56797195D01*
X115376211Y-56759957D01*
X115336120Y-56733598D01*
X115272736Y-56716115D01*
X115180811Y-56705506D01*
X115055097Y-56699769D01*
X114890345Y-56696901D01*
X114681308Y-56694902D01*
X114622500Y-56694313D01*
X113908508Y-56686824D01*
X113908508Y-56840509D01*
X113904142Y-56936434D01*
X113890571Y-56985661D01*
X113876726Y-56994246D01*
X113838715Y-56989893D01*
X113764046Y-56978210D01*
X113666025Y-56961334D01*
X113619018Y-56952832D01*
X113393092Y-56911366D01*
X113409275Y-56719915D01*
X113430999Y-56569101D01*
X113469998Y-56458267D01*
X113531119Y-56378085D01*
X113616823Y-56320421D01*
X113645412Y-56307210D01*
X113676960Y-56296504D01*
X113716836Y-56288041D01*
X113770410Y-56281557D01*
X113843050Y-56276792D01*
X113940123Y-56273484D01*
X114067000Y-56271369D01*
X114229049Y-56270187D01*
X114431638Y-56269675D01*
X114658558Y-56269570D01*
X114927231Y-56269916D01*
X114927231Y-56269916D01*
G37*
X114927231Y-56269916D02*
X115149903Y-56271408D01*
X115331422Y-56274728D01*
X115476636Y-56280557D01*
X115590392Y-56289577D01*
X115677539Y-56302470D01*
X115742924Y-56319916D01*
X115791395Y-56342599D01*
X115827801Y-56371199D01*
X115856987Y-56406399D01*
X115879257Y-56441204D01*
X115903975Y-56509607D01*
X115923319Y-56614557D01*
X115936515Y-56741959D01*
X115942786Y-56877717D01*
X115941356Y-57007737D01*
X115931449Y-57117922D01*
X115919594Y-57173929D01*
X115861892Y-57281887D01*
X115764184Y-57369448D01*
X115635859Y-57428314D01*
X115629935Y-57430036D01*
X115544123Y-57457612D01*
X115507706Y-57478645D01*
X115519935Y-57495038D01*
X115580060Y-57508693D01*
X115597947Y-57511288D01*
X115752539Y-57551699D01*
X115880038Y-57624086D01*
X115970900Y-57723006D01*
X115971762Y-57724385D01*
X115996111Y-57767371D01*
X116012798Y-57811147D01*
X116023251Y-57866223D01*
X116028901Y-57943111D01*
X116031178Y-58052321D01*
X116031531Y-58163764D01*
X116028520Y-58336419D01*
X116017505Y-58466812D01*
X115995509Y-58563281D01*
X115959558Y-58634168D01*
X115906675Y-58687809D01*
X115833886Y-58732546D01*
X115827420Y-58735836D01*
X115799744Y-58748599D01*
X115768881Y-58759072D01*
X115729709Y-58767508D01*
X115677106Y-58774163D01*
X115605950Y-58779290D01*
X115511119Y-58783143D01*
X115387490Y-58785975D01*
X115229943Y-58788042D01*
X115033355Y-58789597D01*
X114792603Y-58790894D01*
X114709409Y-58791278D01*
X114484073Y-58791739D01*
X114272410Y-58791110D01*
X114080330Y-58789485D01*
X113913745Y-58786962D01*
X113778564Y-58783636D01*
X113680698Y-58779605D01*
X113626058Y-58774963D01*
X113619149Y-58773519D01*
X113517631Y-58723974D01*
X113444938Y-58643581D01*
X113398847Y-58527893D01*
X113377133Y-58372466D01*
X113374716Y-58285019D01*
X113376129Y-58193280D01*
X113383066Y-58140249D01*
X113399284Y-58113815D01*
X113428542Y-58101869D01*
X113431781Y-58101126D01*
X113485419Y-58089172D01*
X113569933Y-58070342D01*
X113662188Y-58049791D01*
X113752024Y-58030497D01*
X113822582Y-58016662D01*
X113858902Y-58011215D01*
X113859235Y-58011212D01*
X113870948Y-58034491D01*
X113879456Y-58095793D01*
X113883057Y-58182307D01*
X113883083Y-58190583D01*
X113883083Y-58369954D01*
X114643219Y-58362204D01*
X114876200Y-58360044D01*
X115063353Y-58357548D01*
X115209679Y-58352816D01*
X115320176Y-58343949D01*
X115399845Y-58329047D01*
X115453684Y-58306209D01*
X115486694Y-58273536D01*
X115503874Y-58229128D01*
X115510223Y-58171085D01*
X115510741Y-58097507D01*
X115510310Y-58032696D01*
X115509994Y-57929313D01*
X115505015Y-57850416D01*
X115489323Y-57792698D01*
X115456872Y-57752854D01*
X115401611Y-57727578D01*
X115317493Y-57713563D01*
X115198470Y-57707504D01*
X115038492Y-57706095D01*
X114912812Y-57706107D01*
X114417017Y-57706107D01*
X114417017Y-57302510D01*
X114876772Y-57294548D01*
X115053866Y-57291276D01*
X115186542Y-57286023D01*
X115281207Y-57275171D01*
X115344269Y-57255102D01*
X115382134Y-57222197D01*
X115401210Y-57172839D01*
X115407903Y-57103408D01*
X115408620Y-57010287D01*
X115408608Y-56994195D01*
X115409207Y-56912311D01*
X115407506Y-56847312D01*
X115398257Y-56797195D01*
X115376211Y-56759957D01*
X115336120Y-56733598D01*
X115272736Y-56716115D01*
X115180811Y-56705506D01*
X115055097Y-56699769D01*
X114890345Y-56696901D01*
X114681308Y-56694902D01*
X114622500Y-56694313D01*
X113908508Y-56686824D01*
X113908508Y-56840509D01*
X113904142Y-56936434D01*
X113890571Y-56985661D01*
X113876726Y-56994246D01*
X113838715Y-56989893D01*
X113764046Y-56978210D01*
X113666025Y-56961334D01*
X113619018Y-56952832D01*
X113393092Y-56911366D01*
X113409275Y-56719915D01*
X113430999Y-56569101D01*
X113469998Y-56458267D01*
X113531119Y-56378085D01*
X113616823Y-56320421D01*
X113645412Y-56307210D01*
X113676960Y-56296504D01*
X113716836Y-56288041D01*
X113770410Y-56281557D01*
X113843050Y-56276792D01*
X113940123Y-56273484D01*
X114067000Y-56271369D01*
X114229049Y-56270187D01*
X114431638Y-56269675D01*
X114658558Y-56269570D01*
X114927231Y-56269916D01*
G36*
X120061460Y-94813560D02*
X119826778Y-95049223D01*
X119738473Y-95136902D01*
X119663180Y-95209789D01*
X119607998Y-95261148D01*
X119580024Y-95284247D01*
X119578378Y-95284885D01*
X119556382Y-95267864D01*
X119505735Y-95221232D01*
X119433435Y-95151641D01*
X119346485Y-95065739D01*
X119324124Y-95043344D01*
X119083587Y-94801802D01*
X119324147Y-94560237D01*
X119564708Y-94318672D01*
X120061460Y-94813560D01*
X120061460Y-94813560D01*
G37*
X120061460Y-94813560D02*
X119826778Y-95049223D01*
X119738473Y-95136902D01*
X119663180Y-95209789D01*
X119607998Y-95261148D01*
X119580024Y-95284247D01*
X119578378Y-95284885D01*
X119556382Y-95267864D01*
X119505735Y-95221232D01*
X119433435Y-95151641D01*
X119346485Y-95065739D01*
X119324124Y-95043344D01*
X119083587Y-94801802D01*
X119324147Y-94560237D01*
X119564708Y-94318672D01*
X120061460Y-94813560D01*
G36*
X164112602Y-52087088D02*
X118586786Y-52087088D01*
X118586786Y-51781982D01*
X164414524Y-51781982D01*
X164112602Y-52087088D01*
X164112602Y-52087088D01*
G37*
X164112602Y-52087088D02*
X118586786Y-52087088D01*
X118586786Y-51781982D01*
X164414524Y-51781982D01*
X164112602Y-52087088D01*
G36*
X114971670Y-52094671D02*
X115179163Y-52277778D01*
X115179471Y-52625587D01*
X115179779Y-52973395D01*
X114987295Y-53146808D01*
X114903555Y-53220265D01*
X114831853Y-53279510D01*
X114781663Y-53316915D01*
X114764822Y-53325953D01*
X114734894Y-53311953D01*
X114677460Y-53269614D01*
X114601530Y-53205986D01*
X114537266Y-53147975D01*
X114339698Y-52964265D01*
X114340740Y-52292529D01*
X114461511Y-52180764D01*
X114543253Y-52106026D01*
X114626191Y-52031614D01*
X114673230Y-51990282D01*
X114764178Y-51911564D01*
X114971670Y-52094671D01*
X114971670Y-52094671D01*
G37*
X114971670Y-52094671D02*
X115179163Y-52277778D01*
X115179471Y-52625587D01*
X115179779Y-52973395D01*
X114987295Y-53146808D01*
X114903555Y-53220265D01*
X114831853Y-53279510D01*
X114781663Y-53316915D01*
X114764822Y-53325953D01*
X114734894Y-53311953D01*
X114677460Y-53269614D01*
X114601530Y-53205986D01*
X114537266Y-53147975D01*
X114339698Y-52964265D01*
X114340740Y-52292529D01*
X114461511Y-52180764D01*
X114543253Y-52106026D01*
X114626191Y-52031614D01*
X114673230Y-51990282D01*
X114764178Y-51911564D01*
X114971670Y-52094671D01*
G36*
X141901902Y-55494095D02*
X135596396Y-55494095D01*
X135596396Y-54578779D01*
X135799799Y-54578779D01*
X135799799Y-55290691D01*
X141698498Y-55290691D01*
X141698498Y-54578779D01*
X135799799Y-54578779D01*
X135596396Y-54578779D01*
X135596396Y-54400801D01*
X141901902Y-54400801D01*
X141901902Y-55494095D01*
X141901902Y-55494095D01*
G37*
X141901902Y-55494095D02*
X135596396Y-55494095D01*
X135596396Y-54578779D01*
X135799799Y-54578779D01*
X135799799Y-55290691D01*
X141698498Y-55290691D01*
X141698498Y-54578779D01*
X135799799Y-54578779D01*
X135596396Y-54578779D01*
X135596396Y-54400801D01*
X141901902Y-54400801D01*
X141901902Y-55494095D01*
G36*
X118841262Y-59421461D02*
X118904721Y-59453155D01*
X118991176Y-59498902D01*
X119090167Y-59552913D01*
X119191234Y-59609398D01*
X119283914Y-59662568D01*
X119357748Y-59706633D01*
X119402275Y-59735804D01*
X119406164Y-59738855D01*
X119417146Y-59767099D01*
X119435055Y-59832371D01*
X119456983Y-59921805D01*
X119480023Y-60022539D01*
X119501267Y-60121707D01*
X119517806Y-60206446D01*
X119526735Y-60263892D01*
X119527527Y-60275782D01*
X119505140Y-60290044D01*
X119446054Y-60314520D01*
X119362380Y-60345163D01*
X119266228Y-60377927D01*
X119169710Y-60408765D01*
X119084937Y-60433630D01*
X119024020Y-60448476D01*
X119003488Y-60450871D01*
X118974054Y-60438194D01*
X118910125Y-60404453D01*
X118820863Y-60354659D01*
X118715432Y-60293817D01*
X118705999Y-60288285D01*
X118600282Y-60225769D01*
X118511054Y-60172171D01*
X118447210Y-60132894D01*
X118417644Y-60113340D01*
X118416990Y-60112753D01*
X118406118Y-60083485D01*
X118387772Y-60015398D01*
X118364759Y-59919473D01*
X118345859Y-59834625D01*
X118288855Y-59570625D01*
X118534471Y-59490117D01*
X118640942Y-59456177D01*
X118730804Y-59429304D01*
X118792174Y-59412956D01*
X118811260Y-59409610D01*
X118841262Y-59421461D01*
X118841262Y-59421461D01*
G37*
X118841262Y-59421461D02*
X118904721Y-59453155D01*
X118991176Y-59498902D01*
X119090167Y-59552913D01*
X119191234Y-59609398D01*
X119283914Y-59662568D01*
X119357748Y-59706633D01*
X119402275Y-59735804D01*
X119406164Y-59738855D01*
X119417146Y-59767099D01*
X119435055Y-59832371D01*
X119456983Y-59921805D01*
X119480023Y-60022539D01*
X119501267Y-60121707D01*
X119517806Y-60206446D01*
X119526735Y-60263892D01*
X119527527Y-60275782D01*
X119505140Y-60290044D01*
X119446054Y-60314520D01*
X119362380Y-60345163D01*
X119266228Y-60377927D01*
X119169710Y-60408765D01*
X119084937Y-60433630D01*
X119024020Y-60448476D01*
X119003488Y-60450871D01*
X118974054Y-60438194D01*
X118910125Y-60404453D01*
X118820863Y-60354659D01*
X118715432Y-60293817D01*
X118705999Y-60288285D01*
X118600282Y-60225769D01*
X118511054Y-60172171D01*
X118447210Y-60132894D01*
X118417644Y-60113340D01*
X118416990Y-60112753D01*
X118406118Y-60083485D01*
X118387772Y-60015398D01*
X118364759Y-59919473D01*
X118345859Y-59834625D01*
X118288855Y-59570625D01*
X118534471Y-59490117D01*
X118640942Y-59456177D01*
X118730804Y-59429304D01*
X118792174Y-59412956D01*
X118811260Y-59409610D01*
X118841262Y-59421461D01*
G36*
X110594692Y-59442665D02*
X110664876Y-59462659D01*
X110755091Y-59490680D01*
X110852116Y-59522386D01*
X110942733Y-59553439D01*
X111013723Y-59579498D01*
X111051867Y-59596225D01*
X111054401Y-59598079D01*
X111053938Y-59625913D01*
X111044095Y-59692629D01*
X111026643Y-59787493D01*
X111008883Y-59874139D01*
X110952331Y-60139166D01*
X110661309Y-60308322D01*
X110549690Y-60371264D01*
X110451113Y-60423268D01*
X110375180Y-60459518D01*
X110331496Y-60475202D01*
X110327836Y-60475471D01*
X110286113Y-60466722D01*
X110209553Y-60444933D01*
X110111281Y-60413962D01*
X110056556Y-60395714D01*
X109957659Y-60361963D01*
X109879367Y-60334963D01*
X109832386Y-60318422D01*
X109823713Y-60315088D01*
X109827177Y-60290745D01*
X109839667Y-60227087D01*
X109859093Y-60134422D01*
X109878080Y-60046982D01*
X109915200Y-59897339D01*
X109949621Y-59798095D01*
X109981475Y-59748875D01*
X109982718Y-59747926D01*
X110039019Y-59710861D01*
X110121376Y-59661604D01*
X110219002Y-59606025D01*
X110321111Y-59549991D01*
X110416916Y-59499374D01*
X110495630Y-59460042D01*
X110546467Y-59437864D01*
X110557756Y-59435036D01*
X110594692Y-59442665D01*
X110594692Y-59442665D01*
G37*
X110594692Y-59442665D02*
X110664876Y-59462659D01*
X110755091Y-59490680D01*
X110852116Y-59522386D01*
X110942733Y-59553439D01*
X111013723Y-59579498D01*
X111051867Y-59596225D01*
X111054401Y-59598079D01*
X111053938Y-59625913D01*
X111044095Y-59692629D01*
X111026643Y-59787493D01*
X111008883Y-59874139D01*
X110952331Y-60139166D01*
X110661309Y-60308322D01*
X110549690Y-60371264D01*
X110451113Y-60423268D01*
X110375180Y-60459518D01*
X110331496Y-60475202D01*
X110327836Y-60475471D01*
X110286113Y-60466722D01*
X110209553Y-60444933D01*
X110111281Y-60413962D01*
X110056556Y-60395714D01*
X109957659Y-60361963D01*
X109879367Y-60334963D01*
X109832386Y-60318422D01*
X109823713Y-60315088D01*
X109827177Y-60290745D01*
X109839667Y-60227087D01*
X109859093Y-60134422D01*
X109878080Y-60046982D01*
X109915200Y-59897339D01*
X109949621Y-59798095D01*
X109981475Y-59748875D01*
X109982718Y-59747926D01*
X110039019Y-59710861D01*
X110121376Y-59661604D01*
X110219002Y-59606025D01*
X110321111Y-59549991D01*
X110416916Y-59499374D01*
X110495630Y-59460042D01*
X110546467Y-59437864D01*
X110557756Y-59435036D01*
X110594692Y-59442665D01*
G36*
X117795744Y-53844649D02*
X117853405Y-53889041D01*
X117936891Y-53956850D01*
X118039997Y-54043022D01*
X118156517Y-54142504D01*
X118175923Y-54159260D01*
X118558129Y-54489790D01*
X118562867Y-56193294D01*
X118397039Y-56345846D01*
X118231210Y-56498399D01*
X118280599Y-56689090D01*
X118330615Y-56905684D01*
X118363295Y-57109678D01*
X118381146Y-57321814D01*
X118386677Y-57562832D01*
X118386678Y-57566351D01*
X118363078Y-58003373D01*
X118291853Y-58422936D01*
X118172754Y-58825727D01*
X118005531Y-59212431D01*
X117789933Y-59583735D01*
X117525710Y-59940324D01*
X117515883Y-59952180D01*
X117236067Y-60249833D01*
X116920121Y-60516095D01*
X116574521Y-60747192D01*
X116205747Y-60939352D01*
X115820274Y-61088800D01*
X115424583Y-61191764D01*
X115370470Y-61201945D01*
X115182183Y-61227944D01*
X114964773Y-61245356D01*
X114735090Y-61253792D01*
X114509982Y-61252866D01*
X114306297Y-61242191D01*
X114188188Y-61229102D01*
X113759300Y-61142592D01*
X113351729Y-61011166D01*
X112967899Y-60837119D01*
X112610232Y-60622744D01*
X112281151Y-60370336D01*
X111983078Y-60082189D01*
X111718437Y-59760597D01*
X111489649Y-59407856D01*
X111299138Y-59026258D01*
X111149326Y-58618098D01*
X111058606Y-58265466D01*
X111021759Y-58029157D01*
X111001762Y-57762113D01*
X110998638Y-57481587D01*
X111000755Y-57439032D01*
X111355446Y-57439032D01*
X111364613Y-57839345D01*
X111422012Y-58240220D01*
X111509950Y-58580080D01*
X111652034Y-58949040D01*
X111838311Y-59297209D01*
X112065081Y-59620882D01*
X112328644Y-59916356D01*
X112625299Y-60179926D01*
X112951345Y-60407891D01*
X113303082Y-60596544D01*
X113666967Y-60739012D01*
X113842210Y-60789464D01*
X114038861Y-60835907D01*
X114232904Y-60873122D01*
X114378878Y-60893712D01*
X114510140Y-60901032D01*
X114675580Y-60900061D01*
X114859374Y-60891757D01*
X115045697Y-60877078D01*
X115218724Y-60856982D01*
X115350986Y-60834856D01*
X115749738Y-60728377D01*
X116126416Y-60577415D01*
X116478109Y-60384541D01*
X116801909Y-60152331D01*
X117094907Y-59883357D01*
X117354193Y-59580193D01*
X117576860Y-59245413D01*
X117759997Y-58881590D01*
X117862428Y-58613069D01*
X117957396Y-58265809D01*
X118011620Y-57908921D01*
X118027325Y-57563241D01*
X118024034Y-57430502D01*
X118014953Y-57286211D01*
X118001395Y-57141409D01*
X117984670Y-57007139D01*
X117966091Y-56894440D01*
X117946968Y-56814354D01*
X117934878Y-56785031D01*
X117909562Y-56785459D01*
X117864334Y-56815600D01*
X117848141Y-56830183D01*
X117776134Y-56899170D01*
X117675207Y-56813199D01*
X117619515Y-56765502D01*
X117535338Y-56693094D01*
X117432634Y-56604553D01*
X117321359Y-56508455D01*
X117280322Y-56472973D01*
X116986364Y-56218719D01*
X116985674Y-55683589D01*
X116984985Y-55148459D01*
X116889639Y-55056711D01*
X116666968Y-54870494D01*
X116403774Y-54698450D01*
X116393820Y-54693268D01*
X117163761Y-54693268D01*
X117166714Y-54743771D01*
X117180858Y-54788628D01*
X117212780Y-54838526D01*
X117269068Y-54904148D01*
X117340191Y-54979440D01*
X117435833Y-55082973D01*
X117535675Y-55197564D01*
X117622395Y-55303153D01*
X117645296Y-55332757D01*
X117773173Y-55501678D01*
X117773173Y-55900901D01*
X117677827Y-55899410D01*
X117628428Y-55895665D01*
X117590473Y-55880312D01*
X117553429Y-55844424D01*
X117506765Y-55779075D01*
X117471241Y-55724311D01*
X117402721Y-55622973D01*
X117328463Y-55521782D01*
X117264136Y-55442059D01*
X117262123Y-55439766D01*
X117164246Y-55328829D01*
X117169961Y-55721496D01*
X117175675Y-56114163D01*
X117478221Y-56350737D01*
X117603375Y-56445803D01*
X117702495Y-56515257D01*
X117771675Y-56556553D01*
X117807008Y-56567142D01*
X117808752Y-56566256D01*
X117841426Y-56541867D01*
X117903036Y-56496030D01*
X117981681Y-56437598D01*
X118002002Y-56422510D01*
X118099037Y-56347403D01*
X118196420Y-56267049D01*
X118273522Y-56198483D01*
X118275325Y-56196768D01*
X118383383Y-56093717D01*
X118383383Y-54607896D01*
X118091445Y-54332727D01*
X117990262Y-54238768D01*
X117901078Y-54158605D01*
X117830760Y-54098204D01*
X117786176Y-54063531D01*
X117774703Y-54057558D01*
X117748282Y-54073886D01*
X117691637Y-54118936D01*
X117611787Y-54186806D01*
X117515751Y-54271593D01*
X117457230Y-54324525D01*
X117346104Y-54426544D01*
X117267314Y-54501649D01*
X117215297Y-54556830D01*
X117184489Y-54599077D01*
X117169329Y-54635379D01*
X117164252Y-54672727D01*
X117163761Y-54693268D01*
X116393820Y-54693268D01*
X116109488Y-54545256D01*
X115793545Y-54415587D01*
X115465375Y-54314119D01*
X115323669Y-54280498D01*
X115175166Y-54257373D01*
X114990853Y-54242120D01*
X114785155Y-54234721D01*
X114572499Y-54235155D01*
X114367309Y-54243401D01*
X114184011Y-54259442D01*
X114041529Y-54282263D01*
X113633529Y-54396139D01*
X113248615Y-54554438D01*
X112889103Y-54755867D01*
X112557307Y-54999132D01*
X112261518Y-55276610D01*
X112000717Y-55588180D01*
X111782599Y-55924704D01*
X111608087Y-56282117D01*
X111478108Y-56656352D01*
X111393586Y-57043346D01*
X111355446Y-57439032D01*
X111000755Y-57439032D01*
X111012409Y-57204828D01*
X111043097Y-56949088D01*
X111056773Y-56873097D01*
X111162517Y-56452272D01*
X111308344Y-56061357D01*
X111496296Y-55696517D01*
X111728415Y-55353916D01*
X112006744Y-55029720D01*
X112076291Y-54958574D01*
X112388911Y-54674226D01*
X112713397Y-54436600D01*
X113056671Y-54241841D01*
X113425657Y-54086090D01*
X113827280Y-53965491D01*
X113883083Y-53951997D01*
X114122882Y-53908319D01*
X114393255Y-53880662D01*
X114676296Y-53869691D01*
X114954103Y-53876071D01*
X115208771Y-53900466D01*
X115221617Y-53902324D01*
X115570539Y-53973398D01*
X115924264Y-54082060D01*
X116268275Y-54222655D01*
X116588051Y-54389528D01*
X116770631Y-54505673D01*
X116853910Y-54561803D01*
X116921124Y-54604684D01*
X116961561Y-54627575D01*
X116967678Y-54629630D01*
X116980305Y-54607654D01*
X116985171Y-54559710D01*
X116990881Y-54530207D01*
X117011021Y-54494500D01*
X117050332Y-54447602D01*
X117113554Y-54384530D01*
X117205427Y-54300297D01*
X117330693Y-54189918D01*
X117365933Y-54159260D01*
X117483657Y-54058006D01*
X117588980Y-53969292D01*
X117675698Y-53898192D01*
X117737610Y-53849777D01*
X117768511Y-53829120D01*
X117770112Y-53828729D01*
X117795744Y-53844649D01*
X117795744Y-53844649D01*
G37*
X117795744Y-53844649D02*
X117853405Y-53889041D01*
X117936891Y-53956850D01*
X118039997Y-54043022D01*
X118156517Y-54142504D01*
X118175923Y-54159260D01*
X118558129Y-54489790D01*
X118562867Y-56193294D01*
X118397039Y-56345846D01*
X118231210Y-56498399D01*
X118280599Y-56689090D01*
X118330615Y-56905684D01*
X118363295Y-57109678D01*
X118381146Y-57321814D01*
X118386677Y-57562832D01*
X118386678Y-57566351D01*
X118363078Y-58003373D01*
X118291853Y-58422936D01*
X118172754Y-58825727D01*
X118005531Y-59212431D01*
X117789933Y-59583735D01*
X117525710Y-59940324D01*
X117515883Y-59952180D01*
X117236067Y-60249833D01*
X116920121Y-60516095D01*
X116574521Y-60747192D01*
X116205747Y-60939352D01*
X115820274Y-61088800D01*
X115424583Y-61191764D01*
X115370470Y-61201945D01*
X115182183Y-61227944D01*
X114964773Y-61245356D01*
X114735090Y-61253792D01*
X114509982Y-61252866D01*
X114306297Y-61242191D01*
X114188188Y-61229102D01*
X113759300Y-61142592D01*
X113351729Y-61011166D01*
X112967899Y-60837119D01*
X112610232Y-60622744D01*
X112281151Y-60370336D01*
X111983078Y-60082189D01*
X111718437Y-59760597D01*
X111489649Y-59407856D01*
X111299138Y-59026258D01*
X111149326Y-58618098D01*
X111058606Y-58265466D01*
X111021759Y-58029157D01*
X111001762Y-57762113D01*
X110998638Y-57481587D01*
X111000755Y-57439032D01*
X111355446Y-57439032D01*
X111364613Y-57839345D01*
X111422012Y-58240220D01*
X111509950Y-58580080D01*
X111652034Y-58949040D01*
X111838311Y-59297209D01*
X112065081Y-59620882D01*
X112328644Y-59916356D01*
X112625299Y-60179926D01*
X112951345Y-60407891D01*
X113303082Y-60596544D01*
X113666967Y-60739012D01*
X113842210Y-60789464D01*
X114038861Y-60835907D01*
X114232904Y-60873122D01*
X114378878Y-60893712D01*
X114510140Y-60901032D01*
X114675580Y-60900061D01*
X114859374Y-60891757D01*
X115045697Y-60877078D01*
X115218724Y-60856982D01*
X115350986Y-60834856D01*
X115749738Y-60728377D01*
X116126416Y-60577415D01*
X116478109Y-60384541D01*
X116801909Y-60152331D01*
X117094907Y-59883357D01*
X117354193Y-59580193D01*
X117576860Y-59245413D01*
X117759997Y-58881590D01*
X117862428Y-58613069D01*
X117957396Y-58265809D01*
X118011620Y-57908921D01*
X118027325Y-57563241D01*
X118024034Y-57430502D01*
X118014953Y-57286211D01*
X118001395Y-57141409D01*
X117984670Y-57007139D01*
X117966091Y-56894440D01*
X117946968Y-56814354D01*
X117934878Y-56785031D01*
X117909562Y-56785459D01*
X117864334Y-56815600D01*
X117848141Y-56830183D01*
X117776134Y-56899170D01*
X117675207Y-56813199D01*
X117619515Y-56765502D01*
X117535338Y-56693094D01*
X117432634Y-56604553D01*
X117321359Y-56508455D01*
X117280322Y-56472973D01*
X116986364Y-56218719D01*
X116985674Y-55683589D01*
X116984985Y-55148459D01*
X116889639Y-55056711D01*
X116666968Y-54870494D01*
X116403774Y-54698450D01*
X116393820Y-54693268D01*
X117163761Y-54693268D01*
X117166714Y-54743771D01*
X117180858Y-54788628D01*
X117212780Y-54838526D01*
X117269068Y-54904148D01*
X117340191Y-54979440D01*
X117435833Y-55082973D01*
X117535675Y-55197564D01*
X117622395Y-55303153D01*
X117645296Y-55332757D01*
X117773173Y-55501678D01*
X117773173Y-55900901D01*
X117677827Y-55899410D01*
X117628428Y-55895665D01*
X117590473Y-55880312D01*
X117553429Y-55844424D01*
X117506765Y-55779075D01*
X117471241Y-55724311D01*
X117402721Y-55622973D01*
X117328463Y-55521782D01*
X117264136Y-55442059D01*
X117262123Y-55439766D01*
X117164246Y-55328829D01*
X117169961Y-55721496D01*
X117175675Y-56114163D01*
X117478221Y-56350737D01*
X117603375Y-56445803D01*
X117702495Y-56515257D01*
X117771675Y-56556553D01*
X117807008Y-56567142D01*
X117808752Y-56566256D01*
X117841426Y-56541867D01*
X117903036Y-56496030D01*
X117981681Y-56437598D01*
X118002002Y-56422510D01*
X118099037Y-56347403D01*
X118196420Y-56267049D01*
X118273522Y-56198483D01*
X118275325Y-56196768D01*
X118383383Y-56093717D01*
X118383383Y-54607896D01*
X118091445Y-54332727D01*
X117990262Y-54238768D01*
X117901078Y-54158605D01*
X117830760Y-54098204D01*
X117786176Y-54063531D01*
X117774703Y-54057558D01*
X117748282Y-54073886D01*
X117691637Y-54118936D01*
X117611787Y-54186806D01*
X117515751Y-54271593D01*
X117457230Y-54324525D01*
X117346104Y-54426544D01*
X117267314Y-54501649D01*
X117215297Y-54556830D01*
X117184489Y-54599077D01*
X117169329Y-54635379D01*
X117164252Y-54672727D01*
X117163761Y-54693268D01*
X116393820Y-54693268D01*
X116109488Y-54545256D01*
X115793545Y-54415587D01*
X115465375Y-54314119D01*
X115323669Y-54280498D01*
X115175166Y-54257373D01*
X114990853Y-54242120D01*
X114785155Y-54234721D01*
X114572499Y-54235155D01*
X114367309Y-54243401D01*
X114184011Y-54259442D01*
X114041529Y-54282263D01*
X113633529Y-54396139D01*
X113248615Y-54554438D01*
X112889103Y-54755867D01*
X112557307Y-54999132D01*
X112261518Y-55276610D01*
X112000717Y-55588180D01*
X111782599Y-55924704D01*
X111608087Y-56282117D01*
X111478108Y-56656352D01*
X111393586Y-57043346D01*
X111355446Y-57439032D01*
X111000755Y-57439032D01*
X111012409Y-57204828D01*
X111043097Y-56949088D01*
X111056773Y-56873097D01*
X111162517Y-56452272D01*
X111308344Y-56061357D01*
X111496296Y-55696517D01*
X111728415Y-55353916D01*
X112006744Y-55029720D01*
X112076291Y-54958574D01*
X112388911Y-54674226D01*
X112713397Y-54436600D01*
X113056671Y-54241841D01*
X113425657Y-54086090D01*
X113827280Y-53965491D01*
X113883083Y-53951997D01*
X114122882Y-53908319D01*
X114393255Y-53880662D01*
X114676296Y-53869691D01*
X114954103Y-53876071D01*
X115208771Y-53900466D01*
X115221617Y-53902324D01*
X115570539Y-53973398D01*
X115924264Y-54082060D01*
X116268275Y-54222655D01*
X116588051Y-54389528D01*
X116770631Y-54505673D01*
X116853910Y-54561803D01*
X116921124Y-54604684D01*
X116961561Y-54627575D01*
X116967678Y-54629630D01*
X116980305Y-54607654D01*
X116985171Y-54559710D01*
X116990881Y-54530207D01*
X117011021Y-54494500D01*
X117050332Y-54447602D01*
X117113554Y-54384530D01*
X117205427Y-54300297D01*
X117330693Y-54189918D01*
X117365933Y-54159260D01*
X117483657Y-54058006D01*
X117588980Y-53969292D01*
X117675698Y-53898192D01*
X117737610Y-53849777D01*
X117768511Y-53829120D01*
X117770112Y-53828729D01*
X117795744Y-53844649D01*
G36*
X152911111Y-62003003D02*
X143096896Y-62003003D01*
X143096896Y-61799735D01*
X143300300Y-61799735D01*
X152720420Y-61786887D01*
X152720420Y-57083184D01*
X143300300Y-57070336D01*
X143300300Y-61799735D01*
X143096896Y-61799735D01*
X143096896Y-56917918D01*
X152911111Y-56917918D01*
X152911111Y-62003003D01*
X152911111Y-62003003D01*
G37*
X152911111Y-62003003D02*
X143096896Y-62003003D01*
X143096896Y-61799735D01*
X143300300Y-61799735D01*
X152720420Y-61786887D01*
X152720420Y-57083184D01*
X143300300Y-57070336D01*
X143300300Y-61799735D01*
X143096896Y-61799735D01*
X143096896Y-56917918D01*
X152911111Y-56917918D01*
X152911111Y-62003003D01*
G36*
X141901902Y-62994595D02*
X135596396Y-62994595D01*
X135596396Y-56587388D01*
X135799799Y-56587388D01*
X135799799Y-62791192D01*
X141698498Y-62791192D01*
X141698498Y-56587388D01*
X135799799Y-56587388D01*
X135596396Y-56587388D01*
X135596396Y-56409410D01*
X141901902Y-56409410D01*
X141901902Y-62994595D01*
X141901902Y-62994595D01*
G37*
X141901902Y-62994595D02*
X135596396Y-62994595D01*
X135596396Y-56587388D01*
X135799799Y-56587388D01*
X135799799Y-62791192D01*
X141698498Y-62791192D01*
X141698498Y-56587388D01*
X135799799Y-56587388D01*
X135596396Y-56587388D01*
X135596396Y-56409410D01*
X141901902Y-56409410D01*
X141901902Y-62994595D01*
G36*
X168205487Y-55646250D02*
X168206731Y-55719746D01*
X168207934Y-55839326D01*
X168209092Y-56002607D01*
X168210197Y-56207206D01*
X168211244Y-56450739D01*
X168212226Y-56730824D01*
X168213139Y-57045077D01*
X168213975Y-57391115D01*
X168214729Y-57766554D01*
X168215395Y-58169011D01*
X168215967Y-58596103D01*
X168216439Y-59045447D01*
X168216805Y-59514659D01*
X168217059Y-60001357D01*
X168217194Y-60503156D01*
X168217217Y-60808008D01*
X168217217Y-65994795D01*
X167937537Y-65994795D01*
X167938451Y-55786487D01*
X168064826Y-55703854D01*
X168134283Y-55659760D01*
X168185372Y-55629780D01*
X168204209Y-55621222D01*
X168205487Y-55646250D01*
X168205487Y-55646250D01*
G37*
X168205487Y-55646250D02*
X168206731Y-55719746D01*
X168207934Y-55839326D01*
X168209092Y-56002607D01*
X168210197Y-56207206D01*
X168211244Y-56450739D01*
X168212226Y-56730824D01*
X168213139Y-57045077D01*
X168213975Y-57391115D01*
X168214729Y-57766554D01*
X168215395Y-58169011D01*
X168215967Y-58596103D01*
X168216439Y-59045447D01*
X168216805Y-59514659D01*
X168217059Y-60001357D01*
X168217194Y-60503156D01*
X168217217Y-60808008D01*
X168217217Y-65994795D01*
X167937537Y-65994795D01*
X167938451Y-55786487D01*
X168064826Y-55703854D01*
X168134283Y-55659760D01*
X168185372Y-55629780D01*
X168204209Y-55621222D01*
X168205487Y-55646250D01*
G36*
X109967567Y-62204799D02*
X109967567Y-63129447D01*
X109967213Y-63346647D01*
X109966199Y-63604844D01*
X109964597Y-63894188D01*
X109962480Y-64204829D01*
X109959919Y-64526918D01*
X109956987Y-64850606D01*
X109953755Y-65166044D01*
X109950694Y-65431251D01*
X109933821Y-66808409D01*
X107323323Y-66808409D01*
X107323323Y-66503304D01*
X109662197Y-66503304D01*
X109668686Y-64159810D01*
X109675175Y-61816315D01*
X109967567Y-62204799D01*
X109967567Y-62204799D01*
G37*
X109967567Y-62204799D02*
X109967567Y-63129447D01*
X109967213Y-63346647D01*
X109966199Y-63604844D01*
X109964597Y-63894188D01*
X109962480Y-64204829D01*
X109959919Y-64526918D01*
X109956987Y-64850606D01*
X109953755Y-65166044D01*
X109950694Y-65431251D01*
X109933821Y-66808409D01*
X107323323Y-66808409D01*
X107323323Y-66503304D01*
X109662197Y-66503304D01*
X109668686Y-64159810D01*
X109675175Y-61816315D01*
X109967567Y-62204799D01*
G36*
X152911111Y-68003404D02*
X143096896Y-68003404D01*
X143096896Y-63096297D01*
X143300300Y-63096297D01*
X143300300Y-67800135D01*
X148010360Y-67793711D01*
X152720420Y-67787288D01*
X152726909Y-65441792D01*
X152733397Y-63096297D01*
X143300300Y-63096297D01*
X143096896Y-63096297D01*
X143096896Y-62918319D01*
X152911111Y-62918319D01*
X152911111Y-68003404D01*
X152911111Y-68003404D01*
G37*
X152911111Y-68003404D02*
X143096896Y-68003404D01*
X143096896Y-63096297D01*
X143300300Y-63096297D01*
X143300300Y-67800135D01*
X148010360Y-67793711D01*
X152720420Y-67787288D01*
X152726909Y-65441792D01*
X152733397Y-63096297D01*
X143300300Y-63096297D01*
X143096896Y-63096297D01*
X143096896Y-62918319D01*
X152911111Y-62918319D01*
X152911111Y-68003404D01*
G36*
X141901902Y-68003404D02*
X135596396Y-68003404D01*
X135596396Y-64087888D01*
X135799799Y-64087888D01*
X135799799Y-67800000D01*
X141698498Y-67800000D01*
X141698498Y-64087888D01*
X135799799Y-64087888D01*
X135596396Y-64087888D01*
X135596396Y-63909910D01*
X141901902Y-63909910D01*
X141901902Y-68003404D01*
X141901902Y-68003404D01*
G37*
X141901902Y-68003404D02*
X135596396Y-68003404D01*
X135596396Y-64087888D01*
X135799799Y-64087888D01*
X135799799Y-67800000D01*
X141698498Y-67800000D01*
X141698498Y-64087888D01*
X135799799Y-64087888D01*
X135596396Y-64087888D01*
X135596396Y-63909910D01*
X141901902Y-63909910D01*
X141901902Y-68003404D01*
G36*
X134375976Y-68003404D02*
X124485485Y-68003404D01*
X124485485Y-54578779D01*
X124688888Y-54578779D01*
X124688888Y-67800000D01*
X134197998Y-67800000D01*
X134197998Y-54578779D01*
X124688888Y-54578779D01*
X124485485Y-54578779D01*
X124485485Y-54400801D01*
X134375976Y-54400801D01*
X134375976Y-68003404D01*
X134375976Y-68003404D01*
G37*
X134375976Y-68003404D02*
X124485485Y-68003404D01*
X124485485Y-54578779D01*
X124688888Y-54578779D01*
X124688888Y-67800000D01*
X134197998Y-67800000D01*
X134197998Y-54578779D01*
X124688888Y-54578779D01*
X124485485Y-54578779D01*
X124485485Y-54400801D01*
X134375976Y-54400801D01*
X134375976Y-68003404D01*
G36*
X114601351Y-64531901D02*
X114625044Y-64534354D01*
X114665565Y-64538143D01*
X114724509Y-64543398D01*
X114803474Y-64550251D01*
X114904056Y-64558833D01*
X115027853Y-64569277D01*
X115176461Y-64581711D01*
X115351476Y-64596269D01*
X115554497Y-64613081D01*
X115787120Y-64632279D01*
X116050940Y-64653994D01*
X116347557Y-64678357D01*
X116678565Y-64705499D01*
X117045563Y-64735551D01*
X117450147Y-64768646D01*
X117893913Y-64804914D01*
X118378459Y-64844486D01*
X118905382Y-64887493D01*
X119476278Y-64934068D01*
X120092744Y-64984341D01*
X120756377Y-65038443D01*
X121468774Y-65096506D01*
X121618981Y-65108747D01*
X122960385Y-65218060D01*
X122953816Y-66616916D01*
X122947247Y-68015771D01*
X119387687Y-69241297D01*
X118964845Y-69386874D01*
X118547143Y-69530674D01*
X118137926Y-69671546D01*
X117740536Y-69808340D01*
X117358317Y-69939904D01*
X116994613Y-70065088D01*
X116652767Y-70182741D01*
X116336124Y-70291712D01*
X116048027Y-70390851D01*
X115791819Y-70479007D01*
X115570844Y-70555029D01*
X115388445Y-70617767D01*
X115247967Y-70666069D01*
X115164623Y-70694709D01*
X114501118Y-70922595D01*
X114484571Y-70486373D01*
X114482315Y-70401159D01*
X114480149Y-70269081D01*
X114478093Y-70094121D01*
X114476167Y-69880266D01*
X114474393Y-69631501D01*
X114472790Y-69351811D01*
X114471380Y-69045181D01*
X114470184Y-68715595D01*
X114469222Y-68367040D01*
X114468514Y-68003501D01*
X114468082Y-67628961D01*
X114467945Y-67283306D01*
X114467875Y-64799800D01*
X114671271Y-64799800D01*
X114671271Y-67647448D01*
X114671384Y-68023377D01*
X114671714Y-68384789D01*
X114672245Y-68728468D01*
X114672964Y-69051198D01*
X114673855Y-69349762D01*
X114674905Y-69620943D01*
X114676097Y-69861525D01*
X114677419Y-70068292D01*
X114678855Y-70238027D01*
X114680390Y-70367514D01*
X114682010Y-70453536D01*
X114683701Y-70492877D01*
X114684213Y-70495096D01*
X114709454Y-70487461D01*
X114780516Y-70465110D01*
X114894801Y-70428872D01*
X115049714Y-70379579D01*
X115242659Y-70318060D01*
X115471040Y-70245146D01*
X115732260Y-70161666D01*
X116023724Y-70068450D01*
X116342835Y-69966330D01*
X116686997Y-69856134D01*
X117053614Y-69738694D01*
X117440091Y-69614838D01*
X117843830Y-69485399D01*
X118262237Y-69351204D01*
X118504383Y-69273518D01*
X118934113Y-69135625D01*
X119353163Y-69001137D01*
X119758732Y-68870955D01*
X120148018Y-68745978D01*
X120518219Y-68627107D01*
X120866534Y-68515241D01*
X121190160Y-68411282D01*
X121486295Y-68316130D01*
X121752137Y-68230684D01*
X121984885Y-68155845D01*
X122181736Y-68092513D01*
X122339890Y-68041588D01*
X122456542Y-68003972D01*
X122528893Y-67980563D01*
X122546796Y-67974725D01*
X122781982Y-67897509D01*
X122781982Y-66641047D01*
X122781796Y-66350506D01*
X122781165Y-66106940D01*
X122779981Y-65906476D01*
X122778134Y-65745237D01*
X122775515Y-65619351D01*
X122772016Y-65524943D01*
X122767528Y-65458138D01*
X122761940Y-65415061D01*
X122755145Y-65391839D01*
X122747034Y-65384597D01*
X122746634Y-65384585D01*
X122734176Y-65384031D01*
X122706018Y-65382280D01*
X122660347Y-65379198D01*
X122595355Y-65374651D01*
X122509229Y-65368506D01*
X122400160Y-65360629D01*
X122266337Y-65350886D01*
X122105949Y-65339144D01*
X121917185Y-65325269D01*
X121698235Y-65309127D01*
X121447289Y-65290585D01*
X121162534Y-65269508D01*
X120842162Y-65245764D01*
X120484361Y-65219218D01*
X120087321Y-65189736D01*
X119649231Y-65157186D01*
X119168280Y-65121433D01*
X118642657Y-65082344D01*
X118070553Y-65039784D01*
X117450156Y-64993621D01*
X117231137Y-64977322D01*
X116885830Y-64951692D01*
X116553686Y-64927171D01*
X116238377Y-64904023D01*
X115943576Y-64882511D01*
X115672955Y-64862900D01*
X115430186Y-64845452D01*
X115218942Y-64830431D01*
X115042894Y-64818101D01*
X114905716Y-64808726D01*
X114811078Y-64802570D01*
X114762654Y-64799895D01*
X114758515Y-64799800D01*
X114671271Y-64799800D01*
X114467875Y-64799800D01*
X114467867Y-64516462D01*
X114601351Y-64531901D01*
X114601351Y-64531901D01*
G37*
X114601351Y-64531901D02*
X114625044Y-64534354D01*
X114665565Y-64538143D01*
X114724509Y-64543398D01*
X114803474Y-64550251D01*
X114904056Y-64558833D01*
X115027853Y-64569277D01*
X115176461Y-64581711D01*
X115351476Y-64596269D01*
X115554497Y-64613081D01*
X115787120Y-64632279D01*
X116050940Y-64653994D01*
X116347557Y-64678357D01*
X116678565Y-64705499D01*
X117045563Y-64735551D01*
X117450147Y-64768646D01*
X117893913Y-64804914D01*
X118378459Y-64844486D01*
X118905382Y-64887493D01*
X119476278Y-64934068D01*
X120092744Y-64984341D01*
X120756377Y-65038443D01*
X121468774Y-65096506D01*
X121618981Y-65108747D01*
X122960385Y-65218060D01*
X122953816Y-66616916D01*
X122947247Y-68015771D01*
X119387687Y-69241297D01*
X118964845Y-69386874D01*
X118547143Y-69530674D01*
X118137926Y-69671546D01*
X117740536Y-69808340D01*
X117358317Y-69939904D01*
X116994613Y-70065088D01*
X116652767Y-70182741D01*
X116336124Y-70291712D01*
X116048027Y-70390851D01*
X115791819Y-70479007D01*
X115570844Y-70555029D01*
X115388445Y-70617767D01*
X115247967Y-70666069D01*
X115164623Y-70694709D01*
X114501118Y-70922595D01*
X114484571Y-70486373D01*
X114482315Y-70401159D01*
X114480149Y-70269081D01*
X114478093Y-70094121D01*
X114476167Y-69880266D01*
X114474393Y-69631501D01*
X114472790Y-69351811D01*
X114471380Y-69045181D01*
X114470184Y-68715595D01*
X114469222Y-68367040D01*
X114468514Y-68003501D01*
X114468082Y-67628961D01*
X114467945Y-67283306D01*
X114467875Y-64799800D01*
X114671271Y-64799800D01*
X114671271Y-67647448D01*
X114671384Y-68023377D01*
X114671714Y-68384789D01*
X114672245Y-68728468D01*
X114672964Y-69051198D01*
X114673855Y-69349762D01*
X114674905Y-69620943D01*
X114676097Y-69861525D01*
X114677419Y-70068292D01*
X114678855Y-70238027D01*
X114680390Y-70367514D01*
X114682010Y-70453536D01*
X114683701Y-70492877D01*
X114684213Y-70495096D01*
X114709454Y-70487461D01*
X114780516Y-70465110D01*
X114894801Y-70428872D01*
X115049714Y-70379579D01*
X115242659Y-70318060D01*
X115471040Y-70245146D01*
X115732260Y-70161666D01*
X116023724Y-70068450D01*
X116342835Y-69966330D01*
X116686997Y-69856134D01*
X117053614Y-69738694D01*
X117440091Y-69614838D01*
X117843830Y-69485399D01*
X118262237Y-69351204D01*
X118504383Y-69273518D01*
X118934113Y-69135625D01*
X119353163Y-69001137D01*
X119758732Y-68870955D01*
X120148018Y-68745978D01*
X120518219Y-68627107D01*
X120866534Y-68515241D01*
X121190160Y-68411282D01*
X121486295Y-68316130D01*
X121752137Y-68230684D01*
X121984885Y-68155845D01*
X122181736Y-68092513D01*
X122339890Y-68041588D01*
X122456542Y-68003972D01*
X122528893Y-67980563D01*
X122546796Y-67974725D01*
X122781982Y-67897509D01*
X122781982Y-66641047D01*
X122781796Y-66350506D01*
X122781165Y-66106940D01*
X122779981Y-65906476D01*
X122778134Y-65745237D01*
X122775515Y-65619351D01*
X122772016Y-65524943D01*
X122767528Y-65458138D01*
X122761940Y-65415061D01*
X122755145Y-65391839D01*
X122747034Y-65384597D01*
X122746634Y-65384585D01*
X122734176Y-65384031D01*
X122706018Y-65382280D01*
X122660347Y-65379198D01*
X122595355Y-65374651D01*
X122509229Y-65368506D01*
X122400160Y-65360629D01*
X122266337Y-65350886D01*
X122105949Y-65339144D01*
X121917185Y-65325269D01*
X121698235Y-65309127D01*
X121447289Y-65290585D01*
X121162534Y-65269508D01*
X120842162Y-65245764D01*
X120484361Y-65219218D01*
X120087321Y-65189736D01*
X119649231Y-65157186D01*
X119168280Y-65121433D01*
X118642657Y-65082344D01*
X118070553Y-65039784D01*
X117450156Y-64993621D01*
X117231137Y-64977322D01*
X116885830Y-64951692D01*
X116553686Y-64927171D01*
X116238377Y-64904023D01*
X115943576Y-64882511D01*
X115672955Y-64862900D01*
X115430186Y-64845452D01*
X115218942Y-64830431D01*
X115042894Y-64818101D01*
X114905716Y-64808726D01*
X114811078Y-64802570D01*
X114762654Y-64799895D01*
X114758515Y-64799800D01*
X114671271Y-64799800D01*
X114467875Y-64799800D01*
X114467867Y-64516462D01*
X114601351Y-64531901D01*
G36*
X163120897Y-56238607D02*
X163120806Y-56312610D01*
X163120398Y-56432591D01*
X163119686Y-56596113D01*
X163118688Y-56800741D01*
X163117418Y-57044038D01*
X163115893Y-57323569D01*
X163114128Y-57636897D01*
X163112140Y-57981586D01*
X163109943Y-58355201D01*
X163107555Y-58755305D01*
X163104990Y-59179463D01*
X163102264Y-59625238D01*
X163099394Y-60090194D01*
X163096395Y-60571895D01*
X163093282Y-61067905D01*
X163090072Y-61575789D01*
X163086780Y-62093110D01*
X163083422Y-62617431D01*
X163080015Y-63146318D01*
X163076573Y-63677334D01*
X163073112Y-64208043D01*
X163069649Y-64736009D01*
X163066199Y-65258796D01*
X163062778Y-65773967D01*
X163059402Y-66279088D01*
X163056086Y-66771721D01*
X163052846Y-67249432D01*
X163049699Y-67709783D01*
X163046659Y-68150338D01*
X163043743Y-68568663D01*
X163040967Y-68962320D01*
X163038345Y-69328874D01*
X163035895Y-69665889D01*
X163033631Y-69970928D01*
X163031571Y-70241556D01*
X163029728Y-70475336D01*
X163028120Y-70669833D01*
X163026762Y-70822610D01*
X163025669Y-70931231D01*
X163024858Y-70993262D01*
X163024822Y-70995284D01*
X163017717Y-71381057D01*
X158720820Y-69745413D01*
X154423924Y-68109769D01*
X154417531Y-62533154D01*
X154614614Y-62533154D01*
X154614614Y-67995837D01*
X158600050Y-69453151D01*
X159033801Y-69611785D01*
X159455272Y-69765987D01*
X159861925Y-69914823D01*
X160251222Y-70057364D01*
X160620623Y-70192676D01*
X160967591Y-70319831D01*
X161289587Y-70437895D01*
X161584072Y-70545937D01*
X161848508Y-70643027D01*
X162080356Y-70728232D01*
X162277078Y-70800623D01*
X162436135Y-70859266D01*
X162554990Y-70903231D01*
X162631103Y-70931587D01*
X162661761Y-70943326D01*
X162718324Y-70966355D01*
X162757104Y-70973668D01*
X162781435Y-70958644D01*
X162794653Y-70914659D01*
X162800089Y-70835091D01*
X162801080Y-70713317D01*
X162801006Y-70666717D01*
X162801110Y-70614815D01*
X162801514Y-70514242D01*
X162802207Y-70367179D01*
X162803176Y-70175804D01*
X162804408Y-69942297D01*
X162805892Y-69668838D01*
X162807614Y-69357606D01*
X162809561Y-69010781D01*
X162811722Y-68630542D01*
X162814084Y-68219068D01*
X162816635Y-67778540D01*
X162819361Y-67311137D01*
X162822250Y-66819038D01*
X162825291Y-66304423D01*
X162828469Y-65769471D01*
X162831774Y-65216362D01*
X162835191Y-64647275D01*
X162838709Y-64064390D01*
X162842316Y-63469886D01*
X162842852Y-63381803D01*
X162846402Y-62789647D01*
X162849768Y-62210750D01*
X162852942Y-61647173D01*
X162855914Y-61100978D01*
X162858678Y-60574224D01*
X162861224Y-60068974D01*
X162863545Y-59587289D01*
X162865633Y-59131229D01*
X162867479Y-58702856D01*
X162869075Y-58304231D01*
X162870413Y-57937415D01*
X162871485Y-57604470D01*
X162872283Y-57307455D01*
X162872798Y-57048434D01*
X162873022Y-56829465D01*
X162872947Y-56652612D01*
X162872566Y-56519934D01*
X162871869Y-56433493D01*
X162870849Y-56395351D01*
X162870558Y-56393615D01*
X162842731Y-56392332D01*
X162769946Y-56395125D01*
X162657895Y-56401609D01*
X162512276Y-56411399D01*
X162338783Y-56424113D01*
X162143112Y-56439366D01*
X161930958Y-56456774D01*
X161919753Y-56457717D01*
X161771847Y-56470185D01*
X161577640Y-56486573D01*
X161341500Y-56506513D01*
X161067796Y-56529635D01*
X160760896Y-56555570D01*
X160425168Y-56583949D01*
X160064981Y-56614401D01*
X159684703Y-56646559D01*
X159288703Y-56680052D01*
X158881349Y-56714511D01*
X158467010Y-56749567D01*
X158050054Y-56784851D01*
X157830931Y-56803396D01*
X157435035Y-56836884D01*
X157052995Y-56869159D01*
X156687890Y-56899965D01*
X156342804Y-56929043D01*
X156020816Y-56956134D01*
X155725008Y-56980981D01*
X155458463Y-57003324D01*
X155224260Y-57022905D01*
X155025483Y-57039467D01*
X154865212Y-57052751D01*
X154746529Y-57062498D01*
X154672516Y-57068450D01*
X154646396Y-57070355D01*
X154642658Y-57079351D01*
X154639207Y-57107451D01*
X154636031Y-57156366D01*
X154633121Y-57227804D01*
X154630468Y-57323478D01*
X154628060Y-57445096D01*
X154625889Y-57594369D01*
X154623944Y-57773008D01*
X154622215Y-57982722D01*
X154620692Y-58225221D01*
X154619366Y-58502217D01*
X154618226Y-58815418D01*
X154617263Y-59166536D01*
X154616466Y-59557280D01*
X154615825Y-59989361D01*
X154615332Y-60464489D01*
X154614975Y-60984374D01*
X154614744Y-61550726D01*
X154614631Y-62165256D01*
X154614614Y-62533154D01*
X154417531Y-62533154D01*
X154417510Y-62515006D01*
X154411097Y-56920244D01*
X154493787Y-56906919D01*
X154531481Y-56902876D01*
X154615926Y-56895154D01*
X154743181Y-56884080D01*
X154909302Y-56869982D01*
X155110348Y-56853184D01*
X155342378Y-56834014D01*
X155601448Y-56812799D01*
X155883618Y-56789864D01*
X156184945Y-56765537D01*
X156501487Y-56740144D01*
X156661361Y-56727379D01*
X157044192Y-56696819D01*
X157467499Y-56662959D01*
X157921074Y-56626618D01*
X158394710Y-56588618D01*
X158878200Y-56549779D01*
X159361334Y-56510920D01*
X159833907Y-56472862D01*
X160285711Y-56436426D01*
X160706537Y-56402431D01*
X160931369Y-56384240D01*
X161259415Y-56357747D01*
X161572627Y-56332586D01*
X161867342Y-56309042D01*
X162139897Y-56287402D01*
X162386630Y-56267952D01*
X162603878Y-56250980D01*
X162787977Y-56236771D01*
X162935265Y-56225612D01*
X163042079Y-56217789D01*
X163104755Y-56213589D01*
X163120653Y-56213018D01*
X163120897Y-56238607D01*
X163120897Y-56238607D01*
G37*
X163120897Y-56238607D02*
X163120806Y-56312610D01*
X163120398Y-56432591D01*
X163119686Y-56596113D01*
X163118688Y-56800741D01*
X163117418Y-57044038D01*
X163115893Y-57323569D01*
X163114128Y-57636897D01*
X163112140Y-57981586D01*
X163109943Y-58355201D01*
X163107555Y-58755305D01*
X163104990Y-59179463D01*
X163102264Y-59625238D01*
X163099394Y-60090194D01*
X163096395Y-60571895D01*
X163093282Y-61067905D01*
X163090072Y-61575789D01*
X163086780Y-62093110D01*
X163083422Y-62617431D01*
X163080015Y-63146318D01*
X163076573Y-63677334D01*
X163073112Y-64208043D01*
X163069649Y-64736009D01*
X163066199Y-65258796D01*
X163062778Y-65773967D01*
X163059402Y-66279088D01*
X163056086Y-66771721D01*
X163052846Y-67249432D01*
X163049699Y-67709783D01*
X163046659Y-68150338D01*
X163043743Y-68568663D01*
X163040967Y-68962320D01*
X163038345Y-69328874D01*
X163035895Y-69665889D01*
X163033631Y-69970928D01*
X163031571Y-70241556D01*
X163029728Y-70475336D01*
X163028120Y-70669833D01*
X163026762Y-70822610D01*
X163025669Y-70931231D01*
X163024858Y-70993262D01*
X163024822Y-70995284D01*
X163017717Y-71381057D01*
X158720820Y-69745413D01*
X154423924Y-68109769D01*
X154417531Y-62533154D01*
X154614614Y-62533154D01*
X154614614Y-67995837D01*
X158600050Y-69453151D01*
X159033801Y-69611785D01*
X159455272Y-69765987D01*
X159861925Y-69914823D01*
X160251222Y-70057364D01*
X160620623Y-70192676D01*
X160967591Y-70319831D01*
X161289587Y-70437895D01*
X161584072Y-70545937D01*
X161848508Y-70643027D01*
X162080356Y-70728232D01*
X162277078Y-70800623D01*
X162436135Y-70859266D01*
X162554990Y-70903231D01*
X162631103Y-70931587D01*
X162661761Y-70943326D01*
X162718324Y-70966355D01*
X162757104Y-70973668D01*
X162781435Y-70958644D01*
X162794653Y-70914659D01*
X162800089Y-70835091D01*
X162801080Y-70713317D01*
X162801006Y-70666717D01*
X162801110Y-70614815D01*
X162801514Y-70514242D01*
X162802207Y-70367179D01*
X162803176Y-70175804D01*
X162804408Y-69942297D01*
X162805892Y-69668838D01*
X162807614Y-69357606D01*
X162809561Y-69010781D01*
X162811722Y-68630542D01*
X162814084Y-68219068D01*
X162816635Y-67778540D01*
X162819361Y-67311137D01*
X162822250Y-66819038D01*
X162825291Y-66304423D01*
X162828469Y-65769471D01*
X162831774Y-65216362D01*
X162835191Y-64647275D01*
X162838709Y-64064390D01*
X162842316Y-63469886D01*
X162842852Y-63381803D01*
X162846402Y-62789647D01*
X162849768Y-62210750D01*
X162852942Y-61647173D01*
X162855914Y-61100978D01*
X162858678Y-60574224D01*
X162861224Y-60068974D01*
X162863545Y-59587289D01*
X162865633Y-59131229D01*
X162867479Y-58702856D01*
X162869075Y-58304231D01*
X162870413Y-57937415D01*
X162871485Y-57604470D01*
X162872283Y-57307455D01*
X162872798Y-57048434D01*
X162873022Y-56829465D01*
X162872947Y-56652612D01*
X162872566Y-56519934D01*
X162871869Y-56433493D01*
X162870849Y-56395351D01*
X162870558Y-56393615D01*
X162842731Y-56392332D01*
X162769946Y-56395125D01*
X162657895Y-56401609D01*
X162512276Y-56411399D01*
X162338783Y-56424113D01*
X162143112Y-56439366D01*
X161930958Y-56456774D01*
X161919753Y-56457717D01*
X161771847Y-56470185D01*
X161577640Y-56486573D01*
X161341500Y-56506513D01*
X161067796Y-56529635D01*
X160760896Y-56555570D01*
X160425168Y-56583949D01*
X160064981Y-56614401D01*
X159684703Y-56646559D01*
X159288703Y-56680052D01*
X158881349Y-56714511D01*
X158467010Y-56749567D01*
X158050054Y-56784851D01*
X157830931Y-56803396D01*
X157435035Y-56836884D01*
X157052995Y-56869159D01*
X156687890Y-56899965D01*
X156342804Y-56929043D01*
X156020816Y-56956134D01*
X155725008Y-56980981D01*
X155458463Y-57003324D01*
X155224260Y-57022905D01*
X155025483Y-57039467D01*
X154865212Y-57052751D01*
X154746529Y-57062498D01*
X154672516Y-57068450D01*
X154646396Y-57070355D01*
X154642658Y-57079351D01*
X154639207Y-57107451D01*
X154636031Y-57156366D01*
X154633121Y-57227804D01*
X154630468Y-57323478D01*
X154628060Y-57445096D01*
X154625889Y-57594369D01*
X154623944Y-57773008D01*
X154622215Y-57982722D01*
X154620692Y-58225221D01*
X154619366Y-58502217D01*
X154618226Y-58815418D01*
X154617263Y-59166536D01*
X154616466Y-59557280D01*
X154615825Y-59989361D01*
X154615332Y-60464489D01*
X154614975Y-60984374D01*
X154614744Y-61550726D01*
X154614631Y-62165256D01*
X154614614Y-62533154D01*
X154417531Y-62533154D01*
X154417510Y-62515006D01*
X154411097Y-56920244D01*
X154493787Y-56906919D01*
X154531481Y-56902876D01*
X154615926Y-56895154D01*
X154743181Y-56884080D01*
X154909302Y-56869982D01*
X155110348Y-56853184D01*
X155342378Y-56834014D01*
X155601448Y-56812799D01*
X155883618Y-56789864D01*
X156184945Y-56765537D01*
X156501487Y-56740144D01*
X156661361Y-56727379D01*
X157044192Y-56696819D01*
X157467499Y-56662959D01*
X157921074Y-56626618D01*
X158394710Y-56588618D01*
X158878200Y-56549779D01*
X159361334Y-56510920D01*
X159833907Y-56472862D01*
X160285711Y-56436426D01*
X160706537Y-56402431D01*
X160931369Y-56384240D01*
X161259415Y-56357747D01*
X161572627Y-56332586D01*
X161867342Y-56309042D01*
X162139897Y-56287402D01*
X162386630Y-56267952D01*
X162603878Y-56250980D01*
X162787977Y-56236771D01*
X162935265Y-56225612D01*
X163042079Y-56217789D01*
X163104755Y-56213589D01*
X163120653Y-56213018D01*
X163120897Y-56238607D01*
G36*
X153012812Y-77995596D02*
X150521121Y-77995596D01*
X150521121Y-76393794D01*
X153012812Y-76393794D01*
X153012812Y-77995596D01*
X153012812Y-77995596D01*
G37*
X153012812Y-77995596D02*
X150521121Y-77995596D01*
X150521121Y-76393794D01*
X153012812Y-76393794D01*
X153012812Y-77995596D01*
G36*
X126977177Y-77995596D02*
X124485485Y-77995596D01*
X124485485Y-76393794D01*
X126977177Y-76393794D01*
X126977177Y-77995596D01*
X126977177Y-77995596D01*
G37*
X126977177Y-77995596D02*
X124485485Y-77995596D01*
X124485485Y-76393794D01*
X126977177Y-76393794D01*
X126977177Y-77995596D01*
G36*
X170276676Y-67494895D02*
X168140941Y-67494895D01*
X168140941Y-78809210D01*
X170276676Y-78809210D01*
X170276676Y-79088889D01*
X167530625Y-79088889D01*
X167537034Y-73043994D01*
X167543443Y-66999100D01*
X168910060Y-66992522D01*
X170276676Y-66985945D01*
X170276676Y-67494895D01*
X170276676Y-67494895D01*
G37*
X170276676Y-67494895D02*
X168140941Y-67494895D01*
X168140941Y-78809210D01*
X170276676Y-78809210D01*
X170276676Y-79088889D01*
X167530625Y-79088889D01*
X167537034Y-73043994D01*
X167543443Y-66999100D01*
X168910060Y-66992522D01*
X170276676Y-66985945D01*
X170276676Y-67494895D01*
G36*
X161935148Y-80879499D02*
X162101675Y-80909256D01*
X162222361Y-80950463D01*
X162408701Y-81063812D01*
X162568300Y-81216075D01*
X162694841Y-81399598D01*
X162782010Y-81606726D01*
X162791560Y-81640336D01*
X162817166Y-81788960D01*
X162826225Y-81967258D01*
X162819098Y-82156946D01*
X162796143Y-82339741D01*
X162775918Y-82434622D01*
X162684594Y-82712622D01*
X162557816Y-82977131D01*
X162400155Y-83224714D01*
X162216185Y-83451936D01*
X162010480Y-83655360D01*
X161787612Y-83831551D01*
X161552155Y-83977072D01*
X161308683Y-84088488D01*
X161061768Y-84162363D01*
X160815984Y-84195261D01*
X160575905Y-84183746D01*
X160474121Y-84163934D01*
X160258209Y-84086858D01*
X160071165Y-83969214D01*
X159916026Y-83814239D01*
X159795829Y-83625167D01*
X159713611Y-83405234D01*
X159697398Y-83336588D01*
X159682068Y-83208875D01*
X159679580Y-83050423D01*
X159688991Y-82879438D01*
X159709357Y-82714127D01*
X159736369Y-82584885D01*
X159828209Y-82322796D01*
X159961138Y-82057892D01*
X160127723Y-81802579D01*
X160320534Y-81569263D01*
X160383982Y-81503823D01*
X160644648Y-81277233D01*
X160922369Y-81096570D01*
X161214672Y-80963287D01*
X161403353Y-80904773D01*
X161569294Y-80876326D01*
X161752123Y-80868212D01*
X161935148Y-80879499D01*
X161935148Y-80879499D01*
G37*
X161935148Y-80879499D02*
X162101675Y-80909256D01*
X162222361Y-80950463D01*
X162408701Y-81063812D01*
X162568300Y-81216075D01*
X162694841Y-81399598D01*
X162782010Y-81606726D01*
X162791560Y-81640336D01*
X162817166Y-81788960D01*
X162826225Y-81967258D01*
X162819098Y-82156946D01*
X162796143Y-82339741D01*
X162775918Y-82434622D01*
X162684594Y-82712622D01*
X162557816Y-82977131D01*
X162400155Y-83224714D01*
X162216185Y-83451936D01*
X162010480Y-83655360D01*
X161787612Y-83831551D01*
X161552155Y-83977072D01*
X161308683Y-84088488D01*
X161061768Y-84162363D01*
X160815984Y-84195261D01*
X160575905Y-84183746D01*
X160474121Y-84163934D01*
X160258209Y-84086858D01*
X160071165Y-83969214D01*
X159916026Y-83814239D01*
X159795829Y-83625167D01*
X159713611Y-83405234D01*
X159697398Y-83336588D01*
X159682068Y-83208875D01*
X159679580Y-83050423D01*
X159688991Y-82879438D01*
X159709357Y-82714127D01*
X159736369Y-82584885D01*
X159828209Y-82322796D01*
X159961138Y-82057892D01*
X160127723Y-81802579D01*
X160320534Y-81569263D01*
X160383982Y-81503823D01*
X160644648Y-81277233D01*
X160922369Y-81096570D01*
X161214672Y-80963287D01*
X161403353Y-80904773D01*
X161569294Y-80876326D01*
X161752123Y-80868212D01*
X161935148Y-80879499D01*
G36*
X116012080Y-80886397D02*
X116290102Y-80948943D01*
X116560571Y-81060836D01*
X116824346Y-81222460D01*
X117082284Y-81434200D01*
X117171546Y-81520425D01*
X117394443Y-81774943D01*
X117576559Y-82048079D01*
X117715623Y-82334808D01*
X117809361Y-82630102D01*
X117855500Y-82928939D01*
X117860081Y-83042543D01*
X117841805Y-83300293D01*
X117783397Y-83530328D01*
X117686144Y-83730556D01*
X117551330Y-83898889D01*
X117380240Y-84033236D01*
X117195566Y-84123643D01*
X117037416Y-84166011D01*
X116853542Y-84187714D01*
X116665193Y-84187558D01*
X116493621Y-84164348D01*
X116489189Y-84163337D01*
X116183048Y-84067001D01*
X115893519Y-83925393D01*
X115624809Y-83742559D01*
X115381126Y-83522540D01*
X115166679Y-83269382D01*
X114985676Y-82987128D01*
X114842326Y-82679822D01*
X114789993Y-82530544D01*
X114725050Y-82257481D01*
X114703657Y-81992541D01*
X114725641Y-81741429D01*
X114790834Y-81509854D01*
X114822678Y-81436861D01*
X114922099Y-81264739D01*
X115040965Y-81130660D01*
X115191347Y-81022353D01*
X115274183Y-80977930D01*
X115368746Y-80933163D01*
X115445290Y-80904340D01*
X115521596Y-80887319D01*
X115615447Y-80877960D01*
X115725646Y-80872813D01*
X116012080Y-80886397D01*
X116012080Y-80886397D01*
G37*
X116012080Y-80886397D02*
X116290102Y-80948943D01*
X116560571Y-81060836D01*
X116824346Y-81222460D01*
X117082284Y-81434200D01*
X117171546Y-81520425D01*
X117394443Y-81774943D01*
X117576559Y-82048079D01*
X117715623Y-82334808D01*
X117809361Y-82630102D01*
X117855500Y-82928939D01*
X117860081Y-83042543D01*
X117841805Y-83300293D01*
X117783397Y-83530328D01*
X117686144Y-83730556D01*
X117551330Y-83898889D01*
X117380240Y-84033236D01*
X117195566Y-84123643D01*
X117037416Y-84166011D01*
X116853542Y-84187714D01*
X116665193Y-84187558D01*
X116493621Y-84164348D01*
X116489189Y-84163337D01*
X116183048Y-84067001D01*
X115893519Y-83925393D01*
X115624809Y-83742559D01*
X115381126Y-83522540D01*
X115166679Y-83269382D01*
X114985676Y-82987128D01*
X114842326Y-82679822D01*
X114789993Y-82530544D01*
X114725050Y-82257481D01*
X114703657Y-81992541D01*
X114725641Y-81741429D01*
X114790834Y-81509854D01*
X114822678Y-81436861D01*
X114922099Y-81264739D01*
X115040965Y-81130660D01*
X115191347Y-81022353D01*
X115274183Y-80977930D01*
X115368746Y-80933163D01*
X115445290Y-80904340D01*
X115521596Y-80887319D01*
X115615447Y-80877960D01*
X115725646Y-80872813D01*
X116012080Y-80886397D01*
G36*
X142029029Y-86513114D02*
X141723924Y-86513114D01*
X141723924Y-86083995D01*
X141722741Y-85909624D01*
X141718335Y-85780468D01*
X141709415Y-85690928D01*
X141694694Y-85635404D01*
X141672882Y-85608297D01*
X141642691Y-85604009D01*
X141615237Y-85611831D01*
X141591103Y-85626995D01*
X141573264Y-85655870D01*
X141560802Y-85705289D01*
X141552799Y-85782086D01*
X141548339Y-85893094D01*
X141546504Y-86045145D01*
X141546293Y-86125376D01*
X141545946Y-86513114D01*
X141240840Y-86513114D01*
X141240840Y-85394395D01*
X142029029Y-85394395D01*
X142029029Y-86513114D01*
X142029029Y-86513114D01*
G37*
X142029029Y-86513114D02*
X141723924Y-86513114D01*
X141723924Y-86083995D01*
X141722741Y-85909624D01*
X141718335Y-85780468D01*
X141709415Y-85690928D01*
X141694694Y-85635404D01*
X141672882Y-85608297D01*
X141642691Y-85604009D01*
X141615237Y-85611831D01*
X141591103Y-85626995D01*
X141573264Y-85655870D01*
X141560802Y-85705289D01*
X141552799Y-85782086D01*
X141548339Y-85893094D01*
X141546504Y-86045145D01*
X141546293Y-86125376D01*
X141545946Y-86513114D01*
X141240840Y-86513114D01*
X141240840Y-85394395D01*
X142029029Y-85394395D01*
X142029029Y-86513114D01*
G36*
X141062862Y-86513114D02*
X140274674Y-86513114D01*
X140274674Y-85967166D01*
X140580127Y-85967166D01*
X140583197Y-86097368D01*
X140593706Y-86186210D01*
X140612904Y-86242806D01*
X140619359Y-86253202D01*
X140660608Y-86300202D01*
X140695774Y-86303768D01*
X140727247Y-86279200D01*
X140742198Y-86239017D01*
X140752503Y-86161546D01*
X140758246Y-86059487D01*
X140759514Y-85945544D01*
X140756391Y-85832417D01*
X140748964Y-85732811D01*
X140737318Y-85659426D01*
X140722842Y-85625898D01*
X140670024Y-85608248D01*
X140621450Y-85633315D01*
X140595345Y-85682190D01*
X140588602Y-85732006D01*
X140583367Y-85817390D01*
X140580457Y-85923065D01*
X140580127Y-85967166D01*
X140274674Y-85967166D01*
X140274674Y-85394395D01*
X141062862Y-85394395D01*
X141062862Y-86513114D01*
X141062862Y-86513114D01*
G37*
X141062862Y-86513114D02*
X140274674Y-86513114D01*
X140274674Y-85967166D01*
X140580127Y-85967166D01*
X140583197Y-86097368D01*
X140593706Y-86186210D01*
X140612904Y-86242806D01*
X140619359Y-86253202D01*
X140660608Y-86300202D01*
X140695774Y-86303768D01*
X140727247Y-86279200D01*
X140742198Y-86239017D01*
X140752503Y-86161546D01*
X140758246Y-86059487D01*
X140759514Y-85945544D01*
X140756391Y-85832417D01*
X140748964Y-85732811D01*
X140737318Y-85659426D01*
X140722842Y-85625898D01*
X140670024Y-85608248D01*
X140621450Y-85633315D01*
X140595345Y-85682190D01*
X140588602Y-85732006D01*
X140583367Y-85817390D01*
X140580457Y-85923065D01*
X140580127Y-85967166D01*
X140274674Y-85967166D01*
X140274674Y-85394395D01*
X141062862Y-85394395D01*
X141062862Y-86513114D01*
G36*
X140096696Y-85724925D02*
X139944144Y-85724925D01*
X139853171Y-85721449D01*
X139804914Y-85709834D01*
X139791591Y-85689900D01*
X139773630Y-85646076D01*
X139750539Y-85620805D01*
X139716429Y-85602438D01*
X139684653Y-85619569D01*
X139661550Y-85645934D01*
X139634213Y-85708189D01*
X139616753Y-85805062D01*
X139609169Y-85921288D01*
X139611461Y-86041605D01*
X139623630Y-86150746D01*
X139645674Y-86233448D01*
X139661550Y-86261574D01*
X139699882Y-86300398D01*
X139730427Y-86300865D01*
X139750539Y-86286703D01*
X139784954Y-86241889D01*
X139787369Y-86201773D01*
X139757327Y-86182709D01*
X139753453Y-86182583D01*
X139728316Y-86167610D01*
X139716866Y-86116696D01*
X139715315Y-86068169D01*
X139715315Y-85953754D01*
X140096696Y-85953754D01*
X140096696Y-86513114D01*
X139308508Y-86513114D01*
X139308508Y-85394395D01*
X140096696Y-85394395D01*
X140096696Y-85724925D01*
X140096696Y-85724925D01*
G37*
X140096696Y-85724925D02*
X139944144Y-85724925D01*
X139853171Y-85721449D01*
X139804914Y-85709834D01*
X139791591Y-85689900D01*
X139773630Y-85646076D01*
X139750539Y-85620805D01*
X139716429Y-85602438D01*
X139684653Y-85619569D01*
X139661550Y-85645934D01*
X139634213Y-85708189D01*
X139616753Y-85805062D01*
X139609169Y-85921288D01*
X139611461Y-86041605D01*
X139623630Y-86150746D01*
X139645674Y-86233448D01*
X139661550Y-86261574D01*
X139699882Y-86300398D01*
X139730427Y-86300865D01*
X139750539Y-86286703D01*
X139784954Y-86241889D01*
X139787369Y-86201773D01*
X139757327Y-86182709D01*
X139753453Y-86182583D01*
X139728316Y-86167610D01*
X139716866Y-86116696D01*
X139715315Y-86068169D01*
X139715315Y-85953754D01*
X140096696Y-85953754D01*
X140096696Y-86513114D01*
X139308508Y-86513114D01*
X139308508Y-85394395D01*
X140096696Y-85394395D01*
X140096696Y-85724925D01*
G36*
X139130530Y-86513114D02*
X138825425Y-86513114D01*
X138825425Y-86397088D01*
X138823725Y-86326319D01*
X138812103Y-86293606D01*
X138780774Y-86286154D01*
X138742792Y-86289030D01*
X138690468Y-86298209D01*
X138665039Y-86322492D01*
X138654580Y-86377179D01*
X138652341Y-86405056D01*
X138644523Y-86513114D01*
X138342342Y-86513114D01*
X138342342Y-85876057D01*
X138647447Y-85876057D01*
X138649800Y-85965026D01*
X138655963Y-86032683D01*
X138664397Y-86063931D01*
X138699960Y-86076351D01*
X138753386Y-86080881D01*
X138825425Y-86080881D01*
X138825425Y-85867878D01*
X138822999Y-85753933D01*
X138814577Y-85680343D01*
X138798445Y-85636792D01*
X138784373Y-85620805D01*
X138750262Y-85602438D01*
X138718487Y-85619569D01*
X138695384Y-85645934D01*
X138666598Y-85697322D01*
X138651623Y-85770484D01*
X138647447Y-85876057D01*
X138342342Y-85876057D01*
X138342342Y-85394395D01*
X139130530Y-85394395D01*
X139130530Y-86513114D01*
X139130530Y-86513114D01*
G37*
X139130530Y-86513114D02*
X138825425Y-86513114D01*
X138825425Y-86397088D01*
X138823725Y-86326319D01*
X138812103Y-86293606D01*
X138780774Y-86286154D01*
X138742792Y-86289030D01*
X138690468Y-86298209D01*
X138665039Y-86322492D01*
X138654580Y-86377179D01*
X138652341Y-86405056D01*
X138644523Y-86513114D01*
X138342342Y-86513114D01*
X138342342Y-85876057D01*
X138647447Y-85876057D01*
X138649800Y-85965026D01*
X138655963Y-86032683D01*
X138664397Y-86063931D01*
X138699960Y-86076351D01*
X138753386Y-86080881D01*
X138825425Y-86080881D01*
X138825425Y-85867878D01*
X138822999Y-85753933D01*
X138814577Y-85680343D01*
X138798445Y-85636792D01*
X138784373Y-85620805D01*
X138750262Y-85602438D01*
X138718487Y-85619569D01*
X138695384Y-85645934D01*
X138666598Y-85697322D01*
X138651623Y-85770484D01*
X138647447Y-85876057D01*
X138342342Y-85876057D01*
X138342342Y-85394395D01*
X139130530Y-85394395D01*
X139130530Y-86513114D01*
G36*
X138164364Y-85610511D02*
X138163385Y-85715669D01*
X138158920Y-85779910D01*
X138148676Y-85813153D01*
X138130360Y-85825319D01*
X138114408Y-85826627D01*
X138059171Y-85846740D01*
X138027413Y-85896435D01*
X138019999Y-85959752D01*
X138037795Y-86020727D01*
X138081665Y-86063397D01*
X138101188Y-86070538D01*
X138131989Y-86080901D01*
X138150699Y-86100266D01*
X138160326Y-86139543D01*
X138163877Y-86209642D01*
X138164364Y-86299754D01*
X138164364Y-86513114D01*
X137861315Y-86513114D01*
X137853931Y-86306034D01*
X137844145Y-86179829D01*
X137823894Y-86099304D01*
X137790729Y-86059926D01*
X137742201Y-86057159D01*
X137722875Y-86063324D01*
X137701998Y-86080320D01*
X137689291Y-86118326D01*
X137682977Y-86187284D01*
X137681281Y-86296200D01*
X137681281Y-86513114D01*
X137376176Y-86513114D01*
X137376176Y-85768396D01*
X137679307Y-85768396D01*
X137690030Y-85822751D01*
X137698231Y-85835102D01*
X137745559Y-85851802D01*
X137802929Y-85838424D01*
X137832557Y-85815452D01*
X137857861Y-85755237D01*
X137851008Y-85690077D01*
X137819581Y-85634475D01*
X137771166Y-85602937D01*
X137722875Y-85605667D01*
X137698044Y-85638305D01*
X137682750Y-85699731D01*
X137679307Y-85768396D01*
X137376176Y-85768396D01*
X137376176Y-85394395D01*
X138164364Y-85394395D01*
X138164364Y-85610511D01*
X138164364Y-85610511D01*
G37*
X138164364Y-85610511D02*
X138163385Y-85715669D01*
X138158920Y-85779910D01*
X138148676Y-85813153D01*
X138130360Y-85825319D01*
X138114408Y-85826627D01*
X138059171Y-85846740D01*
X138027413Y-85896435D01*
X138019999Y-85959752D01*
X138037795Y-86020727D01*
X138081665Y-86063397D01*
X138101188Y-86070538D01*
X138131989Y-86080901D01*
X138150699Y-86100266D01*
X138160326Y-86139543D01*
X138163877Y-86209642D01*
X138164364Y-86299754D01*
X138164364Y-86513114D01*
X137861315Y-86513114D01*
X137853931Y-86306034D01*
X137844145Y-86179829D01*
X137823894Y-86099304D01*
X137790729Y-86059926D01*
X137742201Y-86057159D01*
X137722875Y-86063324D01*
X137701998Y-86080320D01*
X137689291Y-86118326D01*
X137682977Y-86187284D01*
X137681281Y-86296200D01*
X137681281Y-86513114D01*
X137376176Y-86513114D01*
X137376176Y-85768396D01*
X137679307Y-85768396D01*
X137690030Y-85822751D01*
X137698231Y-85835102D01*
X137745559Y-85851802D01*
X137802929Y-85838424D01*
X137832557Y-85815452D01*
X137857861Y-85755237D01*
X137851008Y-85690077D01*
X137819581Y-85634475D01*
X137771166Y-85602937D01*
X137722875Y-85605667D01*
X137698044Y-85638305D01*
X137682750Y-85699731D01*
X137679307Y-85768396D01*
X137376176Y-85768396D01*
X137376176Y-85394395D01*
X138164364Y-85394395D01*
X138164364Y-85610511D01*
G36*
X137198198Y-86513114D02*
X136893093Y-86513114D01*
X136893093Y-86397088D01*
X136891393Y-86326319D01*
X136879770Y-86293606D01*
X136848441Y-86286154D01*
X136810460Y-86289030D01*
X136758135Y-86298209D01*
X136732706Y-86322492D01*
X136722248Y-86377179D01*
X136720009Y-86405056D01*
X136712191Y-86513114D01*
X136410010Y-86513114D01*
X136410010Y-85876057D01*
X136715115Y-85876057D01*
X136717468Y-85965026D01*
X136723631Y-86032683D01*
X136732065Y-86063931D01*
X136767628Y-86076351D01*
X136821054Y-86080881D01*
X136893093Y-86080881D01*
X136893093Y-85867878D01*
X136890666Y-85753933D01*
X136882244Y-85680343D01*
X136866113Y-85636792D01*
X136852040Y-85620805D01*
X136817930Y-85602438D01*
X136786155Y-85619569D01*
X136763051Y-85645934D01*
X136734265Y-85697322D01*
X136719290Y-85770484D01*
X136715115Y-85876057D01*
X136410010Y-85876057D01*
X136410010Y-85394395D01*
X137198198Y-85394395D01*
X137198198Y-86513114D01*
X137198198Y-86513114D01*
G37*
X137198198Y-86513114D02*
X136893093Y-86513114D01*
X136893093Y-86397088D01*
X136891393Y-86326319D01*
X136879770Y-86293606D01*
X136848441Y-86286154D01*
X136810460Y-86289030D01*
X136758135Y-86298209D01*
X136732706Y-86322492D01*
X136722248Y-86377179D01*
X136720009Y-86405056D01*
X136712191Y-86513114D01*
X136410010Y-86513114D01*
X136410010Y-85876057D01*
X136715115Y-85876057D01*
X136717468Y-85965026D01*
X136723631Y-86032683D01*
X136732065Y-86063931D01*
X136767628Y-86076351D01*
X136821054Y-86080881D01*
X136893093Y-86080881D01*
X136893093Y-85867878D01*
X136890666Y-85753933D01*
X136882244Y-85680343D01*
X136866113Y-85636792D01*
X136852040Y-85620805D01*
X136817930Y-85602438D01*
X136786155Y-85619569D01*
X136763051Y-85645934D01*
X136734265Y-85697322D01*
X136719290Y-85770484D01*
X136715115Y-85876057D01*
X136410010Y-85876057D01*
X136410010Y-85394395D01*
X137198198Y-85394395D01*
X137198198Y-86513114D01*
G36*
X136232032Y-86053548D02*
X135996846Y-86060858D01*
X135761661Y-86068169D01*
X135754315Y-86290641D01*
X135746969Y-86513114D01*
X135443843Y-86513114D01*
X135443843Y-85768396D01*
X135746975Y-85768396D01*
X135757698Y-85822751D01*
X135765899Y-85835102D01*
X135813227Y-85851802D01*
X135870597Y-85838424D01*
X135900225Y-85815452D01*
X135925528Y-85755237D01*
X135918675Y-85690077D01*
X135887249Y-85634475D01*
X135838833Y-85602937D01*
X135790543Y-85605667D01*
X135765711Y-85638305D01*
X135750417Y-85699731D01*
X135746975Y-85768396D01*
X135443843Y-85768396D01*
X135443843Y-85394395D01*
X136232032Y-85394395D01*
X136232032Y-86053548D01*
X136232032Y-86053548D01*
G37*
X136232032Y-86053548D02*
X135996846Y-86060858D01*
X135761661Y-86068169D01*
X135754315Y-86290641D01*
X135746969Y-86513114D01*
X135443843Y-86513114D01*
X135443843Y-85768396D01*
X135746975Y-85768396D01*
X135757698Y-85822751D01*
X135765899Y-85835102D01*
X135813227Y-85851802D01*
X135870597Y-85838424D01*
X135900225Y-85815452D01*
X135925528Y-85755237D01*
X135918675Y-85690077D01*
X135887249Y-85634475D01*
X135838833Y-85602937D01*
X135790543Y-85605667D01*
X135765711Y-85638305D01*
X135750417Y-85699731D01*
X135746975Y-85768396D01*
X135443843Y-85768396D01*
X135443843Y-85394395D01*
X136232032Y-85394395D01*
X136232032Y-86053548D01*
G36*
X157695238Y-83833873D02*
X157893540Y-83896162D01*
X158071886Y-83994902D01*
X158226227Y-84129975D01*
X158352514Y-84301265D01*
X158442292Y-84495949D01*
X158489474Y-84688977D01*
X158507778Y-84908671D01*
X158497225Y-85139856D01*
X158457837Y-85367359D01*
X158441017Y-85430498D01*
X158321742Y-85753669D01*
X158159193Y-86055471D01*
X157957424Y-86331161D01*
X157720485Y-86575996D01*
X157452428Y-86785233D01*
X157157305Y-86954129D01*
X157127753Y-86968021D01*
X157016266Y-87016446D01*
X156905942Y-87059327D01*
X156815997Y-87089335D01*
X156795094Y-87094916D01*
X156666486Y-87118090D01*
X156519935Y-87132460D01*
X156374425Y-87137132D01*
X156248940Y-87131213D01*
X156195473Y-87123148D01*
X155999083Y-87059242D01*
X155814590Y-86956938D01*
X155653393Y-86824454D01*
X155526888Y-86670008D01*
X155496706Y-86619336D01*
X155411551Y-86411750D01*
X155365503Y-86176355D01*
X155359740Y-85919216D01*
X155359943Y-85915616D01*
X155381977Y-85699271D01*
X155424906Y-85503610D01*
X155494386Y-85307024D01*
X155554301Y-85173048D01*
X155672961Y-84947018D01*
X155802775Y-84750112D01*
X155956819Y-84564101D01*
X156088499Y-84428229D01*
X156313112Y-84232107D01*
X156546115Y-84073251D01*
X156783457Y-83951543D01*
X157021090Y-83866868D01*
X157254964Y-83819109D01*
X157481030Y-83808150D01*
X157695238Y-83833873D01*
X157695238Y-83833873D01*
G37*
X157695238Y-83833873D02*
X157893540Y-83896162D01*
X158071886Y-83994902D01*
X158226227Y-84129975D01*
X158352514Y-84301265D01*
X158442292Y-84495949D01*
X158489474Y-84688977D01*
X158507778Y-84908671D01*
X158497225Y-85139856D01*
X158457837Y-85367359D01*
X158441017Y-85430498D01*
X158321742Y-85753669D01*
X158159193Y-86055471D01*
X157957424Y-86331161D01*
X157720485Y-86575996D01*
X157452428Y-86785233D01*
X157157305Y-86954129D01*
X157127753Y-86968021D01*
X157016266Y-87016446D01*
X156905942Y-87059327D01*
X156815997Y-87089335D01*
X156795094Y-87094916D01*
X156666486Y-87118090D01*
X156519935Y-87132460D01*
X156374425Y-87137132D01*
X156248940Y-87131213D01*
X156195473Y-87123148D01*
X155999083Y-87059242D01*
X155814590Y-86956938D01*
X155653393Y-86824454D01*
X155526888Y-86670008D01*
X155496706Y-86619336D01*
X155411551Y-86411750D01*
X155365503Y-86176355D01*
X155359740Y-85919216D01*
X155359943Y-85915616D01*
X155381977Y-85699271D01*
X155424906Y-85503610D01*
X155494386Y-85307024D01*
X155554301Y-85173048D01*
X155672961Y-84947018D01*
X155802775Y-84750112D01*
X155956819Y-84564101D01*
X156088499Y-84428229D01*
X156313112Y-84232107D01*
X156546115Y-84073251D01*
X156783457Y-83951543D01*
X157021090Y-83866868D01*
X157254964Y-83819109D01*
X157481030Y-83808150D01*
X157695238Y-83833873D01*
G36*
X120208562Y-83812209D02*
X120434588Y-83847397D01*
X120664441Y-83916257D01*
X120894015Y-84018021D01*
X121119204Y-84151918D01*
X121335904Y-84317182D01*
X121540008Y-84513041D01*
X121727412Y-84738728D01*
X121802538Y-84845803D01*
X121964615Y-85123680D01*
X122083121Y-85402664D01*
X122157496Y-85678925D01*
X122187181Y-85948632D01*
X122171615Y-86207956D01*
X122110238Y-86453066D01*
X122056292Y-86581373D01*
X121939585Y-86770290D01*
X121792289Y-86919350D01*
X121612455Y-87030040D01*
X121398135Y-87103851D01*
X121361819Y-87112062D01*
X121210839Y-87137644D01*
X121075517Y-87143699D01*
X120932218Y-87130181D01*
X120824173Y-87110989D01*
X120546028Y-87030654D01*
X120274157Y-86904354D01*
X120014458Y-86736978D01*
X119772826Y-86533410D01*
X119555158Y-86298538D01*
X119367351Y-86037246D01*
X119232932Y-85792434D01*
X119117512Y-85503450D01*
X119048308Y-85221614D01*
X119025461Y-84949794D01*
X119049109Y-84690853D01*
X119119393Y-84447657D01*
X119162666Y-84351273D01*
X119279519Y-84168276D01*
X119424832Y-84023565D01*
X119594497Y-83916372D01*
X119784411Y-83845928D01*
X119990468Y-83811463D01*
X120208562Y-83812209D01*
X120208562Y-83812209D01*
G37*
X120208562Y-83812209D02*
X120434588Y-83847397D01*
X120664441Y-83916257D01*
X120894015Y-84018021D01*
X121119204Y-84151918D01*
X121335904Y-84317182D01*
X121540008Y-84513041D01*
X121727412Y-84738728D01*
X121802538Y-84845803D01*
X121964615Y-85123680D01*
X122083121Y-85402664D01*
X122157496Y-85678925D01*
X122187181Y-85948632D01*
X122171615Y-86207956D01*
X122110238Y-86453066D01*
X122056292Y-86581373D01*
X121939585Y-86770290D01*
X121792289Y-86919350D01*
X121612455Y-87030040D01*
X121398135Y-87103851D01*
X121361819Y-87112062D01*
X121210839Y-87137644D01*
X121075517Y-87143699D01*
X120932218Y-87130181D01*
X120824173Y-87110989D01*
X120546028Y-87030654D01*
X120274157Y-86904354D01*
X120014458Y-86736978D01*
X119772826Y-86533410D01*
X119555158Y-86298538D01*
X119367351Y-86037246D01*
X119232932Y-85792434D01*
X119117512Y-85503450D01*
X119048308Y-85221614D01*
X119025461Y-84949794D01*
X119049109Y-84690853D01*
X119119393Y-84447657D01*
X119162666Y-84351273D01*
X119279519Y-84168276D01*
X119424832Y-84023565D01*
X119594497Y-83916372D01*
X119784411Y-83845928D01*
X119990468Y-83811463D01*
X120208562Y-83812209D01*
G36*
X151483229Y-86277974D02*
X151629429Y-86332481D01*
X151807099Y-86435072D01*
X151946299Y-86562049D01*
X152057349Y-86723478D01*
X152085090Y-86776802D01*
X152164783Y-86990775D01*
X152194007Y-87204291D01*
X152172752Y-87415583D01*
X152101008Y-87622882D01*
X152090445Y-87644545D01*
X151972604Y-87825419D01*
X151820873Y-87972275D01*
X151641925Y-88081755D01*
X151442435Y-88150504D01*
X151229078Y-88175167D01*
X151060807Y-88162209D01*
X150859589Y-88105377D01*
X150680085Y-88006989D01*
X150526759Y-87873322D01*
X150404073Y-87710654D01*
X150316490Y-87525263D01*
X150268474Y-87323429D01*
X150264487Y-87111428D01*
X150271703Y-87052181D01*
X150326790Y-86847996D01*
X150422034Y-86667806D01*
X150551121Y-86514958D01*
X150707737Y-86392798D01*
X150885569Y-86304673D01*
X151078304Y-86253930D01*
X151279629Y-86243914D01*
X151483229Y-86277974D01*
X151483229Y-86277974D01*
G37*
X151483229Y-86277974D02*
X151629429Y-86332481D01*
X151807099Y-86435072D01*
X151946299Y-86562049D01*
X152057349Y-86723478D01*
X152085090Y-86776802D01*
X152164783Y-86990775D01*
X152194007Y-87204291D01*
X152172752Y-87415583D01*
X152101008Y-87622882D01*
X152090445Y-87644545D01*
X151972604Y-87825419D01*
X151820873Y-87972275D01*
X151641925Y-88081755D01*
X151442435Y-88150504D01*
X151229078Y-88175167D01*
X151060807Y-88162209D01*
X150859589Y-88105377D01*
X150680085Y-88006989D01*
X150526759Y-87873322D01*
X150404073Y-87710654D01*
X150316490Y-87525263D01*
X150268474Y-87323429D01*
X150264487Y-87111428D01*
X150271703Y-87052181D01*
X150326790Y-86847996D01*
X150422034Y-86667806D01*
X150551121Y-86514958D01*
X150707737Y-86392798D01*
X150885569Y-86304673D01*
X151078304Y-86253930D01*
X151279629Y-86243914D01*
X151483229Y-86277974D01*
G36*
X148665031Y-86272478D02*
X148859321Y-86345404D01*
X149034348Y-86456825D01*
X149181884Y-86602730D01*
X149285196Y-86761858D01*
X149363659Y-86970571D01*
X149392770Y-87185781D01*
X149372514Y-87401667D01*
X149302875Y-87612409D01*
X149287507Y-87644545D01*
X149169927Y-87825804D01*
X149018558Y-87972916D01*
X148840107Y-88082494D01*
X148641281Y-88151146D01*
X148428786Y-88175484D01*
X148262952Y-88162369D01*
X148062929Y-88105622D01*
X147883343Y-88008005D01*
X147728906Y-87876141D01*
X147604330Y-87716652D01*
X147514326Y-87536158D01*
X147463605Y-87341281D01*
X147456879Y-87138644D01*
X147469392Y-87047048D01*
X147535086Y-86830973D01*
X147641877Y-86641834D01*
X147785560Y-86483870D01*
X147961931Y-86361323D01*
X148166786Y-86278433D01*
X148251573Y-86258146D01*
X148459705Y-86242055D01*
X148665031Y-86272478D01*
X148665031Y-86272478D01*
G37*
X148665031Y-86272478D02*
X148859321Y-86345404D01*
X149034348Y-86456825D01*
X149181884Y-86602730D01*
X149285196Y-86761858D01*
X149363659Y-86970571D01*
X149392770Y-87185781D01*
X149372514Y-87401667D01*
X149302875Y-87612409D01*
X149287507Y-87644545D01*
X149169927Y-87825804D01*
X149018558Y-87972916D01*
X148840107Y-88082494D01*
X148641281Y-88151146D01*
X148428786Y-88175484D01*
X148262952Y-88162369D01*
X148062929Y-88105622D01*
X147883343Y-88008005D01*
X147728906Y-87876141D01*
X147604330Y-87716652D01*
X147514326Y-87536158D01*
X147463605Y-87341281D01*
X147456879Y-87138644D01*
X147469392Y-87047048D01*
X147535086Y-86830973D01*
X147641877Y-86641834D01*
X147785560Y-86483870D01*
X147961931Y-86361323D01*
X148166786Y-86278433D01*
X148251573Y-86258146D01*
X148459705Y-86242055D01*
X148665031Y-86272478D01*
G36*
X153012812Y-88801402D02*
X147419219Y-88801402D01*
X147419219Y-88623664D01*
X150018969Y-88617187D01*
X152618718Y-88610711D01*
X152625290Y-87205956D01*
X152631862Y-85801202D01*
X143020620Y-85801202D01*
X143020620Y-85419820D01*
X153012812Y-85419820D01*
X153012812Y-88801402D01*
X153012812Y-88801402D01*
G37*
X153012812Y-88801402D02*
X147419219Y-88801402D01*
X147419219Y-88623664D01*
X150018969Y-88617187D01*
X152618718Y-88610711D01*
X152625290Y-87205956D01*
X152631862Y-85801202D01*
X143020620Y-85801202D01*
X143020620Y-85419820D01*
X153012812Y-85419820D01*
X153012812Y-88801402D01*
G36*
X145418210Y-86265186D02*
X145440155Y-86269276D01*
X145723259Y-86348328D01*
X145983452Y-86470779D01*
X146216523Y-86633520D01*
X146418260Y-86833444D01*
X146584451Y-87067443D01*
X146627473Y-87145220D01*
X146715452Y-87333744D01*
X146773371Y-87509541D01*
X146805699Y-87691590D01*
X146816908Y-87898870D01*
X146816984Y-87949650D01*
X146813538Y-88095915D01*
X146803404Y-88210850D01*
X146783875Y-88313823D01*
X146752247Y-88424199D01*
X146749501Y-88432733D01*
X146635299Y-88708036D01*
X146483064Y-88952125D01*
X146296797Y-89162401D01*
X146080502Y-89336267D01*
X145838180Y-89471124D01*
X145573833Y-89564374D01*
X145291463Y-89613419D01*
X144995072Y-89615659D01*
X144935615Y-89610383D01*
X144659828Y-89556705D01*
X144399269Y-89457321D01*
X144159225Y-89316396D01*
X143944984Y-89138096D01*
X143761834Y-88926584D01*
X143615062Y-88686026D01*
X143539860Y-88511087D01*
X143465235Y-88234848D01*
X143438466Y-87956673D01*
X143457409Y-87681943D01*
X143519923Y-87416042D01*
X143623866Y-87164352D01*
X143767094Y-86932255D01*
X143947465Y-86725135D01*
X144162837Y-86548375D01*
X144369267Y-86427277D01*
X144634255Y-86317260D01*
X144891869Y-86254390D01*
X145150418Y-86237441D01*
X145418210Y-86265186D01*
X145418210Y-86265186D01*
G37*
X145418210Y-86265186D02*
X145440155Y-86269276D01*
X145723259Y-86348328D01*
X145983452Y-86470779D01*
X146216523Y-86633520D01*
X146418260Y-86833444D01*
X146584451Y-87067443D01*
X146627473Y-87145220D01*
X146715452Y-87333744D01*
X146773371Y-87509541D01*
X146805699Y-87691590D01*
X146816908Y-87898870D01*
X146816984Y-87949650D01*
X146813538Y-88095915D01*
X146803404Y-88210850D01*
X146783875Y-88313823D01*
X146752247Y-88424199D01*
X146749501Y-88432733D01*
X146635299Y-88708036D01*
X146483064Y-88952125D01*
X146296797Y-89162401D01*
X146080502Y-89336267D01*
X145838180Y-89471124D01*
X145573833Y-89564374D01*
X145291463Y-89613419D01*
X144995072Y-89615659D01*
X144935615Y-89610383D01*
X144659828Y-89556705D01*
X144399269Y-89457321D01*
X144159225Y-89316396D01*
X143944984Y-89138096D01*
X143761834Y-88926584D01*
X143615062Y-88686026D01*
X143539860Y-88511087D01*
X143465235Y-88234848D01*
X143438466Y-87956673D01*
X143457409Y-87681943D01*
X143519923Y-87416042D01*
X143623866Y-87164352D01*
X143767094Y-86932255D01*
X143947465Y-86725135D01*
X144162837Y-86548375D01*
X144369267Y-86427277D01*
X144634255Y-86317260D01*
X144891869Y-86254390D01*
X145150418Y-86237441D01*
X145418210Y-86265186D01*
G36*
X132600240Y-86252366D02*
X132709932Y-86258867D01*
X132802022Y-86272362D01*
X132893102Y-86295031D01*
X132964864Y-86317434D01*
X133235865Y-86431624D01*
X133477767Y-86584585D01*
X133687407Y-86771990D01*
X133861624Y-86989512D01*
X133997255Y-87232822D01*
X134091137Y-87497595D01*
X134140108Y-87779501D01*
X134146771Y-87934648D01*
X134121888Y-88223182D01*
X134050428Y-88497191D01*
X133935652Y-88752239D01*
X133780822Y-88983891D01*
X133589200Y-89187712D01*
X133364049Y-89359267D01*
X133108630Y-89494120D01*
X132958447Y-89550385D01*
X132794602Y-89589385D01*
X132601895Y-89612560D01*
X132400338Y-89618124D01*
X132274303Y-89611471D01*
X131999318Y-89562744D01*
X131741370Y-89466885D01*
X131499034Y-89323204D01*
X131270886Y-89131010D01*
X131258117Y-89118417D01*
X131066719Y-88895232D01*
X130922392Y-88652870D01*
X130824928Y-88390829D01*
X130774118Y-88108608D01*
X130765941Y-87934648D01*
X130789782Y-87645403D01*
X130860214Y-87370995D01*
X130974074Y-87115751D01*
X131128199Y-86883999D01*
X131319427Y-86680066D01*
X131544594Y-86508280D01*
X131800540Y-86372967D01*
X131947847Y-86317434D01*
X132048043Y-86287077D01*
X132137678Y-86267412D01*
X132233343Y-86256262D01*
X132351627Y-86251449D01*
X132456356Y-86250683D01*
X132600240Y-86252366D01*
X132600240Y-86252366D01*
G37*
X132600240Y-86252366D02*
X132709932Y-86258867D01*
X132802022Y-86272362D01*
X132893102Y-86295031D01*
X132964864Y-86317434D01*
X133235865Y-86431624D01*
X133477767Y-86584585D01*
X133687407Y-86771990D01*
X133861624Y-86989512D01*
X133997255Y-87232822D01*
X134091137Y-87497595D01*
X134140108Y-87779501D01*
X134146771Y-87934648D01*
X134121888Y-88223182D01*
X134050428Y-88497191D01*
X133935652Y-88752239D01*
X133780822Y-88983891D01*
X133589200Y-89187712D01*
X133364049Y-89359267D01*
X133108630Y-89494120D01*
X132958447Y-89550385D01*
X132794602Y-89589385D01*
X132601895Y-89612560D01*
X132400338Y-89618124D01*
X132274303Y-89611471D01*
X131999318Y-89562744D01*
X131741370Y-89466885D01*
X131499034Y-89323204D01*
X131270886Y-89131010D01*
X131258117Y-89118417D01*
X131066719Y-88895232D01*
X130922392Y-88652870D01*
X130824928Y-88390829D01*
X130774118Y-88108608D01*
X130765941Y-87934648D01*
X130789782Y-87645403D01*
X130860214Y-87370995D01*
X130974074Y-87115751D01*
X131128199Y-86883999D01*
X131319427Y-86680066D01*
X131544594Y-86508280D01*
X131800540Y-86372967D01*
X131947847Y-86317434D01*
X132048043Y-86287077D01*
X132137678Y-86267412D01*
X132233343Y-86256262D01*
X132351627Y-86251449D01*
X132456356Y-86250683D01*
X132600240Y-86252366D01*
G36*
X126964464Y-86249048D02*
X127253257Y-86272741D01*
X127516933Y-86339306D01*
X127759876Y-86450657D01*
X127986469Y-86608707D01*
X128159128Y-86770273D01*
X128345726Y-86998876D01*
X128484464Y-87244366D01*
X128575700Y-87507717D01*
X128619793Y-87789902D01*
X128621574Y-88025926D01*
X128585500Y-88312432D01*
X128507211Y-88572935D01*
X128384399Y-88812560D01*
X128214757Y-89036433D01*
X128123739Y-89132204D01*
X127897349Y-89323031D01*
X127651799Y-89466762D01*
X127387202Y-89563356D01*
X127103671Y-89612775D01*
X126801319Y-89614978D01*
X126756986Y-89611471D01*
X126481315Y-89562515D01*
X126222630Y-89466179D01*
X125979853Y-89321942D01*
X125751905Y-89129281D01*
X125742363Y-89119846D01*
X125551695Y-88899850D01*
X125408815Y-88665444D01*
X125312498Y-88413407D01*
X125261520Y-88140519D01*
X125254657Y-87843558D01*
X125254943Y-87837707D01*
X125293784Y-87545907D01*
X125378477Y-87273236D01*
X125506484Y-87023454D01*
X125675265Y-86800320D01*
X125882282Y-86607594D01*
X126124997Y-86449036D01*
X126227127Y-86398032D01*
X126393503Y-86328785D01*
X126547102Y-86283376D01*
X126706530Y-86258047D01*
X126890392Y-86249037D01*
X126964464Y-86249048D01*
X126964464Y-86249048D01*
G37*
X126964464Y-86249048D02*
X127253257Y-86272741D01*
X127516933Y-86339306D01*
X127759876Y-86450657D01*
X127986469Y-86608707D01*
X128159128Y-86770273D01*
X128345726Y-86998876D01*
X128484464Y-87244366D01*
X128575700Y-87507717D01*
X128619793Y-87789902D01*
X128621574Y-88025926D01*
X128585500Y-88312432D01*
X128507211Y-88572935D01*
X128384399Y-88812560D01*
X128214757Y-89036433D01*
X128123739Y-89132204D01*
X127897349Y-89323031D01*
X127651799Y-89466762D01*
X127387202Y-89563356D01*
X127103671Y-89612775D01*
X126801319Y-89614978D01*
X126756986Y-89611471D01*
X126481315Y-89562515D01*
X126222630Y-89466179D01*
X125979853Y-89321942D01*
X125751905Y-89129281D01*
X125742363Y-89119846D01*
X125551695Y-88899850D01*
X125408815Y-88665444D01*
X125312498Y-88413407D01*
X125261520Y-88140519D01*
X125254657Y-87843558D01*
X125254943Y-87837707D01*
X125293784Y-87545907D01*
X125378477Y-87273236D01*
X125506484Y-87023454D01*
X125675265Y-86800320D01*
X125882282Y-86607594D01*
X126124997Y-86449036D01*
X126227127Y-86398032D01*
X126393503Y-86328785D01*
X126547102Y-86283376D01*
X126706530Y-86258047D01*
X126890392Y-86249037D01*
X126964464Y-86249048D01*
G36*
X134477677Y-85801202D02*
X124866866Y-85801202D01*
X124866866Y-89716717D01*
X124485485Y-89716717D01*
X124485485Y-85419820D01*
X134477677Y-85419820D01*
X134477677Y-85801202D01*
X134477677Y-85801202D01*
G37*
X134477677Y-85801202D02*
X124866866Y-85801202D01*
X124866866Y-89716717D01*
X124485485Y-89716717D01*
X124485485Y-85419820D01*
X134477677Y-85419820D01*
X134477677Y-85801202D01*
G36*
X168217217Y-91318519D02*
X167937537Y-91318519D01*
X167937537Y-80105906D01*
X168217217Y-80105906D01*
X168217217Y-91318519D01*
X168217217Y-91318519D01*
G37*
X168217217Y-91318519D02*
X167937537Y-91318519D01*
X167937537Y-80105906D01*
X168217217Y-80105906D01*
X168217217Y-91318519D01*
G36*
X120175878Y-94217020D02*
X120773377Y-94814113D01*
X120182437Y-95405455D01*
X120040228Y-95547376D01*
X119909532Y-95677070D01*
X119794654Y-95790321D01*
X119699899Y-95882915D01*
X119629572Y-95950639D01*
X119587980Y-95989276D01*
X119578378Y-95996797D01*
X119557915Y-95979471D01*
X119505901Y-95930301D01*
X119426642Y-95853502D01*
X119324443Y-95753289D01*
X119203610Y-95633877D01*
X119068446Y-95499479D01*
X118974319Y-95405455D01*
X118383379Y-94814113D01*
X118383460Y-94814032D01*
X118586786Y-94814032D01*
X118603928Y-94836879D01*
X118651594Y-94889733D01*
X118724145Y-94966879D01*
X118815943Y-95062599D01*
X118921349Y-95171176D01*
X119034723Y-95286895D01*
X119150429Y-95404039D01*
X119262826Y-95516892D01*
X119366275Y-95619735D01*
X119455139Y-95706854D01*
X119523779Y-95772531D01*
X119566555Y-95811050D01*
X119577895Y-95818819D01*
X119598504Y-95801570D01*
X119650228Y-95752907D01*
X119728311Y-95677464D01*
X119827997Y-95579870D01*
X119944529Y-95464757D01*
X120073153Y-95336755D01*
X120080292Y-95329624D01*
X120209164Y-95199962D01*
X120325339Y-95081317D01*
X120424160Y-94978586D01*
X120500970Y-94896669D01*
X120551114Y-94840462D01*
X120569934Y-94814865D01*
X120569970Y-94814515D01*
X120552649Y-94790432D01*
X120503770Y-94735484D01*
X120427962Y-94654537D01*
X120329850Y-94552455D01*
X120214063Y-94434102D01*
X120085226Y-94304341D01*
X120074174Y-94293294D01*
X119578378Y-93797987D01*
X119082582Y-94293294D01*
X118952883Y-94423753D01*
X118835851Y-94543177D01*
X118736111Y-94646707D01*
X118658290Y-94729483D01*
X118607014Y-94786647D01*
X118586910Y-94813340D01*
X118586786Y-94814032D01*
X118383460Y-94814032D01*
X118980878Y-94217020D01*
X119578378Y-93619926D01*
X120175878Y-94217020D01*
X120175878Y-94217020D01*
G37*
X120175878Y-94217020D02*
X120773377Y-94814113D01*
X120182437Y-95405455D01*
X120040228Y-95547376D01*
X119909532Y-95677070D01*
X119794654Y-95790321D01*
X119699899Y-95882915D01*
X119629572Y-95950639D01*
X119587980Y-95989276D01*
X119578378Y-95996797D01*
X119557915Y-95979471D01*
X119505901Y-95930301D01*
X119426642Y-95853502D01*
X119324443Y-95753289D01*
X119203610Y-95633877D01*
X119068446Y-95499479D01*
X118974319Y-95405455D01*
X118383379Y-94814113D01*
X118383460Y-94814032D01*
X118586786Y-94814032D01*
X118603928Y-94836879D01*
X118651594Y-94889733D01*
X118724145Y-94966879D01*
X118815943Y-95062599D01*
X118921349Y-95171176D01*
X119034723Y-95286895D01*
X119150429Y-95404039D01*
X119262826Y-95516892D01*
X119366275Y-95619735D01*
X119455139Y-95706854D01*
X119523779Y-95772531D01*
X119566555Y-95811050D01*
X119577895Y-95818819D01*
X119598504Y-95801570D01*
X119650228Y-95752907D01*
X119728311Y-95677464D01*
X119827997Y-95579870D01*
X119944529Y-95464757D01*
X120073153Y-95336755D01*
X120080292Y-95329624D01*
X120209164Y-95199962D01*
X120325339Y-95081317D01*
X120424160Y-94978586D01*
X120500970Y-94896669D01*
X120551114Y-94840462D01*
X120569934Y-94814865D01*
X120569970Y-94814515D01*
X120552649Y-94790432D01*
X120503770Y-94735484D01*
X120427962Y-94654537D01*
X120329850Y-94552455D01*
X120214063Y-94434102D01*
X120085226Y-94304341D01*
X120074174Y-94293294D01*
X119578378Y-93797987D01*
X119082582Y-94293294D01*
X118952883Y-94423753D01*
X118835851Y-94543177D01*
X118736111Y-94646707D01*
X118658290Y-94729483D01*
X118607014Y-94786647D01*
X118586910Y-94813340D01*
X118586786Y-94814032D01*
X118383460Y-94814032D01*
X118980878Y-94217020D01*
X119578378Y-93619926D01*
X120175878Y-94217020D01*
G36*
X110170971Y-78809210D02*
X110755755Y-78809210D01*
X110756906Y-86125376D01*
X110758056Y-93441542D01*
X111500599Y-94234340D01*
X112243143Y-95027139D01*
X115523023Y-95032645D01*
X116158658Y-95972246D01*
X116291696Y-96168891D01*
X116416840Y-96353842D01*
X116531021Y-96522569D01*
X116631173Y-96670539D01*
X116714228Y-96793220D01*
X116777119Y-96886080D01*
X116816776Y-96944587D01*
X116829177Y-96962831D01*
X116843468Y-96986968D01*
X116840562Y-97001958D01*
X116812205Y-97009977D01*
X116750148Y-97013203D01*
X116646140Y-97013813D01*
X116635957Y-97013814D01*
X116407854Y-97013814D01*
X115775652Y-96111212D01*
X113869557Y-96104712D01*
X111963463Y-96098212D01*
X110812963Y-94947960D01*
X109662462Y-93797708D01*
X109662462Y-80004205D01*
X107323323Y-80004205D01*
X107323323Y-78402403D01*
X110170971Y-78402403D01*
X110170971Y-78809210D01*
X110170971Y-78809210D01*
G37*
X110170971Y-78809210D02*
X110755755Y-78809210D01*
X110756906Y-86125376D01*
X110758056Y-93441542D01*
X111500599Y-94234340D01*
X112243143Y-95027139D01*
X115523023Y-95032645D01*
X116158658Y-95972246D01*
X116291696Y-96168891D01*
X116416840Y-96353842D01*
X116531021Y-96522569D01*
X116631173Y-96670539D01*
X116714228Y-96793220D01*
X116777119Y-96886080D01*
X116816776Y-96944587D01*
X116829177Y-96962831D01*
X116843468Y-96986968D01*
X116840562Y-97001958D01*
X116812205Y-97009977D01*
X116750148Y-97013203D01*
X116646140Y-97013813D01*
X116635957Y-97013814D01*
X116407854Y-97013814D01*
X115775652Y-96111212D01*
X113869557Y-96104712D01*
X111963463Y-96098212D01*
X110812963Y-94947960D01*
X109662462Y-93797708D01*
X109662462Y-80004205D01*
X107323323Y-80004205D01*
X107323323Y-78402403D01*
X110170971Y-78402403D01*
X110170971Y-78809210D01*
G36*
X170276676Y-93098299D02*
X120773373Y-93098299D01*
X120773373Y-94509004D01*
X120175801Y-93911838D01*
X119578228Y-93314671D01*
X118828199Y-94064701D01*
X118078170Y-94814730D01*
X118828253Y-95564490D01*
X119578337Y-96314251D01*
X120175855Y-95717138D01*
X120773373Y-95120026D01*
X120773373Y-96632433D01*
X170276676Y-96632433D01*
X170276676Y-97115516D01*
X117752606Y-97115516D01*
X117019196Y-95970080D01*
X116880167Y-95752761D01*
X116749754Y-95548556D01*
X116630473Y-95361427D01*
X116524839Y-95195336D01*
X116435365Y-95054245D01*
X116364568Y-94942118D01*
X116314962Y-94862915D01*
X116289061Y-94820601D01*
X116285785Y-94814529D01*
X116299687Y-94792202D01*
X116339618Y-94731832D01*
X116402915Y-94637359D01*
X116486916Y-94512722D01*
X116588959Y-94361861D01*
X116706380Y-94188717D01*
X116836518Y-93997230D01*
X116976710Y-93791340D01*
X117032291Y-93709814D01*
X117778796Y-92615216D01*
X170276676Y-92615216D01*
X170276676Y-93098299D01*
X170276676Y-93098299D01*
G37*
X170276676Y-93098299D02*
X120773373Y-93098299D01*
X120773373Y-94509004D01*
X120175801Y-93911838D01*
X119578228Y-93314671D01*
X118828199Y-94064701D01*
X118078170Y-94814730D01*
X118828253Y-95564490D01*
X119578337Y-96314251D01*
X120175855Y-95717138D01*
X120773373Y-95120026D01*
X120773373Y-96632433D01*
X170276676Y-96632433D01*
X170276676Y-97115516D01*
X117752606Y-97115516D01*
X117019196Y-95970080D01*
X116880167Y-95752761D01*
X116749754Y-95548556D01*
X116630473Y-95361427D01*
X116524839Y-95195336D01*
X116435365Y-95054245D01*
X116364568Y-94942118D01*
X116314962Y-94862915D01*
X116289061Y-94820601D01*
X116285785Y-94814529D01*
X116299687Y-94792202D01*
X116339618Y-94731832D01*
X116402915Y-94637359D01*
X116486916Y-94512722D01*
X116588959Y-94361861D01*
X116706380Y-94188717D01*
X116836518Y-93997230D01*
X116976710Y-93791340D01*
X117032291Y-93709814D01*
X117778796Y-92615216D01*
X170276676Y-92615216D01*
X170276676Y-93098299D01*
G36*
X108950550Y-94102781D02*
X110310810Y-95462863D01*
X111671071Y-96822945D01*
X111671071Y-97115516D01*
X107323323Y-97115516D01*
X107323323Y-92449561D01*
X107940080Y-91833189D01*
X108556838Y-91216817D01*
X108950550Y-91216817D01*
X108950550Y-94102781D01*
X108950550Y-94102781D01*
G37*
X108950550Y-94102781D02*
X110310810Y-95462863D01*
X111671071Y-96822945D01*
X111671071Y-97115516D01*
X107323323Y-97115516D01*
X107323323Y-92449561D01*
X107940080Y-91833189D01*
X108556838Y-91216817D01*
X108950550Y-91216817D01*
X108950550Y-94102781D01*
G36*
X170276676Y-129532933D02*
X168446046Y-129532933D01*
X168446046Y-128948149D01*
X170276676Y-128948149D01*
X170276676Y-129532933D01*
X170276676Y-129532933D01*
G37*
X170276676Y-129532933D02*
X168446046Y-129532933D01*
X168446046Y-128948149D01*
X170276676Y-128948149D01*
X170276676Y-129532933D01*
G36*
X107761912Y-97632658D02*
X107933927Y-97638495D01*
X108114386Y-97643448D01*
X108286188Y-97647122D01*
X108432234Y-97649123D01*
X108486536Y-97649372D01*
X108772572Y-97649450D01*
X108772572Y-98208809D01*
X120160625Y-98208809D01*
X120168250Y-98355005D01*
X120175875Y-98501202D01*
X130463495Y-98507589D01*
X140751114Y-98513977D01*
X140766869Y-98609291D01*
X140777989Y-98702104D01*
X140782896Y-98793355D01*
X140782903Y-98794865D01*
X140790398Y-98863172D01*
X140808326Y-98909909D01*
X140810799Y-98912741D01*
X140817157Y-98941488D01*
X140806708Y-99002098D01*
X140778268Y-99099224D01*
X140730649Y-99237518D01*
X140721810Y-99262018D01*
X140678979Y-99380995D01*
X140643224Y-99481893D01*
X140617742Y-99555568D01*
X140605729Y-99592881D01*
X140605205Y-99595443D01*
X140630395Y-99596130D01*
X140705026Y-99596808D01*
X140827687Y-99597474D01*
X140996967Y-99598128D01*
X141211457Y-99598768D01*
X141469746Y-99599394D01*
X141770423Y-99600004D01*
X142112079Y-99600598D01*
X142493302Y-99601173D01*
X142912682Y-99601730D01*
X143368810Y-99602266D01*
X143860274Y-99602781D01*
X144385664Y-99603273D01*
X144943570Y-99603742D01*
X145532582Y-99604186D01*
X146151288Y-99604605D01*
X146798279Y-99604996D01*
X147472144Y-99605360D01*
X148171474Y-99605694D01*
X148894856Y-99605998D01*
X149640882Y-99606271D01*
X150408140Y-99606511D01*
X151195221Y-99606718D01*
X152000713Y-99606890D01*
X152823208Y-99607026D01*
X153661293Y-99607125D01*
X154513559Y-99607186D01*
X155378595Y-99607208D01*
X170225825Y-99607208D01*
X170225825Y-99785186D01*
X140401801Y-99785186D01*
X140401801Y-99581782D01*
X115589200Y-99581782D01*
X115078078Y-99988976D01*
X115078078Y-101514115D01*
X114417017Y-101514115D01*
X114205932Y-101514678D01*
X114041262Y-101516508D01*
X113918582Y-101519814D01*
X113833467Y-101524806D01*
X113781492Y-101531692D01*
X113758233Y-101540684D01*
X113755956Y-101545419D01*
X113739253Y-101540034D01*
X113693385Y-101503797D01*
X113624708Y-101442241D01*
X113539580Y-101360898D01*
X113507460Y-101329161D01*
X113258964Y-101081598D01*
X111060263Y-101088096D01*
X108861561Y-101094595D01*
X108854618Y-101545896D01*
X108847675Y-101997198D01*
X112752128Y-101997198D01*
X113254042Y-102499582D01*
X113755956Y-103001967D01*
X113755956Y-118116917D01*
X108569169Y-118116917D01*
X108569169Y-124346147D01*
X112069084Y-124346147D01*
X114162762Y-126336373D01*
X114162762Y-128744745D01*
X164530530Y-128744745D01*
X164530530Y-110540141D01*
X166640840Y-110540141D01*
X166640840Y-101514115D01*
X116069669Y-101514115D01*
X116069669Y-100695161D01*
X122267117Y-100711425D01*
X122693273Y-100712519D01*
X123167769Y-100713692D01*
X123688091Y-100714940D01*
X124251729Y-100716256D01*
X124856171Y-100717636D01*
X125498903Y-100719076D01*
X126177416Y-100720569D01*
X126889196Y-100722110D01*
X127631732Y-100723696D01*
X128402513Y-100725319D01*
X129199025Y-100726977D01*
X130018758Y-100728662D01*
X130859200Y-100730371D01*
X131717838Y-100732097D01*
X132592161Y-100733837D01*
X133479657Y-100735585D01*
X134377815Y-100737335D01*
X135284122Y-100739084D01*
X136196066Y-100740824D01*
X137111135Y-100742553D01*
X138026819Y-100744264D01*
X138940604Y-100745952D01*
X139849980Y-100747613D01*
X140752434Y-100749240D01*
X141645454Y-100750830D01*
X142079879Y-100751596D01*
X142978374Y-100753182D01*
X143892106Y-100754813D01*
X144818352Y-100756482D01*
X145754383Y-100758184D01*
X146697475Y-100759915D01*
X147644901Y-100761668D01*
X148593934Y-100763439D01*
X149541850Y-100765221D01*
X150485921Y-100767010D01*
X151423422Y-100768801D01*
X152351626Y-100770588D01*
X153267807Y-100772365D01*
X154169239Y-100774127D01*
X155053196Y-100775870D01*
X155916952Y-100777587D01*
X156757781Y-100779274D01*
X157572956Y-100780924D01*
X158359751Y-100782533D01*
X159115441Y-100784096D01*
X159837299Y-100785606D01*
X160522598Y-100787059D01*
X161168614Y-100788450D01*
X161772619Y-100789772D01*
X162331888Y-100791021D01*
X162843694Y-100792192D01*
X162960510Y-100792463D01*
X170225825Y-100809424D01*
X170225825Y-111608008D01*
X168140941Y-111608008D01*
X168140941Y-129736337D01*
X113171171Y-129736337D01*
X113171171Y-127332799D01*
X111073573Y-125338397D01*
X109198448Y-125338068D01*
X107323323Y-125337738D01*
X107323323Y-117125326D01*
X112764364Y-117125326D01*
X112764364Y-105124525D01*
X110173853Y-105124525D01*
X109428718Y-104426431D01*
X108683583Y-103728336D01*
X108003453Y-103727231D01*
X107323323Y-103726127D01*
X107323323Y-97616021D01*
X107761912Y-97632658D01*
X107761912Y-97632658D01*
G37*
X107761912Y-97632658D02*
X107933927Y-97638495D01*
X108114386Y-97643448D01*
X108286188Y-97647122D01*
X108432234Y-97649123D01*
X108486536Y-97649372D01*
X108772572Y-97649450D01*
X108772572Y-98208809D01*
X120160625Y-98208809D01*
X120168250Y-98355005D01*
X120175875Y-98501202D01*
X130463495Y-98507589D01*
X140751114Y-98513977D01*
X140766869Y-98609291D01*
X140777989Y-98702104D01*
X140782896Y-98793355D01*
X140782903Y-98794865D01*
X140790398Y-98863172D01*
X140808326Y-98909909D01*
X140810799Y-98912741D01*
X140817157Y-98941488D01*
X140806708Y-99002098D01*
X140778268Y-99099224D01*
X140730649Y-99237518D01*
X140721810Y-99262018D01*
X140678979Y-99380995D01*
X140643224Y-99481893D01*
X140617742Y-99555568D01*
X140605729Y-99592881D01*
X140605205Y-99595443D01*
X140630395Y-99596130D01*
X140705026Y-99596808D01*
X140827687Y-99597474D01*
X140996967Y-99598128D01*
X141211457Y-99598768D01*
X141469746Y-99599394D01*
X141770423Y-99600004D01*
X142112079Y-99600598D01*
X142493302Y-99601173D01*
X142912682Y-99601730D01*
X143368810Y-99602266D01*
X143860274Y-99602781D01*
X144385664Y-99603273D01*
X144943570Y-99603742D01*
X145532582Y-99604186D01*
X146151288Y-99604605D01*
X146798279Y-99604996D01*
X147472144Y-99605360D01*
X148171474Y-99605694D01*
X148894856Y-99605998D01*
X149640882Y-99606271D01*
X150408140Y-99606511D01*
X151195221Y-99606718D01*
X152000713Y-99606890D01*
X152823208Y-99607026D01*
X153661293Y-99607125D01*
X154513559Y-99607186D01*
X155378595Y-99607208D01*
X170225825Y-99607208D01*
X170225825Y-99785186D01*
X140401801Y-99785186D01*
X140401801Y-99581782D01*
X115589200Y-99581782D01*
X115078078Y-99988976D01*
X115078078Y-101514115D01*
X114417017Y-101514115D01*
X114205932Y-101514678D01*
X114041262Y-101516508D01*
X113918582Y-101519814D01*
X113833467Y-101524806D01*
X113781492Y-101531692D01*
X113758233Y-101540684D01*
X113755956Y-101545419D01*
X113739253Y-101540034D01*
X113693385Y-101503797D01*
X113624708Y-101442241D01*
X113539580Y-101360898D01*
X113507460Y-101329161D01*
X113258964Y-101081598D01*
X111060263Y-101088096D01*
X108861561Y-101094595D01*
X108854618Y-101545896D01*
X108847675Y-101997198D01*
X112752128Y-101997198D01*
X113254042Y-102499582D01*
X113755956Y-103001967D01*
X113755956Y-118116917D01*
X108569169Y-118116917D01*
X108569169Y-124346147D01*
X112069084Y-124346147D01*
X114162762Y-126336373D01*
X114162762Y-128744745D01*
X164530530Y-128744745D01*
X164530530Y-110540141D01*
X166640840Y-110540141D01*
X166640840Y-101514115D01*
X116069669Y-101514115D01*
X116069669Y-100695161D01*
X122267117Y-100711425D01*
X122693273Y-100712519D01*
X123167769Y-100713692D01*
X123688091Y-100714940D01*
X124251729Y-100716256D01*
X124856171Y-100717636D01*
X125498903Y-100719076D01*
X126177416Y-100720569D01*
X126889196Y-100722110D01*
X127631732Y-100723696D01*
X128402513Y-100725319D01*
X129199025Y-100726977D01*
X130018758Y-100728662D01*
X130859200Y-100730371D01*
X131717838Y-100732097D01*
X132592161Y-100733837D01*
X133479657Y-100735585D01*
X134377815Y-100737335D01*
X135284122Y-100739084D01*
X136196066Y-100740824D01*
X137111135Y-100742553D01*
X138026819Y-100744264D01*
X138940604Y-100745952D01*
X139849980Y-100747613D01*
X140752434Y-100749240D01*
X141645454Y-100750830D01*
X142079879Y-100751596D01*
X142978374Y-100753182D01*
X143892106Y-100754813D01*
X144818352Y-100756482D01*
X145754383Y-100758184D01*
X146697475Y-100759915D01*
X147644901Y-100761668D01*
X148593934Y-100763439D01*
X149541850Y-100765221D01*
X150485921Y-100767010D01*
X151423422Y-100768801D01*
X152351626Y-100770588D01*
X153267807Y-100772365D01*
X154169239Y-100774127D01*
X155053196Y-100775870D01*
X155916952Y-100777587D01*
X156757781Y-100779274D01*
X157572956Y-100780924D01*
X158359751Y-100782533D01*
X159115441Y-100784096D01*
X159837299Y-100785606D01*
X160522598Y-100787059D01*
X161168614Y-100788450D01*
X161772619Y-100789772D01*
X162331888Y-100791021D01*
X162843694Y-100792192D01*
X162960510Y-100792463D01*
X170225825Y-100809424D01*
X170225825Y-111608008D01*
X168140941Y-111608008D01*
X168140941Y-129736337D01*
X113171171Y-129736337D01*
X113171171Y-127332799D01*
X111073573Y-125338397D01*
X109198448Y-125338068D01*
X107323323Y-125337738D01*
X107323323Y-117125326D01*
X112764364Y-117125326D01*
X112764364Y-105124525D01*
X110173853Y-105124525D01*
X109428718Y-104426431D01*
X108683583Y-103728336D01*
X108003453Y-103727231D01*
X107323323Y-103726127D01*
X107323323Y-97616021D01*
X107761912Y-97632658D01*
G36*
X164823901Y-130922513D02*
X164833204Y-130932020D01*
X164840854Y-130955657D01*
X164847006Y-130997815D01*
X164851812Y-131062886D01*
X164855427Y-131155261D01*
X164858003Y-131279332D01*
X164859694Y-131439492D01*
X164860654Y-131640130D01*
X164861035Y-131885639D01*
X164861061Y-131986242D01*
X164861061Y-133035711D01*
X164803853Y-133051042D01*
X164703134Y-133068458D01*
X164588135Y-133068735D01*
X164453110Y-133050692D01*
X164292312Y-133013149D01*
X164099996Y-132954926D01*
X163870413Y-132874841D01*
X163776221Y-132839939D01*
X163637624Y-132789073D01*
X163512471Y-132745273D01*
X163409788Y-132711532D01*
X163338597Y-132690842D01*
X163310993Y-132685686D01*
X163248198Y-132708529D01*
X163180519Y-132770727D01*
X163117188Y-132862783D01*
X163093510Y-132909361D01*
X163044327Y-132999286D01*
X162991750Y-133047069D01*
X162921689Y-133060279D01*
X162833383Y-133049124D01*
X162803636Y-133039371D01*
X162786483Y-133016716D01*
X162778509Y-132969581D01*
X162776294Y-132886388D01*
X162776240Y-132855539D01*
X162787513Y-132698508D01*
X162818774Y-132521150D01*
X162838028Y-132442588D01*
X162875105Y-132279912D01*
X162888135Y-132156893D01*
X162885272Y-132104248D01*
X162879198Y-132035134D01*
X162888993Y-132000110D01*
X162919920Y-131983532D01*
X162926480Y-131981729D01*
X162964872Y-131962440D01*
X162971237Y-131922406D01*
X162966141Y-131894194D01*
X162962038Y-131837316D01*
X162983915Y-131818289D01*
X163036125Y-131813010D01*
X163045180Y-131811933D01*
X163072494Y-131793191D01*
X163127816Y-131744304D01*
X163204296Y-131672150D01*
X163295088Y-131583608D01*
X163393343Y-131485560D01*
X163492213Y-131384884D01*
X163584851Y-131288461D01*
X163664409Y-131203170D01*
X163724039Y-131135890D01*
X163749168Y-131104672D01*
X163822094Y-131025628D01*
X163896997Y-130991522D01*
X163987281Y-130997741D01*
X164026685Y-131009147D01*
X164088223Y-131025033D01*
X164149641Y-131027687D01*
X164228710Y-131016459D01*
X164309082Y-130998821D01*
X164475235Y-130962380D01*
X164617814Y-130936172D01*
X164729596Y-130921268D01*
X164803362Y-130918739D01*
X164823901Y-130922513D01*
X164823901Y-130922513D01*
G37*
X164823901Y-130922513D02*
X164833204Y-130932020D01*
X164840854Y-130955657D01*
X164847006Y-130997815D01*
X164851812Y-131062886D01*
X164855427Y-131155261D01*
X164858003Y-131279332D01*
X164859694Y-131439492D01*
X164860654Y-131640130D01*
X164861035Y-131885639D01*
X164861061Y-131986242D01*
X164861061Y-133035711D01*
X164803853Y-133051042D01*
X164703134Y-133068458D01*
X164588135Y-133068735D01*
X164453110Y-133050692D01*
X164292312Y-133013149D01*
X164099996Y-132954926D01*
X163870413Y-132874841D01*
X163776221Y-132839939D01*
X163637624Y-132789073D01*
X163512471Y-132745273D01*
X163409788Y-132711532D01*
X163338597Y-132690842D01*
X163310993Y-132685686D01*
X163248198Y-132708529D01*
X163180519Y-132770727D01*
X163117188Y-132862783D01*
X163093510Y-132909361D01*
X163044327Y-132999286D01*
X162991750Y-133047069D01*
X162921689Y-133060279D01*
X162833383Y-133049124D01*
X162803636Y-133039371D01*
X162786483Y-133016716D01*
X162778509Y-132969581D01*
X162776294Y-132886388D01*
X162776240Y-132855539D01*
X162787513Y-132698508D01*
X162818774Y-132521150D01*
X162838028Y-132442588D01*
X162875105Y-132279912D01*
X162888135Y-132156893D01*
X162885272Y-132104248D01*
X162879198Y-132035134D01*
X162888993Y-132000110D01*
X162919920Y-131983532D01*
X162926480Y-131981729D01*
X162964872Y-131962440D01*
X162971237Y-131922406D01*
X162966141Y-131894194D01*
X162962038Y-131837316D01*
X162983915Y-131818289D01*
X163036125Y-131813010D01*
X163045180Y-131811933D01*
X163072494Y-131793191D01*
X163127816Y-131744304D01*
X163204296Y-131672150D01*
X163295088Y-131583608D01*
X163393343Y-131485560D01*
X163492213Y-131384884D01*
X163584851Y-131288461D01*
X163664409Y-131203170D01*
X163724039Y-131135890D01*
X163749168Y-131104672D01*
X163822094Y-131025628D01*
X163896997Y-130991522D01*
X163987281Y-130997741D01*
X164026685Y-131009147D01*
X164088223Y-131025033D01*
X164149641Y-131027687D01*
X164228710Y-131016459D01*
X164309082Y-130998821D01*
X164475235Y-130962380D01*
X164617814Y-130936172D01*
X164729596Y-130921268D01*
X164803362Y-130918739D01*
X164823901Y-130922513D01*
G36*
X163399830Y-133007123D02*
X163480431Y-133026107D01*
X163591781Y-133058990D01*
X163725574Y-133103456D01*
X163771382Y-133119614D01*
X163959892Y-133187549D01*
X164105552Y-133241620D01*
X164213670Y-133284287D01*
X164289556Y-133318010D01*
X164338518Y-133345249D01*
X164365866Y-133368464D01*
X164376910Y-133390114D01*
X164377978Y-133400656D01*
X164358890Y-133453342D01*
X164309492Y-133521780D01*
X164241577Y-133593210D01*
X164166941Y-133654872D01*
X164112927Y-133687377D01*
X164017087Y-133714850D01*
X163893961Y-133725722D01*
X163764399Y-133719794D01*
X163649248Y-133696865D01*
X163634515Y-133691950D01*
X163507050Y-133634284D01*
X163412066Y-133559009D01*
X163344262Y-133472411D01*
X163301009Y-133381203D01*
X163278023Y-133277894D01*
X163274920Y-133175355D01*
X163291313Y-133086459D01*
X163326817Y-133024077D01*
X163358278Y-133004355D01*
X163399830Y-133007123D01*
X163399830Y-133007123D01*
G37*
X163399830Y-133007123D02*
X163480431Y-133026107D01*
X163591781Y-133058990D01*
X163725574Y-133103456D01*
X163771382Y-133119614D01*
X163959892Y-133187549D01*
X164105552Y-133241620D01*
X164213670Y-133284287D01*
X164289556Y-133318010D01*
X164338518Y-133345249D01*
X164365866Y-133368464D01*
X164376910Y-133390114D01*
X164377978Y-133400656D01*
X164358890Y-133453342D01*
X164309492Y-133521780D01*
X164241577Y-133593210D01*
X164166941Y-133654872D01*
X164112927Y-133687377D01*
X164017087Y-133714850D01*
X163893961Y-133725722D01*
X163764399Y-133719794D01*
X163649248Y-133696865D01*
X163634515Y-133691950D01*
X163507050Y-133634284D01*
X163412066Y-133559009D01*
X163344262Y-133472411D01*
X163301009Y-133381203D01*
X163278023Y-133277894D01*
X163274920Y-133175355D01*
X163291313Y-133086459D01*
X163326817Y-133024077D01*
X163358278Y-133004355D01*
X163399830Y-133007123D01*
G36*
X165426831Y-130711774D02*
X165490339Y-130759421D01*
X165496696Y-130766067D01*
X165554803Y-130810183D01*
X165613342Y-130829588D01*
X165615543Y-130829630D01*
X165662086Y-130848261D01*
X165675606Y-130898507D01*
X165654366Y-130971892D01*
X165647484Y-130985479D01*
X165632715Y-131046410D01*
X165662730Y-131086489D01*
X165735269Y-131104174D01*
X165817634Y-131101669D01*
X165900791Y-131096644D01*
X165952728Y-131106044D01*
X165992041Y-131134083D01*
X166000853Y-131143183D01*
X166045613Y-131208286D01*
X166068872Y-131265158D01*
X166097216Y-131323706D01*
X166148811Y-131391664D01*
X166171900Y-131415800D01*
X166225696Y-131465145D01*
X166259068Y-131482529D01*
X166286930Y-131472556D01*
X166305397Y-131456999D01*
X166376941Y-131418898D01*
X166447648Y-131426240D01*
X166498803Y-131469844D01*
X166521744Y-131511313D01*
X166518532Y-131549489D01*
X166487532Y-131606329D01*
X166453769Y-131675739D01*
X166437662Y-131737919D01*
X166437437Y-131743610D01*
X166444031Y-131781689D01*
X166473848Y-131790040D01*
X166512774Y-131783290D01*
X166567614Y-131777402D01*
X166594044Y-131799764D01*
X166604687Y-131832791D01*
X166634580Y-131892575D01*
X166669207Y-131924497D01*
X166721224Y-131926203D01*
X166783876Y-131891884D01*
X166846923Y-131831883D01*
X166900125Y-131756544D01*
X166933244Y-131676212D01*
X166937649Y-131653317D01*
X166951424Y-131585028D01*
X166978488Y-131549540D01*
X167033939Y-131528836D01*
X167044130Y-131526264D01*
X167099822Y-131503748D01*
X167122584Y-131478497D01*
X167109251Y-131461244D01*
X167063215Y-131461517D01*
X167009192Y-131449513D01*
X166977768Y-131396033D01*
X166971760Y-131344979D01*
X166974921Y-131313958D01*
X166991633Y-131292869D01*
X167031965Y-131277072D01*
X167105990Y-131261924D01*
X167177610Y-131250123D01*
X167263085Y-131249253D01*
X167310052Y-131280699D01*
X167318978Y-131345275D01*
X167290329Y-131443796D01*
X167289489Y-131445843D01*
X167288880Y-131483927D01*
X167330433Y-131512312D01*
X167339522Y-131515920D01*
X167388576Y-131543962D01*
X167391556Y-131574515D01*
X167347207Y-131608968D01*
X167254273Y-131648710D01*
X167203859Y-131666185D01*
X167099288Y-131705454D01*
X167042220Y-131737910D01*
X167032008Y-131759199D01*
X167020467Y-131788850D01*
X166982391Y-131806662D01*
X166932130Y-131838697D01*
X166923288Y-131893806D01*
X166954937Y-131960272D01*
X166978161Y-131986922D01*
X167004524Y-131992955D01*
X167049531Y-131977548D01*
X167102804Y-131952419D01*
X167180608Y-131919789D01*
X167247594Y-131900114D01*
X167269071Y-131897498D01*
X167320259Y-131918645D01*
X167348207Y-131975278D01*
X167351976Y-132057182D01*
X167330628Y-132154144D01*
X167299361Y-132227195D01*
X167267691Y-132291867D01*
X167259260Y-132333835D01*
X167273481Y-132375317D01*
X167294455Y-132412313D01*
X167340954Y-132497265D01*
X167359842Y-132555232D01*
X167352189Y-132601219D01*
X167319066Y-132650230D01*
X167312035Y-132658689D01*
X167274660Y-132711219D01*
X167257088Y-132765909D01*
X167254219Y-132843019D01*
X167255890Y-132881790D01*
X167263763Y-133028809D01*
X167149349Y-133056308D01*
X167079252Y-133075964D01*
X167044598Y-133100761D01*
X167031047Y-133146210D01*
X167027184Y-133188458D01*
X167036899Y-133287816D01*
X167085271Y-133356916D01*
X167175432Y-133399411D01*
X167215786Y-133408380D01*
X167352964Y-133436565D01*
X167445239Y-133464549D01*
X167498502Y-133494540D01*
X167516885Y-133521155D01*
X167514848Y-133581891D01*
X167484712Y-133669797D01*
X167431784Y-133773707D01*
X167361375Y-133882455D01*
X167318229Y-133938920D01*
X167241319Y-134036470D01*
X167172311Y-134131318D01*
X167104934Y-134233359D01*
X167032918Y-134352486D01*
X166949992Y-134498594D01*
X166863657Y-134656157D01*
X166774100Y-134824859D01*
X166708139Y-134958996D01*
X166662534Y-135067196D01*
X166634047Y-135158087D01*
X166619436Y-135240299D01*
X166615462Y-135317218D01*
X166604938Y-135404926D01*
X166569863Y-135486767D01*
X166504326Y-135571469D01*
X166402416Y-135667757D01*
X166346327Y-135714581D01*
X166108403Y-135890994D01*
X165864507Y-136039689D01*
X165620847Y-136158313D01*
X165383634Y-136244511D01*
X165159074Y-136295929D01*
X164953378Y-136310214D01*
X164815186Y-136295134D01*
X164723870Y-136268666D01*
X164600926Y-136222059D01*
X164458599Y-136160885D01*
X164309135Y-136090714D01*
X164164778Y-136017116D01*
X164037774Y-135945664D01*
X164010770Y-135929164D01*
X163823206Y-135803078D01*
X163726229Y-135722507D01*
X164153346Y-135722507D01*
X164187207Y-135794969D01*
X164261700Y-135859809D01*
X164307325Y-135887802D01*
X164400672Y-135932696D01*
X164461783Y-135940151D01*
X164494176Y-135908889D01*
X164496877Y-135882135D01*
X164581770Y-135882135D01*
X164588654Y-135967605D01*
X164616245Y-136021348D01*
X164676252Y-136059695D01*
X164722446Y-136078337D01*
X164833179Y-136108312D01*
X164917872Y-136108211D01*
X164970292Y-136078814D01*
X164983939Y-136045613D01*
X164986809Y-135961583D01*
X164962071Y-135901325D01*
X164901895Y-135854510D01*
X164808808Y-135814543D01*
X164703676Y-135780652D01*
X164636052Y-135772637D01*
X164598419Y-135792737D01*
X164583263Y-135843188D01*
X164581770Y-135882135D01*
X164496877Y-135882135D01*
X164501370Y-135837631D01*
X164500034Y-135817761D01*
X164477974Y-135747722D01*
X164430548Y-135683060D01*
X164367520Y-135629029D01*
X164298655Y-135590881D01*
X164233716Y-135573872D01*
X164182468Y-135583255D01*
X164154675Y-135624282D01*
X164153424Y-135631265D01*
X164153346Y-135722507D01*
X163726229Y-135722507D01*
X163679211Y-135683444D01*
X163573296Y-135563336D01*
X163518497Y-135468041D01*
X163801346Y-135468041D01*
X163809425Y-135513395D01*
X163840613Y-135556996D01*
X163899792Y-135614131D01*
X163961625Y-135668989D01*
X163998754Y-135692566D01*
X164022597Y-135689372D01*
X164040438Y-135669674D01*
X164067252Y-135615366D01*
X164072705Y-135585681D01*
X164058834Y-135543652D01*
X164023372Y-135482928D01*
X163975182Y-135414835D01*
X163923125Y-135350695D01*
X163876063Y-135301833D01*
X163842858Y-135279572D01*
X163834617Y-135281451D01*
X163825683Y-135310682D01*
X163813646Y-135372189D01*
X163808638Y-135403012D01*
X163801346Y-135468041D01*
X163518497Y-135468041D01*
X163499971Y-135435826D01*
X163453745Y-135293986D01*
X163437689Y-135205995D01*
X163421308Y-135107916D01*
X163403067Y-135025129D01*
X163386772Y-134974757D01*
X163385992Y-134973238D01*
X163374387Y-134959446D01*
X163564364Y-134959446D01*
X163585173Y-135033368D01*
X163637871Y-135085596D01*
X163694570Y-135101102D01*
X163777869Y-135120958D01*
X163870435Y-135173958D01*
X163943821Y-135238526D01*
X163997821Y-135289568D01*
X164031636Y-135299947D01*
X164054069Y-135270776D01*
X164060282Y-135253269D01*
X164056673Y-135191489D01*
X164032278Y-135138559D01*
X164149149Y-135138559D01*
X164159333Y-135278946D01*
X164192347Y-135380748D01*
X164251882Y-135452491D01*
X164298116Y-135482681D01*
X164388690Y-135522950D01*
X164447984Y-135525948D01*
X164482439Y-135488505D01*
X164496499Y-135417535D01*
X164581381Y-135417535D01*
X164585023Y-135527050D01*
X164602149Y-135600621D01*
X164642065Y-135651148D01*
X164714072Y-135691529D01*
X164804084Y-135726295D01*
X164891566Y-135751434D01*
X164946808Y-135747509D01*
X164947239Y-135747058D01*
X165089889Y-135747058D01*
X165091102Y-135873192D01*
X165094423Y-135980501D01*
X165099372Y-136059001D01*
X165105474Y-136098709D01*
X165106840Y-136101168D01*
X165158340Y-136117536D01*
X165250392Y-136105178D01*
X165381750Y-136064331D01*
X165458558Y-136034608D01*
X165763981Y-135891891D01*
X166035678Y-135724034D01*
X166168735Y-135623776D01*
X166288518Y-135521627D01*
X166369325Y-135436734D01*
X166416670Y-135361722D01*
X166436064Y-135289220D01*
X166437270Y-135264625D01*
X166455201Y-135135565D01*
X166508289Y-134971103D01*
X166596190Y-134772244D01*
X166627264Y-134710005D01*
X166676276Y-134610949D01*
X166714931Y-134527038D01*
X166738141Y-134469647D01*
X166742542Y-134452322D01*
X166727387Y-134435145D01*
X166677167Y-134428200D01*
X166584755Y-134430621D01*
X166570921Y-134431472D01*
X166420026Y-134442523D01*
X166313722Y-134456100D01*
X166245780Y-134476544D01*
X166209974Y-134508198D01*
X166200075Y-134555404D01*
X166209855Y-134622504D01*
X166222626Y-134674299D01*
X166243732Y-134777985D01*
X166242969Y-134852220D01*
X166233614Y-134886089D01*
X166183913Y-134986644D01*
X166124620Y-135060718D01*
X166064432Y-135098366D01*
X166045552Y-135101102D01*
X165986008Y-135119407D01*
X165939226Y-135155462D01*
X165854497Y-135222698D01*
X165751765Y-135264160D01*
X165647547Y-135275911D01*
X165558360Y-135254016D01*
X165548769Y-135248517D01*
X165492296Y-135237583D01*
X165407881Y-135248438D01*
X165311198Y-135276727D01*
X165217920Y-135318092D01*
X165156419Y-135357566D01*
X165129505Y-135380377D01*
X165111048Y-135405205D01*
X165099453Y-135441387D01*
X165093126Y-135498259D01*
X165090472Y-135585158D01*
X165089896Y-135711422D01*
X165089889Y-135747058D01*
X164947239Y-135747058D01*
X164981210Y-135711556D01*
X164995560Y-135676519D01*
X165005585Y-135571071D01*
X164973351Y-135461917D01*
X164905307Y-135359957D01*
X164807902Y-135276092D01*
X164736265Y-135238242D01*
X164665331Y-135213593D01*
X164619868Y-135215326D01*
X164594389Y-135249790D01*
X164583411Y-135323335D01*
X164581381Y-135417535D01*
X164496499Y-135417535D01*
X164498497Y-135407450D01*
X164500213Y-135383226D01*
X164495731Y-135247824D01*
X164462095Y-135148286D01*
X164395668Y-135076488D01*
X164350638Y-135049274D01*
X164286696Y-135012562D01*
X164243881Y-134980494D01*
X164237599Y-134973103D01*
X164209930Y-134954269D01*
X164182875Y-134977114D01*
X164161246Y-135032640D01*
X164149852Y-135111847D01*
X164149149Y-135138559D01*
X164032278Y-135138559D01*
X164019985Y-135111888D01*
X163957685Y-135027336D01*
X163891534Y-134962335D01*
X163823005Y-134918100D01*
X163743020Y-134899694D01*
X163689540Y-134897698D01*
X163614761Y-134899905D01*
X163577724Y-134910820D01*
X163565369Y-134936884D01*
X163564364Y-134959446D01*
X163374387Y-134959446D01*
X163331025Y-134907914D01*
X163255773Y-134860967D01*
X163194978Y-134846847D01*
X163141417Y-134832209D01*
X163073871Y-134795808D01*
X163055855Y-134783284D01*
X162968555Y-134736758D01*
X162885651Y-134719720D01*
X162828079Y-134714833D01*
X162805336Y-134690479D01*
X162801601Y-134642288D01*
X162777004Y-134556352D01*
X162706391Y-134474079D01*
X162671630Y-134449557D01*
X163360961Y-134449557D01*
X163370619Y-134488858D01*
X163394745Y-134556068D01*
X163426062Y-134633124D01*
X163457298Y-134701967D01*
X163477875Y-134739817D01*
X163516970Y-134780477D01*
X163572994Y-134792721D01*
X163610390Y-134791084D01*
X163704204Y-134783284D01*
X163711293Y-134645775D01*
X163802498Y-134645775D01*
X163808818Y-134694063D01*
X163830475Y-134769571D01*
X163875798Y-134829314D01*
X163928613Y-134872488D01*
X163991853Y-134916244D01*
X164038792Y-134943741D01*
X164052456Y-134948549D01*
X164064245Y-134925746D01*
X164071311Y-134867736D01*
X164072266Y-134827778D01*
X164065094Y-134709811D01*
X164046825Y-134604871D01*
X164020515Y-134525927D01*
X163992079Y-134487561D01*
X163941828Y-134471019D01*
X163891294Y-134465855D01*
X163833710Y-134485183D01*
X163804250Y-134544770D01*
X163802498Y-134645775D01*
X163711293Y-134645775D01*
X163711948Y-134633090D01*
X163711699Y-134530893D01*
X163697560Y-134473841D01*
X163686523Y-134461857D01*
X163650359Y-134452394D01*
X163585362Y-134445147D01*
X163507741Y-134440728D01*
X163433704Y-134439749D01*
X163379460Y-134442823D01*
X163360961Y-134449557D01*
X162671630Y-134449557D01*
X162634841Y-134423605D01*
X162605564Y-134389457D01*
X162624953Y-134352737D01*
X162691073Y-134315908D01*
X162730804Y-134301491D01*
X162800075Y-134262492D01*
X162830424Y-134229200D01*
X164583758Y-134229200D01*
X164598928Y-134289651D01*
X164640334Y-134309934D01*
X164710502Y-134290904D01*
X164811959Y-134233412D01*
X164843433Y-134212502D01*
X164923782Y-134160288D01*
X164983449Y-134134162D01*
X165037583Y-134134792D01*
X165101328Y-134162845D01*
X165189833Y-134218990D01*
X165203965Y-134228398D01*
X165302097Y-134287286D01*
X165368625Y-134310364D01*
X165407766Y-134297913D01*
X165423739Y-134250211D01*
X165424254Y-134242993D01*
X165416180Y-134084180D01*
X165370994Y-133935315D01*
X165284727Y-133786624D01*
X165192079Y-133670921D01*
X165102925Y-133586351D01*
X165023414Y-133549575D01*
X164947881Y-133559897D01*
X164870659Y-133616617D01*
X164857903Y-133629808D01*
X164784782Y-133722598D01*
X164712274Y-133838858D01*
X164649528Y-133961437D01*
X164605690Y-134073185D01*
X164592297Y-134127729D01*
X164583758Y-134229200D01*
X162830424Y-134229200D01*
X162850299Y-134207398D01*
X162870282Y-134164280D01*
X162869495Y-134127246D01*
X162844173Y-134078683D01*
X162813019Y-134032941D01*
X162724451Y-133904921D01*
X162660999Y-133808769D01*
X162617393Y-133735578D01*
X162588364Y-133676438D01*
X162568644Y-133622444D01*
X162566983Y-133616991D01*
X162553864Y-133546323D01*
X162568143Y-133497833D01*
X162615577Y-133467822D01*
X162701925Y-133452594D01*
X162829459Y-133448449D01*
X163025576Y-133448449D01*
X163101764Y-133583446D01*
X163224172Y-133750830D01*
X163380357Y-133882505D01*
X163486796Y-133941558D01*
X163598137Y-133976253D01*
X163737673Y-133995533D01*
X163888788Y-133999483D01*
X164034868Y-133988191D01*
X164159297Y-133961744D01*
X164218362Y-133937732D01*
X164392172Y-133819906D01*
X164528978Y-133673894D01*
X164574776Y-133603871D01*
X164617932Y-133534017D01*
X164654595Y-133483020D01*
X164669149Y-133467907D01*
X164706674Y-133458393D01*
X164779195Y-133451532D01*
X164869089Y-133448838D01*
X164932448Y-133450112D01*
X164985189Y-133451416D01*
X165028277Y-133448509D01*
X165062680Y-133437152D01*
X165089361Y-133413104D01*
X165109286Y-133372123D01*
X165116839Y-133338913D01*
X165552931Y-133338913D01*
X165556091Y-133400668D01*
X165594256Y-133483325D01*
X165630180Y-133539987D01*
X165738582Y-133663981D01*
X165871834Y-133747790D01*
X166034568Y-133793614D01*
X166186903Y-133804405D01*
X166325242Y-133797815D01*
X166437487Y-133779423D01*
X166482748Y-133764918D01*
X166620310Y-133680649D01*
X166733679Y-133555626D01*
X166775504Y-133486587D01*
X166814586Y-133379710D01*
X166830328Y-133261289D01*
X166824561Y-133142962D01*
X166799121Y-133036369D01*
X166755842Y-132953149D01*
X166696556Y-132904941D01*
X166683174Y-132900583D01*
X166626221Y-132902576D01*
X166535939Y-132924868D01*
X166435738Y-132960040D01*
X166334836Y-132998512D01*
X166203540Y-133047014D01*
X166059552Y-133099072D01*
X165932742Y-133143964D01*
X165811978Y-133187903D01*
X165706957Y-133229299D01*
X165628036Y-133263846D01*
X165585571Y-133287237D01*
X165583142Y-133289359D01*
X165552931Y-133338913D01*
X165116839Y-133338913D01*
X165123423Y-133309971D01*
X165132735Y-133222405D01*
X165138190Y-133105187D01*
X165140752Y-132954074D01*
X165141387Y-132764827D01*
X165141061Y-132533205D01*
X165140740Y-132255988D01*
X165140814Y-131985299D01*
X165141166Y-131760821D01*
X165141992Y-131577916D01*
X165143488Y-131431946D01*
X165145850Y-131318271D01*
X165149273Y-131232252D01*
X165153954Y-131169250D01*
X165160088Y-131124627D01*
X165167871Y-131093743D01*
X165177499Y-131071960D01*
X165189168Y-131054639D01*
X165191591Y-131051521D01*
X165228579Y-130977545D01*
X165242442Y-130899972D01*
X165264811Y-130804816D01*
X165301288Y-130757786D01*
X165367751Y-130711396D01*
X165426831Y-130711774D01*
X165426831Y-130711774D01*
G37*
X165426831Y-130711774D02*
X165490339Y-130759421D01*
X165496696Y-130766067D01*
X165554803Y-130810183D01*
X165613342Y-130829588D01*
X165615543Y-130829630D01*
X165662086Y-130848261D01*
X165675606Y-130898507D01*
X165654366Y-130971892D01*
X165647484Y-130985479D01*
X165632715Y-131046410D01*
X165662730Y-131086489D01*
X165735269Y-131104174D01*
X165817634Y-131101669D01*
X165900791Y-131096644D01*
X165952728Y-131106044D01*
X165992041Y-131134083D01*
X166000853Y-131143183D01*
X166045613Y-131208286D01*
X166068872Y-131265158D01*
X166097216Y-131323706D01*
X166148811Y-131391664D01*
X166171900Y-131415800D01*
X166225696Y-131465145D01*
X166259068Y-131482529D01*
X166286930Y-131472556D01*
X166305397Y-131456999D01*
X166376941Y-131418898D01*
X166447648Y-131426240D01*
X166498803Y-131469844D01*
X166521744Y-131511313D01*
X166518532Y-131549489D01*
X166487532Y-131606329D01*
X166453769Y-131675739D01*
X166437662Y-131737919D01*
X166437437Y-131743610D01*
X166444031Y-131781689D01*
X166473848Y-131790040D01*
X166512774Y-131783290D01*
X166567614Y-131777402D01*
X166594044Y-131799764D01*
X166604687Y-131832791D01*
X166634580Y-131892575D01*
X166669207Y-131924497D01*
X166721224Y-131926203D01*
X166783876Y-131891884D01*
X166846923Y-131831883D01*
X166900125Y-131756544D01*
X166933244Y-131676212D01*
X166937649Y-131653317D01*
X166951424Y-131585028D01*
X166978488Y-131549540D01*
X167033939Y-131528836D01*
X167044130Y-131526264D01*
X167099822Y-131503748D01*
X167122584Y-131478497D01*
X167109251Y-131461244D01*
X167063215Y-131461517D01*
X167009192Y-131449513D01*
X166977768Y-131396033D01*
X166971760Y-131344979D01*
X166974921Y-131313958D01*
X166991633Y-131292869D01*
X167031965Y-131277072D01*
X167105990Y-131261924D01*
X167177610Y-131250123D01*
X167263085Y-131249253D01*
X167310052Y-131280699D01*
X167318978Y-131345275D01*
X167290329Y-131443796D01*
X167289489Y-131445843D01*
X167288880Y-131483927D01*
X167330433Y-131512312D01*
X167339522Y-131515920D01*
X167388576Y-131543962D01*
X167391556Y-131574515D01*
X167347207Y-131608968D01*
X167254273Y-131648710D01*
X167203859Y-131666185D01*
X167099288Y-131705454D01*
X167042220Y-131737910D01*
X167032008Y-131759199D01*
X167020467Y-131788850D01*
X166982391Y-131806662D01*
X166932130Y-131838697D01*
X166923288Y-131893806D01*
X166954937Y-131960272D01*
X166978161Y-131986922D01*
X167004524Y-131992955D01*
X167049531Y-131977548D01*
X167102804Y-131952419D01*
X167180608Y-131919789D01*
X167247594Y-131900114D01*
X167269071Y-131897498D01*
X167320259Y-131918645D01*
X167348207Y-131975278D01*
X167351976Y-132057182D01*
X167330628Y-132154144D01*
X167299361Y-132227195D01*
X167267691Y-132291867D01*
X167259260Y-132333835D01*
X167273481Y-132375317D01*
X167294455Y-132412313D01*
X167340954Y-132497265D01*
X167359842Y-132555232D01*
X167352189Y-132601219D01*
X167319066Y-132650230D01*
X167312035Y-132658689D01*
X167274660Y-132711219D01*
X167257088Y-132765909D01*
X167254219Y-132843019D01*
X167255890Y-132881790D01*
X167263763Y-133028809D01*
X167149349Y-133056308D01*
X167079252Y-133075964D01*
X167044598Y-133100761D01*
X167031047Y-133146210D01*
X167027184Y-133188458D01*
X167036899Y-133287816D01*
X167085271Y-133356916D01*
X167175432Y-133399411D01*
X167215786Y-133408380D01*
X167352964Y-133436565D01*
X167445239Y-133464549D01*
X167498502Y-133494540D01*
X167516885Y-133521155D01*
X167514848Y-133581891D01*
X167484712Y-133669797D01*
X167431784Y-133773707D01*
X167361375Y-133882455D01*
X167318229Y-133938920D01*
X167241319Y-134036470D01*
X167172311Y-134131318D01*
X167104934Y-134233359D01*
X167032918Y-134352486D01*
X166949992Y-134498594D01*
X166863657Y-134656157D01*
X166774100Y-134824859D01*
X166708139Y-134958996D01*
X166662534Y-135067196D01*
X166634047Y-135158087D01*
X166619436Y-135240299D01*
X166615462Y-135317218D01*
X166604938Y-135404926D01*
X166569863Y-135486767D01*
X166504326Y-135571469D01*
X166402416Y-135667757D01*
X166346327Y-135714581D01*
X166108403Y-135890994D01*
X165864507Y-136039689D01*
X165620847Y-136158313D01*
X165383634Y-136244511D01*
X165159074Y-136295929D01*
X164953378Y-136310214D01*
X164815186Y-136295134D01*
X164723870Y-136268666D01*
X164600926Y-136222059D01*
X164458599Y-136160885D01*
X164309135Y-136090714D01*
X164164778Y-136017116D01*
X164037774Y-135945664D01*
X164010770Y-135929164D01*
X163823206Y-135803078D01*
X163726229Y-135722507D01*
X164153346Y-135722507D01*
X164187207Y-135794969D01*
X164261700Y-135859809D01*
X164307325Y-135887802D01*
X164400672Y-135932696D01*
X164461783Y-135940151D01*
X164494176Y-135908889D01*
X164496877Y-135882135D01*
X164581770Y-135882135D01*
X164588654Y-135967605D01*
X164616245Y-136021348D01*
X164676252Y-136059695D01*
X164722446Y-136078337D01*
X164833179Y-136108312D01*
X164917872Y-136108211D01*
X164970292Y-136078814D01*
X164983939Y-136045613D01*
X164986809Y-135961583D01*
X164962071Y-135901325D01*
X164901895Y-135854510D01*
X164808808Y-135814543D01*
X164703676Y-135780652D01*
X164636052Y-135772637D01*
X164598419Y-135792737D01*
X164583263Y-135843188D01*
X164581770Y-135882135D01*
X164496877Y-135882135D01*
X164501370Y-135837631D01*
X164500034Y-135817761D01*
X164477974Y-135747722D01*
X164430548Y-135683060D01*
X164367520Y-135629029D01*
X164298655Y-135590881D01*
X164233716Y-135573872D01*
X164182468Y-135583255D01*
X164154675Y-135624282D01*
X164153424Y-135631265D01*
X164153346Y-135722507D01*
X163726229Y-135722507D01*
X163679211Y-135683444D01*
X163573296Y-135563336D01*
X163518497Y-135468041D01*
X163801346Y-135468041D01*
X163809425Y-135513395D01*
X163840613Y-135556996D01*
X163899792Y-135614131D01*
X163961625Y-135668989D01*
X163998754Y-135692566D01*
X164022597Y-135689372D01*
X164040438Y-135669674D01*
X164067252Y-135615366D01*
X164072705Y-135585681D01*
X164058834Y-135543652D01*
X164023372Y-135482928D01*
X163975182Y-135414835D01*
X163923125Y-135350695D01*
X163876063Y-135301833D01*
X163842858Y-135279572D01*
X163834617Y-135281451D01*
X163825683Y-135310682D01*
X163813646Y-135372189D01*
X163808638Y-135403012D01*
X163801346Y-135468041D01*
X163518497Y-135468041D01*
X163499971Y-135435826D01*
X163453745Y-135293986D01*
X163437689Y-135205995D01*
X163421308Y-135107916D01*
X163403067Y-135025129D01*
X163386772Y-134974757D01*
X163385992Y-134973238D01*
X163374387Y-134959446D01*
X163564364Y-134959446D01*
X163585173Y-135033368D01*
X163637871Y-135085596D01*
X163694570Y-135101102D01*
X163777869Y-135120958D01*
X163870435Y-135173958D01*
X163943821Y-135238526D01*
X163997821Y-135289568D01*
X164031636Y-135299947D01*
X164054069Y-135270776D01*
X164060282Y-135253269D01*
X164056673Y-135191489D01*
X164032278Y-135138559D01*
X164149149Y-135138559D01*
X164159333Y-135278946D01*
X164192347Y-135380748D01*
X164251882Y-135452491D01*
X164298116Y-135482681D01*
X164388690Y-135522950D01*
X164447984Y-135525948D01*
X164482439Y-135488505D01*
X164496499Y-135417535D01*
X164581381Y-135417535D01*
X164585023Y-135527050D01*
X164602149Y-135600621D01*
X164642065Y-135651148D01*
X164714072Y-135691529D01*
X164804084Y-135726295D01*
X164891566Y-135751434D01*
X164946808Y-135747509D01*
X164947239Y-135747058D01*
X165089889Y-135747058D01*
X165091102Y-135873192D01*
X165094423Y-135980501D01*
X165099372Y-136059001D01*
X165105474Y-136098709D01*
X165106840Y-136101168D01*
X165158340Y-136117536D01*
X165250392Y-136105178D01*
X165381750Y-136064331D01*
X165458558Y-136034608D01*
X165763981Y-135891891D01*
X166035678Y-135724034D01*
X166168735Y-135623776D01*
X166288518Y-135521627D01*
X166369325Y-135436734D01*
X166416670Y-135361722D01*
X166436064Y-135289220D01*
X166437270Y-135264625D01*
X166455201Y-135135565D01*
X166508289Y-134971103D01*
X166596190Y-134772244D01*
X166627264Y-134710005D01*
X166676276Y-134610949D01*
X166714931Y-134527038D01*
X166738141Y-134469647D01*
X166742542Y-134452322D01*
X166727387Y-134435145D01*
X166677167Y-134428200D01*
X166584755Y-134430621D01*
X166570921Y-134431472D01*
X166420026Y-134442523D01*
X166313722Y-134456100D01*
X166245780Y-134476544D01*
X166209974Y-134508198D01*
X166200075Y-134555404D01*
X166209855Y-134622504D01*
X166222626Y-134674299D01*
X166243732Y-134777985D01*
X166242969Y-134852220D01*
X166233614Y-134886089D01*
X166183913Y-134986644D01*
X166124620Y-135060718D01*
X166064432Y-135098366D01*
X166045552Y-135101102D01*
X165986008Y-135119407D01*
X165939226Y-135155462D01*
X165854497Y-135222698D01*
X165751765Y-135264160D01*
X165647547Y-135275911D01*
X165558360Y-135254016D01*
X165548769Y-135248517D01*
X165492296Y-135237583D01*
X165407881Y-135248438D01*
X165311198Y-135276727D01*
X165217920Y-135318092D01*
X165156419Y-135357566D01*
X165129505Y-135380377D01*
X165111048Y-135405205D01*
X165099453Y-135441387D01*
X165093126Y-135498259D01*
X165090472Y-135585158D01*
X165089896Y-135711422D01*
X165089889Y-135747058D01*
X164947239Y-135747058D01*
X164981210Y-135711556D01*
X164995560Y-135676519D01*
X165005585Y-135571071D01*
X164973351Y-135461917D01*
X164905307Y-135359957D01*
X164807902Y-135276092D01*
X164736265Y-135238242D01*
X164665331Y-135213593D01*
X164619868Y-135215326D01*
X164594389Y-135249790D01*
X164583411Y-135323335D01*
X164581381Y-135417535D01*
X164496499Y-135417535D01*
X164498497Y-135407450D01*
X164500213Y-135383226D01*
X164495731Y-135247824D01*
X164462095Y-135148286D01*
X164395668Y-135076488D01*
X164350638Y-135049274D01*
X164286696Y-135012562D01*
X164243881Y-134980494D01*
X164237599Y-134973103D01*
X164209930Y-134954269D01*
X164182875Y-134977114D01*
X164161246Y-135032640D01*
X164149852Y-135111847D01*
X164149149Y-135138559D01*
X164032278Y-135138559D01*
X164019985Y-135111888D01*
X163957685Y-135027336D01*
X163891534Y-134962335D01*
X163823005Y-134918100D01*
X163743020Y-134899694D01*
X163689540Y-134897698D01*
X163614761Y-134899905D01*
X163577724Y-134910820D01*
X163565369Y-134936884D01*
X163564364Y-134959446D01*
X163374387Y-134959446D01*
X163331025Y-134907914D01*
X163255773Y-134860967D01*
X163194978Y-134846847D01*
X163141417Y-134832209D01*
X163073871Y-134795808D01*
X163055855Y-134783284D01*
X162968555Y-134736758D01*
X162885651Y-134719720D01*
X162828079Y-134714833D01*
X162805336Y-134690479D01*
X162801601Y-134642288D01*
X162777004Y-134556352D01*
X162706391Y-134474079D01*
X162671630Y-134449557D01*
X163360961Y-134449557D01*
X163370619Y-134488858D01*
X163394745Y-134556068D01*
X163426062Y-134633124D01*
X163457298Y-134701967D01*
X163477875Y-134739817D01*
X163516970Y-134780477D01*
X163572994Y-134792721D01*
X163610390Y-134791084D01*
X163704204Y-134783284D01*
X163711293Y-134645775D01*
X163802498Y-134645775D01*
X163808818Y-134694063D01*
X163830475Y-134769571D01*
X163875798Y-134829314D01*
X163928613Y-134872488D01*
X163991853Y-134916244D01*
X164038792Y-134943741D01*
X164052456Y-134948549D01*
X164064245Y-134925746D01*
X164071311Y-134867736D01*
X164072266Y-134827778D01*
X164065094Y-134709811D01*
X164046825Y-134604871D01*
X164020515Y-134525927D01*
X163992079Y-134487561D01*
X163941828Y-134471019D01*
X163891294Y-134465855D01*
X163833710Y-134485183D01*
X163804250Y-134544770D01*
X163802498Y-134645775D01*
X163711293Y-134645775D01*
X163711948Y-134633090D01*
X163711699Y-134530893D01*
X163697560Y-134473841D01*
X163686523Y-134461857D01*
X163650359Y-134452394D01*
X163585362Y-134445147D01*
X163507741Y-134440728D01*
X163433704Y-134439749D01*
X163379460Y-134442823D01*
X163360961Y-134449557D01*
X162671630Y-134449557D01*
X162634841Y-134423605D01*
X162605564Y-134389457D01*
X162624953Y-134352737D01*
X162691073Y-134315908D01*
X162730804Y-134301491D01*
X162800075Y-134262492D01*
X162830424Y-134229200D01*
X164583758Y-134229200D01*
X164598928Y-134289651D01*
X164640334Y-134309934D01*
X164710502Y-134290904D01*
X164811959Y-134233412D01*
X164843433Y-134212502D01*
X164923782Y-134160288D01*
X164983449Y-134134162D01*
X165037583Y-134134792D01*
X165101328Y-134162845D01*
X165189833Y-134218990D01*
X165203965Y-134228398D01*
X165302097Y-134287286D01*
X165368625Y-134310364D01*
X165407766Y-134297913D01*
X165423739Y-134250211D01*
X165424254Y-134242993D01*
X165416180Y-134084180D01*
X165370994Y-133935315D01*
X165284727Y-133786624D01*
X165192079Y-133670921D01*
X165102925Y-133586351D01*
X165023414Y-133549575D01*
X164947881Y-133559897D01*
X164870659Y-133616617D01*
X164857903Y-133629808D01*
X164784782Y-133722598D01*
X164712274Y-133838858D01*
X164649528Y-133961437D01*
X164605690Y-134073185D01*
X164592297Y-134127729D01*
X164583758Y-134229200D01*
X162830424Y-134229200D01*
X162850299Y-134207398D01*
X162870282Y-134164280D01*
X162869495Y-134127246D01*
X162844173Y-134078683D01*
X162813019Y-134032941D01*
X162724451Y-133904921D01*
X162660999Y-133808769D01*
X162617393Y-133735578D01*
X162588364Y-133676438D01*
X162568644Y-133622444D01*
X162566983Y-133616991D01*
X162553864Y-133546323D01*
X162568143Y-133497833D01*
X162615577Y-133467822D01*
X162701925Y-133452594D01*
X162829459Y-133448449D01*
X163025576Y-133448449D01*
X163101764Y-133583446D01*
X163224172Y-133750830D01*
X163380357Y-133882505D01*
X163486796Y-133941558D01*
X163598137Y-133976253D01*
X163737673Y-133995533D01*
X163888788Y-133999483D01*
X164034868Y-133988191D01*
X164159297Y-133961744D01*
X164218362Y-133937732D01*
X164392172Y-133819906D01*
X164528978Y-133673894D01*
X164574776Y-133603871D01*
X164617932Y-133534017D01*
X164654595Y-133483020D01*
X164669149Y-133467907D01*
X164706674Y-133458393D01*
X164779195Y-133451532D01*
X164869089Y-133448838D01*
X164932448Y-133450112D01*
X164985189Y-133451416D01*
X165028277Y-133448509D01*
X165062680Y-133437152D01*
X165089361Y-133413104D01*
X165109286Y-133372123D01*
X165116839Y-133338913D01*
X165552931Y-133338913D01*
X165556091Y-133400668D01*
X165594256Y-133483325D01*
X165630180Y-133539987D01*
X165738582Y-133663981D01*
X165871834Y-133747790D01*
X166034568Y-133793614D01*
X166186903Y-133804405D01*
X166325242Y-133797815D01*
X166437487Y-133779423D01*
X166482748Y-133764918D01*
X166620310Y-133680649D01*
X166733679Y-133555626D01*
X166775504Y-133486587D01*
X166814586Y-133379710D01*
X166830328Y-133261289D01*
X166824561Y-133142962D01*
X166799121Y-133036369D01*
X166755842Y-132953149D01*
X166696556Y-132904941D01*
X166683174Y-132900583D01*
X166626221Y-132902576D01*
X166535939Y-132924868D01*
X166435738Y-132960040D01*
X166334836Y-132998512D01*
X166203540Y-133047014D01*
X166059552Y-133099072D01*
X165932742Y-133143964D01*
X165811978Y-133187903D01*
X165706957Y-133229299D01*
X165628036Y-133263846D01*
X165585571Y-133287237D01*
X165583142Y-133289359D01*
X165552931Y-133338913D01*
X165116839Y-133338913D01*
X165123423Y-133309971D01*
X165132735Y-133222405D01*
X165138190Y-133105187D01*
X165140752Y-132954074D01*
X165141387Y-132764827D01*
X165141061Y-132533205D01*
X165140740Y-132255988D01*
X165140814Y-131985299D01*
X165141166Y-131760821D01*
X165141992Y-131577916D01*
X165143488Y-131431946D01*
X165145850Y-131318271D01*
X165149273Y-131232252D01*
X165153954Y-131169250D01*
X165160088Y-131124627D01*
X165167871Y-131093743D01*
X165177499Y-131071960D01*
X165189168Y-131054639D01*
X165191591Y-131051521D01*
X165228579Y-130977545D01*
X165242442Y-130899972D01*
X165264811Y-130804816D01*
X165301288Y-130757786D01*
X165367751Y-130711396D01*
X165426831Y-130711774D01*
G04 #@! TD*
M02*
