G04 #@! TF.GenerationSoftware,KiCad,Pcbnew,(5.0.0)*
G04 #@! TF.CreationDate,2018-10-09T20:55:24+10:30*
G04 #@! TF.ProjectId,Paragon,50617261676F6E2E6B696361645F7063,1.0*
G04 #@! TF.SameCoordinates,Original*
G04 #@! TF.FileFunction,Legend,Bot*
G04 #@! TF.FilePolarity,Positive*
%FSLAX46Y46*%
G04 Gerber Fmt 4.6, Leading zero omitted, Abs format (unit mm)*
G04 Created by KiCad (PCBNEW (5.0.0)) date 10/09/18 20:55:24*
%MOMM*%
%LPD*%
G01*
G04 APERTURE LIST*
%ADD10C,0.200000*%
%ADD11C,0.150000*%
%ADD12C,0.120000*%
%ADD13C,0.125000*%
G04 APERTURE END LIST*
D10*
X166947619Y-84985714D02*
X166947619Y-85795238D01*
X166995238Y-85890476D01*
X167042857Y-85938095D01*
X167138095Y-85985714D01*
X167280952Y-85985714D01*
X167376190Y-85938095D01*
X166947619Y-85604761D02*
X167042857Y-85652380D01*
X167233333Y-85652380D01*
X167328571Y-85604761D01*
X167376190Y-85557142D01*
X167423809Y-85461904D01*
X167423809Y-85176190D01*
X167376190Y-85080952D01*
X167328571Y-85033333D01*
X167233333Y-84985714D01*
X167042857Y-84985714D01*
X166947619Y-85033333D01*
X166471428Y-85652380D02*
X166471428Y-84985714D01*
X166471428Y-84652380D02*
X166519047Y-84700000D01*
X166471428Y-84747619D01*
X166423809Y-84700000D01*
X166471428Y-84652380D01*
X166471428Y-84747619D01*
X166138095Y-84985714D02*
X165757142Y-84985714D01*
X165995238Y-84652380D02*
X165995238Y-85509523D01*
X165947619Y-85604761D01*
X165852380Y-85652380D01*
X165757142Y-85652380D01*
X165423809Y-85652380D02*
X165423809Y-84652380D01*
X164995238Y-85652380D02*
X164995238Y-85128571D01*
X165042857Y-85033333D01*
X165138095Y-84985714D01*
X165280952Y-84985714D01*
X165376190Y-85033333D01*
X165423809Y-85080952D01*
X164090476Y-84985714D02*
X164090476Y-85652380D01*
X164519047Y-84985714D02*
X164519047Y-85509523D01*
X164471428Y-85604761D01*
X164376190Y-85652380D01*
X164233333Y-85652380D01*
X164138095Y-85604761D01*
X164090476Y-85557142D01*
X163614285Y-85652380D02*
X163614285Y-84652380D01*
X163614285Y-85033333D02*
X163519047Y-84985714D01*
X163328571Y-84985714D01*
X163233333Y-85033333D01*
X163185714Y-85080952D01*
X163138095Y-85176190D01*
X163138095Y-85461904D01*
X163185714Y-85557142D01*
X163233333Y-85604761D01*
X163328571Y-85652380D01*
X163519047Y-85652380D01*
X163614285Y-85604761D01*
X162709523Y-85557142D02*
X162661904Y-85604761D01*
X162709523Y-85652380D01*
X162757142Y-85604761D01*
X162709523Y-85557142D01*
X162709523Y-85652380D01*
X161804761Y-85604761D02*
X161900000Y-85652380D01*
X162090476Y-85652380D01*
X162185714Y-85604761D01*
X162233333Y-85557142D01*
X162280952Y-85461904D01*
X162280952Y-85176190D01*
X162233333Y-85080952D01*
X162185714Y-85033333D01*
X162090476Y-84985714D01*
X161900000Y-84985714D01*
X161804761Y-85033333D01*
X161233333Y-85652380D02*
X161328571Y-85604761D01*
X161376190Y-85557142D01*
X161423809Y-85461904D01*
X161423809Y-85176190D01*
X161376190Y-85080952D01*
X161328571Y-85033333D01*
X161233333Y-84985714D01*
X161090476Y-84985714D01*
X160995238Y-85033333D01*
X160947619Y-85080952D01*
X160900000Y-85176190D01*
X160900000Y-85461904D01*
X160947619Y-85557142D01*
X160995238Y-85604761D01*
X161090476Y-85652380D01*
X161233333Y-85652380D01*
X160471428Y-85652380D02*
X160471428Y-84985714D01*
X160471428Y-85080952D02*
X160423809Y-85033333D01*
X160328571Y-84985714D01*
X160185714Y-84985714D01*
X160090476Y-85033333D01*
X160042857Y-85128571D01*
X160042857Y-85652380D01*
X160042857Y-85128571D02*
X159995238Y-85033333D01*
X159900000Y-84985714D01*
X159757142Y-84985714D01*
X159661904Y-85033333D01*
X159614285Y-85128571D01*
X159614285Y-85652380D01*
X158423809Y-84604761D02*
X159280952Y-85890476D01*
X158233333Y-84985714D02*
X157852380Y-84985714D01*
X158090476Y-84652380D02*
X158090476Y-85509523D01*
X158042857Y-85604761D01*
X157947619Y-85652380D01*
X157852380Y-85652380D01*
X157519047Y-85652380D02*
X157519047Y-84985714D01*
X157519047Y-84652380D02*
X157566666Y-84700000D01*
X157519047Y-84747619D01*
X157471428Y-84700000D01*
X157519047Y-84652380D01*
X157519047Y-84747619D01*
X157042857Y-85652380D02*
X157042857Y-84985714D01*
X157042857Y-85080952D02*
X156995238Y-85033333D01*
X156900000Y-84985714D01*
X156757142Y-84985714D01*
X156661904Y-85033333D01*
X156614285Y-85128571D01*
X156614285Y-85652380D01*
X156614285Y-85128571D02*
X156566666Y-85033333D01*
X156471428Y-84985714D01*
X156328571Y-84985714D01*
X156233333Y-85033333D01*
X156185714Y-85128571D01*
X156185714Y-85652380D01*
X155709523Y-85652380D02*
X155709523Y-84652380D01*
X155709523Y-85033333D02*
X155614285Y-84985714D01*
X155423809Y-84985714D01*
X155328571Y-85033333D01*
X155280952Y-85080952D01*
X155233333Y-85176190D01*
X155233333Y-85461904D01*
X155280952Y-85557142D01*
X155328571Y-85604761D01*
X155423809Y-85652380D01*
X155614285Y-85652380D01*
X155709523Y-85604761D01*
X154376190Y-85652380D02*
X154376190Y-85128571D01*
X154423809Y-85033333D01*
X154519047Y-84985714D01*
X154709523Y-84985714D01*
X154804761Y-85033333D01*
X154376190Y-85604761D02*
X154471428Y-85652380D01*
X154709523Y-85652380D01*
X154804761Y-85604761D01*
X154852380Y-85509523D01*
X154852380Y-85414285D01*
X154804761Y-85319047D01*
X154709523Y-85271428D01*
X154471428Y-85271428D01*
X154376190Y-85223809D01*
X153757142Y-85652380D02*
X153852380Y-85604761D01*
X153900000Y-85509523D01*
X153900000Y-84652380D01*
X153376190Y-85652380D02*
X153376190Y-84985714D01*
X153376190Y-84652380D02*
X153423809Y-84700000D01*
X153376190Y-84747619D01*
X153328571Y-84700000D01*
X153376190Y-84652380D01*
X153376190Y-84747619D01*
X152471428Y-85604761D02*
X152566666Y-85652380D01*
X152757142Y-85652380D01*
X152852380Y-85604761D01*
X152900000Y-85557142D01*
X152947619Y-85461904D01*
X152947619Y-85176190D01*
X152900000Y-85080952D01*
X152852380Y-85033333D01*
X152757142Y-84985714D01*
X152566666Y-84985714D01*
X152471428Y-85033333D01*
X152042857Y-85652380D02*
X152042857Y-84985714D01*
X152042857Y-84652380D02*
X152090476Y-84700000D01*
X152042857Y-84747619D01*
X151995238Y-84700000D01*
X152042857Y-84652380D01*
X152042857Y-84747619D01*
X151423809Y-85652380D02*
X151519047Y-85604761D01*
X151566666Y-85557142D01*
X151614285Y-85461904D01*
X151614285Y-85176190D01*
X151566666Y-85080952D01*
X151519047Y-85033333D01*
X151423809Y-84985714D01*
X151280952Y-84985714D01*
X151185714Y-85033333D01*
X151138095Y-85080952D01*
X151090476Y-85176190D01*
X151090476Y-85461904D01*
X151138095Y-85557142D01*
X151185714Y-85604761D01*
X151280952Y-85652380D01*
X151423809Y-85652380D01*
X150233333Y-84985714D02*
X150233333Y-85652380D01*
X150661904Y-84985714D02*
X150661904Y-85509523D01*
X150614285Y-85604761D01*
X150519047Y-85652380D01*
X150376190Y-85652380D01*
X150280952Y-85604761D01*
X150233333Y-85557142D01*
X149804761Y-85604761D02*
X149709523Y-85652380D01*
X149519047Y-85652380D01*
X149423809Y-85604761D01*
X149376190Y-85509523D01*
X149376190Y-85461904D01*
X149423809Y-85366666D01*
X149519047Y-85319047D01*
X149661904Y-85319047D01*
X149757142Y-85271428D01*
X149804761Y-85176190D01*
X149804761Y-85128571D01*
X149757142Y-85033333D01*
X149661904Y-84985714D01*
X149519047Y-84985714D01*
X149423809Y-85033333D01*
D11*
X183071428Y-105133333D02*
X182690476Y-105133333D01*
X183147619Y-105361904D02*
X182880952Y-104561904D01*
X182614285Y-105361904D01*
X182195238Y-104561904D02*
X182119047Y-104561904D01*
X182042857Y-104600000D01*
X182004761Y-104638095D01*
X181966666Y-104714285D01*
X181928571Y-104866666D01*
X181928571Y-105057142D01*
X181966666Y-105209523D01*
X182004761Y-105285714D01*
X182042857Y-105323809D01*
X182119047Y-105361904D01*
X182195238Y-105361904D01*
X182271428Y-105323809D01*
X182309523Y-105285714D01*
X182347619Y-105209523D01*
X182385714Y-105057142D01*
X182385714Y-104866666D01*
X182347619Y-104714285D01*
X182309523Y-104638095D01*
X182271428Y-104600000D01*
X182195238Y-104561904D01*
X183071428Y-107633333D02*
X182690476Y-107633333D01*
X183147619Y-107861904D02*
X182880952Y-107061904D01*
X182614285Y-107861904D01*
X181928571Y-107861904D02*
X182385714Y-107861904D01*
X182157142Y-107861904D02*
X182157142Y-107061904D01*
X182233333Y-107176190D01*
X182309523Y-107252380D01*
X182385714Y-107290476D01*
X183071428Y-110233333D02*
X182690476Y-110233333D01*
X183147619Y-110461904D02*
X182880952Y-109661904D01*
X182614285Y-110461904D01*
X182385714Y-109738095D02*
X182347619Y-109700000D01*
X182271428Y-109661904D01*
X182080952Y-109661904D01*
X182004761Y-109700000D01*
X181966666Y-109738095D01*
X181928571Y-109814285D01*
X181928571Y-109890476D01*
X181966666Y-110004761D01*
X182423809Y-110461904D01*
X181928571Y-110461904D01*
X183071428Y-112833333D02*
X182690476Y-112833333D01*
X183147619Y-113061904D02*
X182880952Y-112261904D01*
X182614285Y-113061904D01*
X182423809Y-112261904D02*
X181928571Y-112261904D01*
X182195238Y-112566666D01*
X182080952Y-112566666D01*
X182004761Y-112604761D01*
X181966666Y-112642857D01*
X181928571Y-112719047D01*
X181928571Y-112909523D01*
X181966666Y-112985714D01*
X182004761Y-113023809D01*
X182080952Y-113061904D01*
X182309523Y-113061904D01*
X182385714Y-113023809D01*
X182423809Y-112985714D01*
X183071428Y-115233333D02*
X182690476Y-115233333D01*
X183147619Y-115461904D02*
X182880952Y-114661904D01*
X182614285Y-115461904D01*
X182004761Y-114928571D02*
X182004761Y-115461904D01*
X182195238Y-114623809D02*
X182385714Y-115195238D01*
X181890476Y-115195238D01*
X183071428Y-117833333D02*
X182690476Y-117833333D01*
X183147619Y-118061904D02*
X182880952Y-117261904D01*
X182614285Y-118061904D01*
X181966666Y-117261904D02*
X182347619Y-117261904D01*
X182385714Y-117642857D01*
X182347619Y-117604761D01*
X182271428Y-117566666D01*
X182080952Y-117566666D01*
X182004761Y-117604761D01*
X181966666Y-117642857D01*
X181928571Y-117719047D01*
X181928571Y-117909523D01*
X181966666Y-117985714D01*
X182004761Y-118023809D01*
X182080952Y-118061904D01*
X182271428Y-118061904D01*
X182347619Y-118023809D01*
X182385714Y-117985714D01*
X183071428Y-120433333D02*
X182690476Y-120433333D01*
X183147619Y-120661904D02*
X182880952Y-119861904D01*
X182614285Y-120661904D01*
X182004761Y-119861904D02*
X182157142Y-119861904D01*
X182233333Y-119900000D01*
X182271428Y-119938095D01*
X182347619Y-120052380D01*
X182385714Y-120204761D01*
X182385714Y-120509523D01*
X182347619Y-120585714D01*
X182309523Y-120623809D01*
X182233333Y-120661904D01*
X182080952Y-120661904D01*
X182004761Y-120623809D01*
X181966666Y-120585714D01*
X181928571Y-120509523D01*
X181928571Y-120319047D01*
X181966666Y-120242857D01*
X182004761Y-120204761D01*
X182080952Y-120166666D01*
X182233333Y-120166666D01*
X182309523Y-120204761D01*
X182347619Y-120242857D01*
X182385714Y-120319047D01*
X183071428Y-122933333D02*
X182690476Y-122933333D01*
X183147619Y-123161904D02*
X182880952Y-122361904D01*
X182614285Y-123161904D01*
X182423809Y-122361904D02*
X181890476Y-122361904D01*
X182233333Y-123161904D01*
X175738095Y-137852380D02*
X175738095Y-138309523D01*
X175738095Y-138080952D02*
X176538095Y-138080952D01*
X176423809Y-138157142D01*
X176347619Y-138233333D01*
X176309523Y-138309523D01*
X176538095Y-137585714D02*
X176538095Y-137090476D01*
X176233333Y-137357142D01*
X176233333Y-137242857D01*
X176195238Y-137166666D01*
X176157142Y-137128571D01*
X176080952Y-137090476D01*
X175890476Y-137090476D01*
X175814285Y-137128571D01*
X175776190Y-137166666D01*
X175738095Y-137242857D01*
X175738095Y-137471428D01*
X175776190Y-137547619D01*
X175814285Y-137585714D01*
X173238095Y-137852380D02*
X173238095Y-138309523D01*
X173238095Y-138080952D02*
X174038095Y-138080952D01*
X173923809Y-138157142D01*
X173847619Y-138233333D01*
X173809523Y-138309523D01*
X173961904Y-137547619D02*
X174000000Y-137509523D01*
X174038095Y-137433333D01*
X174038095Y-137242857D01*
X174000000Y-137166666D01*
X173961904Y-137128571D01*
X173885714Y-137090476D01*
X173809523Y-137090476D01*
X173695238Y-137128571D01*
X173238095Y-137585714D01*
X173238095Y-137090476D01*
X170738095Y-137852380D02*
X170738095Y-138309523D01*
X170738095Y-138080952D02*
X171538095Y-138080952D01*
X171423809Y-138157142D01*
X171347619Y-138233333D01*
X171309523Y-138309523D01*
X170738095Y-137090476D02*
X170738095Y-137547619D01*
X170738095Y-137319047D02*
X171538095Y-137319047D01*
X171423809Y-137395238D01*
X171347619Y-137471428D01*
X171309523Y-137547619D01*
X168138095Y-137852380D02*
X168138095Y-138309523D01*
X168138095Y-138080952D02*
X168938095Y-138080952D01*
X168823809Y-138157142D01*
X168747619Y-138233333D01*
X168709523Y-138309523D01*
X168938095Y-137357142D02*
X168938095Y-137280952D01*
X168900000Y-137204761D01*
X168861904Y-137166666D01*
X168785714Y-137128571D01*
X168633333Y-137090476D01*
X168442857Y-137090476D01*
X168290476Y-137128571D01*
X168214285Y-137166666D01*
X168176190Y-137204761D01*
X168138095Y-137280952D01*
X168138095Y-137357142D01*
X168176190Y-137433333D01*
X168214285Y-137471428D01*
X168290476Y-137509523D01*
X168442857Y-137547619D01*
X168633333Y-137547619D01*
X168785714Y-137509523D01*
X168861904Y-137471428D01*
X168900000Y-137433333D01*
X168938095Y-137357142D01*
X165638095Y-137852380D02*
X165638095Y-137699999D01*
X165676190Y-137623809D01*
X165714285Y-137585714D01*
X165828571Y-137509523D01*
X165980952Y-137471428D01*
X166285714Y-137471428D01*
X166361904Y-137509523D01*
X166400000Y-137547619D01*
X166438095Y-137623809D01*
X166438095Y-137776190D01*
X166399999Y-137852380D01*
X166361904Y-137890476D01*
X166285714Y-137928571D01*
X166095238Y-137928571D01*
X166019047Y-137890476D01*
X165980952Y-137852380D01*
X165942857Y-137776190D01*
X165942857Y-137623809D01*
X165980952Y-137547619D01*
X166019047Y-137509523D01*
X166095238Y-137471428D01*
X163595238Y-137776190D02*
X163633333Y-137852380D01*
X163671428Y-137890476D01*
X163747619Y-137928571D01*
X163785714Y-137928571D01*
X163861904Y-137890476D01*
X163899999Y-137852380D01*
X163938095Y-137776190D01*
X163938095Y-137623809D01*
X163900000Y-137547619D01*
X163861904Y-137509523D01*
X163785714Y-137471428D01*
X163747619Y-137471428D01*
X163671428Y-137509523D01*
X163633333Y-137547619D01*
X163595238Y-137623809D01*
X163595238Y-137776190D01*
X163557142Y-137852380D01*
X163519047Y-137890476D01*
X163442857Y-137928571D01*
X163290476Y-137928571D01*
X163214285Y-137890476D01*
X163176190Y-137852380D01*
X163138095Y-137776190D01*
X163138095Y-137623809D01*
X163176190Y-137547619D01*
X163214285Y-137509523D01*
X163290476Y-137471428D01*
X163442857Y-137471428D01*
X163519047Y-137509523D01*
X163557142Y-137547619D01*
X163595238Y-137623809D01*
X161338095Y-137966666D02*
X161338095Y-137433333D01*
X160538095Y-137776190D01*
X155238095Y-137547619D02*
X155238095Y-137699999D01*
X155199999Y-137776190D01*
X155161904Y-137814285D01*
X155047619Y-137890476D01*
X154895238Y-137928571D01*
X154590476Y-137928571D01*
X154514285Y-137890476D01*
X154476190Y-137852380D01*
X154438095Y-137776190D01*
X154438095Y-137623809D01*
X154476190Y-137547619D01*
X154514285Y-137509523D01*
X154590476Y-137471428D01*
X154780952Y-137471428D01*
X154857142Y-137509523D01*
X154895238Y-137547619D01*
X154933333Y-137623809D01*
X154933333Y-137776190D01*
X154895238Y-137852380D01*
X154857142Y-137890476D01*
X154780952Y-137928571D01*
X152738095Y-137509523D02*
X152738095Y-137890476D01*
X152357142Y-137928571D01*
X152395238Y-137890476D01*
X152433333Y-137814285D01*
X152433333Y-137623809D01*
X152395238Y-137547619D01*
X152357142Y-137509523D01*
X152280952Y-137471428D01*
X152090476Y-137471428D01*
X152014285Y-137509523D01*
X151976190Y-137547619D01*
X151938095Y-137623809D01*
X151938095Y-137814285D01*
X151976190Y-137890476D01*
X152014285Y-137928571D01*
X149871428Y-137547619D02*
X149338095Y-137547619D01*
X150176190Y-137738095D02*
X149604761Y-137928571D01*
X149604761Y-137433333D01*
X147638095Y-137966666D02*
X147638095Y-137471428D01*
X147333333Y-137738095D01*
X147333333Y-137623809D01*
X147295238Y-137547619D01*
X147257142Y-137509523D01*
X147180952Y-137471428D01*
X146990476Y-137471428D01*
X146914285Y-137509523D01*
X146876190Y-137547619D01*
X146838095Y-137623809D01*
X146838095Y-137852380D01*
X146876190Y-137928571D01*
X146914285Y-137966666D01*
X144961904Y-137928571D02*
X144999999Y-137890476D01*
X145038095Y-137814285D01*
X145038095Y-137623809D01*
X145000000Y-137547619D01*
X144961904Y-137509523D01*
X144885714Y-137471428D01*
X144809523Y-137471428D01*
X144695238Y-137509523D01*
X144238095Y-137966666D01*
X144238095Y-137471428D01*
X141738095Y-137471428D02*
X141738095Y-137928571D01*
X141738095Y-137699999D02*
X142538095Y-137699999D01*
X142423809Y-137776190D01*
X142347619Y-137852380D01*
X142309523Y-137928571D01*
X140038095Y-137738095D02*
X140038095Y-137661904D01*
X140000000Y-137585714D01*
X139961904Y-137547619D01*
X139885714Y-137509523D01*
X139733333Y-137471428D01*
X139542857Y-137471428D01*
X139390476Y-137509523D01*
X139314285Y-137547619D01*
X139276190Y-137585714D01*
X139238095Y-137661904D01*
X139238095Y-137738095D01*
X139276190Y-137814285D01*
X139314285Y-137852380D01*
X139390476Y-137890476D01*
X139542857Y-137928571D01*
X139733333Y-137928571D01*
X139885714Y-137890476D01*
X139961904Y-137852380D01*
X139999999Y-137814285D01*
X140038095Y-137738095D01*
X127885714Y-98204761D02*
X127742857Y-98252380D01*
X127504761Y-98252380D01*
X127409523Y-98204761D01*
X127361904Y-98157142D01*
X127314285Y-98061904D01*
X127314285Y-97966666D01*
X127361904Y-97871428D01*
X127409523Y-97823809D01*
X127504761Y-97776190D01*
X127695238Y-97728571D01*
X127790476Y-97680952D01*
X127838095Y-97633333D01*
X127885714Y-97538095D01*
X127885714Y-97442857D01*
X127838095Y-97347619D01*
X127790476Y-97300000D01*
X127695238Y-97252380D01*
X127457142Y-97252380D01*
X127314285Y-97300000D01*
X126314285Y-98157142D02*
X126361904Y-98204761D01*
X126504761Y-98252380D01*
X126599999Y-98252380D01*
X126742857Y-98204761D01*
X126838095Y-98109523D01*
X126885714Y-98014285D01*
X126933333Y-97823809D01*
X126933333Y-97680952D01*
X126885714Y-97490476D01*
X126838095Y-97395238D01*
X126742857Y-97300000D01*
X126599999Y-97252380D01*
X126504761Y-97252380D01*
X126361904Y-97300000D01*
X126314285Y-97347619D01*
X125885714Y-98252380D02*
X125885714Y-97252380D01*
X125314285Y-98252380D02*
X125742857Y-97680952D01*
X125314285Y-97252380D02*
X125885714Y-97823809D01*
X127971428Y-100777380D02*
X127971428Y-99777380D01*
X127638095Y-100491666D01*
X127304761Y-99777380D01*
X127304761Y-100777380D01*
X126828571Y-100777380D02*
X126828571Y-99777380D01*
X126400000Y-100729761D02*
X126257142Y-100777380D01*
X126019047Y-100777380D01*
X125923809Y-100729761D01*
X125876190Y-100682142D01*
X125828571Y-100586904D01*
X125828571Y-100491666D01*
X125876190Y-100396428D01*
X125923809Y-100348809D01*
X126019047Y-100301190D01*
X126209523Y-100253571D01*
X126304761Y-100205952D01*
X126352380Y-100158333D01*
X126400000Y-100063095D01*
X126400000Y-99967857D01*
X126352380Y-99872619D01*
X126304761Y-99825000D01*
X126209523Y-99777380D01*
X125971428Y-99777380D01*
X125828571Y-99825000D01*
X125209523Y-99777380D02*
X125019047Y-99777380D01*
X124923809Y-99825000D01*
X124828571Y-99920238D01*
X124780952Y-100110714D01*
X124780952Y-100444047D01*
X124828571Y-100634523D01*
X124923809Y-100729761D01*
X125019047Y-100777380D01*
X125209523Y-100777380D01*
X125304761Y-100729761D01*
X125400000Y-100634523D01*
X125447619Y-100444047D01*
X125447619Y-100110714D01*
X125400000Y-99920238D01*
X125304761Y-99825000D01*
X125209523Y-99777380D01*
X127971428Y-103352380D02*
X127971428Y-102352380D01*
X127638095Y-103066666D01*
X127304761Y-102352380D01*
X127304761Y-103352380D01*
X126638095Y-102352380D02*
X126447619Y-102352380D01*
X126352380Y-102400000D01*
X126257142Y-102495238D01*
X126209523Y-102685714D01*
X126209523Y-103019047D01*
X126257142Y-103209523D01*
X126352380Y-103304761D01*
X126447619Y-103352380D01*
X126638095Y-103352380D01*
X126733333Y-103304761D01*
X126828571Y-103209523D01*
X126876190Y-103019047D01*
X126876190Y-102685714D01*
X126828571Y-102495238D01*
X126733333Y-102400000D01*
X126638095Y-102352380D01*
X125828571Y-103304761D02*
X125685714Y-103352380D01*
X125447619Y-103352380D01*
X125352380Y-103304761D01*
X125304761Y-103257142D01*
X125257142Y-103161904D01*
X125257142Y-103066666D01*
X125304761Y-102971428D01*
X125352380Y-102923809D01*
X125447619Y-102876190D01*
X125638095Y-102828571D01*
X125733333Y-102780952D01*
X125780952Y-102733333D01*
X125828571Y-102638095D01*
X125828571Y-102542857D01*
X125780952Y-102447619D01*
X125733333Y-102400000D01*
X125638095Y-102352380D01*
X125400000Y-102352380D01*
X125257142Y-102400000D01*
X124828571Y-103352380D02*
X124828571Y-102352380D01*
X127352380Y-105952380D02*
X127685714Y-105476190D01*
X127923809Y-105952380D02*
X127923809Y-104952380D01*
X127542857Y-104952380D01*
X127447619Y-105000000D01*
X127400000Y-105047619D01*
X127352380Y-105142857D01*
X127352380Y-105285714D01*
X127400000Y-105380952D01*
X127447619Y-105428571D01*
X127542857Y-105476190D01*
X127923809Y-105476190D01*
X126923809Y-105428571D02*
X126590476Y-105428571D01*
X126447619Y-105952380D02*
X126923809Y-105952380D01*
X126923809Y-104952380D01*
X126447619Y-104952380D01*
X126066666Y-105904761D02*
X125923809Y-105952380D01*
X125685714Y-105952380D01*
X125590476Y-105904761D01*
X125542857Y-105857142D01*
X125495238Y-105761904D01*
X125495238Y-105666666D01*
X125542857Y-105571428D01*
X125590476Y-105523809D01*
X125685714Y-105476190D01*
X125876190Y-105428571D01*
X125971428Y-105380952D01*
X126019047Y-105333333D01*
X126066666Y-105238095D01*
X126066666Y-105142857D01*
X126019047Y-105047619D01*
X125971428Y-105000000D01*
X125876190Y-104952380D01*
X125638095Y-104952380D01*
X125495238Y-105000000D01*
X125066666Y-105428571D02*
X124733333Y-105428571D01*
X124590476Y-105952380D02*
X125066666Y-105952380D01*
X125066666Y-104952380D01*
X124590476Y-104952380D01*
X124304761Y-104952380D02*
X123733333Y-104952380D01*
X124019047Y-105952380D02*
X124019047Y-104952380D01*
X127361904Y-107500000D02*
X127457142Y-107452380D01*
X127600000Y-107452380D01*
X127742857Y-107500000D01*
X127838095Y-107595238D01*
X127885714Y-107690476D01*
X127933333Y-107880952D01*
X127933333Y-108023809D01*
X127885714Y-108214285D01*
X127838095Y-108309523D01*
X127742857Y-108404761D01*
X127600000Y-108452380D01*
X127504761Y-108452380D01*
X127361904Y-108404761D01*
X127314285Y-108357142D01*
X127314285Y-108023809D01*
X127504761Y-108023809D01*
X126885714Y-108452380D02*
X126885714Y-107452380D01*
X126314285Y-108452380D01*
X126314285Y-107452380D01*
X125838095Y-108452380D02*
X125838095Y-107452380D01*
X125600000Y-107452380D01*
X125457142Y-107500000D01*
X125361904Y-107595238D01*
X125314285Y-107690476D01*
X125266666Y-107880952D01*
X125266666Y-108023809D01*
X125314285Y-108214285D01*
X125361904Y-108309523D01*
X125457142Y-108404761D01*
X125600000Y-108452380D01*
X125838095Y-108452380D01*
X127933333Y-110052380D02*
X127599999Y-111052380D01*
X127266666Y-110052380D01*
X126361904Y-110957142D02*
X126409523Y-111004761D01*
X126552380Y-111052380D01*
X126647619Y-111052380D01*
X126790476Y-111004761D01*
X126885714Y-110909523D01*
X126933333Y-110814285D01*
X126980952Y-110623809D01*
X126980952Y-110480952D01*
X126933333Y-110290476D01*
X126885714Y-110195238D01*
X126790476Y-110100000D01*
X126647619Y-110052380D01*
X126552380Y-110052380D01*
X126409523Y-110100000D01*
X126361904Y-110147619D01*
X125361904Y-110957142D02*
X125409523Y-111004761D01*
X125552380Y-111052380D01*
X125647619Y-111052380D01*
X125790476Y-111004761D01*
X125885714Y-110909523D01*
X125933333Y-110814285D01*
X125980952Y-110623809D01*
X125980952Y-110480952D01*
X125933333Y-110290476D01*
X125885714Y-110195238D01*
X125790476Y-110100000D01*
X125647619Y-110052380D01*
X125552380Y-110052380D01*
X125409523Y-110100000D01*
X125361904Y-110147619D01*
X184171428Y-102652380D02*
X184171428Y-101652380D01*
X183838095Y-102366666D01*
X183504761Y-101652380D01*
X183504761Y-102652380D01*
X182838095Y-101652380D02*
X182647619Y-101652380D01*
X182552380Y-101700000D01*
X182457142Y-101795238D01*
X182409523Y-101985714D01*
X182409523Y-102319047D01*
X182457142Y-102509523D01*
X182552380Y-102604761D01*
X182647619Y-102652380D01*
X182838095Y-102652380D01*
X182933333Y-102604761D01*
X183028571Y-102509523D01*
X183076190Y-102319047D01*
X183076190Y-101985714D01*
X183028571Y-101795238D01*
X182933333Y-101700000D01*
X182838095Y-101652380D01*
X182028571Y-102604761D02*
X181885714Y-102652380D01*
X181647619Y-102652380D01*
X181552380Y-102604761D01*
X181504761Y-102557142D01*
X181457142Y-102461904D01*
X181457142Y-102366666D01*
X181504761Y-102271428D01*
X181552380Y-102223809D01*
X181647619Y-102176190D01*
X181838095Y-102128571D01*
X181933333Y-102080952D01*
X181980952Y-102033333D01*
X182028571Y-101938095D01*
X182028571Y-101842857D01*
X181980952Y-101747619D01*
X181933333Y-101700000D01*
X181838095Y-101652380D01*
X181599999Y-101652380D01*
X181457142Y-101700000D01*
X181028571Y-102652380D02*
X181028571Y-101652380D01*
X184171428Y-100052380D02*
X184171428Y-99052380D01*
X183838095Y-99766666D01*
X183504761Y-99052380D01*
X183504761Y-100052380D01*
X183028571Y-100052380D02*
X183028571Y-99052380D01*
X182599999Y-100004761D02*
X182457142Y-100052380D01*
X182219047Y-100052380D01*
X182123809Y-100004761D01*
X182076190Y-99957142D01*
X182028571Y-99861904D01*
X182028571Y-99766666D01*
X182076190Y-99671428D01*
X182123809Y-99623809D01*
X182219047Y-99576190D01*
X182409523Y-99528571D01*
X182504761Y-99480952D01*
X182552380Y-99433333D01*
X182599999Y-99338095D01*
X182599999Y-99242857D01*
X182552380Y-99147619D01*
X182504761Y-99100000D01*
X182409523Y-99052380D01*
X182171428Y-99052380D01*
X182028571Y-99100000D01*
X181409523Y-99052380D02*
X181219047Y-99052380D01*
X181123809Y-99100000D01*
X181028571Y-99195238D01*
X180980952Y-99385714D01*
X180980952Y-99719047D01*
X181028571Y-99909523D01*
X181123809Y-100004761D01*
X181219047Y-100052380D01*
X181409523Y-100052380D01*
X181504761Y-100004761D01*
X181599999Y-99909523D01*
X181647619Y-99719047D01*
X181647619Y-99385714D01*
X181599999Y-99195238D01*
X181504761Y-99100000D01*
X181409523Y-99052380D01*
X183585714Y-97504761D02*
X183442857Y-97552380D01*
X183204761Y-97552380D01*
X183109523Y-97504761D01*
X183061904Y-97457142D01*
X183014285Y-97361904D01*
X183014285Y-97266666D01*
X183061904Y-97171428D01*
X183109523Y-97123809D01*
X183204761Y-97076190D01*
X183395238Y-97028571D01*
X183490476Y-96980952D01*
X183538095Y-96933333D01*
X183585714Y-96838095D01*
X183585714Y-96742857D01*
X183538095Y-96647619D01*
X183490476Y-96600000D01*
X183395238Y-96552380D01*
X183157142Y-96552380D01*
X183014285Y-96600000D01*
X182014285Y-97457142D02*
X182061904Y-97504761D01*
X182204761Y-97552380D01*
X182299999Y-97552380D01*
X182442857Y-97504761D01*
X182538095Y-97409523D01*
X182585714Y-97314285D01*
X182633333Y-97123809D01*
X182633333Y-96980952D01*
X182585714Y-96790476D01*
X182538095Y-96695238D01*
X182442857Y-96600000D01*
X182299999Y-96552380D01*
X182204761Y-96552380D01*
X182061904Y-96600000D01*
X182014285Y-96647619D01*
X181585714Y-97552380D02*
X181585714Y-96552380D01*
X181014285Y-97552380D02*
X181442857Y-96980952D01*
X181014285Y-96552380D02*
X181585714Y-97123809D01*
X184352380Y-94952380D02*
X184685714Y-94476190D01*
X184923809Y-94952380D02*
X184923809Y-93952380D01*
X184542857Y-93952380D01*
X184447619Y-94000000D01*
X184399999Y-94047619D01*
X184352380Y-94142857D01*
X184352380Y-94285714D01*
X184399999Y-94380952D01*
X184447619Y-94428571D01*
X184542857Y-94476190D01*
X184923809Y-94476190D01*
X183923809Y-94428571D02*
X183590476Y-94428571D01*
X183447619Y-94952380D02*
X183923809Y-94952380D01*
X183923809Y-93952380D01*
X183447619Y-93952380D01*
X183066666Y-94904761D02*
X182923809Y-94952380D01*
X182685714Y-94952380D01*
X182590476Y-94904761D01*
X182542857Y-94857142D01*
X182495238Y-94761904D01*
X182495238Y-94666666D01*
X182542857Y-94571428D01*
X182590476Y-94523809D01*
X182685714Y-94476190D01*
X182876190Y-94428571D01*
X182971428Y-94380952D01*
X183019047Y-94333333D01*
X183066666Y-94238095D01*
X183066666Y-94142857D01*
X183019047Y-94047619D01*
X182971428Y-94000000D01*
X182876190Y-93952380D01*
X182638095Y-93952380D01*
X182495238Y-94000000D01*
X182066666Y-94428571D02*
X181733333Y-94428571D01*
X181590476Y-94952380D02*
X182066666Y-94952380D01*
X182066666Y-93952380D01*
X181590476Y-93952380D01*
X181304761Y-93952380D02*
X180733333Y-93952380D01*
X181019047Y-94952380D02*
X181019047Y-93952380D01*
X183433333Y-91352380D02*
X183099999Y-92352380D01*
X182766666Y-91352380D01*
X181861904Y-92257142D02*
X181909523Y-92304761D01*
X182052380Y-92352380D01*
X182147619Y-92352380D01*
X182290476Y-92304761D01*
X182385714Y-92209523D01*
X182433333Y-92114285D01*
X182480952Y-91923809D01*
X182480952Y-91780952D01*
X182433333Y-91590476D01*
X182385714Y-91495238D01*
X182290476Y-91400000D01*
X182147619Y-91352380D01*
X182052380Y-91352380D01*
X181909523Y-91400000D01*
X181861904Y-91447619D01*
X180861904Y-92257142D02*
X180909523Y-92304761D01*
X181052380Y-92352380D01*
X181147619Y-92352380D01*
X181290476Y-92304761D01*
X181385714Y-92209523D01*
X181433333Y-92114285D01*
X181480952Y-91923809D01*
X181480952Y-91780952D01*
X181433333Y-91590476D01*
X181385714Y-91495238D01*
X181290476Y-91400000D01*
X181147619Y-91352380D01*
X181052380Y-91352380D01*
X180909523Y-91400000D01*
X180861904Y-91447619D01*
X182861904Y-88900000D02*
X182957142Y-88852380D01*
X183100000Y-88852380D01*
X183242857Y-88900000D01*
X183338095Y-88995238D01*
X183385714Y-89090476D01*
X183433333Y-89280952D01*
X183433333Y-89423809D01*
X183385714Y-89614285D01*
X183338095Y-89709523D01*
X183242857Y-89804761D01*
X183100000Y-89852380D01*
X183004761Y-89852380D01*
X182861904Y-89804761D01*
X182814285Y-89757142D01*
X182814285Y-89423809D01*
X183004761Y-89423809D01*
X182385714Y-89852380D02*
X182385714Y-88852380D01*
X181814285Y-89852380D01*
X181814285Y-88852380D01*
X181338095Y-89852380D02*
X181338095Y-88852380D01*
X181100000Y-88852380D01*
X180957142Y-88900000D01*
X180861904Y-88995238D01*
X180814285Y-89090476D01*
X180766666Y-89280952D01*
X180766666Y-89423809D01*
X180814285Y-89614285D01*
X180861904Y-89709523D01*
X180957142Y-89804761D01*
X181100000Y-89852380D01*
X181338095Y-89852380D01*
D12*
G04 #@! TO.C,R17*
X132910000Y-69358578D02*
X132910000Y-68841422D01*
X131490000Y-69358578D02*
X131490000Y-68841422D01*
G04 #@! TO.C,AP2112*
X163850492Y-131558999D02*
X162050492Y-131558999D01*
X162050492Y-128338999D02*
X164500492Y-128338999D01*
D11*
G04 #@! TO.C,ATM328*
X176575000Y-130625000D02*
X176350000Y-130625000D01*
X176575000Y-123375000D02*
X176250000Y-123375000D01*
X169325000Y-123375000D02*
X169650000Y-123375000D01*
X169325000Y-130625000D02*
X169650000Y-130625000D01*
X176575000Y-130625000D02*
X176575000Y-130300000D01*
X169325000Y-130625000D02*
X169325000Y-130300000D01*
X169325000Y-123375000D02*
X169325000Y-123700000D01*
X176575000Y-123375000D02*
X176575000Y-123700000D01*
X176350000Y-130625000D02*
X176350000Y-132050000D01*
G04 #@! TO.C,ATT25*
X144419406Y-108387992D02*
X144369406Y-108387992D01*
X144419406Y-104237992D02*
X144274406Y-104237992D01*
X139269406Y-104237992D02*
X139414406Y-104237992D01*
X139269406Y-108387992D02*
X139414406Y-108387992D01*
X144419406Y-108387992D02*
X144419406Y-104237992D01*
X139269406Y-108387992D02*
X139269406Y-104237992D01*
X144369406Y-108387992D02*
X144369406Y-109787992D01*
D12*
G04 #@! TO.C,BT1*
X150730000Y-112885000D02*
X152337090Y-112885000D01*
X150730000Y-111000000D02*
X150730000Y-112885000D01*
X171670000Y-111000000D02*
X171670000Y-112885000D01*
X150730000Y-105000000D02*
X150730000Y-103115000D01*
X171670000Y-105000000D02*
X171670000Y-103115000D01*
X171670000Y-112885000D02*
X170062910Y-112885000D01*
X150730000Y-103115000D02*
X152337090Y-103115000D01*
X171670000Y-103115000D02*
X170062910Y-103115000D01*
X152337090Y-112885000D02*
G75*
G03X170062910Y-112885000I8862910J4885000D01*
G01*
X170065021Y-103118832D02*
G75*
G03X152337090Y-103115000I-8865021J-4881168D01*
G01*
G04 #@! TO.C,C1*
X138202454Y-123080390D02*
X138202454Y-122563234D01*
X139622454Y-123080390D02*
X139622454Y-122563234D01*
G04 #@! TO.C,C2*
X138529519Y-90561513D02*
X139046675Y-90561513D01*
X138529519Y-89141513D02*
X139046675Y-89141513D01*
G04 #@! TO.C,C3*
X155890492Y-130070077D02*
X155890492Y-129552921D01*
X157310492Y-130070077D02*
X157310492Y-129552921D01*
G04 #@! TO.C,C4*
X160060492Y-130070077D02*
X160060492Y-129552921D01*
X158640492Y-130070077D02*
X158640492Y-129552921D01*
G04 #@! TO.C,C5*
X156654282Y-123737782D02*
X156654282Y-123220626D01*
X158074282Y-123737782D02*
X158074282Y-123220626D01*
G04 #@! TO.C,C6*
X146390000Y-131341422D02*
X146390000Y-131858578D01*
X147810000Y-131341422D02*
X147810000Y-131858578D01*
G04 #@! TO.C,C7*
X159354282Y-123233126D02*
X159354282Y-123750282D01*
X160774282Y-123233126D02*
X160774282Y-123750282D01*
G04 #@! TO.C,C8*
X157885360Y-127539204D02*
X157368204Y-127539204D01*
X157885360Y-126119204D02*
X157368204Y-126119204D01*
G04 #@! TO.C,C10*
X145358578Y-79090000D02*
X144841422Y-79090000D01*
X145358578Y-80510000D02*
X144841422Y-80510000D01*
G04 #@! TO.C,C11*
X141390000Y-71658578D02*
X141390000Y-71141422D01*
X142810000Y-71658578D02*
X142810000Y-71141422D01*
G04 #@! TO.C,C12*
X137190000Y-82658578D02*
X137190000Y-82141422D01*
X138610000Y-82658578D02*
X138610000Y-82141422D01*
G04 #@! TO.C,C13*
X170990000Y-88558578D02*
X170990000Y-88041422D01*
X172410000Y-88558578D02*
X172410000Y-88041422D01*
G04 #@! TO.C,D37*
X150364282Y-123679204D02*
X150364282Y-121679204D01*
X150364282Y-121679204D02*
X154264282Y-121679204D01*
X150364282Y-123679204D02*
X154264282Y-123679204D01*
G04 #@! TO.C,D38*
X160250492Y-127948999D02*
X160250492Y-125948999D01*
X160250492Y-125948999D02*
X164150492Y-125948999D01*
X160250492Y-127948999D02*
X164150492Y-127948999D01*
G04 #@! TO.C,D39*
X137550000Y-133400000D02*
X133650000Y-133400000D01*
X137550000Y-135400000D02*
X133650000Y-135400000D01*
X137550000Y-133400000D02*
X137550000Y-135400000D01*
G04 #@! TO.C,D40*
X178950000Y-70400000D02*
X178950000Y-77700000D01*
X184450000Y-70400000D02*
X184450000Y-77700000D01*
X184450000Y-77700000D02*
X183300000Y-77700000D01*
G04 #@! TO.C,D41*
X184450000Y-69800000D02*
X183300000Y-69800000D01*
X184450000Y-62500000D02*
X184450000Y-69800000D01*
X178950000Y-62500000D02*
X178950000Y-69800000D01*
G04 #@! TO.C,D42*
X173900000Y-61150000D02*
X181200000Y-61150000D01*
X173900000Y-55650000D02*
X181200000Y-55650000D01*
X181200000Y-55650000D02*
X181200000Y-56800000D01*
G04 #@! TO.C,D43*
X127350000Y-61150000D02*
X127350000Y-60000000D01*
X134650000Y-61150000D02*
X127350000Y-61150000D01*
X134650000Y-55650000D02*
X127350000Y-55650000D01*
G04 #@! TO.C,D44*
X124350000Y-62500000D02*
X125500000Y-62500000D01*
X124350000Y-69800000D02*
X124350000Y-62500000D01*
X129850000Y-69800000D02*
X129850000Y-62500000D01*
G04 #@! TO.C,D45*
X129850000Y-77700000D02*
X129850000Y-70400000D01*
X124350000Y-77700000D02*
X124350000Y-70400000D01*
X124350000Y-70400000D02*
X125500000Y-70400000D01*
D11*
G04 #@! TO.C,5551*
X133734527Y-71582545D02*
X133734527Y-70232545D01*
X136884527Y-71582545D02*
X136884527Y-76232545D01*
X133634527Y-71582545D02*
X133634527Y-76232545D01*
X136884527Y-71582545D02*
X136684527Y-71582545D01*
X136884527Y-76232545D02*
X136684527Y-76232545D01*
X133634527Y-76232545D02*
X133834527Y-76232545D01*
X133634527Y-71582545D02*
X133734527Y-71582545D01*
G04 #@! TO.C,5552*
X133609527Y-79932545D02*
X133709527Y-79932545D01*
X133609527Y-84582545D02*
X133809527Y-84582545D01*
X136859527Y-84582545D02*
X136659527Y-84582545D01*
X136859527Y-79932545D02*
X136659527Y-79932545D01*
X133609527Y-79932545D02*
X133609527Y-84582545D01*
X136859527Y-79932545D02*
X136859527Y-84582545D01*
X133709527Y-79932545D02*
X133709527Y-78582545D01*
G04 #@! TO.C,5553*
X176527708Y-95246752D02*
X176427708Y-95246752D01*
X176527708Y-90596752D02*
X176327708Y-90596752D01*
X173277708Y-90596752D02*
X173477708Y-90596752D01*
X173277708Y-95246752D02*
X173477708Y-95246752D01*
X176527708Y-95246752D02*
X176527708Y-90596752D01*
X173277708Y-95246752D02*
X173277708Y-90596752D01*
X176427708Y-95246752D02*
X176427708Y-96596752D01*
G04 #@! TO.C,5554*
X176427708Y-86946752D02*
X176427708Y-88296752D01*
X173277708Y-86946752D02*
X173277708Y-82296752D01*
X176527708Y-86946752D02*
X176527708Y-82296752D01*
X173277708Y-86946752D02*
X173477708Y-86946752D01*
X173277708Y-82296752D02*
X173477708Y-82296752D01*
X176527708Y-82296752D02*
X176327708Y-82296752D01*
X176527708Y-86946752D02*
X176427708Y-86946752D01*
D12*
G04 #@! TO.C,LV555*
X131002201Y-94657980D02*
X133002201Y-94657980D01*
X132002201Y-91417980D02*
X135002201Y-91417980D01*
G04 #@! TO.C,MAX16054*
X146764282Y-121719204D02*
X148564282Y-121719204D01*
X148564282Y-124939204D02*
X146114282Y-124939204D01*
G04 #@! TO.C,MAX40200*
X161754282Y-124379204D02*
X161754282Y-121929204D01*
X164974282Y-122579204D02*
X164974282Y-124379204D01*
G04 #@! TO.C,NCP1402*
X151664282Y-124319204D02*
X153464282Y-124319204D01*
X153464282Y-127539204D02*
X151014282Y-127539204D01*
G04 #@! TO.C,Q1*
X128632454Y-126124312D02*
X128632454Y-127584312D01*
X131792454Y-126124312D02*
X131792454Y-128284312D01*
X131792454Y-126124312D02*
X130862454Y-126124312D01*
X128632454Y-126124312D02*
X129562454Y-126124312D01*
G04 #@! TO.C,Q2*
X146130000Y-91360000D02*
X146130000Y-89900000D01*
X142970000Y-91360000D02*
X142970000Y-89200000D01*
X142970000Y-91360000D02*
X143900000Y-91360000D01*
X146130000Y-91360000D02*
X145200000Y-91360000D01*
G04 #@! TO.C,Q3*
X128632454Y-113524312D02*
X129562454Y-113524312D01*
X131792454Y-113524312D02*
X130862454Y-113524312D01*
X131792454Y-113524312D02*
X131792454Y-115684312D01*
X128632454Y-113524312D02*
X128632454Y-114984312D01*
G04 #@! TO.C,Q4*
X135332454Y-113724312D02*
X136262454Y-113724312D01*
X138492454Y-113724312D02*
X137562454Y-113724312D01*
X138492454Y-113724312D02*
X138492454Y-115884312D01*
X135332454Y-113724312D02*
X135332454Y-115184312D01*
G04 #@! TO.C,Q5*
X149494282Y-128039204D02*
X148564282Y-128039204D01*
X146334282Y-128039204D02*
X147264282Y-128039204D01*
X146334282Y-128039204D02*
X146334282Y-125879204D01*
X149494282Y-128039204D02*
X149494282Y-126579204D01*
G04 #@! TO.C,Q2A1*
X128632454Y-121924312D02*
X129562454Y-121924312D01*
X131792454Y-121924312D02*
X130862454Y-121924312D01*
X131792454Y-121924312D02*
X131792454Y-124084312D01*
X128632454Y-121924312D02*
X128632454Y-123384312D01*
G04 #@! TO.C,Q2B1*
X128632454Y-117724312D02*
X128632454Y-119184312D01*
X131792454Y-117724312D02*
X131792454Y-119884312D01*
X131792454Y-117724312D02*
X130862454Y-117724312D01*
X128632454Y-117724312D02*
X129562454Y-117724312D01*
G04 #@! TO.C,R1*
X134272454Y-114755390D02*
X134272454Y-114238234D01*
X132852454Y-114755390D02*
X132852454Y-114238234D01*
G04 #@! TO.C,R2*
X135552454Y-123080390D02*
X135552454Y-122563234D01*
X136972454Y-123080390D02*
X136972454Y-122563234D01*
G04 #@! TO.C,R3*
X136972454Y-118880390D02*
X136972454Y-118363234D01*
X135552454Y-118880390D02*
X135552454Y-118363234D01*
G04 #@! TO.C,R4*
X135502454Y-126613234D02*
X135502454Y-127130390D01*
X136922454Y-126613234D02*
X136922454Y-127130390D01*
G04 #@! TO.C,R5*
X139622454Y-127130390D02*
X139622454Y-126613234D01*
X138202454Y-127130390D02*
X138202454Y-126613234D01*
G04 #@! TO.C,R6*
X132852454Y-123005390D02*
X132852454Y-122488234D01*
X134272454Y-123005390D02*
X134272454Y-122488234D01*
G04 #@! TO.C,R7*
X132852454Y-118855390D02*
X132852454Y-118338234D01*
X134272454Y-118855390D02*
X134272454Y-118338234D01*
G04 #@! TO.C,R8*
X139622454Y-118363234D02*
X139622454Y-118880390D01*
X138202454Y-118363234D02*
X138202454Y-118880390D01*
G04 #@! TO.C,R9*
X132852454Y-127155390D02*
X132852454Y-126638234D01*
X134272454Y-127155390D02*
X134272454Y-126638234D01*
G04 #@! TO.C,R10*
X136190597Y-93022591D02*
X136190597Y-92505435D01*
X137610597Y-93022591D02*
X137610597Y-92505435D01*
G04 #@! TO.C,R11*
X130746675Y-90561513D02*
X130229519Y-90561513D01*
X130746675Y-89141513D02*
X130229519Y-89141513D01*
G04 #@! TO.C,R12*
X134429519Y-89141513D02*
X134946675Y-89141513D01*
X134429519Y-90561513D02*
X134946675Y-90561513D01*
G04 #@! TO.C,R13*
X138390000Y-73078922D02*
X138390000Y-73596078D01*
X139810000Y-73078922D02*
X139810000Y-73596078D01*
G04 #@! TO.C,R14*
X133110000Y-82241422D02*
X133110000Y-82758578D01*
X131690000Y-82241422D02*
X131690000Y-82758578D01*
G04 #@! TO.C,R15*
X172410000Y-93258578D02*
X172410000Y-92741422D01*
X170990000Y-93258578D02*
X170990000Y-92741422D01*
G04 #@! TO.C,R16*
X144841422Y-73990000D02*
X145358578Y-73990000D01*
X144841422Y-75410000D02*
X145358578Y-75410000D01*
G04 #@! TO.C,R18*
X140310000Y-62741422D02*
X140310000Y-63258578D01*
X138890000Y-62741422D02*
X138890000Y-63258578D01*
G04 #@! TO.C,R19*
X150396078Y-68410000D02*
X149878922Y-68410000D01*
X150396078Y-66990000D02*
X149878922Y-66990000D01*
G04 #@! TO.C,R20*
X139810000Y-67458578D02*
X139810000Y-66941422D01*
X138390000Y-67458578D02*
X138390000Y-66941422D01*
G04 #@! TO.C,R21*
X150010000Y-71458578D02*
X150010000Y-70941422D01*
X148590000Y-71458578D02*
X148590000Y-70941422D01*
G04 #@! TO.C,R22*
X153841422Y-60890000D02*
X154358578Y-60890000D01*
X153841422Y-62310000D02*
X154358578Y-62310000D01*
G04 #@! TO.C,R23*
X158310000Y-67078922D02*
X158310000Y-67596078D01*
X156890000Y-67078922D02*
X156890000Y-67596078D01*
G04 #@! TO.C,R24*
X159596078Y-60890000D02*
X159078922Y-60890000D01*
X159596078Y-62310000D02*
X159078922Y-62310000D01*
G04 #@! TO.C,R25*
X161596078Y-75610000D02*
X161078922Y-75610000D01*
X161596078Y-74190000D02*
X161078922Y-74190000D01*
G04 #@! TO.C,R26*
X162978922Y-68210000D02*
X163496078Y-68210000D01*
X162978922Y-66790000D02*
X163496078Y-66790000D01*
G04 #@! TO.C,R27*
X170490000Y-71741422D02*
X170490000Y-72258578D01*
X171910000Y-71741422D02*
X171910000Y-72258578D01*
G04 #@! TO.C,R28*
X166296078Y-74190000D02*
X165778922Y-74190000D01*
X166296078Y-75610000D02*
X165778922Y-75610000D01*
G04 #@! TO.C,R29*
X153878922Y-75410000D02*
X154396078Y-75410000D01*
X153878922Y-73990000D02*
X154396078Y-73990000D01*
G04 #@! TO.C,R30*
X148878922Y-73990000D02*
X149396078Y-73990000D01*
X148878922Y-75410000D02*
X149396078Y-75410000D01*
G04 #@! TO.C,R31*
X142703922Y-131590000D02*
X143221078Y-131590000D01*
X142703922Y-133010000D02*
X143221078Y-133010000D01*
G04 #@! TO.C,R32*
X143377481Y-100607101D02*
X143377481Y-100089945D01*
X144797481Y-100607101D02*
X144797481Y-100089945D01*
G04 #@! TO.C,R33*
X141877481Y-111964945D02*
X141877481Y-112482101D01*
X143297481Y-111964945D02*
X143297481Y-112482101D01*
G04 #@! TO.C,R34*
X142497481Y-100607101D02*
X142497481Y-100089945D01*
X141077481Y-100607101D02*
X141077481Y-100089945D01*
G04 #@! TO.C,R35*
X140297481Y-100607101D02*
X140297481Y-100089945D01*
X138877481Y-100607101D02*
X138877481Y-100089945D01*
G04 #@! TO.C,R36*
X143354282Y-123208126D02*
X143354282Y-123725282D01*
X144774282Y-123208126D02*
X144774282Y-123725282D01*
G04 #@! TO.C,R37*
X172990000Y-117741422D02*
X172990000Y-118258578D01*
X174410000Y-117741422D02*
X174410000Y-118258578D01*
G04 #@! TO.C,D1*
D11*
X134695238Y-100078571D02*
X135304761Y-100307142D01*
X134695238Y-100535714D01*
G04 #@! TO.C,L2*
X151666666Y-134752380D02*
X152142857Y-134752380D01*
X152142857Y-133752380D01*
X151380952Y-133847619D02*
X151333333Y-133800000D01*
X151238095Y-133752380D01*
X150999999Y-133752380D01*
X150904761Y-133800000D01*
X150857142Y-133847619D01*
X150809523Y-133942857D01*
X150809523Y-134038095D01*
X150857142Y-134180952D01*
X151428571Y-134752380D01*
X150809523Y-134752380D01*
G04 #@! TO.C,L1*
X140866666Y-91052380D02*
X141342857Y-91052380D01*
X141342857Y-90052380D01*
X140009523Y-91052380D02*
X140580952Y-91052380D01*
X140295238Y-91052380D02*
X140295238Y-90052380D01*
X140390476Y-90195238D01*
X140485714Y-90290476D01*
X140580952Y-90338095D01*
G04 #@! TO.C,ATTINY SPI*
X133866666Y-102714285D02*
X133866666Y-103190476D01*
X134152380Y-102619047D02*
X133152380Y-102952380D01*
X134152380Y-103285714D01*
X133152380Y-103476190D02*
X133152380Y-104047619D01*
X134152380Y-103761904D02*
X133152380Y-103761904D01*
X133152380Y-104238095D02*
X133152380Y-104809523D01*
X134152380Y-104523809D02*
X133152380Y-104523809D01*
X134152380Y-105142857D02*
X133152380Y-105142857D01*
X134152380Y-105619047D02*
X133152380Y-105619047D01*
X134152380Y-106190476D01*
X133152380Y-106190476D01*
X133676190Y-106857142D02*
X134152380Y-106857142D01*
X133152380Y-106523809D02*
X133676190Y-106857142D01*
X133152380Y-107190476D01*
X134104761Y-108238095D02*
X134152380Y-108380952D01*
X134152380Y-108619047D01*
X134104761Y-108714285D01*
X134057142Y-108761904D01*
X133961904Y-108809523D01*
X133866666Y-108809523D01*
X133771428Y-108761904D01*
X133723809Y-108714285D01*
X133676190Y-108619047D01*
X133628571Y-108428571D01*
X133580952Y-108333333D01*
X133533333Y-108285714D01*
X133438095Y-108238095D01*
X133342857Y-108238095D01*
X133247619Y-108285714D01*
X133199999Y-108333333D01*
X133152380Y-108428571D01*
X133152380Y-108666666D01*
X133199999Y-108809523D01*
X134152380Y-109238095D02*
X133152380Y-109238095D01*
X133152380Y-109619047D01*
X133199999Y-109714285D01*
X133247619Y-109761904D01*
X133342857Y-109809523D01*
X133485714Y-109809523D01*
X133580952Y-109761904D01*
X133628571Y-109714285D01*
X133676190Y-109619047D01*
X133676190Y-109238095D01*
X134152380Y-110238095D02*
X133152380Y-110238095D01*
G04 #@! TO.C,ATM328 SPI*
X184471428Y-86233333D02*
X184090476Y-86233333D01*
X184547619Y-86461904D02*
X184280952Y-85661904D01*
X184014285Y-86461904D01*
X183861904Y-85661904D02*
X183404761Y-85661904D01*
X183633333Y-86461904D02*
X183633333Y-85661904D01*
X183138095Y-86461904D02*
X183138095Y-85661904D01*
X182871428Y-86233333D01*
X182604761Y-85661904D01*
X182604761Y-86461904D01*
X182300000Y-85661904D02*
X181804761Y-85661904D01*
X182071428Y-85966666D01*
X181957142Y-85966666D01*
X181880952Y-86004761D01*
X181842857Y-86042857D01*
X181804761Y-86119047D01*
X181804761Y-86309523D01*
X181842857Y-86385714D01*
X181880952Y-86423809D01*
X181957142Y-86461904D01*
X182185714Y-86461904D01*
X182261904Y-86423809D01*
X182300000Y-86385714D01*
X181500000Y-85738095D02*
X181461904Y-85700000D01*
X181385714Y-85661904D01*
X181195238Y-85661904D01*
X181119047Y-85700000D01*
X181080952Y-85738095D01*
X181042857Y-85814285D01*
X181042857Y-85890476D01*
X181080952Y-86004761D01*
X181538095Y-86461904D01*
X181042857Y-86461904D01*
X180585714Y-86004761D02*
X180661904Y-85966666D01*
X180700000Y-85928571D01*
X180738095Y-85852380D01*
X180738095Y-85814285D01*
X180700000Y-85738095D01*
X180661904Y-85700000D01*
X180585714Y-85661904D01*
X180433333Y-85661904D01*
X180357142Y-85700000D01*
X180319047Y-85738095D01*
X180280952Y-85814285D01*
X180280952Y-85852380D01*
X180319047Y-85928571D01*
X180357142Y-85966666D01*
X180433333Y-86004761D01*
X180585714Y-86004761D01*
X180661904Y-86042857D01*
X180700000Y-86080952D01*
X180738095Y-86157142D01*
X180738095Y-86309523D01*
X180700000Y-86385714D01*
X180661904Y-86423809D01*
X180585714Y-86461904D01*
X180433333Y-86461904D01*
X180357142Y-86423809D01*
X180319047Y-86385714D01*
X180280952Y-86309523D01*
X180280952Y-86157142D01*
X180319047Y-86080952D01*
X180357142Y-86042857D01*
X180433333Y-86004761D01*
X179366666Y-86423809D02*
X179252380Y-86461904D01*
X179061904Y-86461904D01*
X178985714Y-86423809D01*
X178947619Y-86385714D01*
X178909523Y-86309523D01*
X178909523Y-86233333D01*
X178947619Y-86157142D01*
X178985714Y-86119047D01*
X179061904Y-86080952D01*
X179214285Y-86042857D01*
X179290476Y-86004761D01*
X179328571Y-85966666D01*
X179366666Y-85890476D01*
X179366666Y-85814285D01*
X179328571Y-85738095D01*
X179290476Y-85700000D01*
X179214285Y-85661904D01*
X179023809Y-85661904D01*
X178909523Y-85700000D01*
X178566666Y-86461904D02*
X178566666Y-85661904D01*
X178261904Y-85661904D01*
X178185714Y-85700000D01*
X178147619Y-85738095D01*
X178109523Y-85814285D01*
X178109523Y-85928571D01*
X178147619Y-86004761D01*
X178185714Y-86042857D01*
X178261904Y-86080952D01*
X178566666Y-86080952D01*
X177766666Y-86461904D02*
X177766666Y-85661904D01*
G04 #@! TO.C,R17*
X132852380Y-64957142D02*
X132376190Y-64623809D01*
X132852380Y-64385714D02*
X131852380Y-64385714D01*
X131852380Y-64766666D01*
X131900000Y-64861904D01*
X131947619Y-64909523D01*
X132042857Y-64957142D01*
X132185714Y-64957142D01*
X132280952Y-64909523D01*
X132328571Y-64861904D01*
X132376190Y-64766666D01*
X132376190Y-64385714D01*
X132852380Y-65909523D02*
X132852380Y-65338095D01*
X132852380Y-65623809D02*
X131852380Y-65623809D01*
X131995238Y-65528571D01*
X132090476Y-65433333D01*
X132138095Y-65338095D01*
X131852380Y-66242857D02*
X131852380Y-66909523D01*
X132852380Y-66480952D01*
G04 #@! TO.C,AP2112*
X166542857Y-132766666D02*
X166066666Y-132766666D01*
X166638095Y-133052380D02*
X166304761Y-132052380D01*
X165971428Y-133052380D01*
X165638095Y-133052380D02*
X165638095Y-132052380D01*
X165257142Y-132052380D01*
X165161904Y-132100000D01*
X165114285Y-132147619D01*
X165066666Y-132242857D01*
X165066666Y-132385714D01*
X165114285Y-132480952D01*
X165161904Y-132528571D01*
X165257142Y-132576190D01*
X165638095Y-132576190D01*
X164685714Y-132147619D02*
X164638095Y-132100000D01*
X164542857Y-132052380D01*
X164304761Y-132052380D01*
X164209523Y-132100000D01*
X164161904Y-132147619D01*
X164114285Y-132242857D01*
X164114285Y-132338095D01*
X164161904Y-132480952D01*
X164733333Y-133052380D01*
X164114285Y-133052380D01*
X163161904Y-133052380D02*
X163733333Y-133052380D01*
X163447619Y-133052380D02*
X163447619Y-132052380D01*
X163542857Y-132195238D01*
X163638095Y-132290476D01*
X163733333Y-132338095D01*
X162209523Y-133052380D02*
X162780952Y-133052380D01*
X162495238Y-133052380D02*
X162495238Y-132052380D01*
X162590476Y-132195238D01*
X162685714Y-132290476D01*
X162780952Y-132338095D01*
X161828571Y-132147619D02*
X161780952Y-132100000D01*
X161685714Y-132052380D01*
X161447619Y-132052380D01*
X161352380Y-132100000D01*
X161304761Y-132147619D01*
X161257142Y-132242857D01*
X161257142Y-132338095D01*
X161304761Y-132480952D01*
X161876190Y-133052380D01*
X161257142Y-133052380D01*
G04 #@! TO.C,ATM328*
X180166666Y-121580952D02*
X180166666Y-122057142D01*
X180452380Y-121485714D02*
X179452380Y-121819047D01*
X180452380Y-122152380D01*
X179452380Y-122342857D02*
X179452380Y-122914285D01*
X180452380Y-122628571D02*
X179452380Y-122628571D01*
X180452380Y-123247619D02*
X179452380Y-123247619D01*
X180166666Y-123580952D01*
X179452380Y-123914285D01*
X180452380Y-123914285D01*
X179452380Y-124295238D02*
X179452380Y-124914285D01*
X179833333Y-124580952D01*
X179833333Y-124723809D01*
X179880952Y-124819047D01*
X179928571Y-124866666D01*
X180023809Y-124914285D01*
X180261904Y-124914285D01*
X180357142Y-124866666D01*
X180404761Y-124819047D01*
X180452380Y-124723809D01*
X180452380Y-124438095D01*
X180404761Y-124342857D01*
X180357142Y-124295238D01*
X179547619Y-125295238D02*
X179499999Y-125342857D01*
X179452380Y-125438095D01*
X179452380Y-125676190D01*
X179499999Y-125771428D01*
X179547619Y-125819047D01*
X179642857Y-125866666D01*
X179738095Y-125866666D01*
X179880952Y-125819047D01*
X180452380Y-125247619D01*
X180452380Y-125866666D01*
X179880952Y-126438095D02*
X179833333Y-126342857D01*
X179785714Y-126295238D01*
X179690476Y-126247619D01*
X179642857Y-126247619D01*
X179547619Y-126295238D01*
X179499999Y-126342857D01*
X179452380Y-126438095D01*
X179452380Y-126628571D01*
X179499999Y-126723809D01*
X179547619Y-126771428D01*
X179642857Y-126819047D01*
X179690476Y-126819047D01*
X179785714Y-126771428D01*
X179833333Y-126723809D01*
X179880952Y-126628571D01*
X179880952Y-126438095D01*
X179928571Y-126342857D01*
X179976190Y-126295238D01*
X180071428Y-126247619D01*
X180261904Y-126247619D01*
X180357142Y-126295238D01*
X180404761Y-126342857D01*
X180452380Y-126438095D01*
X180452380Y-126628571D01*
X180404761Y-126723809D01*
X180357142Y-126771428D01*
X180261904Y-126819047D01*
X180071428Y-126819047D01*
X179976190Y-126771428D01*
X179928571Y-126723809D01*
X179880952Y-126628571D01*
G04 #@! TO.C,ATT25*
X145511072Y-104360611D02*
X145511072Y-104836801D01*
X145796786Y-104265372D02*
X144796786Y-104598706D01*
X145796786Y-104932039D01*
X144796786Y-105122515D02*
X144796786Y-105693944D01*
X145796786Y-105408230D02*
X144796786Y-105408230D01*
X144796786Y-105884420D02*
X144796786Y-106455849D01*
X145796786Y-106170134D02*
X144796786Y-106170134D01*
X144892025Y-106741563D02*
X144844405Y-106789182D01*
X144796786Y-106884420D01*
X144796786Y-107122515D01*
X144844405Y-107217753D01*
X144892025Y-107265372D01*
X144987263Y-107312991D01*
X145082501Y-107312991D01*
X145225358Y-107265372D01*
X145796786Y-106693944D01*
X145796786Y-107312991D01*
X144796786Y-108217753D02*
X144796786Y-107741563D01*
X145272977Y-107693944D01*
X145225358Y-107741563D01*
X145177739Y-107836801D01*
X145177739Y-108074896D01*
X145225358Y-108170134D01*
X145272977Y-108217753D01*
X145368215Y-108265372D01*
X145606310Y-108265372D01*
X145701548Y-108217753D01*
X145749167Y-108170134D01*
X145796786Y-108074896D01*
X145796786Y-107836801D01*
X145749167Y-107741563D01*
X145701548Y-107693944D01*
G04 #@! TO.C,C1*
X140919596Y-122655145D02*
X140967215Y-122607526D01*
X141014834Y-122464669D01*
X141014834Y-122369431D01*
X140967215Y-122226573D01*
X140871977Y-122131335D01*
X140776739Y-122083716D01*
X140586263Y-122036097D01*
X140443406Y-122036097D01*
X140252930Y-122083716D01*
X140157692Y-122131335D01*
X140062454Y-122226573D01*
X140014834Y-122369431D01*
X140014834Y-122464669D01*
X140062454Y-122607526D01*
X140110073Y-122655145D01*
X141014834Y-123607526D02*
X141014834Y-123036097D01*
X141014834Y-123321812D02*
X140014834Y-123321812D01*
X140157692Y-123226573D01*
X140252930Y-123131335D01*
X140300549Y-123036097D01*
G04 #@! TO.C,C2*
X138954763Y-88557142D02*
X139002382Y-88604761D01*
X139145239Y-88652380D01*
X139240477Y-88652380D01*
X139383335Y-88604761D01*
X139478573Y-88509523D01*
X139526192Y-88414285D01*
X139573811Y-88223809D01*
X139573811Y-88080952D01*
X139526192Y-87890476D01*
X139478573Y-87795238D01*
X139383335Y-87700000D01*
X139240477Y-87652380D01*
X139145239Y-87652380D01*
X139002382Y-87700000D01*
X138954763Y-87747619D01*
X138573811Y-87747619D02*
X138526192Y-87700000D01*
X138430954Y-87652380D01*
X138192858Y-87652380D01*
X138097620Y-87700000D01*
X138050001Y-87747619D01*
X138002382Y-87842857D01*
X138002382Y-87938095D01*
X138050001Y-88080952D01*
X138621430Y-88652380D01*
X138002382Y-88652380D01*
G04 #@! TO.C,C3*
X156957142Y-132433333D02*
X157004761Y-132385714D01*
X157052380Y-132242857D01*
X157052380Y-132147619D01*
X157004761Y-132004761D01*
X156909523Y-131909523D01*
X156814285Y-131861904D01*
X156623809Y-131814285D01*
X156480952Y-131814285D01*
X156290476Y-131861904D01*
X156195238Y-131909523D01*
X156100000Y-132004761D01*
X156052380Y-132147619D01*
X156052380Y-132242857D01*
X156100000Y-132385714D01*
X156147619Y-132433333D01*
X156052380Y-132766666D02*
X156052380Y-133385714D01*
X156433333Y-133052380D01*
X156433333Y-133195238D01*
X156480952Y-133290476D01*
X156528571Y-133338095D01*
X156623809Y-133385714D01*
X156861904Y-133385714D01*
X156957142Y-133338095D01*
X157004761Y-133290476D01*
X157052380Y-133195238D01*
X157052380Y-132909523D01*
X157004761Y-132814285D01*
X156957142Y-132766666D01*
G04 #@! TO.C,C4*
X159757142Y-132433333D02*
X159804761Y-132385714D01*
X159852380Y-132242857D01*
X159852380Y-132147619D01*
X159804761Y-132004761D01*
X159709523Y-131909523D01*
X159614285Y-131861904D01*
X159423809Y-131814285D01*
X159280952Y-131814285D01*
X159090476Y-131861904D01*
X158995238Y-131909523D01*
X158900000Y-132004761D01*
X158852380Y-132147619D01*
X158852380Y-132242857D01*
X158900000Y-132385714D01*
X158947619Y-132433333D01*
X159185714Y-133290476D02*
X159852380Y-133290476D01*
X158804761Y-133052380D02*
X159519047Y-132814285D01*
X159519047Y-133433333D01*
G04 #@! TO.C,C5*
X157757142Y-120533333D02*
X157804761Y-120485714D01*
X157852380Y-120342857D01*
X157852380Y-120247619D01*
X157804761Y-120104761D01*
X157709523Y-120009523D01*
X157614285Y-119961904D01*
X157423809Y-119914285D01*
X157280952Y-119914285D01*
X157090476Y-119961904D01*
X156995238Y-120009523D01*
X156900000Y-120104761D01*
X156852380Y-120247619D01*
X156852380Y-120342857D01*
X156900000Y-120485714D01*
X156947619Y-120533333D01*
X156852380Y-121438095D02*
X156852380Y-120961904D01*
X157328571Y-120914285D01*
X157280952Y-120961904D01*
X157233333Y-121057142D01*
X157233333Y-121295238D01*
X157280952Y-121390476D01*
X157328571Y-121438095D01*
X157423809Y-121485714D01*
X157661904Y-121485714D01*
X157757142Y-121438095D01*
X157804761Y-121390476D01*
X157852380Y-121295238D01*
X157852380Y-121057142D01*
X157804761Y-120961904D01*
X157757142Y-120914285D01*
G04 #@! TO.C,C6*
X147442860Y-134204129D02*
X147490479Y-134156510D01*
X147538098Y-134013653D01*
X147538098Y-133918415D01*
X147490479Y-133775557D01*
X147395241Y-133680319D01*
X147300003Y-133632700D01*
X147109527Y-133585081D01*
X146966670Y-133585081D01*
X146776194Y-133632700D01*
X146680956Y-133680319D01*
X146585718Y-133775557D01*
X146538098Y-133918415D01*
X146538098Y-134013653D01*
X146585718Y-134156510D01*
X146633337Y-134204129D01*
X146538098Y-135061272D02*
X146538098Y-134870796D01*
X146585717Y-134775557D01*
X146633337Y-134727938D01*
X146776194Y-134632700D01*
X146966670Y-134585081D01*
X147347622Y-134585081D01*
X147442860Y-134632700D01*
X147490479Y-134680319D01*
X147538098Y-134775557D01*
X147538098Y-134966034D01*
X147490479Y-135061272D01*
X147442860Y-135108891D01*
X147347622Y-135156510D01*
X147109527Y-135156510D01*
X147014289Y-135108891D01*
X146966670Y-135061272D01*
X146919051Y-134966034D01*
X146919051Y-134775557D01*
X146966670Y-134680319D01*
X147014289Y-134632700D01*
X147109527Y-134585081D01*
G04 #@! TO.C,C7*
X160357142Y-120433333D02*
X160404761Y-120385714D01*
X160452380Y-120242857D01*
X160452380Y-120147619D01*
X160404761Y-120004761D01*
X160309523Y-119909523D01*
X160214285Y-119861904D01*
X160023809Y-119814285D01*
X159880952Y-119814285D01*
X159690476Y-119861904D01*
X159595238Y-119909523D01*
X159500000Y-120004761D01*
X159452380Y-120147619D01*
X159452380Y-120242857D01*
X159500000Y-120385714D01*
X159547619Y-120433333D01*
X159452380Y-120766666D02*
X159452380Y-121433333D01*
X160452380Y-121004761D01*
G04 #@! TO.C,C8*
X155657142Y-126633333D02*
X155704761Y-126585714D01*
X155752380Y-126442857D01*
X155752380Y-126347619D01*
X155704761Y-126204761D01*
X155609523Y-126109523D01*
X155514285Y-126061904D01*
X155323809Y-126014285D01*
X155180952Y-126014285D01*
X154990476Y-126061904D01*
X154895238Y-126109523D01*
X154800000Y-126204761D01*
X154752380Y-126347619D01*
X154752380Y-126442857D01*
X154800000Y-126585714D01*
X154847619Y-126633333D01*
X155180952Y-127204761D02*
X155133333Y-127109523D01*
X155085714Y-127061904D01*
X154990476Y-127014285D01*
X154942857Y-127014285D01*
X154847619Y-127061904D01*
X154799999Y-127109523D01*
X154752380Y-127204761D01*
X154752380Y-127395238D01*
X154799999Y-127490476D01*
X154847619Y-127538095D01*
X154942857Y-127585714D01*
X154990476Y-127585714D01*
X155085714Y-127538095D01*
X155133333Y-127490476D01*
X155180952Y-127395238D01*
X155180952Y-127204761D01*
X155228571Y-127109523D01*
X155276190Y-127061904D01*
X155371428Y-127014285D01*
X155561904Y-127014285D01*
X155657142Y-127061904D01*
X155704761Y-127109523D01*
X155752380Y-127204761D01*
X155752380Y-127395238D01*
X155704761Y-127490476D01*
X155657142Y-127538095D01*
X155561904Y-127585714D01*
X155371428Y-127585714D01*
X155276190Y-127538095D01*
X155228571Y-127490476D01*
X155180952Y-127395238D01*
G04 #@! TO.C,C10*
X145842857Y-81857142D02*
X145890476Y-81904761D01*
X146033333Y-81952380D01*
X146128571Y-81952380D01*
X146271428Y-81904761D01*
X146366666Y-81809523D01*
X146414285Y-81714285D01*
X146461904Y-81523809D01*
X146461904Y-81380952D01*
X146414285Y-81190476D01*
X146366666Y-81095238D01*
X146271428Y-81000000D01*
X146128571Y-80952380D01*
X146033333Y-80952380D01*
X145890476Y-81000000D01*
X145842857Y-81047619D01*
X144890476Y-81952380D02*
X145461904Y-81952380D01*
X145176190Y-81952380D02*
X145176190Y-80952380D01*
X145271428Y-81095238D01*
X145366666Y-81190476D01*
X145461904Y-81238095D01*
X144271428Y-80952380D02*
X144176190Y-80952380D01*
X144080952Y-81000000D01*
X144033333Y-81047619D01*
X143985714Y-81142857D01*
X143938095Y-81333333D01*
X143938095Y-81571428D01*
X143985714Y-81761904D01*
X144033333Y-81857142D01*
X144080952Y-81904761D01*
X144176190Y-81952380D01*
X144271428Y-81952380D01*
X144366666Y-81904761D01*
X144414285Y-81857142D01*
X144461904Y-81761904D01*
X144509523Y-81571428D01*
X144509523Y-81333333D01*
X144461904Y-81142857D01*
X144414285Y-81047619D01*
X144366666Y-81000000D01*
X144271428Y-80952380D01*
G04 #@! TO.C,C11*
X144107142Y-70757142D02*
X144154761Y-70709523D01*
X144202380Y-70566666D01*
X144202380Y-70471428D01*
X144154761Y-70328571D01*
X144059523Y-70233333D01*
X143964285Y-70185714D01*
X143773809Y-70138095D01*
X143630952Y-70138095D01*
X143440476Y-70185714D01*
X143345238Y-70233333D01*
X143250000Y-70328571D01*
X143202380Y-70471428D01*
X143202380Y-70566666D01*
X143250000Y-70709523D01*
X143297619Y-70757142D01*
X144202380Y-71709523D02*
X144202380Y-71138095D01*
X144202380Y-71423809D02*
X143202380Y-71423809D01*
X143345238Y-71328571D01*
X143440476Y-71233333D01*
X143488095Y-71138095D01*
X144202380Y-72661904D02*
X144202380Y-72090476D01*
X144202380Y-72376190D02*
X143202380Y-72376190D01*
X143345238Y-72280952D01*
X143440476Y-72185714D01*
X143488095Y-72090476D01*
G04 #@! TO.C,C12*
X139907142Y-81757142D02*
X139954761Y-81709523D01*
X140002380Y-81566666D01*
X140002380Y-81471428D01*
X139954761Y-81328571D01*
X139859523Y-81233333D01*
X139764285Y-81185714D01*
X139573809Y-81138095D01*
X139430952Y-81138095D01*
X139240476Y-81185714D01*
X139145238Y-81233333D01*
X139050000Y-81328571D01*
X139002380Y-81471428D01*
X139002380Y-81566666D01*
X139050000Y-81709523D01*
X139097619Y-81757142D01*
X140002380Y-82709523D02*
X140002380Y-82138095D01*
X140002380Y-82423809D02*
X139002380Y-82423809D01*
X139145238Y-82328571D01*
X139240476Y-82233333D01*
X139288095Y-82138095D01*
X139097619Y-83090476D02*
X139049999Y-83138095D01*
X139002380Y-83233333D01*
X139002380Y-83471428D01*
X139049999Y-83566666D01*
X139097619Y-83614285D01*
X139192857Y-83661904D01*
X139288095Y-83661904D01*
X139430952Y-83614285D01*
X140002380Y-83042857D01*
X140002380Y-83661904D01*
G04 #@! TO.C,C13*
X170357142Y-87757142D02*
X170404761Y-87709523D01*
X170452380Y-87566666D01*
X170452380Y-87471428D01*
X170404761Y-87328571D01*
X170309523Y-87233333D01*
X170214285Y-87185714D01*
X170023809Y-87138095D01*
X169880952Y-87138095D01*
X169690476Y-87185714D01*
X169595238Y-87233333D01*
X169500000Y-87328571D01*
X169452380Y-87471428D01*
X169452380Y-87566666D01*
X169500000Y-87709523D01*
X169547619Y-87757142D01*
X170452380Y-88709523D02*
X170452380Y-88138095D01*
X170452380Y-88423809D02*
X169452380Y-88423809D01*
X169595238Y-88328571D01*
X169690476Y-88233333D01*
X169738095Y-88138095D01*
X169452380Y-89042857D02*
X169452380Y-89661904D01*
X169833333Y-89328571D01*
X169833333Y-89471428D01*
X169880952Y-89566666D01*
X169928571Y-89614285D01*
X170023809Y-89661904D01*
X170261904Y-89661904D01*
X170357142Y-89614285D01*
X170404761Y-89566666D01*
X170452380Y-89471428D01*
X170452380Y-89185714D01*
X170404761Y-89090476D01*
X170357142Y-89042857D01*
G04 #@! TO.C,D37*
X153814285Y-121152380D02*
X153814285Y-120152380D01*
X153576190Y-120152380D01*
X153433333Y-120200000D01*
X153338095Y-120295238D01*
X153290476Y-120390476D01*
X153242857Y-120580952D01*
X153242857Y-120723809D01*
X153290476Y-120914285D01*
X153338095Y-121009523D01*
X153433333Y-121104761D01*
X153576190Y-121152380D01*
X153814285Y-121152380D01*
X152909523Y-120152380D02*
X152290476Y-120152380D01*
X152623809Y-120533333D01*
X152480952Y-120533333D01*
X152385714Y-120580952D01*
X152338095Y-120628571D01*
X152290476Y-120723809D01*
X152290476Y-120961904D01*
X152338095Y-121057142D01*
X152385714Y-121104761D01*
X152480952Y-121152380D01*
X152766666Y-121152380D01*
X152861904Y-121104761D01*
X152909523Y-121057142D01*
X151957142Y-120152380D02*
X151290476Y-120152380D01*
X151719047Y-121152380D01*
G04 #@! TO.C,D38*
X166052380Y-125785714D02*
X165052380Y-125785714D01*
X165052380Y-126023809D01*
X165100000Y-126166666D01*
X165195238Y-126261904D01*
X165290476Y-126309523D01*
X165480952Y-126357142D01*
X165623809Y-126357142D01*
X165814285Y-126309523D01*
X165909523Y-126261904D01*
X166004761Y-126166666D01*
X166052380Y-126023809D01*
X166052380Y-125785714D01*
X165052380Y-126690476D02*
X165052380Y-127309523D01*
X165433333Y-126976190D01*
X165433333Y-127119047D01*
X165480952Y-127214285D01*
X165528571Y-127261904D01*
X165623809Y-127309523D01*
X165861904Y-127309523D01*
X165957142Y-127261904D01*
X166004761Y-127214285D01*
X166052380Y-127119047D01*
X166052380Y-126833333D01*
X166004761Y-126738095D01*
X165957142Y-126690476D01*
X165480952Y-127880952D02*
X165433333Y-127785714D01*
X165385714Y-127738095D01*
X165290476Y-127690476D01*
X165242857Y-127690476D01*
X165147619Y-127738095D01*
X165099999Y-127785714D01*
X165052380Y-127880952D01*
X165052380Y-128071428D01*
X165099999Y-128166666D01*
X165147619Y-128214285D01*
X165242857Y-128261904D01*
X165290476Y-128261904D01*
X165385714Y-128214285D01*
X165433333Y-128166666D01*
X165480952Y-128071428D01*
X165480952Y-127880952D01*
X165528571Y-127785714D01*
X165576190Y-127738095D01*
X165671428Y-127690476D01*
X165861904Y-127690476D01*
X165957142Y-127738095D01*
X166004761Y-127785714D01*
X166052380Y-127880952D01*
X166052380Y-128071428D01*
X166004761Y-128166666D01*
X165957142Y-128214285D01*
X165861904Y-128261904D01*
X165671428Y-128261904D01*
X165576190Y-128214285D01*
X165528571Y-128166666D01*
X165480952Y-128071428D01*
G04 #@! TO.C,D39*
X136514285Y-132852380D02*
X136514285Y-131852380D01*
X136276190Y-131852380D01*
X136133333Y-131900000D01*
X136038095Y-131995238D01*
X135990476Y-132090476D01*
X135942857Y-132280952D01*
X135942857Y-132423809D01*
X135990476Y-132614285D01*
X136038095Y-132709523D01*
X136133333Y-132804761D01*
X136276190Y-132852380D01*
X136514285Y-132852380D01*
X135609523Y-131852380D02*
X134990476Y-131852380D01*
X135323809Y-132233333D01*
X135180952Y-132233333D01*
X135085714Y-132280952D01*
X135038095Y-132328571D01*
X134990476Y-132423809D01*
X134990476Y-132661904D01*
X135038095Y-132757142D01*
X135085714Y-132804761D01*
X135180952Y-132852380D01*
X135466666Y-132852380D01*
X135561904Y-132804761D01*
X135609523Y-132757142D01*
X134514285Y-132852380D02*
X134323809Y-132852380D01*
X134228571Y-132804761D01*
X134180952Y-132757142D01*
X134085714Y-132614285D01*
X134038095Y-132423809D01*
X134038095Y-132042857D01*
X134085714Y-131947619D01*
X134133333Y-131900000D01*
X134228571Y-131852380D01*
X134419047Y-131852380D01*
X134514285Y-131900000D01*
X134561904Y-131947619D01*
X134609523Y-132042857D01*
X134609523Y-132280952D01*
X134561904Y-132376190D01*
X134514285Y-132423809D01*
X134419047Y-132471428D01*
X134228571Y-132471428D01*
X134133333Y-132423809D01*
X134085714Y-132376190D01*
X134038095Y-132280952D01*
G04 #@! TO.C,D40*
X182352380Y-72185714D02*
X181352380Y-72185714D01*
X181352380Y-72423809D01*
X181400000Y-72566666D01*
X181495238Y-72661904D01*
X181590476Y-72709523D01*
X181780952Y-72757142D01*
X181923809Y-72757142D01*
X182114285Y-72709523D01*
X182209523Y-72661904D01*
X182304761Y-72566666D01*
X182352380Y-72423809D01*
X182352380Y-72185714D01*
X181685714Y-73614285D02*
X182352380Y-73614285D01*
X181304761Y-73376190D02*
X182019047Y-73138095D01*
X182019047Y-73757142D01*
X181352380Y-74328571D02*
X181352380Y-74423809D01*
X181399999Y-74519047D01*
X181447619Y-74566666D01*
X181542857Y-74614285D01*
X181733333Y-74661904D01*
X181971428Y-74661904D01*
X182161904Y-74614285D01*
X182257142Y-74566666D01*
X182304761Y-74519047D01*
X182352380Y-74423809D01*
X182352380Y-74328571D01*
X182304761Y-74233333D01*
X182257142Y-74185714D01*
X182161904Y-74138095D01*
X181971428Y-74090476D01*
X181733333Y-74090476D01*
X181542857Y-74138095D01*
X181447619Y-74185714D01*
X181399999Y-74233333D01*
X181352380Y-74328571D01*
X180552380Y-73385714D02*
X180552380Y-72814285D01*
X180552380Y-73100000D02*
X179552380Y-73100000D01*
X179695238Y-73004761D01*
X179790476Y-72909523D01*
X179838095Y-72814285D01*
G04 #@! TO.C,D41*
X182252380Y-64985714D02*
X181252380Y-64985714D01*
X181252380Y-65223809D01*
X181300000Y-65366666D01*
X181395238Y-65461904D01*
X181490476Y-65509523D01*
X181680952Y-65557142D01*
X181823809Y-65557142D01*
X182014285Y-65509523D01*
X182109523Y-65461904D01*
X182204761Y-65366666D01*
X182252380Y-65223809D01*
X182252380Y-64985714D01*
X181585714Y-66414285D02*
X182252380Y-66414285D01*
X181204761Y-66176190D02*
X181919047Y-65938095D01*
X181919047Y-66557142D01*
X182252380Y-67461904D02*
X182252380Y-66890476D01*
X182252380Y-67176190D02*
X181252380Y-67176190D01*
X181395238Y-67080952D01*
X181490476Y-66985714D01*
X181538095Y-66890476D01*
X180552380Y-65385714D02*
X180552380Y-64814285D01*
X180552380Y-65100000D02*
X179552380Y-65100000D01*
X179695238Y-65004761D01*
X179790476Y-64909523D01*
X179838095Y-64814285D01*
G04 #@! TO.C,D42*
X179014285Y-58752380D02*
X179014285Y-57752380D01*
X178776190Y-57752380D01*
X178633333Y-57800000D01*
X178538095Y-57895238D01*
X178490476Y-57990476D01*
X178442857Y-58180952D01*
X178442857Y-58323809D01*
X178490476Y-58514285D01*
X178538095Y-58609523D01*
X178633333Y-58704761D01*
X178776190Y-58752380D01*
X179014285Y-58752380D01*
X177585714Y-58085714D02*
X177585714Y-58752380D01*
X177823809Y-57704761D02*
X178061904Y-58419047D01*
X177442857Y-58419047D01*
X177109523Y-57847619D02*
X177061904Y-57800000D01*
X176966666Y-57752380D01*
X176728571Y-57752380D01*
X176633333Y-57800000D01*
X176585714Y-57847619D01*
X176538095Y-57942857D01*
X176538095Y-58038095D01*
X176585714Y-58180952D01*
X177157142Y-58752380D01*
X176538095Y-58752380D01*
X176314285Y-60552380D02*
X176885714Y-60552380D01*
X176599999Y-60552380D02*
X176599999Y-59552380D01*
X176695238Y-59695238D01*
X176790476Y-59790476D01*
X176885714Y-59838095D01*
G04 #@! TO.C,D43*
X132214285Y-59152380D02*
X132214285Y-58152380D01*
X131976190Y-58152380D01*
X131833333Y-58200000D01*
X131738095Y-58295238D01*
X131690476Y-58390476D01*
X131642857Y-58580952D01*
X131642857Y-58723809D01*
X131690476Y-58914285D01*
X131738095Y-59009523D01*
X131833333Y-59104761D01*
X131976190Y-59152380D01*
X132214285Y-59152380D01*
X130785714Y-58485714D02*
X130785714Y-59152380D01*
X131023809Y-58104761D02*
X131261904Y-58819047D01*
X130642857Y-58819047D01*
X130357142Y-58152380D02*
X129738095Y-58152380D01*
X130071428Y-58533333D01*
X129928571Y-58533333D01*
X129833333Y-58580952D01*
X129785714Y-58628571D01*
X129738095Y-58723809D01*
X129738095Y-58961904D01*
X129785714Y-59057142D01*
X129833333Y-59104761D01*
X129928571Y-59152380D01*
X130214285Y-59152380D01*
X130309523Y-59104761D01*
X130357142Y-59057142D01*
X131714285Y-57252380D02*
X132285714Y-57252380D01*
X131999999Y-57252380D02*
X131999999Y-56252380D01*
X132095238Y-56395238D01*
X132190476Y-56490476D01*
X132285714Y-56538095D01*
G04 #@! TO.C,D44*
X127652380Y-64285714D02*
X126652380Y-64285714D01*
X126652380Y-64523809D01*
X126700000Y-64666666D01*
X126795238Y-64761904D01*
X126890476Y-64809523D01*
X127080952Y-64857142D01*
X127223809Y-64857142D01*
X127414285Y-64809523D01*
X127509523Y-64761904D01*
X127604761Y-64666666D01*
X127652380Y-64523809D01*
X127652380Y-64285714D01*
X126985714Y-65714285D02*
X127652380Y-65714285D01*
X126604761Y-65476190D02*
X127319047Y-65238095D01*
X127319047Y-65857142D01*
X126985714Y-66666666D02*
X127652380Y-66666666D01*
X126604761Y-66428571D02*
X127319047Y-66190476D01*
X127319047Y-66809523D01*
X129052380Y-67385714D02*
X129052380Y-66814285D01*
X129052380Y-67100000D02*
X128052380Y-67100000D01*
X128195238Y-67004761D01*
X128290476Y-66909523D01*
X128338095Y-66814285D01*
G04 #@! TO.C,D45*
X127552380Y-72835714D02*
X126552380Y-72835714D01*
X126552380Y-73073809D01*
X126600000Y-73216666D01*
X126695238Y-73311904D01*
X126790476Y-73359523D01*
X126980952Y-73407142D01*
X127123809Y-73407142D01*
X127314285Y-73359523D01*
X127409523Y-73311904D01*
X127504761Y-73216666D01*
X127552380Y-73073809D01*
X127552380Y-72835714D01*
X126885714Y-74264285D02*
X127552380Y-74264285D01*
X126504761Y-74026190D02*
X127219047Y-73788095D01*
X127219047Y-74407142D01*
X126552380Y-75264285D02*
X126552380Y-74788095D01*
X127028571Y-74740476D01*
X126980952Y-74788095D01*
X126933333Y-74883333D01*
X126933333Y-75121428D01*
X126980952Y-75216666D01*
X127028571Y-75264285D01*
X127123809Y-75311904D01*
X127361904Y-75311904D01*
X127457142Y-75264285D01*
X127504761Y-75216666D01*
X127552380Y-75121428D01*
X127552380Y-74883333D01*
X127504761Y-74788095D01*
X127457142Y-74740476D01*
X129252380Y-75285714D02*
X129252380Y-74714285D01*
X129252380Y-75000000D02*
X128252380Y-75000000D01*
X128395238Y-74904761D01*
X128490476Y-74809523D01*
X128538095Y-74714285D01*
G04 #@! TO.C,5551*
X134852380Y-72717068D02*
X134852380Y-72240878D01*
X135328571Y-72193259D01*
X135280952Y-72240878D01*
X135233333Y-72336116D01*
X135233333Y-72574211D01*
X135280952Y-72669449D01*
X135328571Y-72717068D01*
X135423809Y-72764687D01*
X135661904Y-72764687D01*
X135757142Y-72717068D01*
X135804761Y-72669449D01*
X135852380Y-72574211D01*
X135852380Y-72336116D01*
X135804761Y-72240878D01*
X135757142Y-72193259D01*
X134852380Y-73669449D02*
X134852380Y-73193259D01*
X135328571Y-73145640D01*
X135280952Y-73193259D01*
X135233333Y-73288497D01*
X135233333Y-73526592D01*
X135280952Y-73621830D01*
X135328571Y-73669449D01*
X135423809Y-73717068D01*
X135661904Y-73717068D01*
X135757142Y-73669449D01*
X135804761Y-73621830D01*
X135852380Y-73526592D01*
X135852380Y-73288497D01*
X135804761Y-73193259D01*
X135757142Y-73145640D01*
X134852380Y-74621830D02*
X134852380Y-74145640D01*
X135328571Y-74098021D01*
X135280952Y-74145640D01*
X135233333Y-74240878D01*
X135233333Y-74478973D01*
X135280952Y-74574211D01*
X135328571Y-74621830D01*
X135423809Y-74669449D01*
X135661904Y-74669449D01*
X135757142Y-74621830D01*
X135804761Y-74574211D01*
X135852380Y-74478973D01*
X135852380Y-74240878D01*
X135804761Y-74145640D01*
X135757142Y-74098021D01*
X135852380Y-75621830D02*
X135852380Y-75050402D01*
X135852380Y-75336116D02*
X134852380Y-75336116D01*
X134995238Y-75240878D01*
X135090476Y-75145640D01*
X135138095Y-75050402D01*
G04 #@! TO.C,5552*
X134752380Y-81009523D02*
X134752380Y-80533333D01*
X135228571Y-80485714D01*
X135180952Y-80533333D01*
X135133333Y-80628571D01*
X135133333Y-80866666D01*
X135180952Y-80961904D01*
X135228571Y-81009523D01*
X135323809Y-81057142D01*
X135561904Y-81057142D01*
X135657142Y-81009523D01*
X135704761Y-80961904D01*
X135752380Y-80866666D01*
X135752380Y-80628571D01*
X135704761Y-80533333D01*
X135657142Y-80485714D01*
X134752380Y-81961904D02*
X134752380Y-81485714D01*
X135228571Y-81438095D01*
X135180952Y-81485714D01*
X135133333Y-81580952D01*
X135133333Y-81819047D01*
X135180952Y-81914285D01*
X135228571Y-81961904D01*
X135323809Y-82009523D01*
X135561904Y-82009523D01*
X135657142Y-81961904D01*
X135704761Y-81914285D01*
X135752380Y-81819047D01*
X135752380Y-81580952D01*
X135704761Y-81485714D01*
X135657142Y-81438095D01*
X134752380Y-82914285D02*
X134752380Y-82438095D01*
X135228571Y-82390476D01*
X135180952Y-82438095D01*
X135133333Y-82533333D01*
X135133333Y-82771428D01*
X135180952Y-82866666D01*
X135228571Y-82914285D01*
X135323809Y-82961904D01*
X135561904Y-82961904D01*
X135657142Y-82914285D01*
X135704761Y-82866666D01*
X135752380Y-82771428D01*
X135752380Y-82533333D01*
X135704761Y-82438095D01*
X135657142Y-82390476D01*
X134847619Y-83342857D02*
X134799999Y-83390476D01*
X134752380Y-83485714D01*
X134752380Y-83723809D01*
X134799999Y-83819047D01*
X134847619Y-83866666D01*
X134942857Y-83914285D01*
X135038095Y-83914285D01*
X135180952Y-83866666D01*
X135752380Y-83295238D01*
X135752380Y-83914285D01*
G04 #@! TO.C,5553*
X174552380Y-91709523D02*
X174552380Y-91233333D01*
X175028571Y-91185714D01*
X174980952Y-91233333D01*
X174933333Y-91328571D01*
X174933333Y-91566666D01*
X174980952Y-91661904D01*
X175028571Y-91709523D01*
X175123809Y-91757142D01*
X175361904Y-91757142D01*
X175457142Y-91709523D01*
X175504761Y-91661904D01*
X175552380Y-91566666D01*
X175552380Y-91328571D01*
X175504761Y-91233333D01*
X175457142Y-91185714D01*
X174552380Y-92661904D02*
X174552380Y-92185714D01*
X175028571Y-92138095D01*
X174980952Y-92185714D01*
X174933333Y-92280952D01*
X174933333Y-92519047D01*
X174980952Y-92614285D01*
X175028571Y-92661904D01*
X175123809Y-92709523D01*
X175361904Y-92709523D01*
X175457142Y-92661904D01*
X175504761Y-92614285D01*
X175552380Y-92519047D01*
X175552380Y-92280952D01*
X175504761Y-92185714D01*
X175457142Y-92138095D01*
X174552380Y-93614285D02*
X174552380Y-93138095D01*
X175028571Y-93090476D01*
X174980952Y-93138095D01*
X174933333Y-93233333D01*
X174933333Y-93471428D01*
X174980952Y-93566666D01*
X175028571Y-93614285D01*
X175123809Y-93661904D01*
X175361904Y-93661904D01*
X175457142Y-93614285D01*
X175504761Y-93566666D01*
X175552380Y-93471428D01*
X175552380Y-93233333D01*
X175504761Y-93138095D01*
X175457142Y-93090476D01*
X174552380Y-93995238D02*
X174552380Y-94614285D01*
X174933333Y-94280952D01*
X174933333Y-94423809D01*
X174980952Y-94519047D01*
X175028571Y-94566666D01*
X175123809Y-94614285D01*
X175361904Y-94614285D01*
X175457142Y-94566666D01*
X175504761Y-94519047D01*
X175552380Y-94423809D01*
X175552380Y-94138095D01*
X175504761Y-94042857D01*
X175457142Y-93995238D01*
G04 #@! TO.C,5554*
X174552380Y-83409523D02*
X174552380Y-82933333D01*
X175028571Y-82885714D01*
X174980952Y-82933333D01*
X174933333Y-83028571D01*
X174933333Y-83266666D01*
X174980952Y-83361904D01*
X175028571Y-83409523D01*
X175123809Y-83457142D01*
X175361904Y-83457142D01*
X175457142Y-83409523D01*
X175504761Y-83361904D01*
X175552380Y-83266666D01*
X175552380Y-83028571D01*
X175504761Y-82933333D01*
X175457142Y-82885714D01*
X174552380Y-84361904D02*
X174552380Y-83885714D01*
X175028571Y-83838095D01*
X174980952Y-83885714D01*
X174933333Y-83980952D01*
X174933333Y-84219047D01*
X174980952Y-84314285D01*
X175028571Y-84361904D01*
X175123809Y-84409523D01*
X175361904Y-84409523D01*
X175457142Y-84361904D01*
X175504761Y-84314285D01*
X175552380Y-84219047D01*
X175552380Y-83980952D01*
X175504761Y-83885714D01*
X175457142Y-83838095D01*
X174552380Y-85314285D02*
X174552380Y-84838095D01*
X175028571Y-84790476D01*
X174980952Y-84838095D01*
X174933333Y-84933333D01*
X174933333Y-85171428D01*
X174980952Y-85266666D01*
X175028571Y-85314285D01*
X175123809Y-85361904D01*
X175361904Y-85361904D01*
X175457142Y-85314285D01*
X175504761Y-85266666D01*
X175552380Y-85171428D01*
X175552380Y-84933333D01*
X175504761Y-84838095D01*
X175457142Y-84790476D01*
X174885714Y-86219047D02*
X175552380Y-86219047D01*
X174504761Y-85980952D02*
X175219047Y-85742857D01*
X175219047Y-86361904D01*
G04 #@! TO.C,J1*
D13*
X129153333Y-131434523D02*
X129153333Y-132041666D01*
X129179523Y-132163095D01*
X129231904Y-132244047D01*
X129310476Y-132284523D01*
X129362857Y-132284523D01*
X128603333Y-132284523D02*
X128917619Y-132284523D01*
X128760476Y-132284523D02*
X128760476Y-131434523D01*
X128812857Y-131555952D01*
X128865238Y-131636904D01*
X128917619Y-131677380D01*
G04 #@! TO.C,LV555*
D11*
X128052380Y-92052380D02*
X128052380Y-91576190D01*
X127052380Y-91576190D01*
X127052380Y-92242857D02*
X128052380Y-92576190D01*
X127052380Y-92909523D01*
X127052380Y-93719047D02*
X127052380Y-93242857D01*
X127528571Y-93195238D01*
X127480952Y-93242857D01*
X127433333Y-93338095D01*
X127433333Y-93576190D01*
X127480952Y-93671428D01*
X127528571Y-93719047D01*
X127623809Y-93766666D01*
X127861904Y-93766666D01*
X127957142Y-93719047D01*
X128004761Y-93671428D01*
X128052380Y-93576190D01*
X128052380Y-93338095D01*
X128004761Y-93242857D01*
X127957142Y-93195238D01*
X127052380Y-94671428D02*
X127052380Y-94195238D01*
X127528571Y-94147619D01*
X127480952Y-94195238D01*
X127433333Y-94290476D01*
X127433333Y-94528571D01*
X127480952Y-94623809D01*
X127528571Y-94671428D01*
X127623809Y-94719047D01*
X127861904Y-94719047D01*
X127957142Y-94671428D01*
X128004761Y-94623809D01*
X128052380Y-94528571D01*
X128052380Y-94290476D01*
X128004761Y-94195238D01*
X127957142Y-94147619D01*
X127052380Y-95623809D02*
X127052380Y-95147619D01*
X127528571Y-95099999D01*
X127480952Y-95147619D01*
X127433333Y-95242857D01*
X127433333Y-95480952D01*
X127480952Y-95576190D01*
X127528571Y-95623809D01*
X127623809Y-95671428D01*
X127861904Y-95671428D01*
X127957142Y-95623809D01*
X128004761Y-95576190D01*
X128052380Y-95480952D01*
X128052380Y-95242857D01*
X128004761Y-95147619D01*
X127957142Y-95100000D01*
G04 #@! TO.C,MAX16054*
X150095238Y-121161904D02*
X150095238Y-120361904D01*
X149828571Y-120933333D01*
X149561904Y-120361904D01*
X149561904Y-121161904D01*
X149219047Y-120933333D02*
X148838095Y-120933333D01*
X149295238Y-121161904D02*
X149028571Y-120361904D01*
X148761904Y-121161904D01*
X148571428Y-120361904D02*
X148038095Y-121161904D01*
X148038095Y-120361904D02*
X148571428Y-121161904D01*
X147314285Y-121161904D02*
X147771428Y-121161904D01*
X147542857Y-121161904D02*
X147542857Y-120361904D01*
X147619047Y-120476190D01*
X147695238Y-120552380D01*
X147771428Y-120590476D01*
X146628571Y-120361904D02*
X146780952Y-120361904D01*
X146857142Y-120400000D01*
X146895238Y-120438095D01*
X146971428Y-120552380D01*
X147009523Y-120704761D01*
X147009523Y-121009523D01*
X146971428Y-121085714D01*
X146933333Y-121123809D01*
X146857142Y-121161904D01*
X146704761Y-121161904D01*
X146628571Y-121123809D01*
X146590476Y-121085714D01*
X146552380Y-121009523D01*
X146552380Y-120819047D01*
X146590476Y-120742857D01*
X146628571Y-120704761D01*
X146704761Y-120666666D01*
X146857142Y-120666666D01*
X146933333Y-120704761D01*
X146971428Y-120742857D01*
X147009523Y-120819047D01*
X146057142Y-120361904D02*
X145980952Y-120361904D01*
X145904761Y-120400000D01*
X145866666Y-120438095D01*
X145828571Y-120514285D01*
X145790476Y-120666666D01*
X145790476Y-120857142D01*
X145828571Y-121009523D01*
X145866666Y-121085714D01*
X145904761Y-121123809D01*
X145980952Y-121161904D01*
X146057142Y-121161904D01*
X146133333Y-121123809D01*
X146171428Y-121085714D01*
X146209523Y-121009523D01*
X146247619Y-120857142D01*
X146247619Y-120666666D01*
X146209523Y-120514285D01*
X146171428Y-120438095D01*
X146133333Y-120400000D01*
X146057142Y-120361904D01*
X145066666Y-120361904D02*
X145447619Y-120361904D01*
X145485714Y-120742857D01*
X145447619Y-120704761D01*
X145371428Y-120666666D01*
X145180952Y-120666666D01*
X145104761Y-120704761D01*
X145066666Y-120742857D01*
X145028571Y-120819047D01*
X145028571Y-121009523D01*
X145066666Y-121085714D01*
X145104761Y-121123809D01*
X145180952Y-121161904D01*
X145371428Y-121161904D01*
X145447619Y-121123809D01*
X145485714Y-121085714D01*
X144342857Y-120628571D02*
X144342857Y-121161904D01*
X144533333Y-120323809D02*
X144723809Y-120895238D01*
X144228571Y-120895238D01*
G04 #@! TO.C,MAX40200*
X168519047Y-121152380D02*
X168519047Y-120152380D01*
X168185714Y-120866666D01*
X167852380Y-120152380D01*
X167852380Y-121152380D01*
X167423809Y-120866666D02*
X166947619Y-120866666D01*
X167519047Y-121152380D02*
X167185714Y-120152380D01*
X166852380Y-121152380D01*
X166614285Y-120152380D02*
X165947619Y-121152380D01*
X165947619Y-120152380D02*
X166614285Y-121152380D01*
X165138095Y-120485714D02*
X165138095Y-121152380D01*
X165376190Y-120104761D02*
X165614285Y-120819047D01*
X164995238Y-120819047D01*
X164423809Y-120152380D02*
X164328571Y-120152380D01*
X164233333Y-120200000D01*
X164185714Y-120247619D01*
X164138095Y-120342857D01*
X164090476Y-120533333D01*
X164090476Y-120771428D01*
X164138095Y-120961904D01*
X164185714Y-121057142D01*
X164233333Y-121104761D01*
X164328571Y-121152380D01*
X164423809Y-121152380D01*
X164519047Y-121104761D01*
X164566666Y-121057142D01*
X164614285Y-120961904D01*
X164661904Y-120771428D01*
X164661904Y-120533333D01*
X164614285Y-120342857D01*
X164566666Y-120247619D01*
X164519047Y-120200000D01*
X164423809Y-120152380D01*
X163709523Y-120247619D02*
X163661904Y-120200000D01*
X163566666Y-120152380D01*
X163328571Y-120152380D01*
X163233333Y-120200000D01*
X163185714Y-120247619D01*
X163138095Y-120342857D01*
X163138095Y-120438095D01*
X163185714Y-120580952D01*
X163757142Y-121152380D01*
X163138095Y-121152380D01*
X162519047Y-120152380D02*
X162423809Y-120152380D01*
X162328571Y-120200000D01*
X162280952Y-120247619D01*
X162233333Y-120342857D01*
X162185714Y-120533333D01*
X162185714Y-120771428D01*
X162233333Y-120961904D01*
X162280952Y-121057142D01*
X162328571Y-121104761D01*
X162423809Y-121152380D01*
X162519047Y-121152380D01*
X162614285Y-121104761D01*
X162661904Y-121057142D01*
X162709523Y-120961904D01*
X162757142Y-120771428D01*
X162757142Y-120533333D01*
X162709523Y-120342857D01*
X162661904Y-120247619D01*
X162614285Y-120200000D01*
X162519047Y-120152380D01*
X161566666Y-120152380D02*
X161471428Y-120152380D01*
X161376190Y-120200000D01*
X161328571Y-120247619D01*
X161280952Y-120342857D01*
X161233333Y-120533333D01*
X161233333Y-120771428D01*
X161280952Y-120961904D01*
X161328571Y-121057142D01*
X161376190Y-121104761D01*
X161471428Y-121152380D01*
X161566666Y-121152380D01*
X161661904Y-121104761D01*
X161709523Y-121057142D01*
X161757142Y-120961904D01*
X161804761Y-120771428D01*
X161804761Y-120533333D01*
X161757142Y-120342857D01*
X161709523Y-120247619D01*
X161661904Y-120200000D01*
X161566666Y-120152380D01*
G04 #@! TO.C,NCP1402*
X150461904Y-123947619D02*
X149661904Y-123947619D01*
X150461904Y-124404761D01*
X149661904Y-124404761D01*
X150385714Y-125242857D02*
X150423809Y-125204761D01*
X150461904Y-125090476D01*
X150461904Y-125014285D01*
X150423809Y-124899999D01*
X150347619Y-124823809D01*
X150271428Y-124785714D01*
X150119047Y-124747619D01*
X150004761Y-124747619D01*
X149852380Y-124785714D01*
X149776190Y-124823809D01*
X149700000Y-124899999D01*
X149661904Y-125014285D01*
X149661904Y-125090476D01*
X149700000Y-125204761D01*
X149738095Y-125242857D01*
X150461904Y-125585714D02*
X149661904Y-125585714D01*
X149661904Y-125890476D01*
X149700000Y-125966666D01*
X149738095Y-126004761D01*
X149814285Y-126042857D01*
X149928571Y-126042857D01*
X150004761Y-126004761D01*
X150042857Y-125966666D01*
X150080952Y-125890476D01*
X150080952Y-125585714D01*
X150461904Y-126804761D02*
X150461904Y-126347619D01*
X150461904Y-126576190D02*
X149661904Y-126576190D01*
X149776190Y-126499999D01*
X149852380Y-126423809D01*
X149890476Y-126347619D01*
X149928571Y-127490476D02*
X150461904Y-127490476D01*
X149623809Y-127299999D02*
X150195238Y-127109523D01*
X150195238Y-127604761D01*
X149661904Y-128061904D02*
X149661904Y-128138095D01*
X149699999Y-128214285D01*
X149738095Y-128252380D01*
X149814285Y-128290476D01*
X149966666Y-128328571D01*
X150157142Y-128328571D01*
X150309523Y-128290476D01*
X150385714Y-128252380D01*
X150423809Y-128214285D01*
X150461904Y-128138095D01*
X150461904Y-128061904D01*
X150423809Y-127985714D01*
X150385714Y-127947619D01*
X150309523Y-127909523D01*
X150157142Y-127871428D01*
X149966666Y-127871428D01*
X149814285Y-127909523D01*
X149738095Y-127947619D01*
X149699999Y-127985714D01*
X149661904Y-128061904D01*
X149738095Y-128633333D02*
X149699999Y-128671428D01*
X149661904Y-128747619D01*
X149661904Y-128938095D01*
X149699999Y-129014285D01*
X149738095Y-129052380D01*
X149814285Y-129090476D01*
X149890476Y-129090476D01*
X150004761Y-129052380D01*
X150461904Y-128595238D01*
X150461904Y-129090476D01*
G04 #@! TO.C,Q1*
X128047619Y-126789073D02*
X128000000Y-126693835D01*
X127904761Y-126598597D01*
X127761904Y-126455740D01*
X127714285Y-126360502D01*
X127714285Y-126265264D01*
X127952380Y-126312883D02*
X127904761Y-126217645D01*
X127809523Y-126122407D01*
X127619047Y-126074788D01*
X127285714Y-126074788D01*
X127095238Y-126122407D01*
X127000000Y-126217645D01*
X126952380Y-126312883D01*
X126952380Y-126503359D01*
X127000000Y-126598597D01*
X127095238Y-126693835D01*
X127285714Y-126741454D01*
X127619047Y-126741454D01*
X127809523Y-126693835D01*
X127904761Y-126598597D01*
X127952380Y-126503359D01*
X127952380Y-126312883D01*
X127952380Y-127693835D02*
X127952380Y-127122407D01*
X127952380Y-127408121D02*
X126952380Y-127408121D01*
X127095238Y-127312883D01*
X127190476Y-127217645D01*
X127238095Y-127122407D01*
G04 #@! TO.C,Q2*
X147647619Y-90404761D02*
X147600000Y-90309523D01*
X147504761Y-90214285D01*
X147361904Y-90071428D01*
X147314285Y-89976190D01*
X147314285Y-89880952D01*
X147552380Y-89928571D02*
X147504761Y-89833333D01*
X147409523Y-89738095D01*
X147219047Y-89690476D01*
X146885714Y-89690476D01*
X146695238Y-89738095D01*
X146600000Y-89833333D01*
X146552380Y-89928571D01*
X146552380Y-90119047D01*
X146600000Y-90214285D01*
X146695238Y-90309523D01*
X146885714Y-90357142D01*
X147219047Y-90357142D01*
X147409523Y-90309523D01*
X147504761Y-90214285D01*
X147552380Y-90119047D01*
X147552380Y-89928571D01*
X146647619Y-90738095D02*
X146599999Y-90785714D01*
X146552380Y-90880952D01*
X146552380Y-91119047D01*
X146599999Y-91214285D01*
X146647619Y-91261904D01*
X146742857Y-91309523D01*
X146838095Y-91309523D01*
X146980952Y-91261904D01*
X147552380Y-90690476D01*
X147552380Y-91309523D01*
G04 #@! TO.C,Q3*
X128147619Y-114204761D02*
X128100000Y-114109523D01*
X128004761Y-114014285D01*
X127861904Y-113871428D01*
X127814285Y-113776190D01*
X127814285Y-113680952D01*
X128052380Y-113728571D02*
X128004761Y-113633333D01*
X127909523Y-113538095D01*
X127719047Y-113490476D01*
X127385714Y-113490476D01*
X127195238Y-113538095D01*
X127100000Y-113633333D01*
X127052380Y-113728571D01*
X127052380Y-113919047D01*
X127100000Y-114014285D01*
X127195238Y-114109523D01*
X127385714Y-114157142D01*
X127719047Y-114157142D01*
X127909523Y-114109523D01*
X128004761Y-114014285D01*
X128052380Y-113919047D01*
X128052380Y-113728571D01*
X127052380Y-114490476D02*
X127052380Y-115109523D01*
X127433333Y-114776190D01*
X127433333Y-114919047D01*
X127480952Y-115014285D01*
X127528571Y-115061904D01*
X127623809Y-115109523D01*
X127861904Y-115109523D01*
X127957142Y-115061904D01*
X128004761Y-115014285D01*
X128052380Y-114919047D01*
X128052380Y-114633333D01*
X128004761Y-114538095D01*
X127957142Y-114490476D01*
G04 #@! TO.C,Q4*
X139960073Y-114389073D02*
X139912454Y-114293835D01*
X139817215Y-114198597D01*
X139674358Y-114055740D01*
X139626739Y-113960502D01*
X139626739Y-113865264D01*
X139864834Y-113912883D02*
X139817215Y-113817645D01*
X139721977Y-113722407D01*
X139531501Y-113674788D01*
X139198168Y-113674788D01*
X139007692Y-113722407D01*
X138912454Y-113817645D01*
X138864834Y-113912883D01*
X138864834Y-114103359D01*
X138912454Y-114198597D01*
X139007692Y-114293835D01*
X139198168Y-114341454D01*
X139531501Y-114341454D01*
X139721977Y-114293835D01*
X139817215Y-114198597D01*
X139864834Y-114103359D01*
X139864834Y-113912883D01*
X139198168Y-115198597D02*
X139864834Y-115198597D01*
X138817215Y-114960502D02*
X139531501Y-114722407D01*
X139531501Y-115341454D01*
G04 #@! TO.C,Q5*
X145961901Y-127183965D02*
X145914282Y-127088727D01*
X145819043Y-126993489D01*
X145676186Y-126850632D01*
X145628567Y-126755394D01*
X145628567Y-126660156D01*
X145866662Y-126707775D02*
X145819043Y-126612537D01*
X145723805Y-126517299D01*
X145533329Y-126469680D01*
X145199996Y-126469680D01*
X145009520Y-126517299D01*
X144914282Y-126612537D01*
X144866662Y-126707775D01*
X144866662Y-126898251D01*
X144914282Y-126993489D01*
X145009520Y-127088727D01*
X145199996Y-127136346D01*
X145533329Y-127136346D01*
X145723805Y-127088727D01*
X145819043Y-126993489D01*
X145866662Y-126898251D01*
X145866662Y-126707775D01*
X144866662Y-128041108D02*
X144866662Y-127564918D01*
X145342853Y-127517299D01*
X145295234Y-127564918D01*
X145247615Y-127660156D01*
X145247615Y-127898251D01*
X145295234Y-127993489D01*
X145342853Y-128041108D01*
X145438091Y-128088727D01*
X145676186Y-128088727D01*
X145771424Y-128041108D01*
X145819043Y-127993489D01*
X145866662Y-127898251D01*
X145866662Y-127660156D01*
X145819043Y-127564918D01*
X145771424Y-127517299D01*
G04 #@! TO.C,Q2A1*
X128047619Y-121700000D02*
X128000000Y-121604761D01*
X127904761Y-121509523D01*
X127761904Y-121366666D01*
X127714285Y-121271428D01*
X127714285Y-121176190D01*
X127952380Y-121223809D02*
X127904761Y-121128571D01*
X127809523Y-121033333D01*
X127619047Y-120985714D01*
X127285714Y-120985714D01*
X127095238Y-121033333D01*
X127000000Y-121128571D01*
X126952380Y-121223809D01*
X126952380Y-121414285D01*
X127000000Y-121509523D01*
X127095238Y-121604761D01*
X127285714Y-121652380D01*
X127619047Y-121652380D01*
X127809523Y-121604761D01*
X127904761Y-121509523D01*
X127952380Y-121414285D01*
X127952380Y-121223809D01*
X127047619Y-122033333D02*
X127000000Y-122080952D01*
X126952380Y-122176190D01*
X126952380Y-122414285D01*
X127000000Y-122509523D01*
X127047619Y-122557142D01*
X127142857Y-122604761D01*
X127238095Y-122604761D01*
X127380952Y-122557142D01*
X127952380Y-121985714D01*
X127952380Y-122604761D01*
X127666666Y-122985714D02*
X127666666Y-123461904D01*
X127952380Y-122890476D02*
X126952380Y-123223809D01*
X127952380Y-123557142D01*
X127952380Y-124414285D02*
X127952380Y-123842857D01*
X127952380Y-124128571D02*
X126952380Y-124128571D01*
X127095238Y-124033333D01*
X127190476Y-123938095D01*
X127238095Y-123842857D01*
G04 #@! TO.C,Q2B1*
X128147619Y-117412883D02*
X128100000Y-117317645D01*
X128004761Y-117222407D01*
X127861904Y-117079550D01*
X127814285Y-116984312D01*
X127814285Y-116889073D01*
X128052380Y-116936692D02*
X128004761Y-116841454D01*
X127909523Y-116746216D01*
X127719047Y-116698597D01*
X127385714Y-116698597D01*
X127195238Y-116746216D01*
X127100000Y-116841454D01*
X127052380Y-116936692D01*
X127052380Y-117127169D01*
X127100000Y-117222407D01*
X127195238Y-117317645D01*
X127385714Y-117365264D01*
X127719047Y-117365264D01*
X127909523Y-117317645D01*
X128004761Y-117222407D01*
X128052380Y-117127169D01*
X128052380Y-116936692D01*
X127147619Y-117746216D02*
X127100000Y-117793835D01*
X127052380Y-117889073D01*
X127052380Y-118127169D01*
X127100000Y-118222407D01*
X127147619Y-118270026D01*
X127242857Y-118317645D01*
X127338095Y-118317645D01*
X127480952Y-118270026D01*
X128052380Y-117698597D01*
X128052380Y-118317645D01*
X127528571Y-119079550D02*
X127576190Y-119222407D01*
X127623809Y-119270026D01*
X127719047Y-119317645D01*
X127861904Y-119317645D01*
X127957142Y-119270026D01*
X128004761Y-119222407D01*
X128052380Y-119127169D01*
X128052380Y-118746216D01*
X127052380Y-118746216D01*
X127052380Y-119079550D01*
X127099999Y-119174788D01*
X127147619Y-119222407D01*
X127242857Y-119270026D01*
X127338095Y-119270026D01*
X127433333Y-119222407D01*
X127480952Y-119174788D01*
X127528571Y-119079550D01*
X127528571Y-118746216D01*
X128052380Y-120270026D02*
X128052380Y-119698597D01*
X128052380Y-119984312D02*
X127052380Y-119984312D01*
X127195238Y-119889073D01*
X127290476Y-119793835D01*
X127338095Y-119698597D01*
G04 #@! TO.C,R1*
X132561904Y-112266666D02*
X132180952Y-112000000D01*
X132561904Y-111809523D02*
X131761904Y-111809523D01*
X131761904Y-112114285D01*
X131800000Y-112190476D01*
X131838095Y-112228571D01*
X131914285Y-112266666D01*
X132028571Y-112266666D01*
X132104761Y-112228571D01*
X132142857Y-112190476D01*
X132180952Y-112114285D01*
X132180952Y-111809523D01*
X132561904Y-113028571D02*
X132561904Y-112571428D01*
X132561904Y-112800000D02*
X131761904Y-112800000D01*
X131876190Y-112723809D01*
X131952380Y-112647619D01*
X131990476Y-112571428D01*
G04 #@! TO.C,R2*
X135261904Y-120666666D02*
X134880952Y-120400000D01*
X135261904Y-120209523D02*
X134461904Y-120209523D01*
X134461904Y-120514285D01*
X134500000Y-120590476D01*
X134538095Y-120628571D01*
X134614285Y-120666666D01*
X134728571Y-120666666D01*
X134804761Y-120628571D01*
X134842857Y-120590476D01*
X134880952Y-120514285D01*
X134880952Y-120209523D01*
X134538095Y-120971428D02*
X134499999Y-121009523D01*
X134461904Y-121085714D01*
X134461904Y-121276190D01*
X134499999Y-121352380D01*
X134538095Y-121390476D01*
X134614285Y-121428571D01*
X134690476Y-121428571D01*
X134804761Y-121390476D01*
X135261904Y-120933333D01*
X135261904Y-121428571D01*
G04 #@! TO.C,R3*
X135361904Y-116566666D02*
X134980952Y-116300000D01*
X135361904Y-116109523D02*
X134561904Y-116109523D01*
X134561904Y-116414285D01*
X134600000Y-116490476D01*
X134638095Y-116528571D01*
X134714285Y-116566666D01*
X134828571Y-116566666D01*
X134904761Y-116528571D01*
X134942857Y-116490476D01*
X134980952Y-116414285D01*
X134980952Y-116109523D01*
X134561904Y-116833333D02*
X134561904Y-117328571D01*
X134866666Y-117061904D01*
X134866666Y-117176190D01*
X134904761Y-117252380D01*
X134942857Y-117290476D01*
X135019047Y-117328571D01*
X135209523Y-117328571D01*
X135285714Y-117290476D01*
X135323809Y-117252380D01*
X135361904Y-117176190D01*
X135361904Y-116947619D01*
X135323809Y-116871428D01*
X135285714Y-116833333D01*
G04 #@! TO.C,R4*
X135261904Y-124766666D02*
X134880952Y-124500000D01*
X135261904Y-124309523D02*
X134461904Y-124309523D01*
X134461904Y-124614285D01*
X134500000Y-124690476D01*
X134538095Y-124728571D01*
X134614285Y-124766666D01*
X134728571Y-124766666D01*
X134804761Y-124728571D01*
X134842857Y-124690476D01*
X134880952Y-124614285D01*
X134880952Y-124309523D01*
X134728571Y-125452380D02*
X135261904Y-125452380D01*
X134423809Y-125261904D02*
X134995238Y-125071428D01*
X134995238Y-125566666D01*
G04 #@! TO.C,R5*
X141014834Y-126705145D02*
X140538644Y-126371812D01*
X141014834Y-126133716D02*
X140014834Y-126133716D01*
X140014834Y-126514669D01*
X140062454Y-126609907D01*
X140110073Y-126657526D01*
X140205311Y-126705145D01*
X140348168Y-126705145D01*
X140443406Y-126657526D01*
X140491025Y-126609907D01*
X140538644Y-126514669D01*
X140538644Y-126133716D01*
X140014834Y-127609907D02*
X140014834Y-127133716D01*
X140491025Y-127086097D01*
X140443406Y-127133716D01*
X140395787Y-127228954D01*
X140395787Y-127467050D01*
X140443406Y-127562288D01*
X140491025Y-127609907D01*
X140586263Y-127657526D01*
X140824358Y-127657526D01*
X140919596Y-127609907D01*
X140967215Y-127562288D01*
X141014834Y-127467050D01*
X141014834Y-127228954D01*
X140967215Y-127133716D01*
X140919596Y-127086097D01*
G04 #@! TO.C,R6*
X132661904Y-120766666D02*
X132280952Y-120500000D01*
X132661904Y-120309523D02*
X131861904Y-120309523D01*
X131861904Y-120614285D01*
X131900000Y-120690476D01*
X131938095Y-120728571D01*
X132014285Y-120766666D01*
X132128571Y-120766666D01*
X132204761Y-120728571D01*
X132242857Y-120690476D01*
X132280952Y-120614285D01*
X132280952Y-120309523D01*
X131861904Y-121452380D02*
X131861904Y-121300000D01*
X131899999Y-121223809D01*
X131938095Y-121185714D01*
X132052380Y-121109523D01*
X132204761Y-121071428D01*
X132509523Y-121071428D01*
X132585714Y-121109523D01*
X132623809Y-121147619D01*
X132661904Y-121223809D01*
X132661904Y-121376190D01*
X132623809Y-121452380D01*
X132585714Y-121490476D01*
X132509523Y-121528571D01*
X132319047Y-121528571D01*
X132242857Y-121490476D01*
X132204761Y-121452380D01*
X132166666Y-121376190D01*
X132166666Y-121223809D01*
X132204761Y-121147619D01*
X132242857Y-121109523D01*
X132319047Y-121071428D01*
G04 #@! TO.C,R7*
X132761904Y-116566666D02*
X132380952Y-116300000D01*
X132761904Y-116109523D02*
X131961904Y-116109523D01*
X131961904Y-116414285D01*
X132000000Y-116490476D01*
X132038095Y-116528571D01*
X132114285Y-116566666D01*
X132228571Y-116566666D01*
X132304761Y-116528571D01*
X132342857Y-116490476D01*
X132380952Y-116414285D01*
X132380952Y-116109523D01*
X131961904Y-116833333D02*
X131961904Y-117366666D01*
X132761904Y-117023809D01*
G04 #@! TO.C,R8*
X141052380Y-118433333D02*
X140576190Y-118100000D01*
X141052380Y-117861904D02*
X140052380Y-117861904D01*
X140052380Y-118242857D01*
X140100000Y-118338095D01*
X140147619Y-118385714D01*
X140242857Y-118433333D01*
X140385714Y-118433333D01*
X140480952Y-118385714D01*
X140528571Y-118338095D01*
X140576190Y-118242857D01*
X140576190Y-117861904D01*
X140480952Y-119004761D02*
X140433333Y-118909523D01*
X140385714Y-118861904D01*
X140290476Y-118814285D01*
X140242857Y-118814285D01*
X140147619Y-118861904D01*
X140099999Y-118909523D01*
X140052380Y-119004761D01*
X140052380Y-119195238D01*
X140099999Y-119290476D01*
X140147619Y-119338095D01*
X140242857Y-119385714D01*
X140290476Y-119385714D01*
X140385714Y-119338095D01*
X140433333Y-119290476D01*
X140480952Y-119195238D01*
X140480952Y-119004761D01*
X140528571Y-118909523D01*
X140576190Y-118861904D01*
X140671428Y-118814285D01*
X140861904Y-118814285D01*
X140957142Y-118861904D01*
X141004761Y-118909523D01*
X141052380Y-119004761D01*
X141052380Y-119195238D01*
X141004761Y-119290476D01*
X140957142Y-119338095D01*
X140861904Y-119385714D01*
X140671428Y-119385714D01*
X140576190Y-119338095D01*
X140528571Y-119290476D01*
X140480952Y-119195238D01*
G04 #@! TO.C,R9*
X132661904Y-124966666D02*
X132280952Y-124700000D01*
X132661904Y-124509523D02*
X131861904Y-124509523D01*
X131861904Y-124814285D01*
X131900000Y-124890476D01*
X131938095Y-124928571D01*
X132014285Y-124966666D01*
X132128571Y-124966666D01*
X132204761Y-124928571D01*
X132242857Y-124890476D01*
X132280952Y-124814285D01*
X132280952Y-124509523D01*
X132661904Y-125347619D02*
X132661904Y-125500000D01*
X132623809Y-125576190D01*
X132585714Y-125614285D01*
X132471428Y-125690476D01*
X132319047Y-125728571D01*
X132014285Y-125728571D01*
X131938095Y-125690476D01*
X131899999Y-125652380D01*
X131861904Y-125576190D01*
X131861904Y-125423809D01*
X131899999Y-125347619D01*
X131938095Y-125309523D01*
X132014285Y-125271428D01*
X132204761Y-125271428D01*
X132280952Y-125309523D01*
X132319047Y-125347619D01*
X132357142Y-125423809D01*
X132357142Y-125576190D01*
X132319047Y-125652380D01*
X132280952Y-125690476D01*
X132204761Y-125728571D01*
G04 #@! TO.C,R10*
X136952380Y-95257142D02*
X136476190Y-94923809D01*
X136952380Y-94685714D02*
X135952380Y-94685714D01*
X135952380Y-95066666D01*
X136000000Y-95161904D01*
X136047619Y-95209523D01*
X136142857Y-95257142D01*
X136285714Y-95257142D01*
X136380952Y-95209523D01*
X136428571Y-95161904D01*
X136476190Y-95066666D01*
X136476190Y-94685714D01*
X136952380Y-96209523D02*
X136952380Y-95638095D01*
X136952380Y-95923809D02*
X135952380Y-95923809D01*
X136095238Y-95828571D01*
X136190476Y-95733333D01*
X136238095Y-95638095D01*
X135952380Y-96828571D02*
X135952380Y-96923809D01*
X135999999Y-97019047D01*
X136047619Y-97066666D01*
X136142857Y-97114285D01*
X136333333Y-97161904D01*
X136571428Y-97161904D01*
X136761904Y-97114285D01*
X136857142Y-97066666D01*
X136904761Y-97019047D01*
X136952380Y-96923809D01*
X136952380Y-96828571D01*
X136904761Y-96733333D01*
X136857142Y-96685714D01*
X136761904Y-96638095D01*
X136571428Y-96590476D01*
X136333333Y-96590476D01*
X136142857Y-96638095D01*
X136047619Y-96685714D01*
X135999999Y-96733333D01*
X135952380Y-96828571D01*
G04 #@! TO.C,R11*
X131142857Y-88552380D02*
X131476190Y-88076190D01*
X131714285Y-88552380D02*
X131714285Y-87552380D01*
X131333333Y-87552380D01*
X131238095Y-87600000D01*
X131190476Y-87647619D01*
X131142857Y-87742857D01*
X131142857Y-87885714D01*
X131190476Y-87980952D01*
X131238095Y-88028571D01*
X131333333Y-88076190D01*
X131714285Y-88076190D01*
X130190476Y-88552380D02*
X130761904Y-88552380D01*
X130476190Y-88552380D02*
X130476190Y-87552380D01*
X130571428Y-87695238D01*
X130666666Y-87790476D01*
X130761904Y-87838095D01*
X129238095Y-88552380D02*
X129809523Y-88552380D01*
X129523809Y-88552380D02*
X129523809Y-87552380D01*
X129619047Y-87695238D01*
X129714285Y-87790476D01*
X129809523Y-87838095D01*
G04 #@! TO.C,R12*
X135342857Y-88552380D02*
X135676190Y-88076190D01*
X135914285Y-88552380D02*
X135914285Y-87552380D01*
X135533333Y-87552380D01*
X135438095Y-87600000D01*
X135390476Y-87647619D01*
X135342857Y-87742857D01*
X135342857Y-87885714D01*
X135390476Y-87980952D01*
X135438095Y-88028571D01*
X135533333Y-88076190D01*
X135914285Y-88076190D01*
X134390476Y-88552380D02*
X134961904Y-88552380D01*
X134676190Y-88552380D02*
X134676190Y-87552380D01*
X134771428Y-87695238D01*
X134866666Y-87790476D01*
X134961904Y-87838095D01*
X134009523Y-87647619D02*
X133961904Y-87600000D01*
X133866666Y-87552380D01*
X133628571Y-87552380D01*
X133533333Y-87600000D01*
X133485714Y-87647619D01*
X133438095Y-87742857D01*
X133438095Y-87838095D01*
X133485714Y-87980952D01*
X134057142Y-88552380D01*
X133438095Y-88552380D01*
G04 #@! TO.C,R13*
X139652380Y-75957142D02*
X139176190Y-75623809D01*
X139652380Y-75385714D02*
X138652380Y-75385714D01*
X138652380Y-75766666D01*
X138700000Y-75861904D01*
X138747619Y-75909523D01*
X138842857Y-75957142D01*
X138985714Y-75957142D01*
X139080952Y-75909523D01*
X139128571Y-75861904D01*
X139176190Y-75766666D01*
X139176190Y-75385714D01*
X139652380Y-76909523D02*
X139652380Y-76338095D01*
X139652380Y-76623809D02*
X138652380Y-76623809D01*
X138795238Y-76528571D01*
X138890476Y-76433333D01*
X138938095Y-76338095D01*
X138652380Y-77242857D02*
X138652380Y-77861904D01*
X139033333Y-77528571D01*
X139033333Y-77671428D01*
X139080952Y-77766666D01*
X139128571Y-77814285D01*
X139223809Y-77861904D01*
X139461904Y-77861904D01*
X139557142Y-77814285D01*
X139604761Y-77766666D01*
X139652380Y-77671428D01*
X139652380Y-77385714D01*
X139604761Y-77290476D01*
X139557142Y-77242857D01*
G04 #@! TO.C,R14*
X131202380Y-81857142D02*
X130726190Y-81523809D01*
X131202380Y-81285714D02*
X130202380Y-81285714D01*
X130202380Y-81666666D01*
X130250000Y-81761904D01*
X130297619Y-81809523D01*
X130392857Y-81857142D01*
X130535714Y-81857142D01*
X130630952Y-81809523D01*
X130678571Y-81761904D01*
X130726190Y-81666666D01*
X130726190Y-81285714D01*
X131202380Y-82809523D02*
X131202380Y-82238095D01*
X131202380Y-82523809D02*
X130202380Y-82523809D01*
X130345238Y-82428571D01*
X130440476Y-82333333D01*
X130488095Y-82238095D01*
X130535714Y-83666666D02*
X131202380Y-83666666D01*
X130154761Y-83428571D02*
X130869047Y-83190476D01*
X130869047Y-83809523D01*
G04 #@! TO.C,R15*
X170452380Y-92357142D02*
X169976190Y-92023809D01*
X170452380Y-91785714D02*
X169452380Y-91785714D01*
X169452380Y-92166666D01*
X169500000Y-92261904D01*
X169547619Y-92309523D01*
X169642857Y-92357142D01*
X169785714Y-92357142D01*
X169880952Y-92309523D01*
X169928571Y-92261904D01*
X169976190Y-92166666D01*
X169976190Y-91785714D01*
X170452380Y-93309523D02*
X170452380Y-92738095D01*
X170452380Y-93023809D02*
X169452380Y-93023809D01*
X169595238Y-92928571D01*
X169690476Y-92833333D01*
X169738095Y-92738095D01*
X169452380Y-94214285D02*
X169452380Y-93738095D01*
X169928571Y-93690476D01*
X169880952Y-93738095D01*
X169833333Y-93833333D01*
X169833333Y-94071428D01*
X169880952Y-94166666D01*
X169928571Y-94214285D01*
X170023809Y-94261904D01*
X170261904Y-94261904D01*
X170357142Y-94214285D01*
X170404761Y-94166666D01*
X170452380Y-94071428D01*
X170452380Y-93833333D01*
X170404761Y-93738095D01*
X170357142Y-93690476D01*
G04 #@! TO.C,R16*
X145742857Y-76802380D02*
X146076190Y-76326190D01*
X146314285Y-76802380D02*
X146314285Y-75802380D01*
X145933333Y-75802380D01*
X145838095Y-75850000D01*
X145790476Y-75897619D01*
X145742857Y-75992857D01*
X145742857Y-76135714D01*
X145790476Y-76230952D01*
X145838095Y-76278571D01*
X145933333Y-76326190D01*
X146314285Y-76326190D01*
X144790476Y-76802380D02*
X145361904Y-76802380D01*
X145076190Y-76802380D02*
X145076190Y-75802380D01*
X145171428Y-75945238D01*
X145266666Y-76040476D01*
X145361904Y-76088095D01*
X143933333Y-75802380D02*
X144123809Y-75802380D01*
X144219047Y-75850000D01*
X144266666Y-75897619D01*
X144361904Y-76040476D01*
X144409523Y-76230952D01*
X144409523Y-76611904D01*
X144361904Y-76707142D01*
X144314285Y-76754761D01*
X144219047Y-76802380D01*
X144028571Y-76802380D01*
X143933333Y-76754761D01*
X143885714Y-76707142D01*
X143838095Y-76611904D01*
X143838095Y-76373809D01*
X143885714Y-76278571D01*
X143933333Y-76230952D01*
X144028571Y-76183333D01*
X144219047Y-76183333D01*
X144314285Y-76230952D01*
X144361904Y-76278571D01*
X144409523Y-76373809D01*
G04 #@! TO.C,R18*
X138402380Y-62357142D02*
X137926190Y-62023809D01*
X138402380Y-61785714D02*
X137402380Y-61785714D01*
X137402380Y-62166666D01*
X137450000Y-62261904D01*
X137497619Y-62309523D01*
X137592857Y-62357142D01*
X137735714Y-62357142D01*
X137830952Y-62309523D01*
X137878571Y-62261904D01*
X137926190Y-62166666D01*
X137926190Y-61785714D01*
X138402380Y-63309523D02*
X138402380Y-62738095D01*
X138402380Y-63023809D02*
X137402380Y-63023809D01*
X137545238Y-62928571D01*
X137640476Y-62833333D01*
X137688095Y-62738095D01*
X137830952Y-63880952D02*
X137783333Y-63785714D01*
X137735714Y-63738095D01*
X137640476Y-63690476D01*
X137592857Y-63690476D01*
X137497619Y-63738095D01*
X137449999Y-63785714D01*
X137402380Y-63880952D01*
X137402380Y-64071428D01*
X137449999Y-64166666D01*
X137497619Y-64214285D01*
X137592857Y-64261904D01*
X137640476Y-64261904D01*
X137735714Y-64214285D01*
X137783333Y-64166666D01*
X137830952Y-64071428D01*
X137830952Y-63880952D01*
X137878571Y-63785714D01*
X137926190Y-63738095D01*
X138021428Y-63690476D01*
X138211904Y-63690476D01*
X138307142Y-63738095D01*
X138354761Y-63785714D01*
X138402380Y-63880952D01*
X138402380Y-64071428D01*
X138354761Y-64166666D01*
X138307142Y-64214285D01*
X138211904Y-64261904D01*
X138021428Y-64261904D01*
X137926190Y-64214285D01*
X137878571Y-64166666D01*
X137830952Y-64071428D01*
G04 #@! TO.C,R19*
X150780357Y-66502380D02*
X151113690Y-66026190D01*
X151351785Y-66502380D02*
X151351785Y-65502380D01*
X150970833Y-65502380D01*
X150875595Y-65550000D01*
X150827976Y-65597619D01*
X150780357Y-65692857D01*
X150780357Y-65835714D01*
X150827976Y-65930952D01*
X150875595Y-65978571D01*
X150970833Y-66026190D01*
X151351785Y-66026190D01*
X149827976Y-66502380D02*
X150399404Y-66502380D01*
X150113690Y-66502380D02*
X150113690Y-65502380D01*
X150208928Y-65645238D01*
X150304166Y-65740476D01*
X150399404Y-65788095D01*
X149351785Y-66502380D02*
X149161309Y-66502380D01*
X149066071Y-66454761D01*
X149018452Y-66407142D01*
X148923214Y-66264285D01*
X148875595Y-66073809D01*
X148875595Y-65692857D01*
X148923214Y-65597619D01*
X148970833Y-65550000D01*
X149066071Y-65502380D01*
X149256547Y-65502380D01*
X149351785Y-65550000D01*
X149399404Y-65597619D01*
X149447023Y-65692857D01*
X149447023Y-65930952D01*
X149399404Y-66026190D01*
X149351785Y-66073809D01*
X149256547Y-66121428D01*
X149066071Y-66121428D01*
X148970833Y-66073809D01*
X148923214Y-66026190D01*
X148875595Y-65930952D01*
G04 #@! TO.C,R20*
X141202380Y-66557142D02*
X140726190Y-66223809D01*
X141202380Y-65985714D02*
X140202380Y-65985714D01*
X140202380Y-66366666D01*
X140250000Y-66461904D01*
X140297619Y-66509523D01*
X140392857Y-66557142D01*
X140535714Y-66557142D01*
X140630952Y-66509523D01*
X140678571Y-66461904D01*
X140726190Y-66366666D01*
X140726190Y-65985714D01*
X140297619Y-66938095D02*
X140250000Y-66985714D01*
X140202380Y-67080952D01*
X140202380Y-67319047D01*
X140249999Y-67414285D01*
X140297619Y-67461904D01*
X140392857Y-67509523D01*
X140488095Y-67509523D01*
X140630952Y-67461904D01*
X141202380Y-66890476D01*
X141202380Y-67509523D01*
X140202380Y-68128571D02*
X140202380Y-68223809D01*
X140249999Y-68319047D01*
X140297619Y-68366666D01*
X140392857Y-68414285D01*
X140583333Y-68461904D01*
X140821428Y-68461904D01*
X141011904Y-68414285D01*
X141107142Y-68366666D01*
X141154761Y-68319047D01*
X141202380Y-68223809D01*
X141202380Y-68128571D01*
X141154761Y-68033333D01*
X141107142Y-67985714D01*
X141011904Y-67938095D01*
X140821428Y-67890476D01*
X140583333Y-67890476D01*
X140392857Y-67938095D01*
X140297619Y-67985714D01*
X140249999Y-68033333D01*
X140202380Y-68128571D01*
G04 #@! TO.C,R21*
X151402380Y-70557142D02*
X150926190Y-70223809D01*
X151402380Y-69985714D02*
X150402380Y-69985714D01*
X150402380Y-70366666D01*
X150450000Y-70461904D01*
X150497619Y-70509523D01*
X150592857Y-70557142D01*
X150735714Y-70557142D01*
X150830952Y-70509523D01*
X150878571Y-70461904D01*
X150926190Y-70366666D01*
X150926190Y-69985714D01*
X150497619Y-70938095D02*
X150450000Y-70985714D01*
X150402380Y-71080952D01*
X150402380Y-71319047D01*
X150449999Y-71414285D01*
X150497619Y-71461904D01*
X150592857Y-71509523D01*
X150688095Y-71509523D01*
X150830952Y-71461904D01*
X151402380Y-70890476D01*
X151402380Y-71509523D01*
X151402380Y-72461904D02*
X151402380Y-71890476D01*
X151402380Y-72176190D02*
X150402380Y-72176190D01*
X150545238Y-72080952D01*
X150640476Y-71985714D01*
X150688095Y-71890476D01*
G04 #@! TO.C,R22*
X154742857Y-60252380D02*
X155076190Y-59776190D01*
X155314285Y-60252380D02*
X155314285Y-59252380D01*
X154933333Y-59252380D01*
X154838095Y-59300000D01*
X154790476Y-59347619D01*
X154742857Y-59442857D01*
X154742857Y-59585714D01*
X154790476Y-59680952D01*
X154838095Y-59728571D01*
X154933333Y-59776190D01*
X155314285Y-59776190D01*
X154361904Y-59347619D02*
X154314285Y-59300000D01*
X154219047Y-59252380D01*
X153980952Y-59252380D01*
X153885714Y-59300000D01*
X153838095Y-59347619D01*
X153790476Y-59442857D01*
X153790476Y-59538095D01*
X153838095Y-59680952D01*
X154409523Y-60252380D01*
X153790476Y-60252380D01*
X153409523Y-59347619D02*
X153361904Y-59300000D01*
X153266666Y-59252380D01*
X153028571Y-59252380D01*
X152933333Y-59300000D01*
X152885714Y-59347619D01*
X152838095Y-59442857D01*
X152838095Y-59538095D01*
X152885714Y-59680952D01*
X153457142Y-60252380D01*
X152838095Y-60252380D01*
G04 #@! TO.C,R23*
X156402380Y-66694642D02*
X155926190Y-66361309D01*
X156402380Y-66123214D02*
X155402380Y-66123214D01*
X155402380Y-66504166D01*
X155450000Y-66599404D01*
X155497619Y-66647023D01*
X155592857Y-66694642D01*
X155735714Y-66694642D01*
X155830952Y-66647023D01*
X155878571Y-66599404D01*
X155926190Y-66504166D01*
X155926190Y-66123214D01*
X155497619Y-67075595D02*
X155450000Y-67123214D01*
X155402380Y-67218452D01*
X155402380Y-67456547D01*
X155449999Y-67551785D01*
X155497619Y-67599404D01*
X155592857Y-67647023D01*
X155688095Y-67647023D01*
X155830952Y-67599404D01*
X156402380Y-67027976D01*
X156402380Y-67647023D01*
X155402380Y-67980357D02*
X155402380Y-68599404D01*
X155783333Y-68266071D01*
X155783333Y-68408928D01*
X155830952Y-68504166D01*
X155878571Y-68551785D01*
X155973809Y-68599404D01*
X156211904Y-68599404D01*
X156307142Y-68551785D01*
X156354761Y-68504166D01*
X156402380Y-68408928D01*
X156402380Y-68123214D01*
X156354761Y-68027976D01*
X156307142Y-67980357D01*
G04 #@! TO.C,R24*
X159742857Y-60252380D02*
X160076190Y-59776190D01*
X160314285Y-60252380D02*
X160314285Y-59252380D01*
X159933333Y-59252380D01*
X159838095Y-59300000D01*
X159790476Y-59347619D01*
X159742857Y-59442857D01*
X159742857Y-59585714D01*
X159790476Y-59680952D01*
X159838095Y-59728571D01*
X159933333Y-59776190D01*
X160314285Y-59776190D01*
X159361904Y-59347619D02*
X159314285Y-59300000D01*
X159219047Y-59252380D01*
X158980952Y-59252380D01*
X158885714Y-59300000D01*
X158838095Y-59347619D01*
X158790476Y-59442857D01*
X158790476Y-59538095D01*
X158838095Y-59680952D01*
X159409523Y-60252380D01*
X158790476Y-60252380D01*
X157933333Y-59585714D02*
X157933333Y-60252380D01*
X158171428Y-59204761D02*
X158409523Y-59919047D01*
X157790476Y-59919047D01*
G04 #@! TO.C,R25*
X161980357Y-73702380D02*
X162313690Y-73226190D01*
X162551785Y-73702380D02*
X162551785Y-72702380D01*
X162170833Y-72702380D01*
X162075595Y-72750000D01*
X162027976Y-72797619D01*
X161980357Y-72892857D01*
X161980357Y-73035714D01*
X162027976Y-73130952D01*
X162075595Y-73178571D01*
X162170833Y-73226190D01*
X162551785Y-73226190D01*
X161599404Y-72797619D02*
X161551785Y-72750000D01*
X161456547Y-72702380D01*
X161218452Y-72702380D01*
X161123214Y-72750000D01*
X161075595Y-72797619D01*
X161027976Y-72892857D01*
X161027976Y-72988095D01*
X161075595Y-73130952D01*
X161647023Y-73702380D01*
X161027976Y-73702380D01*
X160123214Y-72702380D02*
X160599404Y-72702380D01*
X160647023Y-73178571D01*
X160599404Y-73130952D01*
X160504166Y-73083333D01*
X160266071Y-73083333D01*
X160170833Y-73130952D01*
X160123214Y-73178571D01*
X160075595Y-73273809D01*
X160075595Y-73511904D01*
X160123214Y-73607142D01*
X160170833Y-73654761D01*
X160266071Y-73702380D01*
X160504166Y-73702380D01*
X160599404Y-73654761D01*
X160647023Y-73607142D01*
G04 #@! TO.C,R26*
X163880357Y-69602380D02*
X164213690Y-69126190D01*
X164451785Y-69602380D02*
X164451785Y-68602380D01*
X164070833Y-68602380D01*
X163975595Y-68650000D01*
X163927976Y-68697619D01*
X163880357Y-68792857D01*
X163880357Y-68935714D01*
X163927976Y-69030952D01*
X163975595Y-69078571D01*
X164070833Y-69126190D01*
X164451785Y-69126190D01*
X163499404Y-68697619D02*
X163451785Y-68650000D01*
X163356547Y-68602380D01*
X163118452Y-68602380D01*
X163023214Y-68650000D01*
X162975595Y-68697619D01*
X162927976Y-68792857D01*
X162927976Y-68888095D01*
X162975595Y-69030952D01*
X163547023Y-69602380D01*
X162927976Y-69602380D01*
X162070833Y-68602380D02*
X162261309Y-68602380D01*
X162356547Y-68650000D01*
X162404166Y-68697619D01*
X162499404Y-68840476D01*
X162547023Y-69030952D01*
X162547023Y-69411904D01*
X162499404Y-69507142D01*
X162451785Y-69554761D01*
X162356547Y-69602380D01*
X162166071Y-69602380D01*
X162070833Y-69554761D01*
X162023214Y-69507142D01*
X161975595Y-69411904D01*
X161975595Y-69173809D01*
X162023214Y-69078571D01*
X162070833Y-69030952D01*
X162166071Y-68983333D01*
X162356547Y-68983333D01*
X162451785Y-69030952D01*
X162499404Y-69078571D01*
X162547023Y-69173809D01*
G04 #@! TO.C,R27*
X170002380Y-71357142D02*
X169526190Y-71023809D01*
X170002380Y-70785714D02*
X169002380Y-70785714D01*
X169002380Y-71166666D01*
X169050000Y-71261904D01*
X169097619Y-71309523D01*
X169192857Y-71357142D01*
X169335714Y-71357142D01*
X169430952Y-71309523D01*
X169478571Y-71261904D01*
X169526190Y-71166666D01*
X169526190Y-70785714D01*
X169097619Y-71738095D02*
X169050000Y-71785714D01*
X169002380Y-71880952D01*
X169002380Y-72119047D01*
X169049999Y-72214285D01*
X169097619Y-72261904D01*
X169192857Y-72309523D01*
X169288095Y-72309523D01*
X169430952Y-72261904D01*
X170002380Y-71690476D01*
X170002380Y-72309523D01*
X169002380Y-72642857D02*
X169002380Y-73309523D01*
X170002380Y-72880952D01*
G04 #@! TO.C,R28*
X166680357Y-73702380D02*
X167013690Y-73226190D01*
X167251785Y-73702380D02*
X167251785Y-72702380D01*
X166870833Y-72702380D01*
X166775595Y-72750000D01*
X166727976Y-72797619D01*
X166680357Y-72892857D01*
X166680357Y-73035714D01*
X166727976Y-73130952D01*
X166775595Y-73178571D01*
X166870833Y-73226190D01*
X167251785Y-73226190D01*
X166299404Y-72797619D02*
X166251785Y-72750000D01*
X166156547Y-72702380D01*
X165918452Y-72702380D01*
X165823214Y-72750000D01*
X165775595Y-72797619D01*
X165727976Y-72892857D01*
X165727976Y-72988095D01*
X165775595Y-73130952D01*
X166347023Y-73702380D01*
X165727976Y-73702380D01*
X165156547Y-73130952D02*
X165251785Y-73083333D01*
X165299404Y-73035714D01*
X165347023Y-72940476D01*
X165347023Y-72892857D01*
X165299404Y-72797619D01*
X165251785Y-72750000D01*
X165156547Y-72702380D01*
X164966071Y-72702380D01*
X164870833Y-72750000D01*
X164823214Y-72797619D01*
X164775595Y-72892857D01*
X164775595Y-72940476D01*
X164823214Y-73035714D01*
X164870833Y-73083333D01*
X164966071Y-73130952D01*
X165156547Y-73130952D01*
X165251785Y-73178571D01*
X165299404Y-73226190D01*
X165347023Y-73321428D01*
X165347023Y-73511904D01*
X165299404Y-73607142D01*
X165251785Y-73654761D01*
X165156547Y-73702380D01*
X164966071Y-73702380D01*
X164870833Y-73654761D01*
X164823214Y-73607142D01*
X164775595Y-73511904D01*
X164775595Y-73321428D01*
X164823214Y-73226190D01*
X164870833Y-73178571D01*
X164966071Y-73130952D01*
G04 #@! TO.C,R29*
X154780357Y-76802380D02*
X155113690Y-76326190D01*
X155351785Y-76802380D02*
X155351785Y-75802380D01*
X154970833Y-75802380D01*
X154875595Y-75850000D01*
X154827976Y-75897619D01*
X154780357Y-75992857D01*
X154780357Y-76135714D01*
X154827976Y-76230952D01*
X154875595Y-76278571D01*
X154970833Y-76326190D01*
X155351785Y-76326190D01*
X154399404Y-75897619D02*
X154351785Y-75850000D01*
X154256547Y-75802380D01*
X154018452Y-75802380D01*
X153923214Y-75850000D01*
X153875595Y-75897619D01*
X153827976Y-75992857D01*
X153827976Y-76088095D01*
X153875595Y-76230952D01*
X154447023Y-76802380D01*
X153827976Y-76802380D01*
X153351785Y-76802380D02*
X153161309Y-76802380D01*
X153066071Y-76754761D01*
X153018452Y-76707142D01*
X152923214Y-76564285D01*
X152875595Y-76373809D01*
X152875595Y-75992857D01*
X152923214Y-75897619D01*
X152970833Y-75850000D01*
X153066071Y-75802380D01*
X153256547Y-75802380D01*
X153351785Y-75850000D01*
X153399404Y-75897619D01*
X153447023Y-75992857D01*
X153447023Y-76230952D01*
X153399404Y-76326190D01*
X153351785Y-76373809D01*
X153256547Y-76421428D01*
X153066071Y-76421428D01*
X152970833Y-76373809D01*
X152923214Y-76326190D01*
X152875595Y-76230952D01*
G04 #@! TO.C,R30*
X149780357Y-76802380D02*
X150113690Y-76326190D01*
X150351785Y-76802380D02*
X150351785Y-75802380D01*
X149970833Y-75802380D01*
X149875595Y-75850000D01*
X149827976Y-75897619D01*
X149780357Y-75992857D01*
X149780357Y-76135714D01*
X149827976Y-76230952D01*
X149875595Y-76278571D01*
X149970833Y-76326190D01*
X150351785Y-76326190D01*
X149447023Y-75802380D02*
X148827976Y-75802380D01*
X149161309Y-76183333D01*
X149018452Y-76183333D01*
X148923214Y-76230952D01*
X148875595Y-76278571D01*
X148827976Y-76373809D01*
X148827976Y-76611904D01*
X148875595Y-76707142D01*
X148923214Y-76754761D01*
X149018452Y-76802380D01*
X149304166Y-76802380D01*
X149399404Y-76754761D01*
X149447023Y-76707142D01*
X148208928Y-75802380D02*
X148113690Y-75802380D01*
X148018452Y-75850000D01*
X147970833Y-75897619D01*
X147923214Y-75992857D01*
X147875595Y-76183333D01*
X147875595Y-76421428D01*
X147923214Y-76611904D01*
X147970833Y-76707142D01*
X148018452Y-76754761D01*
X148113690Y-76802380D01*
X148208928Y-76802380D01*
X148304166Y-76754761D01*
X148351785Y-76707142D01*
X148399404Y-76611904D01*
X148447023Y-76421428D01*
X148447023Y-76183333D01*
X148399404Y-75992857D01*
X148351785Y-75897619D01*
X148304166Y-75850000D01*
X148208928Y-75802380D01*
G04 #@! TO.C,R31*
X143605357Y-134402380D02*
X143938690Y-133926190D01*
X144176785Y-134402380D02*
X144176785Y-133402380D01*
X143795833Y-133402380D01*
X143700595Y-133450000D01*
X143652976Y-133497619D01*
X143605357Y-133592857D01*
X143605357Y-133735714D01*
X143652976Y-133830952D01*
X143700595Y-133878571D01*
X143795833Y-133926190D01*
X144176785Y-133926190D01*
X143272023Y-133402380D02*
X142652976Y-133402380D01*
X142986309Y-133783333D01*
X142843452Y-133783333D01*
X142748214Y-133830952D01*
X142700595Y-133878571D01*
X142652976Y-133973809D01*
X142652976Y-134211904D01*
X142700595Y-134307142D01*
X142748214Y-134354761D01*
X142843452Y-134402380D01*
X143129166Y-134402380D01*
X143224404Y-134354761D01*
X143272023Y-134307142D01*
X141700595Y-134402380D02*
X142272023Y-134402380D01*
X141986309Y-134402380D02*
X141986309Y-133402380D01*
X142081547Y-133545238D01*
X142176785Y-133640476D01*
X142272023Y-133688095D01*
G04 #@! TO.C,R32*
X146052380Y-99857142D02*
X145576190Y-99523809D01*
X146052380Y-99285714D02*
X145052380Y-99285714D01*
X145052380Y-99666666D01*
X145100000Y-99761904D01*
X145147619Y-99809523D01*
X145242857Y-99857142D01*
X145385714Y-99857142D01*
X145480952Y-99809523D01*
X145528571Y-99761904D01*
X145576190Y-99666666D01*
X145576190Y-99285714D01*
X145052380Y-100190476D02*
X145052380Y-100809523D01*
X145433333Y-100476190D01*
X145433333Y-100619047D01*
X145480952Y-100714285D01*
X145528571Y-100761904D01*
X145623809Y-100809523D01*
X145861904Y-100809523D01*
X145957142Y-100761904D01*
X146004761Y-100714285D01*
X146052380Y-100619047D01*
X146052380Y-100333333D01*
X146004761Y-100238095D01*
X145957142Y-100190476D01*
X145147619Y-101190476D02*
X145099999Y-101238095D01*
X145052380Y-101333333D01*
X145052380Y-101571428D01*
X145099999Y-101666666D01*
X145147619Y-101714285D01*
X145242857Y-101761904D01*
X145338095Y-101761904D01*
X145480952Y-101714285D01*
X146052380Y-101142857D01*
X146052380Y-101761904D01*
G04 #@! TO.C,R33*
X141389861Y-111580665D02*
X140913671Y-111247332D01*
X141389861Y-111009237D02*
X140389861Y-111009237D01*
X140389861Y-111390189D01*
X140437481Y-111485427D01*
X140485100Y-111533046D01*
X140580338Y-111580665D01*
X140723195Y-111580665D01*
X140818433Y-111533046D01*
X140866052Y-111485427D01*
X140913671Y-111390189D01*
X140913671Y-111009237D01*
X140389861Y-111913999D02*
X140389861Y-112533046D01*
X140770814Y-112199713D01*
X140770814Y-112342570D01*
X140818433Y-112437808D01*
X140866052Y-112485427D01*
X140961290Y-112533046D01*
X141199385Y-112533046D01*
X141294623Y-112485427D01*
X141342242Y-112437808D01*
X141389861Y-112342570D01*
X141389861Y-112056856D01*
X141342242Y-111961618D01*
X141294623Y-111913999D01*
X140389861Y-112866380D02*
X140389861Y-113485427D01*
X140770814Y-113152094D01*
X140770814Y-113294951D01*
X140818433Y-113390189D01*
X140866052Y-113437808D01*
X140961290Y-113485427D01*
X141199385Y-113485427D01*
X141294623Y-113437808D01*
X141342242Y-113390189D01*
X141389861Y-113294951D01*
X141389861Y-113009237D01*
X141342242Y-112913999D01*
X141294623Y-112866380D01*
G04 #@! TO.C,R34*
X142152380Y-96657142D02*
X141676190Y-96323809D01*
X142152380Y-96085714D02*
X141152380Y-96085714D01*
X141152380Y-96466666D01*
X141200000Y-96561904D01*
X141247619Y-96609523D01*
X141342857Y-96657142D01*
X141485714Y-96657142D01*
X141580952Y-96609523D01*
X141628571Y-96561904D01*
X141676190Y-96466666D01*
X141676190Y-96085714D01*
X141152380Y-96990476D02*
X141152380Y-97609523D01*
X141533333Y-97276190D01*
X141533333Y-97419047D01*
X141580952Y-97514285D01*
X141628571Y-97561904D01*
X141723809Y-97609523D01*
X141961904Y-97609523D01*
X142057142Y-97561904D01*
X142104761Y-97514285D01*
X142152380Y-97419047D01*
X142152380Y-97133333D01*
X142104761Y-97038095D01*
X142057142Y-96990476D01*
X141485714Y-98466666D02*
X142152380Y-98466666D01*
X141104761Y-98228571D02*
X141819047Y-97990476D01*
X141819047Y-98609523D01*
G04 #@! TO.C,R35*
X138552380Y-99457142D02*
X138076190Y-99123809D01*
X138552380Y-98885714D02*
X137552380Y-98885714D01*
X137552380Y-99266666D01*
X137600000Y-99361904D01*
X137647619Y-99409523D01*
X137742857Y-99457142D01*
X137885714Y-99457142D01*
X137980952Y-99409523D01*
X138028571Y-99361904D01*
X138076190Y-99266666D01*
X138076190Y-98885714D01*
X137552380Y-99790476D02*
X137552380Y-100409523D01*
X137933333Y-100076190D01*
X137933333Y-100219047D01*
X137980952Y-100314285D01*
X138028571Y-100361904D01*
X138123809Y-100409523D01*
X138361904Y-100409523D01*
X138457142Y-100361904D01*
X138504761Y-100314285D01*
X138552380Y-100219047D01*
X138552380Y-99933333D01*
X138504761Y-99838095D01*
X138457142Y-99790476D01*
X137552380Y-101314285D02*
X137552380Y-100838095D01*
X138028571Y-100790476D01*
X137980952Y-100838095D01*
X137933333Y-100933333D01*
X137933333Y-101171428D01*
X137980952Y-101266666D01*
X138028571Y-101314285D01*
X138123809Y-101361904D01*
X138361904Y-101361904D01*
X138457142Y-101314285D01*
X138504761Y-101266666D01*
X138552380Y-101171428D01*
X138552380Y-100933333D01*
X138504761Y-100838095D01*
X138457142Y-100790476D01*
G04 #@! TO.C,R36*
X142866662Y-122823846D02*
X142390472Y-122490513D01*
X142866662Y-122252418D02*
X141866662Y-122252418D01*
X141866662Y-122633370D01*
X141914282Y-122728608D01*
X141961901Y-122776227D01*
X142057139Y-122823846D01*
X142199996Y-122823846D01*
X142295234Y-122776227D01*
X142342853Y-122728608D01*
X142390472Y-122633370D01*
X142390472Y-122252418D01*
X141866662Y-123157180D02*
X141866662Y-123776227D01*
X142247615Y-123442894D01*
X142247615Y-123585751D01*
X142295234Y-123680989D01*
X142342853Y-123728608D01*
X142438091Y-123776227D01*
X142676186Y-123776227D01*
X142771424Y-123728608D01*
X142819043Y-123680989D01*
X142866662Y-123585751D01*
X142866662Y-123300037D01*
X142819043Y-123204799D01*
X142771424Y-123157180D01*
X141866662Y-124633370D02*
X141866662Y-124442894D01*
X141914281Y-124347656D01*
X141961901Y-124300037D01*
X142104758Y-124204799D01*
X142295234Y-124157180D01*
X142676186Y-124157180D01*
X142771424Y-124204799D01*
X142819043Y-124252418D01*
X142866662Y-124347656D01*
X142866662Y-124538132D01*
X142819043Y-124633370D01*
X142771424Y-124680989D01*
X142676186Y-124728608D01*
X142438091Y-124728608D01*
X142342853Y-124680989D01*
X142295234Y-124633370D01*
X142247615Y-124538132D01*
X142247615Y-124347656D01*
X142295234Y-124252418D01*
X142342853Y-124204799D01*
X142438091Y-124157180D01*
G04 #@! TO.C,R37*
X172502380Y-117357142D02*
X172026190Y-117023809D01*
X172502380Y-116785714D02*
X171502380Y-116785714D01*
X171502380Y-117166666D01*
X171550000Y-117261904D01*
X171597619Y-117309523D01*
X171692857Y-117357142D01*
X171835714Y-117357142D01*
X171930952Y-117309523D01*
X171978571Y-117261904D01*
X172026190Y-117166666D01*
X172026190Y-116785714D01*
X171502380Y-117690476D02*
X171502380Y-118309523D01*
X171883333Y-117976190D01*
X171883333Y-118119047D01*
X171930952Y-118214285D01*
X171978571Y-118261904D01*
X172073809Y-118309523D01*
X172311904Y-118309523D01*
X172407142Y-118261904D01*
X172454761Y-118214285D01*
X172502380Y-118119047D01*
X172502380Y-117833333D01*
X172454761Y-117738095D01*
X172407142Y-117690476D01*
X171502380Y-118642857D02*
X171502380Y-119309523D01*
X172502380Y-118880952D01*
G04 #@! TD*
M02*
