M48
;DRILL file {KiCad (5.0.0)} date 10/09/18 12:56:57
;FORMAT={-:-/ absolute / metric / decimal}
FMAT,2
METRIC,TZ
T1C0.300
T2C1.000
%
G90
G05
M71
T1
X123.7Y-120.4
X125.Y-138.6
X125.87Y-112.7
X126.6Y-112.7
X126.6Y-120.4
X127.5Y-67.5
X127.7Y-125.3
X128.3Y-100.1
X128.4Y-102.9
X128.767Y-125.26
X129.7Y-67.5
X129.7Y-81.9
X131.2Y-112.6
X131.3Y-95.8
X131.6Y-139.3
X132.Y-92.868
X132.Y-93.858
X132.03Y-95.8
X132.5Y-71.2
X132.5Y-80.3
X132.5Y-108.7
X132.6Y-110.9
X132.7Y-74.1
X132.9Y-78.7
X132.9Y-92.1
X133.6Y-77.9
X133.6Y-124.8
X134.9Y-112.6
X135.6Y-97.2
X136.2Y-140.3
X136.9Y-130.5
X137.3Y-75.9
X137.3Y-76.7
X137.4Y-95.
X137.5Y-72.5
X137.6Y-126.8
X138.1Y-99.7
X138.9Y-120.7
X139.6Y-97.205
X140.4Y-130.5
X140.9Y-71.5
X141.Y-114.1
X141.1Y-62.
X141.1Y-68.1
X141.13Y-130.5
X141.3Y-121.4
X141.8Y-97.205
X142.8Y-75.6
X143.Y-97.4
X143.6Y-72.4
X145.3Y-97.4
X145.4Y-100.2
X145.7Y-82.7
X146.03Y-97.4
X147.2Y-72.6
X148.Y-72.6
X148.7Y-65.
X148.8Y-62.1
X149.5Y-77.5
X150.5Y-66.1
X150.5Y-69.3
X151.4Y-99.8
X152.Y-66.1
X152.3Y-99.3
X152.9Y-101.495
X153.2Y-62.8
X154.2Y-67.6
X154.2Y-75.7
X155.4Y-72.6
X156.Y-99.3
X156.3Y-66.4
X156.5Y-70.4
X156.8Y-77.6
X158.Y-69.5
X158.Y-71.7
X158.4Y-60.3
X158.6Y-100.4
X159.2Y-74.7
X159.3Y-77.6
X160.Y-72.1
X160.1Y-70.1
X160.3Y-63.4
X160.6Y-83.7
X161.7Y-66.1
X163.2Y-69.6
X163.5Y-100.4
X163.6Y-75.7
X163.6Y-77.3
X164.7Y-69.6
X164.7Y-72.5
X166.Y-76.9
X166.7Y-66.3
X166.7Y-69.4
X167.5Y-72.442
X168.3Y-75.6
X168.5Y-99.8
X168.5Y-100.9
X168.5Y-117.8
X168.9Y-122.7
X168.9Y-130.9
X169.Y-74.7
X169.1Y-117.3
X169.1Y-120.2
X169.3Y-97.4
X169.3Y-116.5
X169.9Y-80.8
X170.1Y-99.3
X170.1Y-124.2
X170.1Y-125.
X170.1Y-125.8
X170.1Y-126.6
X170.1Y-127.4
X170.1Y-128.2
X170.1Y-129.
X170.1Y-129.8
X170.2Y-121.4
X170.9Y-124.1
X171.Y-97.4
X171.2Y-132.74
X171.8Y-77.4
X171.939Y-132.74
X172.5Y-73.4
X172.55Y-129.755
X172.67Y-132.74
X173.Y-69.6
X173.Y-83.
X173.3Y-73.3
X173.4Y-120.105
X173.4Y-121.1
X173.4Y-132.7
X173.47Y-129.755
X173.5Y-99.9
X173.5Y-100.895
X173.5Y-124.1
X174.Y-94.2
X174.155Y-132.7
X174.2Y-129.755
X174.3Y-73.4
X174.3Y-78.6
X174.885Y-132.7
X175.Y-121.395
X175.2Y-108.7
X175.615Y-132.7
X175.8Y-80.1
X175.8Y-121.395
X175.8Y-124.2
X175.8Y-125.
X175.8Y-125.8
X176.345Y-132.7
X176.7Y-79.5
X176.84Y-130.7
X177.57Y-130.7
X178.Y-141.4
X178.2Y-120.105
X178.2Y-121.9
X178.3Y-130.7
X178.5Y-114.2
X178.6Y-100.9
X178.7Y-90.6
X178.723Y-141.503
X179.Y-79.7
X179.Y-109.
X179.Y-110.
X179.Y-111.
X179.Y-112.
X179.Y-113.
X180.Y-109.5
X180.1Y-80.4
X180.1Y-103.8
X180.6Y-97.
X181.2Y-99.5
X181.3Y-82.9
X181.3Y-93.5
X181.9Y-96.2
X181.9Y-97.
X182.Y-75.5
X182.Y-118.2
X182.Y-119.73
X182.Y-120.46
X182.Y-121.19
X182.Y-121.92
X182.Y-126.7
X182.7Y-103.8
X182.805Y-99.3
X183.1Y-125.2
X183.15Y-127.5
X183.3Y-100.4
X183.9Y-103.405
X184.7Y-127.5
X184.874Y-101.474
X185.15Y-97.3
X185.2Y-103.5
T2
X139.56Y-139.7
X142.1Y-139.7
X144.64Y-139.7
X147.18Y-139.7
X149.72Y-139.7
X152.26Y-139.7
X154.8Y-139.7
X160.9Y-139.7
X163.44Y-139.7
X165.98Y-139.7
X168.52Y-139.7
X171.06Y-139.7
X173.6Y-139.7
X176.14Y-139.7
X184.5Y-105.
X184.5Y-107.54
X184.5Y-110.08
X184.5Y-112.62
X184.5Y-115.16
X184.5Y-117.7
X184.5Y-120.24
X184.5Y-122.78
T0
M30
