G04 #@! TF.GenerationSoftware,KiCad,Pcbnew,(5.0.0)*
G04 #@! TF.CreationDate,2018-10-09T12:55:19+10:30*
G04 #@! TF.ProjectId,Paragon.kicad_2pcb,50617261676F6E2E6B696361645F3270,1.0*
G04 #@! TF.SameCoordinates,Original*
G04 #@! TF.FileFunction,Soldermask,Bot*
G04 #@! TF.FilePolarity,Negative*
%FSLAX46Y46*%
G04 Gerber Fmt 4.6, Leading zero omitted, Abs format (unit mm)*
G04 Created by KiCad (PCBNEW (5.0.0)) date 10/09/18 12:55:19*
%MOMM*%
%LPD*%
G01*
G04 APERTURE LIST*
%ADD10R,2.000000X3.000000*%
%ADD11C,0.100000*%
%ADD12C,1.150000*%
%ADD13R,1.700000X1.700000*%
%ADD14O,1.700000X1.700000*%
%ADD15R,1.000000X3.500000*%
%ADD16R,2.500000X1.000000*%
%ADD17C,0.975000*%
%ADD18R,1.060000X0.650000*%
%ADD19R,0.550000X1.600000*%
%ADD20R,1.600000X0.550000*%
%ADD21R,0.600000X1.550000*%
%ADD22R,8.000000X5.560000*%
%ADD23R,2.600000X5.560000*%
%ADD24R,0.900000X1.200000*%
%ADD25R,1.000000X1.500000*%
%ADD26R,1.500000X1.000000*%
%ADD27R,0.450000X1.450000*%
%ADD28R,1.000000X2.500000*%
%ADD29R,1.450000X0.450000*%
%ADD30R,0.650000X1.060000*%
%ADD31R,0.800000X0.900000*%
G04 APERTURE END LIST*
D10*
G04 #@! TO.C,SW3*
X181800000Y-138200000D03*
X181800000Y-130200000D03*
G04 #@! TD*
D11*
G04 #@! TO.C,D1*
G36*
X136374505Y-99601204D02*
X136398773Y-99604804D01*
X136422572Y-99610765D01*
X136445671Y-99619030D01*
X136467850Y-99629520D01*
X136488893Y-99642132D01*
X136508599Y-99656747D01*
X136526777Y-99673223D01*
X136543253Y-99691401D01*
X136557868Y-99711107D01*
X136570480Y-99732150D01*
X136580970Y-99754329D01*
X136589235Y-99777428D01*
X136595196Y-99801227D01*
X136598796Y-99825495D01*
X136600000Y-99849999D01*
X136600000Y-100750001D01*
X136598796Y-100774505D01*
X136595196Y-100798773D01*
X136589235Y-100822572D01*
X136580970Y-100845671D01*
X136570480Y-100867850D01*
X136557868Y-100888893D01*
X136543253Y-100908599D01*
X136526777Y-100926777D01*
X136508599Y-100943253D01*
X136488893Y-100957868D01*
X136467850Y-100970480D01*
X136445671Y-100980970D01*
X136422572Y-100989235D01*
X136398773Y-100995196D01*
X136374505Y-100998796D01*
X136350001Y-101000000D01*
X135699999Y-101000000D01*
X135675495Y-100998796D01*
X135651227Y-100995196D01*
X135627428Y-100989235D01*
X135604329Y-100980970D01*
X135582150Y-100970480D01*
X135561107Y-100957868D01*
X135541401Y-100943253D01*
X135523223Y-100926777D01*
X135506747Y-100908599D01*
X135492132Y-100888893D01*
X135479520Y-100867850D01*
X135469030Y-100845671D01*
X135460765Y-100822572D01*
X135454804Y-100798773D01*
X135451204Y-100774505D01*
X135450000Y-100750001D01*
X135450000Y-99849999D01*
X135451204Y-99825495D01*
X135454804Y-99801227D01*
X135460765Y-99777428D01*
X135469030Y-99754329D01*
X135479520Y-99732150D01*
X135492132Y-99711107D01*
X135506747Y-99691401D01*
X135523223Y-99673223D01*
X135541401Y-99656747D01*
X135561107Y-99642132D01*
X135582150Y-99629520D01*
X135604329Y-99619030D01*
X135627428Y-99610765D01*
X135651227Y-99604804D01*
X135675495Y-99601204D01*
X135699999Y-99600000D01*
X136350001Y-99600000D01*
X136374505Y-99601204D01*
X136374505Y-99601204D01*
G37*
D12*
X136025000Y-100300000D03*
D11*
G36*
X134324505Y-99601204D02*
X134348773Y-99604804D01*
X134372572Y-99610765D01*
X134395671Y-99619030D01*
X134417850Y-99629520D01*
X134438893Y-99642132D01*
X134458599Y-99656747D01*
X134476777Y-99673223D01*
X134493253Y-99691401D01*
X134507868Y-99711107D01*
X134520480Y-99732150D01*
X134530970Y-99754329D01*
X134539235Y-99777428D01*
X134545196Y-99801227D01*
X134548796Y-99825495D01*
X134550000Y-99849999D01*
X134550000Y-100750001D01*
X134548796Y-100774505D01*
X134545196Y-100798773D01*
X134539235Y-100822572D01*
X134530970Y-100845671D01*
X134520480Y-100867850D01*
X134507868Y-100888893D01*
X134493253Y-100908599D01*
X134476777Y-100926777D01*
X134458599Y-100943253D01*
X134438893Y-100957868D01*
X134417850Y-100970480D01*
X134395671Y-100980970D01*
X134372572Y-100989235D01*
X134348773Y-100995196D01*
X134324505Y-100998796D01*
X134300001Y-101000000D01*
X133649999Y-101000000D01*
X133625495Y-100998796D01*
X133601227Y-100995196D01*
X133577428Y-100989235D01*
X133554329Y-100980970D01*
X133532150Y-100970480D01*
X133511107Y-100957868D01*
X133491401Y-100943253D01*
X133473223Y-100926777D01*
X133456747Y-100908599D01*
X133442132Y-100888893D01*
X133429520Y-100867850D01*
X133419030Y-100845671D01*
X133410765Y-100822572D01*
X133404804Y-100798773D01*
X133401204Y-100774505D01*
X133400000Y-100750001D01*
X133400000Y-99849999D01*
X133401204Y-99825495D01*
X133404804Y-99801227D01*
X133410765Y-99777428D01*
X133419030Y-99754329D01*
X133429520Y-99732150D01*
X133442132Y-99711107D01*
X133456747Y-99691401D01*
X133473223Y-99673223D01*
X133491401Y-99656747D01*
X133511107Y-99642132D01*
X133532150Y-99629520D01*
X133554329Y-99619030D01*
X133577428Y-99610765D01*
X133601227Y-99604804D01*
X133625495Y-99601204D01*
X133649999Y-99600000D01*
X134300001Y-99600000D01*
X134324505Y-99601204D01*
X134324505Y-99601204D01*
G37*
D12*
X133975000Y-100300000D03*
G04 #@! TD*
D13*
G04 #@! TO.C,ATD1*
X139560000Y-139700000D03*
D14*
X142100000Y-139700000D03*
X144640000Y-139700000D03*
X147180000Y-139700000D03*
X149720000Y-139700000D03*
X152260000Y-139700000D03*
X154800000Y-139700000D03*
G04 #@! TD*
D13*
G04 #@! TO.C,ATD2*
X160900000Y-139700000D03*
D14*
X163440000Y-139700000D03*
X165980000Y-139700000D03*
X168520000Y-139700000D03*
X171060000Y-139700000D03*
X173600000Y-139700000D03*
X176140000Y-139700000D03*
G04 #@! TD*
G04 #@! TO.C,ATA1*
X184500000Y-122780000D03*
X184500000Y-120240000D03*
X184500000Y-117700000D03*
X184500000Y-115160000D03*
X184500000Y-112620000D03*
X184500000Y-110080000D03*
X184500000Y-107540000D03*
D13*
X184500000Y-105000000D03*
G04 #@! TD*
D15*
G04 #@! TO.C,L2*
X150500000Y-131300000D03*
X152500000Y-131300000D03*
G04 #@! TD*
G04 #@! TO.C,L1*
X139700000Y-93600000D03*
X141700000Y-93600000D03*
G04 #@! TD*
D16*
G04 #@! TO.C,ATTINY SPI*
X130400000Y-97700000D03*
X130410000Y-100240000D03*
X130400000Y-102780000D03*
X130410000Y-105320000D03*
X130410000Y-107860000D03*
X130400000Y-110400000D03*
G04 #@! TD*
G04 #@! TO.C,ATM328 SPI*
X178700000Y-89400000D03*
X178710000Y-91940000D03*
X178700000Y-94480000D03*
X178710000Y-97020000D03*
X178710000Y-99560000D03*
X178700000Y-102100000D03*
G04 #@! TD*
D11*
G04 #@! TO.C,R17*
G36*
X132680142Y-69551174D02*
X132703803Y-69554684D01*
X132727007Y-69560496D01*
X132749529Y-69568554D01*
X132771153Y-69578782D01*
X132791670Y-69591079D01*
X132810883Y-69605329D01*
X132828607Y-69621393D01*
X132844671Y-69639117D01*
X132858921Y-69658330D01*
X132871218Y-69678847D01*
X132881446Y-69700471D01*
X132889504Y-69722993D01*
X132895316Y-69746197D01*
X132898826Y-69769858D01*
X132900000Y-69793750D01*
X132900000Y-70281250D01*
X132898826Y-70305142D01*
X132895316Y-70328803D01*
X132889504Y-70352007D01*
X132881446Y-70374529D01*
X132871218Y-70396153D01*
X132858921Y-70416670D01*
X132844671Y-70435883D01*
X132828607Y-70453607D01*
X132810883Y-70469671D01*
X132791670Y-70483921D01*
X132771153Y-70496218D01*
X132749529Y-70506446D01*
X132727007Y-70514504D01*
X132703803Y-70520316D01*
X132680142Y-70523826D01*
X132656250Y-70525000D01*
X131743750Y-70525000D01*
X131719858Y-70523826D01*
X131696197Y-70520316D01*
X131672993Y-70514504D01*
X131650471Y-70506446D01*
X131628847Y-70496218D01*
X131608330Y-70483921D01*
X131589117Y-70469671D01*
X131571393Y-70453607D01*
X131555329Y-70435883D01*
X131541079Y-70416670D01*
X131528782Y-70396153D01*
X131518554Y-70374529D01*
X131510496Y-70352007D01*
X131504684Y-70328803D01*
X131501174Y-70305142D01*
X131500000Y-70281250D01*
X131500000Y-69793750D01*
X131501174Y-69769858D01*
X131504684Y-69746197D01*
X131510496Y-69722993D01*
X131518554Y-69700471D01*
X131528782Y-69678847D01*
X131541079Y-69658330D01*
X131555329Y-69639117D01*
X131571393Y-69621393D01*
X131589117Y-69605329D01*
X131608330Y-69591079D01*
X131628847Y-69578782D01*
X131650471Y-69568554D01*
X131672993Y-69560496D01*
X131696197Y-69554684D01*
X131719858Y-69551174D01*
X131743750Y-69550000D01*
X132656250Y-69550000D01*
X132680142Y-69551174D01*
X132680142Y-69551174D01*
G37*
D17*
X132200000Y-70037500D03*
D11*
G36*
X132680142Y-67676174D02*
X132703803Y-67679684D01*
X132727007Y-67685496D01*
X132749529Y-67693554D01*
X132771153Y-67703782D01*
X132791670Y-67716079D01*
X132810883Y-67730329D01*
X132828607Y-67746393D01*
X132844671Y-67764117D01*
X132858921Y-67783330D01*
X132871218Y-67803847D01*
X132881446Y-67825471D01*
X132889504Y-67847993D01*
X132895316Y-67871197D01*
X132898826Y-67894858D01*
X132900000Y-67918750D01*
X132900000Y-68406250D01*
X132898826Y-68430142D01*
X132895316Y-68453803D01*
X132889504Y-68477007D01*
X132881446Y-68499529D01*
X132871218Y-68521153D01*
X132858921Y-68541670D01*
X132844671Y-68560883D01*
X132828607Y-68578607D01*
X132810883Y-68594671D01*
X132791670Y-68608921D01*
X132771153Y-68621218D01*
X132749529Y-68631446D01*
X132727007Y-68639504D01*
X132703803Y-68645316D01*
X132680142Y-68648826D01*
X132656250Y-68650000D01*
X131743750Y-68650000D01*
X131719858Y-68648826D01*
X131696197Y-68645316D01*
X131672993Y-68639504D01*
X131650471Y-68631446D01*
X131628847Y-68621218D01*
X131608330Y-68608921D01*
X131589117Y-68594671D01*
X131571393Y-68578607D01*
X131555329Y-68560883D01*
X131541079Y-68541670D01*
X131528782Y-68521153D01*
X131518554Y-68499529D01*
X131510496Y-68477007D01*
X131504684Y-68453803D01*
X131501174Y-68430142D01*
X131500000Y-68406250D01*
X131500000Y-67918750D01*
X131501174Y-67894858D01*
X131504684Y-67871197D01*
X131510496Y-67847993D01*
X131518554Y-67825471D01*
X131528782Y-67803847D01*
X131541079Y-67783330D01*
X131555329Y-67764117D01*
X131571393Y-67746393D01*
X131589117Y-67730329D01*
X131608330Y-67716079D01*
X131628847Y-67703782D01*
X131650471Y-67693554D01*
X131672993Y-67685496D01*
X131696197Y-67679684D01*
X131719858Y-67676174D01*
X131743750Y-67675000D01*
X132656250Y-67675000D01*
X132680142Y-67676174D01*
X132680142Y-67676174D01*
G37*
D17*
X132200000Y-68162500D03*
G04 #@! TD*
D18*
G04 #@! TO.C,AP2112*
X164050492Y-128998999D03*
X164050492Y-129948999D03*
X164050492Y-130898999D03*
X161850492Y-130898999D03*
X161850492Y-128998999D03*
G04 #@! TD*
D19*
G04 #@! TO.C,ATM328*
X175750000Y-131250000D03*
X174950000Y-131250000D03*
X174150000Y-131250000D03*
X173350000Y-131250000D03*
X172550000Y-131250000D03*
X171750000Y-131250000D03*
X170950000Y-131250000D03*
X170150000Y-131250000D03*
D20*
X168700000Y-129800000D03*
X168700000Y-129000000D03*
X168700000Y-128200000D03*
X168700000Y-127400000D03*
X168700000Y-126600000D03*
X168700000Y-125800000D03*
X168700000Y-125000000D03*
X168700000Y-124200000D03*
D19*
X170150000Y-122750000D03*
X170950000Y-122750000D03*
X171750000Y-122750000D03*
X172550000Y-122750000D03*
X173350000Y-122750000D03*
X174150000Y-122750000D03*
X174950000Y-122750000D03*
X175750000Y-122750000D03*
D20*
X177200000Y-124200000D03*
X177200000Y-125000000D03*
X177200000Y-125800000D03*
X177200000Y-126600000D03*
X177200000Y-127400000D03*
X177200000Y-128200000D03*
X177200000Y-129000000D03*
X177200000Y-129800000D03*
G04 #@! TD*
D21*
G04 #@! TO.C,ATT25*
X143749406Y-109012992D03*
X142479406Y-109012992D03*
X141209406Y-109012992D03*
X139939406Y-109012992D03*
X139939406Y-103612992D03*
X141209406Y-103612992D03*
X142479406Y-103612992D03*
X143749406Y-103612992D03*
G04 #@! TD*
D22*
G04 #@! TO.C,BT1*
X161200000Y-108000000D03*
D23*
X173105000Y-108000000D03*
X149295000Y-108000000D03*
G04 #@! TD*
D11*
G04 #@! TO.C,C1*
G36*
X139392596Y-121397986D02*
X139416257Y-121401496D01*
X139439461Y-121407308D01*
X139461983Y-121415366D01*
X139483607Y-121425594D01*
X139504124Y-121437891D01*
X139523337Y-121452141D01*
X139541061Y-121468205D01*
X139557125Y-121485929D01*
X139571375Y-121505142D01*
X139583672Y-121525659D01*
X139593900Y-121547283D01*
X139601958Y-121569805D01*
X139607770Y-121593009D01*
X139611280Y-121616670D01*
X139612454Y-121640562D01*
X139612454Y-122128062D01*
X139611280Y-122151954D01*
X139607770Y-122175615D01*
X139601958Y-122198819D01*
X139593900Y-122221341D01*
X139583672Y-122242965D01*
X139571375Y-122263482D01*
X139557125Y-122282695D01*
X139541061Y-122300419D01*
X139523337Y-122316483D01*
X139504124Y-122330733D01*
X139483607Y-122343030D01*
X139461983Y-122353258D01*
X139439461Y-122361316D01*
X139416257Y-122367128D01*
X139392596Y-122370638D01*
X139368704Y-122371812D01*
X138456204Y-122371812D01*
X138432312Y-122370638D01*
X138408651Y-122367128D01*
X138385447Y-122361316D01*
X138362925Y-122353258D01*
X138341301Y-122343030D01*
X138320784Y-122330733D01*
X138301571Y-122316483D01*
X138283847Y-122300419D01*
X138267783Y-122282695D01*
X138253533Y-122263482D01*
X138241236Y-122242965D01*
X138231008Y-122221341D01*
X138222950Y-122198819D01*
X138217138Y-122175615D01*
X138213628Y-122151954D01*
X138212454Y-122128062D01*
X138212454Y-121640562D01*
X138213628Y-121616670D01*
X138217138Y-121593009D01*
X138222950Y-121569805D01*
X138231008Y-121547283D01*
X138241236Y-121525659D01*
X138253533Y-121505142D01*
X138267783Y-121485929D01*
X138283847Y-121468205D01*
X138301571Y-121452141D01*
X138320784Y-121437891D01*
X138341301Y-121425594D01*
X138362925Y-121415366D01*
X138385447Y-121407308D01*
X138408651Y-121401496D01*
X138432312Y-121397986D01*
X138456204Y-121396812D01*
X139368704Y-121396812D01*
X139392596Y-121397986D01*
X139392596Y-121397986D01*
G37*
D17*
X138912454Y-121884312D03*
D11*
G36*
X139392596Y-123272986D02*
X139416257Y-123276496D01*
X139439461Y-123282308D01*
X139461983Y-123290366D01*
X139483607Y-123300594D01*
X139504124Y-123312891D01*
X139523337Y-123327141D01*
X139541061Y-123343205D01*
X139557125Y-123360929D01*
X139571375Y-123380142D01*
X139583672Y-123400659D01*
X139593900Y-123422283D01*
X139601958Y-123444805D01*
X139607770Y-123468009D01*
X139611280Y-123491670D01*
X139612454Y-123515562D01*
X139612454Y-124003062D01*
X139611280Y-124026954D01*
X139607770Y-124050615D01*
X139601958Y-124073819D01*
X139593900Y-124096341D01*
X139583672Y-124117965D01*
X139571375Y-124138482D01*
X139557125Y-124157695D01*
X139541061Y-124175419D01*
X139523337Y-124191483D01*
X139504124Y-124205733D01*
X139483607Y-124218030D01*
X139461983Y-124228258D01*
X139439461Y-124236316D01*
X139416257Y-124242128D01*
X139392596Y-124245638D01*
X139368704Y-124246812D01*
X138456204Y-124246812D01*
X138432312Y-124245638D01*
X138408651Y-124242128D01*
X138385447Y-124236316D01*
X138362925Y-124228258D01*
X138341301Y-124218030D01*
X138320784Y-124205733D01*
X138301571Y-124191483D01*
X138283847Y-124175419D01*
X138267783Y-124157695D01*
X138253533Y-124138482D01*
X138241236Y-124117965D01*
X138231008Y-124096341D01*
X138222950Y-124073819D01*
X138217138Y-124050615D01*
X138213628Y-124026954D01*
X138212454Y-124003062D01*
X138212454Y-123515562D01*
X138213628Y-123491670D01*
X138217138Y-123468009D01*
X138222950Y-123444805D01*
X138231008Y-123422283D01*
X138241236Y-123400659D01*
X138253533Y-123380142D01*
X138267783Y-123360929D01*
X138283847Y-123343205D01*
X138301571Y-123327141D01*
X138320784Y-123312891D01*
X138341301Y-123300594D01*
X138362925Y-123290366D01*
X138385447Y-123282308D01*
X138408651Y-123276496D01*
X138432312Y-123272986D01*
X138456204Y-123271812D01*
X139368704Y-123271812D01*
X139392596Y-123272986D01*
X139392596Y-123272986D01*
G37*
D17*
X138912454Y-123759312D03*
G04 #@! TD*
D11*
G04 #@! TO.C,C2*
G36*
X138118239Y-89152687D02*
X138141900Y-89156197D01*
X138165104Y-89162009D01*
X138187626Y-89170067D01*
X138209250Y-89180295D01*
X138229767Y-89192592D01*
X138248980Y-89206842D01*
X138266704Y-89222906D01*
X138282768Y-89240630D01*
X138297018Y-89259843D01*
X138309315Y-89280360D01*
X138319543Y-89301984D01*
X138327601Y-89324506D01*
X138333413Y-89347710D01*
X138336923Y-89371371D01*
X138338097Y-89395263D01*
X138338097Y-90307763D01*
X138336923Y-90331655D01*
X138333413Y-90355316D01*
X138327601Y-90378520D01*
X138319543Y-90401042D01*
X138309315Y-90422666D01*
X138297018Y-90443183D01*
X138282768Y-90462396D01*
X138266704Y-90480120D01*
X138248980Y-90496184D01*
X138229767Y-90510434D01*
X138209250Y-90522731D01*
X138187626Y-90532959D01*
X138165104Y-90541017D01*
X138141900Y-90546829D01*
X138118239Y-90550339D01*
X138094347Y-90551513D01*
X137606847Y-90551513D01*
X137582955Y-90550339D01*
X137559294Y-90546829D01*
X137536090Y-90541017D01*
X137513568Y-90532959D01*
X137491944Y-90522731D01*
X137471427Y-90510434D01*
X137452214Y-90496184D01*
X137434490Y-90480120D01*
X137418426Y-90462396D01*
X137404176Y-90443183D01*
X137391879Y-90422666D01*
X137381651Y-90401042D01*
X137373593Y-90378520D01*
X137367781Y-90355316D01*
X137364271Y-90331655D01*
X137363097Y-90307763D01*
X137363097Y-89395263D01*
X137364271Y-89371371D01*
X137367781Y-89347710D01*
X137373593Y-89324506D01*
X137381651Y-89301984D01*
X137391879Y-89280360D01*
X137404176Y-89259843D01*
X137418426Y-89240630D01*
X137434490Y-89222906D01*
X137452214Y-89206842D01*
X137471427Y-89192592D01*
X137491944Y-89180295D01*
X137513568Y-89170067D01*
X137536090Y-89162009D01*
X137559294Y-89156197D01*
X137582955Y-89152687D01*
X137606847Y-89151513D01*
X138094347Y-89151513D01*
X138118239Y-89152687D01*
X138118239Y-89152687D01*
G37*
D17*
X137850597Y-89851513D03*
D11*
G36*
X139993239Y-89152687D02*
X140016900Y-89156197D01*
X140040104Y-89162009D01*
X140062626Y-89170067D01*
X140084250Y-89180295D01*
X140104767Y-89192592D01*
X140123980Y-89206842D01*
X140141704Y-89222906D01*
X140157768Y-89240630D01*
X140172018Y-89259843D01*
X140184315Y-89280360D01*
X140194543Y-89301984D01*
X140202601Y-89324506D01*
X140208413Y-89347710D01*
X140211923Y-89371371D01*
X140213097Y-89395263D01*
X140213097Y-90307763D01*
X140211923Y-90331655D01*
X140208413Y-90355316D01*
X140202601Y-90378520D01*
X140194543Y-90401042D01*
X140184315Y-90422666D01*
X140172018Y-90443183D01*
X140157768Y-90462396D01*
X140141704Y-90480120D01*
X140123980Y-90496184D01*
X140104767Y-90510434D01*
X140084250Y-90522731D01*
X140062626Y-90532959D01*
X140040104Y-90541017D01*
X140016900Y-90546829D01*
X139993239Y-90550339D01*
X139969347Y-90551513D01*
X139481847Y-90551513D01*
X139457955Y-90550339D01*
X139434294Y-90546829D01*
X139411090Y-90541017D01*
X139388568Y-90532959D01*
X139366944Y-90522731D01*
X139346427Y-90510434D01*
X139327214Y-90496184D01*
X139309490Y-90480120D01*
X139293426Y-90462396D01*
X139279176Y-90443183D01*
X139266879Y-90422666D01*
X139256651Y-90401042D01*
X139248593Y-90378520D01*
X139242781Y-90355316D01*
X139239271Y-90331655D01*
X139238097Y-90307763D01*
X139238097Y-89395263D01*
X139239271Y-89371371D01*
X139242781Y-89347710D01*
X139248593Y-89324506D01*
X139256651Y-89301984D01*
X139266879Y-89280360D01*
X139279176Y-89259843D01*
X139293426Y-89240630D01*
X139309490Y-89222906D01*
X139327214Y-89206842D01*
X139346427Y-89192592D01*
X139366944Y-89180295D01*
X139388568Y-89170067D01*
X139411090Y-89162009D01*
X139434294Y-89156197D01*
X139457955Y-89152687D01*
X139481847Y-89151513D01*
X139969347Y-89151513D01*
X139993239Y-89152687D01*
X139993239Y-89152687D01*
G37*
D17*
X139725597Y-89851513D03*
G04 #@! TD*
D11*
G04 #@! TO.C,C3*
G36*
X157080634Y-128387673D02*
X157104295Y-128391183D01*
X157127499Y-128396995D01*
X157150021Y-128405053D01*
X157171645Y-128415281D01*
X157192162Y-128427578D01*
X157211375Y-128441828D01*
X157229099Y-128457892D01*
X157245163Y-128475616D01*
X157259413Y-128494829D01*
X157271710Y-128515346D01*
X157281938Y-128536970D01*
X157289996Y-128559492D01*
X157295808Y-128582696D01*
X157299318Y-128606357D01*
X157300492Y-128630249D01*
X157300492Y-129117749D01*
X157299318Y-129141641D01*
X157295808Y-129165302D01*
X157289996Y-129188506D01*
X157281938Y-129211028D01*
X157271710Y-129232652D01*
X157259413Y-129253169D01*
X157245163Y-129272382D01*
X157229099Y-129290106D01*
X157211375Y-129306170D01*
X157192162Y-129320420D01*
X157171645Y-129332717D01*
X157150021Y-129342945D01*
X157127499Y-129351003D01*
X157104295Y-129356815D01*
X157080634Y-129360325D01*
X157056742Y-129361499D01*
X156144242Y-129361499D01*
X156120350Y-129360325D01*
X156096689Y-129356815D01*
X156073485Y-129351003D01*
X156050963Y-129342945D01*
X156029339Y-129332717D01*
X156008822Y-129320420D01*
X155989609Y-129306170D01*
X155971885Y-129290106D01*
X155955821Y-129272382D01*
X155941571Y-129253169D01*
X155929274Y-129232652D01*
X155919046Y-129211028D01*
X155910988Y-129188506D01*
X155905176Y-129165302D01*
X155901666Y-129141641D01*
X155900492Y-129117749D01*
X155900492Y-128630249D01*
X155901666Y-128606357D01*
X155905176Y-128582696D01*
X155910988Y-128559492D01*
X155919046Y-128536970D01*
X155929274Y-128515346D01*
X155941571Y-128494829D01*
X155955821Y-128475616D01*
X155971885Y-128457892D01*
X155989609Y-128441828D01*
X156008822Y-128427578D01*
X156029339Y-128415281D01*
X156050963Y-128405053D01*
X156073485Y-128396995D01*
X156096689Y-128391183D01*
X156120350Y-128387673D01*
X156144242Y-128386499D01*
X157056742Y-128386499D01*
X157080634Y-128387673D01*
X157080634Y-128387673D01*
G37*
D17*
X156600492Y-128873999D03*
D11*
G36*
X157080634Y-130262673D02*
X157104295Y-130266183D01*
X157127499Y-130271995D01*
X157150021Y-130280053D01*
X157171645Y-130290281D01*
X157192162Y-130302578D01*
X157211375Y-130316828D01*
X157229099Y-130332892D01*
X157245163Y-130350616D01*
X157259413Y-130369829D01*
X157271710Y-130390346D01*
X157281938Y-130411970D01*
X157289996Y-130434492D01*
X157295808Y-130457696D01*
X157299318Y-130481357D01*
X157300492Y-130505249D01*
X157300492Y-130992749D01*
X157299318Y-131016641D01*
X157295808Y-131040302D01*
X157289996Y-131063506D01*
X157281938Y-131086028D01*
X157271710Y-131107652D01*
X157259413Y-131128169D01*
X157245163Y-131147382D01*
X157229099Y-131165106D01*
X157211375Y-131181170D01*
X157192162Y-131195420D01*
X157171645Y-131207717D01*
X157150021Y-131217945D01*
X157127499Y-131226003D01*
X157104295Y-131231815D01*
X157080634Y-131235325D01*
X157056742Y-131236499D01*
X156144242Y-131236499D01*
X156120350Y-131235325D01*
X156096689Y-131231815D01*
X156073485Y-131226003D01*
X156050963Y-131217945D01*
X156029339Y-131207717D01*
X156008822Y-131195420D01*
X155989609Y-131181170D01*
X155971885Y-131165106D01*
X155955821Y-131147382D01*
X155941571Y-131128169D01*
X155929274Y-131107652D01*
X155919046Y-131086028D01*
X155910988Y-131063506D01*
X155905176Y-131040302D01*
X155901666Y-131016641D01*
X155900492Y-130992749D01*
X155900492Y-130505249D01*
X155901666Y-130481357D01*
X155905176Y-130457696D01*
X155910988Y-130434492D01*
X155919046Y-130411970D01*
X155929274Y-130390346D01*
X155941571Y-130369829D01*
X155955821Y-130350616D01*
X155971885Y-130332892D01*
X155989609Y-130316828D01*
X156008822Y-130302578D01*
X156029339Y-130290281D01*
X156050963Y-130280053D01*
X156073485Y-130271995D01*
X156096689Y-130266183D01*
X156120350Y-130262673D01*
X156144242Y-130261499D01*
X157056742Y-130261499D01*
X157080634Y-130262673D01*
X157080634Y-130262673D01*
G37*
D17*
X156600492Y-130748999D03*
G04 #@! TD*
D11*
G04 #@! TO.C,C4*
G36*
X159830634Y-130262673D02*
X159854295Y-130266183D01*
X159877499Y-130271995D01*
X159900021Y-130280053D01*
X159921645Y-130290281D01*
X159942162Y-130302578D01*
X159961375Y-130316828D01*
X159979099Y-130332892D01*
X159995163Y-130350616D01*
X160009413Y-130369829D01*
X160021710Y-130390346D01*
X160031938Y-130411970D01*
X160039996Y-130434492D01*
X160045808Y-130457696D01*
X160049318Y-130481357D01*
X160050492Y-130505249D01*
X160050492Y-130992749D01*
X160049318Y-131016641D01*
X160045808Y-131040302D01*
X160039996Y-131063506D01*
X160031938Y-131086028D01*
X160021710Y-131107652D01*
X160009413Y-131128169D01*
X159995163Y-131147382D01*
X159979099Y-131165106D01*
X159961375Y-131181170D01*
X159942162Y-131195420D01*
X159921645Y-131207717D01*
X159900021Y-131217945D01*
X159877499Y-131226003D01*
X159854295Y-131231815D01*
X159830634Y-131235325D01*
X159806742Y-131236499D01*
X158894242Y-131236499D01*
X158870350Y-131235325D01*
X158846689Y-131231815D01*
X158823485Y-131226003D01*
X158800963Y-131217945D01*
X158779339Y-131207717D01*
X158758822Y-131195420D01*
X158739609Y-131181170D01*
X158721885Y-131165106D01*
X158705821Y-131147382D01*
X158691571Y-131128169D01*
X158679274Y-131107652D01*
X158669046Y-131086028D01*
X158660988Y-131063506D01*
X158655176Y-131040302D01*
X158651666Y-131016641D01*
X158650492Y-130992749D01*
X158650492Y-130505249D01*
X158651666Y-130481357D01*
X158655176Y-130457696D01*
X158660988Y-130434492D01*
X158669046Y-130411970D01*
X158679274Y-130390346D01*
X158691571Y-130369829D01*
X158705821Y-130350616D01*
X158721885Y-130332892D01*
X158739609Y-130316828D01*
X158758822Y-130302578D01*
X158779339Y-130290281D01*
X158800963Y-130280053D01*
X158823485Y-130271995D01*
X158846689Y-130266183D01*
X158870350Y-130262673D01*
X158894242Y-130261499D01*
X159806742Y-130261499D01*
X159830634Y-130262673D01*
X159830634Y-130262673D01*
G37*
D17*
X159350492Y-130748999D03*
D11*
G36*
X159830634Y-128387673D02*
X159854295Y-128391183D01*
X159877499Y-128396995D01*
X159900021Y-128405053D01*
X159921645Y-128415281D01*
X159942162Y-128427578D01*
X159961375Y-128441828D01*
X159979099Y-128457892D01*
X159995163Y-128475616D01*
X160009413Y-128494829D01*
X160021710Y-128515346D01*
X160031938Y-128536970D01*
X160039996Y-128559492D01*
X160045808Y-128582696D01*
X160049318Y-128606357D01*
X160050492Y-128630249D01*
X160050492Y-129117749D01*
X160049318Y-129141641D01*
X160045808Y-129165302D01*
X160039996Y-129188506D01*
X160031938Y-129211028D01*
X160021710Y-129232652D01*
X160009413Y-129253169D01*
X159995163Y-129272382D01*
X159979099Y-129290106D01*
X159961375Y-129306170D01*
X159942162Y-129320420D01*
X159921645Y-129332717D01*
X159900021Y-129342945D01*
X159877499Y-129351003D01*
X159854295Y-129356815D01*
X159830634Y-129360325D01*
X159806742Y-129361499D01*
X158894242Y-129361499D01*
X158870350Y-129360325D01*
X158846689Y-129356815D01*
X158823485Y-129351003D01*
X158800963Y-129342945D01*
X158779339Y-129332717D01*
X158758822Y-129320420D01*
X158739609Y-129306170D01*
X158721885Y-129290106D01*
X158705821Y-129272382D01*
X158691571Y-129253169D01*
X158679274Y-129232652D01*
X158669046Y-129211028D01*
X158660988Y-129188506D01*
X158655176Y-129165302D01*
X158651666Y-129141641D01*
X158650492Y-129117749D01*
X158650492Y-128630249D01*
X158651666Y-128606357D01*
X158655176Y-128582696D01*
X158660988Y-128559492D01*
X158669046Y-128536970D01*
X158679274Y-128515346D01*
X158691571Y-128494829D01*
X158705821Y-128475616D01*
X158721885Y-128457892D01*
X158739609Y-128441828D01*
X158758822Y-128427578D01*
X158779339Y-128415281D01*
X158800963Y-128405053D01*
X158823485Y-128396995D01*
X158846689Y-128391183D01*
X158870350Y-128387673D01*
X158894242Y-128386499D01*
X159806742Y-128386499D01*
X159830634Y-128387673D01*
X159830634Y-128387673D01*
G37*
D17*
X159350492Y-128873999D03*
G04 #@! TD*
D11*
G04 #@! TO.C,C5*
G36*
X157844424Y-122055378D02*
X157868085Y-122058888D01*
X157891289Y-122064700D01*
X157913811Y-122072758D01*
X157935435Y-122082986D01*
X157955952Y-122095283D01*
X157975165Y-122109533D01*
X157992889Y-122125597D01*
X158008953Y-122143321D01*
X158023203Y-122162534D01*
X158035500Y-122183051D01*
X158045728Y-122204675D01*
X158053786Y-122227197D01*
X158059598Y-122250401D01*
X158063108Y-122274062D01*
X158064282Y-122297954D01*
X158064282Y-122785454D01*
X158063108Y-122809346D01*
X158059598Y-122833007D01*
X158053786Y-122856211D01*
X158045728Y-122878733D01*
X158035500Y-122900357D01*
X158023203Y-122920874D01*
X158008953Y-122940087D01*
X157992889Y-122957811D01*
X157975165Y-122973875D01*
X157955952Y-122988125D01*
X157935435Y-123000422D01*
X157913811Y-123010650D01*
X157891289Y-123018708D01*
X157868085Y-123024520D01*
X157844424Y-123028030D01*
X157820532Y-123029204D01*
X156908032Y-123029204D01*
X156884140Y-123028030D01*
X156860479Y-123024520D01*
X156837275Y-123018708D01*
X156814753Y-123010650D01*
X156793129Y-123000422D01*
X156772612Y-122988125D01*
X156753399Y-122973875D01*
X156735675Y-122957811D01*
X156719611Y-122940087D01*
X156705361Y-122920874D01*
X156693064Y-122900357D01*
X156682836Y-122878733D01*
X156674778Y-122856211D01*
X156668966Y-122833007D01*
X156665456Y-122809346D01*
X156664282Y-122785454D01*
X156664282Y-122297954D01*
X156665456Y-122274062D01*
X156668966Y-122250401D01*
X156674778Y-122227197D01*
X156682836Y-122204675D01*
X156693064Y-122183051D01*
X156705361Y-122162534D01*
X156719611Y-122143321D01*
X156735675Y-122125597D01*
X156753399Y-122109533D01*
X156772612Y-122095283D01*
X156793129Y-122082986D01*
X156814753Y-122072758D01*
X156837275Y-122064700D01*
X156860479Y-122058888D01*
X156884140Y-122055378D01*
X156908032Y-122054204D01*
X157820532Y-122054204D01*
X157844424Y-122055378D01*
X157844424Y-122055378D01*
G37*
D17*
X157364282Y-122541704D03*
D11*
G36*
X157844424Y-123930378D02*
X157868085Y-123933888D01*
X157891289Y-123939700D01*
X157913811Y-123947758D01*
X157935435Y-123957986D01*
X157955952Y-123970283D01*
X157975165Y-123984533D01*
X157992889Y-124000597D01*
X158008953Y-124018321D01*
X158023203Y-124037534D01*
X158035500Y-124058051D01*
X158045728Y-124079675D01*
X158053786Y-124102197D01*
X158059598Y-124125401D01*
X158063108Y-124149062D01*
X158064282Y-124172954D01*
X158064282Y-124660454D01*
X158063108Y-124684346D01*
X158059598Y-124708007D01*
X158053786Y-124731211D01*
X158045728Y-124753733D01*
X158035500Y-124775357D01*
X158023203Y-124795874D01*
X158008953Y-124815087D01*
X157992889Y-124832811D01*
X157975165Y-124848875D01*
X157955952Y-124863125D01*
X157935435Y-124875422D01*
X157913811Y-124885650D01*
X157891289Y-124893708D01*
X157868085Y-124899520D01*
X157844424Y-124903030D01*
X157820532Y-124904204D01*
X156908032Y-124904204D01*
X156884140Y-124903030D01*
X156860479Y-124899520D01*
X156837275Y-124893708D01*
X156814753Y-124885650D01*
X156793129Y-124875422D01*
X156772612Y-124863125D01*
X156753399Y-124848875D01*
X156735675Y-124832811D01*
X156719611Y-124815087D01*
X156705361Y-124795874D01*
X156693064Y-124775357D01*
X156682836Y-124753733D01*
X156674778Y-124731211D01*
X156668966Y-124708007D01*
X156665456Y-124684346D01*
X156664282Y-124660454D01*
X156664282Y-124172954D01*
X156665456Y-124149062D01*
X156668966Y-124125401D01*
X156674778Y-124102197D01*
X156682836Y-124079675D01*
X156693064Y-124058051D01*
X156705361Y-124037534D01*
X156719611Y-124018321D01*
X156735675Y-124000597D01*
X156753399Y-123984533D01*
X156772612Y-123970283D01*
X156793129Y-123957986D01*
X156814753Y-123947758D01*
X156837275Y-123939700D01*
X156860479Y-123933888D01*
X156884140Y-123930378D01*
X156908032Y-123929204D01*
X157820532Y-123929204D01*
X157844424Y-123930378D01*
X157844424Y-123930378D01*
G37*
D17*
X157364282Y-124416704D03*
G04 #@! TD*
D11*
G04 #@! TO.C,C6*
G36*
X147580142Y-130176174D02*
X147603803Y-130179684D01*
X147627007Y-130185496D01*
X147649529Y-130193554D01*
X147671153Y-130203782D01*
X147691670Y-130216079D01*
X147710883Y-130230329D01*
X147728607Y-130246393D01*
X147744671Y-130264117D01*
X147758921Y-130283330D01*
X147771218Y-130303847D01*
X147781446Y-130325471D01*
X147789504Y-130347993D01*
X147795316Y-130371197D01*
X147798826Y-130394858D01*
X147800000Y-130418750D01*
X147800000Y-130906250D01*
X147798826Y-130930142D01*
X147795316Y-130953803D01*
X147789504Y-130977007D01*
X147781446Y-130999529D01*
X147771218Y-131021153D01*
X147758921Y-131041670D01*
X147744671Y-131060883D01*
X147728607Y-131078607D01*
X147710883Y-131094671D01*
X147691670Y-131108921D01*
X147671153Y-131121218D01*
X147649529Y-131131446D01*
X147627007Y-131139504D01*
X147603803Y-131145316D01*
X147580142Y-131148826D01*
X147556250Y-131150000D01*
X146643750Y-131150000D01*
X146619858Y-131148826D01*
X146596197Y-131145316D01*
X146572993Y-131139504D01*
X146550471Y-131131446D01*
X146528847Y-131121218D01*
X146508330Y-131108921D01*
X146489117Y-131094671D01*
X146471393Y-131078607D01*
X146455329Y-131060883D01*
X146441079Y-131041670D01*
X146428782Y-131021153D01*
X146418554Y-130999529D01*
X146410496Y-130977007D01*
X146404684Y-130953803D01*
X146401174Y-130930142D01*
X146400000Y-130906250D01*
X146400000Y-130418750D01*
X146401174Y-130394858D01*
X146404684Y-130371197D01*
X146410496Y-130347993D01*
X146418554Y-130325471D01*
X146428782Y-130303847D01*
X146441079Y-130283330D01*
X146455329Y-130264117D01*
X146471393Y-130246393D01*
X146489117Y-130230329D01*
X146508330Y-130216079D01*
X146528847Y-130203782D01*
X146550471Y-130193554D01*
X146572993Y-130185496D01*
X146596197Y-130179684D01*
X146619858Y-130176174D01*
X146643750Y-130175000D01*
X147556250Y-130175000D01*
X147580142Y-130176174D01*
X147580142Y-130176174D01*
G37*
D17*
X147100000Y-130662500D03*
D11*
G36*
X147580142Y-132051174D02*
X147603803Y-132054684D01*
X147627007Y-132060496D01*
X147649529Y-132068554D01*
X147671153Y-132078782D01*
X147691670Y-132091079D01*
X147710883Y-132105329D01*
X147728607Y-132121393D01*
X147744671Y-132139117D01*
X147758921Y-132158330D01*
X147771218Y-132178847D01*
X147781446Y-132200471D01*
X147789504Y-132222993D01*
X147795316Y-132246197D01*
X147798826Y-132269858D01*
X147800000Y-132293750D01*
X147800000Y-132781250D01*
X147798826Y-132805142D01*
X147795316Y-132828803D01*
X147789504Y-132852007D01*
X147781446Y-132874529D01*
X147771218Y-132896153D01*
X147758921Y-132916670D01*
X147744671Y-132935883D01*
X147728607Y-132953607D01*
X147710883Y-132969671D01*
X147691670Y-132983921D01*
X147671153Y-132996218D01*
X147649529Y-133006446D01*
X147627007Y-133014504D01*
X147603803Y-133020316D01*
X147580142Y-133023826D01*
X147556250Y-133025000D01*
X146643750Y-133025000D01*
X146619858Y-133023826D01*
X146596197Y-133020316D01*
X146572993Y-133014504D01*
X146550471Y-133006446D01*
X146528847Y-132996218D01*
X146508330Y-132983921D01*
X146489117Y-132969671D01*
X146471393Y-132953607D01*
X146455329Y-132935883D01*
X146441079Y-132916670D01*
X146428782Y-132896153D01*
X146418554Y-132874529D01*
X146410496Y-132852007D01*
X146404684Y-132828803D01*
X146401174Y-132805142D01*
X146400000Y-132781250D01*
X146400000Y-132293750D01*
X146401174Y-132269858D01*
X146404684Y-132246197D01*
X146410496Y-132222993D01*
X146418554Y-132200471D01*
X146428782Y-132178847D01*
X146441079Y-132158330D01*
X146455329Y-132139117D01*
X146471393Y-132121393D01*
X146489117Y-132105329D01*
X146508330Y-132091079D01*
X146528847Y-132078782D01*
X146550471Y-132068554D01*
X146572993Y-132060496D01*
X146596197Y-132054684D01*
X146619858Y-132051174D01*
X146643750Y-132050000D01*
X147556250Y-132050000D01*
X147580142Y-132051174D01*
X147580142Y-132051174D01*
G37*
D17*
X147100000Y-132537500D03*
G04 #@! TD*
D11*
G04 #@! TO.C,C7*
G36*
X160544424Y-122067878D02*
X160568085Y-122071388D01*
X160591289Y-122077200D01*
X160613811Y-122085258D01*
X160635435Y-122095486D01*
X160655952Y-122107783D01*
X160675165Y-122122033D01*
X160692889Y-122138097D01*
X160708953Y-122155821D01*
X160723203Y-122175034D01*
X160735500Y-122195551D01*
X160745728Y-122217175D01*
X160753786Y-122239697D01*
X160759598Y-122262901D01*
X160763108Y-122286562D01*
X160764282Y-122310454D01*
X160764282Y-122797954D01*
X160763108Y-122821846D01*
X160759598Y-122845507D01*
X160753786Y-122868711D01*
X160745728Y-122891233D01*
X160735500Y-122912857D01*
X160723203Y-122933374D01*
X160708953Y-122952587D01*
X160692889Y-122970311D01*
X160675165Y-122986375D01*
X160655952Y-123000625D01*
X160635435Y-123012922D01*
X160613811Y-123023150D01*
X160591289Y-123031208D01*
X160568085Y-123037020D01*
X160544424Y-123040530D01*
X160520532Y-123041704D01*
X159608032Y-123041704D01*
X159584140Y-123040530D01*
X159560479Y-123037020D01*
X159537275Y-123031208D01*
X159514753Y-123023150D01*
X159493129Y-123012922D01*
X159472612Y-123000625D01*
X159453399Y-122986375D01*
X159435675Y-122970311D01*
X159419611Y-122952587D01*
X159405361Y-122933374D01*
X159393064Y-122912857D01*
X159382836Y-122891233D01*
X159374778Y-122868711D01*
X159368966Y-122845507D01*
X159365456Y-122821846D01*
X159364282Y-122797954D01*
X159364282Y-122310454D01*
X159365456Y-122286562D01*
X159368966Y-122262901D01*
X159374778Y-122239697D01*
X159382836Y-122217175D01*
X159393064Y-122195551D01*
X159405361Y-122175034D01*
X159419611Y-122155821D01*
X159435675Y-122138097D01*
X159453399Y-122122033D01*
X159472612Y-122107783D01*
X159493129Y-122095486D01*
X159514753Y-122085258D01*
X159537275Y-122077200D01*
X159560479Y-122071388D01*
X159584140Y-122067878D01*
X159608032Y-122066704D01*
X160520532Y-122066704D01*
X160544424Y-122067878D01*
X160544424Y-122067878D01*
G37*
D17*
X160064282Y-122554204D03*
D11*
G36*
X160544424Y-123942878D02*
X160568085Y-123946388D01*
X160591289Y-123952200D01*
X160613811Y-123960258D01*
X160635435Y-123970486D01*
X160655952Y-123982783D01*
X160675165Y-123997033D01*
X160692889Y-124013097D01*
X160708953Y-124030821D01*
X160723203Y-124050034D01*
X160735500Y-124070551D01*
X160745728Y-124092175D01*
X160753786Y-124114697D01*
X160759598Y-124137901D01*
X160763108Y-124161562D01*
X160764282Y-124185454D01*
X160764282Y-124672954D01*
X160763108Y-124696846D01*
X160759598Y-124720507D01*
X160753786Y-124743711D01*
X160745728Y-124766233D01*
X160735500Y-124787857D01*
X160723203Y-124808374D01*
X160708953Y-124827587D01*
X160692889Y-124845311D01*
X160675165Y-124861375D01*
X160655952Y-124875625D01*
X160635435Y-124887922D01*
X160613811Y-124898150D01*
X160591289Y-124906208D01*
X160568085Y-124912020D01*
X160544424Y-124915530D01*
X160520532Y-124916704D01*
X159608032Y-124916704D01*
X159584140Y-124915530D01*
X159560479Y-124912020D01*
X159537275Y-124906208D01*
X159514753Y-124898150D01*
X159493129Y-124887922D01*
X159472612Y-124875625D01*
X159453399Y-124861375D01*
X159435675Y-124845311D01*
X159419611Y-124827587D01*
X159405361Y-124808374D01*
X159393064Y-124787857D01*
X159382836Y-124766233D01*
X159374778Y-124743711D01*
X159368966Y-124720507D01*
X159365456Y-124696846D01*
X159364282Y-124672954D01*
X159364282Y-124185454D01*
X159365456Y-124161562D01*
X159368966Y-124137901D01*
X159374778Y-124114697D01*
X159382836Y-124092175D01*
X159393064Y-124070551D01*
X159405361Y-124050034D01*
X159419611Y-124030821D01*
X159435675Y-124013097D01*
X159453399Y-123997033D01*
X159472612Y-123982783D01*
X159493129Y-123970486D01*
X159514753Y-123960258D01*
X159537275Y-123952200D01*
X159560479Y-123946388D01*
X159584140Y-123942878D01*
X159608032Y-123941704D01*
X160520532Y-123941704D01*
X160544424Y-123942878D01*
X160544424Y-123942878D01*
G37*
D17*
X160064282Y-124429204D03*
G04 #@! TD*
D11*
G04 #@! TO.C,C8*
G36*
X156956924Y-126130378D02*
X156980585Y-126133888D01*
X157003789Y-126139700D01*
X157026311Y-126147758D01*
X157047935Y-126157986D01*
X157068452Y-126170283D01*
X157087665Y-126184533D01*
X157105389Y-126200597D01*
X157121453Y-126218321D01*
X157135703Y-126237534D01*
X157148000Y-126258051D01*
X157158228Y-126279675D01*
X157166286Y-126302197D01*
X157172098Y-126325401D01*
X157175608Y-126349062D01*
X157176782Y-126372954D01*
X157176782Y-127285454D01*
X157175608Y-127309346D01*
X157172098Y-127333007D01*
X157166286Y-127356211D01*
X157158228Y-127378733D01*
X157148000Y-127400357D01*
X157135703Y-127420874D01*
X157121453Y-127440087D01*
X157105389Y-127457811D01*
X157087665Y-127473875D01*
X157068452Y-127488125D01*
X157047935Y-127500422D01*
X157026311Y-127510650D01*
X157003789Y-127518708D01*
X156980585Y-127524520D01*
X156956924Y-127528030D01*
X156933032Y-127529204D01*
X156445532Y-127529204D01*
X156421640Y-127528030D01*
X156397979Y-127524520D01*
X156374775Y-127518708D01*
X156352253Y-127510650D01*
X156330629Y-127500422D01*
X156310112Y-127488125D01*
X156290899Y-127473875D01*
X156273175Y-127457811D01*
X156257111Y-127440087D01*
X156242861Y-127420874D01*
X156230564Y-127400357D01*
X156220336Y-127378733D01*
X156212278Y-127356211D01*
X156206466Y-127333007D01*
X156202956Y-127309346D01*
X156201782Y-127285454D01*
X156201782Y-126372954D01*
X156202956Y-126349062D01*
X156206466Y-126325401D01*
X156212278Y-126302197D01*
X156220336Y-126279675D01*
X156230564Y-126258051D01*
X156242861Y-126237534D01*
X156257111Y-126218321D01*
X156273175Y-126200597D01*
X156290899Y-126184533D01*
X156310112Y-126170283D01*
X156330629Y-126157986D01*
X156352253Y-126147758D01*
X156374775Y-126139700D01*
X156397979Y-126133888D01*
X156421640Y-126130378D01*
X156445532Y-126129204D01*
X156933032Y-126129204D01*
X156956924Y-126130378D01*
X156956924Y-126130378D01*
G37*
D17*
X156689282Y-126829204D03*
D11*
G36*
X158831924Y-126130378D02*
X158855585Y-126133888D01*
X158878789Y-126139700D01*
X158901311Y-126147758D01*
X158922935Y-126157986D01*
X158943452Y-126170283D01*
X158962665Y-126184533D01*
X158980389Y-126200597D01*
X158996453Y-126218321D01*
X159010703Y-126237534D01*
X159023000Y-126258051D01*
X159033228Y-126279675D01*
X159041286Y-126302197D01*
X159047098Y-126325401D01*
X159050608Y-126349062D01*
X159051782Y-126372954D01*
X159051782Y-127285454D01*
X159050608Y-127309346D01*
X159047098Y-127333007D01*
X159041286Y-127356211D01*
X159033228Y-127378733D01*
X159023000Y-127400357D01*
X159010703Y-127420874D01*
X158996453Y-127440087D01*
X158980389Y-127457811D01*
X158962665Y-127473875D01*
X158943452Y-127488125D01*
X158922935Y-127500422D01*
X158901311Y-127510650D01*
X158878789Y-127518708D01*
X158855585Y-127524520D01*
X158831924Y-127528030D01*
X158808032Y-127529204D01*
X158320532Y-127529204D01*
X158296640Y-127528030D01*
X158272979Y-127524520D01*
X158249775Y-127518708D01*
X158227253Y-127510650D01*
X158205629Y-127500422D01*
X158185112Y-127488125D01*
X158165899Y-127473875D01*
X158148175Y-127457811D01*
X158132111Y-127440087D01*
X158117861Y-127420874D01*
X158105564Y-127400357D01*
X158095336Y-127378733D01*
X158087278Y-127356211D01*
X158081466Y-127333007D01*
X158077956Y-127309346D01*
X158076782Y-127285454D01*
X158076782Y-126372954D01*
X158077956Y-126349062D01*
X158081466Y-126325401D01*
X158087278Y-126302197D01*
X158095336Y-126279675D01*
X158105564Y-126258051D01*
X158117861Y-126237534D01*
X158132111Y-126218321D01*
X158148175Y-126200597D01*
X158165899Y-126184533D01*
X158185112Y-126170283D01*
X158205629Y-126157986D01*
X158227253Y-126147758D01*
X158249775Y-126139700D01*
X158272979Y-126133888D01*
X158296640Y-126130378D01*
X158320532Y-126129204D01*
X158808032Y-126129204D01*
X158831924Y-126130378D01*
X158831924Y-126130378D01*
G37*
D17*
X158564282Y-126829204D03*
G04 #@! TD*
D11*
G04 #@! TO.C,C10*
G36*
X146305142Y-79101174D02*
X146328803Y-79104684D01*
X146352007Y-79110496D01*
X146374529Y-79118554D01*
X146396153Y-79128782D01*
X146416670Y-79141079D01*
X146435883Y-79155329D01*
X146453607Y-79171393D01*
X146469671Y-79189117D01*
X146483921Y-79208330D01*
X146496218Y-79228847D01*
X146506446Y-79250471D01*
X146514504Y-79272993D01*
X146520316Y-79296197D01*
X146523826Y-79319858D01*
X146525000Y-79343750D01*
X146525000Y-80256250D01*
X146523826Y-80280142D01*
X146520316Y-80303803D01*
X146514504Y-80327007D01*
X146506446Y-80349529D01*
X146496218Y-80371153D01*
X146483921Y-80391670D01*
X146469671Y-80410883D01*
X146453607Y-80428607D01*
X146435883Y-80444671D01*
X146416670Y-80458921D01*
X146396153Y-80471218D01*
X146374529Y-80481446D01*
X146352007Y-80489504D01*
X146328803Y-80495316D01*
X146305142Y-80498826D01*
X146281250Y-80500000D01*
X145793750Y-80500000D01*
X145769858Y-80498826D01*
X145746197Y-80495316D01*
X145722993Y-80489504D01*
X145700471Y-80481446D01*
X145678847Y-80471218D01*
X145658330Y-80458921D01*
X145639117Y-80444671D01*
X145621393Y-80428607D01*
X145605329Y-80410883D01*
X145591079Y-80391670D01*
X145578782Y-80371153D01*
X145568554Y-80349529D01*
X145560496Y-80327007D01*
X145554684Y-80303803D01*
X145551174Y-80280142D01*
X145550000Y-80256250D01*
X145550000Y-79343750D01*
X145551174Y-79319858D01*
X145554684Y-79296197D01*
X145560496Y-79272993D01*
X145568554Y-79250471D01*
X145578782Y-79228847D01*
X145591079Y-79208330D01*
X145605329Y-79189117D01*
X145621393Y-79171393D01*
X145639117Y-79155329D01*
X145658330Y-79141079D01*
X145678847Y-79128782D01*
X145700471Y-79118554D01*
X145722993Y-79110496D01*
X145746197Y-79104684D01*
X145769858Y-79101174D01*
X145793750Y-79100000D01*
X146281250Y-79100000D01*
X146305142Y-79101174D01*
X146305142Y-79101174D01*
G37*
D17*
X146037500Y-79800000D03*
D11*
G36*
X144430142Y-79101174D02*
X144453803Y-79104684D01*
X144477007Y-79110496D01*
X144499529Y-79118554D01*
X144521153Y-79128782D01*
X144541670Y-79141079D01*
X144560883Y-79155329D01*
X144578607Y-79171393D01*
X144594671Y-79189117D01*
X144608921Y-79208330D01*
X144621218Y-79228847D01*
X144631446Y-79250471D01*
X144639504Y-79272993D01*
X144645316Y-79296197D01*
X144648826Y-79319858D01*
X144650000Y-79343750D01*
X144650000Y-80256250D01*
X144648826Y-80280142D01*
X144645316Y-80303803D01*
X144639504Y-80327007D01*
X144631446Y-80349529D01*
X144621218Y-80371153D01*
X144608921Y-80391670D01*
X144594671Y-80410883D01*
X144578607Y-80428607D01*
X144560883Y-80444671D01*
X144541670Y-80458921D01*
X144521153Y-80471218D01*
X144499529Y-80481446D01*
X144477007Y-80489504D01*
X144453803Y-80495316D01*
X144430142Y-80498826D01*
X144406250Y-80500000D01*
X143918750Y-80500000D01*
X143894858Y-80498826D01*
X143871197Y-80495316D01*
X143847993Y-80489504D01*
X143825471Y-80481446D01*
X143803847Y-80471218D01*
X143783330Y-80458921D01*
X143764117Y-80444671D01*
X143746393Y-80428607D01*
X143730329Y-80410883D01*
X143716079Y-80391670D01*
X143703782Y-80371153D01*
X143693554Y-80349529D01*
X143685496Y-80327007D01*
X143679684Y-80303803D01*
X143676174Y-80280142D01*
X143675000Y-80256250D01*
X143675000Y-79343750D01*
X143676174Y-79319858D01*
X143679684Y-79296197D01*
X143685496Y-79272993D01*
X143693554Y-79250471D01*
X143703782Y-79228847D01*
X143716079Y-79208330D01*
X143730329Y-79189117D01*
X143746393Y-79171393D01*
X143764117Y-79155329D01*
X143783330Y-79141079D01*
X143803847Y-79128782D01*
X143825471Y-79118554D01*
X143847993Y-79110496D01*
X143871197Y-79104684D01*
X143894858Y-79101174D01*
X143918750Y-79100000D01*
X144406250Y-79100000D01*
X144430142Y-79101174D01*
X144430142Y-79101174D01*
G37*
D17*
X144162500Y-79800000D03*
G04 #@! TD*
D11*
G04 #@! TO.C,C11*
G36*
X142580142Y-69976174D02*
X142603803Y-69979684D01*
X142627007Y-69985496D01*
X142649529Y-69993554D01*
X142671153Y-70003782D01*
X142691670Y-70016079D01*
X142710883Y-70030329D01*
X142728607Y-70046393D01*
X142744671Y-70064117D01*
X142758921Y-70083330D01*
X142771218Y-70103847D01*
X142781446Y-70125471D01*
X142789504Y-70147993D01*
X142795316Y-70171197D01*
X142798826Y-70194858D01*
X142800000Y-70218750D01*
X142800000Y-70706250D01*
X142798826Y-70730142D01*
X142795316Y-70753803D01*
X142789504Y-70777007D01*
X142781446Y-70799529D01*
X142771218Y-70821153D01*
X142758921Y-70841670D01*
X142744671Y-70860883D01*
X142728607Y-70878607D01*
X142710883Y-70894671D01*
X142691670Y-70908921D01*
X142671153Y-70921218D01*
X142649529Y-70931446D01*
X142627007Y-70939504D01*
X142603803Y-70945316D01*
X142580142Y-70948826D01*
X142556250Y-70950000D01*
X141643750Y-70950000D01*
X141619858Y-70948826D01*
X141596197Y-70945316D01*
X141572993Y-70939504D01*
X141550471Y-70931446D01*
X141528847Y-70921218D01*
X141508330Y-70908921D01*
X141489117Y-70894671D01*
X141471393Y-70878607D01*
X141455329Y-70860883D01*
X141441079Y-70841670D01*
X141428782Y-70821153D01*
X141418554Y-70799529D01*
X141410496Y-70777007D01*
X141404684Y-70753803D01*
X141401174Y-70730142D01*
X141400000Y-70706250D01*
X141400000Y-70218750D01*
X141401174Y-70194858D01*
X141404684Y-70171197D01*
X141410496Y-70147993D01*
X141418554Y-70125471D01*
X141428782Y-70103847D01*
X141441079Y-70083330D01*
X141455329Y-70064117D01*
X141471393Y-70046393D01*
X141489117Y-70030329D01*
X141508330Y-70016079D01*
X141528847Y-70003782D01*
X141550471Y-69993554D01*
X141572993Y-69985496D01*
X141596197Y-69979684D01*
X141619858Y-69976174D01*
X141643750Y-69975000D01*
X142556250Y-69975000D01*
X142580142Y-69976174D01*
X142580142Y-69976174D01*
G37*
D17*
X142100000Y-70462500D03*
D11*
G36*
X142580142Y-71851174D02*
X142603803Y-71854684D01*
X142627007Y-71860496D01*
X142649529Y-71868554D01*
X142671153Y-71878782D01*
X142691670Y-71891079D01*
X142710883Y-71905329D01*
X142728607Y-71921393D01*
X142744671Y-71939117D01*
X142758921Y-71958330D01*
X142771218Y-71978847D01*
X142781446Y-72000471D01*
X142789504Y-72022993D01*
X142795316Y-72046197D01*
X142798826Y-72069858D01*
X142800000Y-72093750D01*
X142800000Y-72581250D01*
X142798826Y-72605142D01*
X142795316Y-72628803D01*
X142789504Y-72652007D01*
X142781446Y-72674529D01*
X142771218Y-72696153D01*
X142758921Y-72716670D01*
X142744671Y-72735883D01*
X142728607Y-72753607D01*
X142710883Y-72769671D01*
X142691670Y-72783921D01*
X142671153Y-72796218D01*
X142649529Y-72806446D01*
X142627007Y-72814504D01*
X142603803Y-72820316D01*
X142580142Y-72823826D01*
X142556250Y-72825000D01*
X141643750Y-72825000D01*
X141619858Y-72823826D01*
X141596197Y-72820316D01*
X141572993Y-72814504D01*
X141550471Y-72806446D01*
X141528847Y-72796218D01*
X141508330Y-72783921D01*
X141489117Y-72769671D01*
X141471393Y-72753607D01*
X141455329Y-72735883D01*
X141441079Y-72716670D01*
X141428782Y-72696153D01*
X141418554Y-72674529D01*
X141410496Y-72652007D01*
X141404684Y-72628803D01*
X141401174Y-72605142D01*
X141400000Y-72581250D01*
X141400000Y-72093750D01*
X141401174Y-72069858D01*
X141404684Y-72046197D01*
X141410496Y-72022993D01*
X141418554Y-72000471D01*
X141428782Y-71978847D01*
X141441079Y-71958330D01*
X141455329Y-71939117D01*
X141471393Y-71921393D01*
X141489117Y-71905329D01*
X141508330Y-71891079D01*
X141528847Y-71878782D01*
X141550471Y-71868554D01*
X141572993Y-71860496D01*
X141596197Y-71854684D01*
X141619858Y-71851174D01*
X141643750Y-71850000D01*
X142556250Y-71850000D01*
X142580142Y-71851174D01*
X142580142Y-71851174D01*
G37*
D17*
X142100000Y-72337500D03*
G04 #@! TD*
D11*
G04 #@! TO.C,C12*
G36*
X138380142Y-80976174D02*
X138403803Y-80979684D01*
X138427007Y-80985496D01*
X138449529Y-80993554D01*
X138471153Y-81003782D01*
X138491670Y-81016079D01*
X138510883Y-81030329D01*
X138528607Y-81046393D01*
X138544671Y-81064117D01*
X138558921Y-81083330D01*
X138571218Y-81103847D01*
X138581446Y-81125471D01*
X138589504Y-81147993D01*
X138595316Y-81171197D01*
X138598826Y-81194858D01*
X138600000Y-81218750D01*
X138600000Y-81706250D01*
X138598826Y-81730142D01*
X138595316Y-81753803D01*
X138589504Y-81777007D01*
X138581446Y-81799529D01*
X138571218Y-81821153D01*
X138558921Y-81841670D01*
X138544671Y-81860883D01*
X138528607Y-81878607D01*
X138510883Y-81894671D01*
X138491670Y-81908921D01*
X138471153Y-81921218D01*
X138449529Y-81931446D01*
X138427007Y-81939504D01*
X138403803Y-81945316D01*
X138380142Y-81948826D01*
X138356250Y-81950000D01*
X137443750Y-81950000D01*
X137419858Y-81948826D01*
X137396197Y-81945316D01*
X137372993Y-81939504D01*
X137350471Y-81931446D01*
X137328847Y-81921218D01*
X137308330Y-81908921D01*
X137289117Y-81894671D01*
X137271393Y-81878607D01*
X137255329Y-81860883D01*
X137241079Y-81841670D01*
X137228782Y-81821153D01*
X137218554Y-81799529D01*
X137210496Y-81777007D01*
X137204684Y-81753803D01*
X137201174Y-81730142D01*
X137200000Y-81706250D01*
X137200000Y-81218750D01*
X137201174Y-81194858D01*
X137204684Y-81171197D01*
X137210496Y-81147993D01*
X137218554Y-81125471D01*
X137228782Y-81103847D01*
X137241079Y-81083330D01*
X137255329Y-81064117D01*
X137271393Y-81046393D01*
X137289117Y-81030329D01*
X137308330Y-81016079D01*
X137328847Y-81003782D01*
X137350471Y-80993554D01*
X137372993Y-80985496D01*
X137396197Y-80979684D01*
X137419858Y-80976174D01*
X137443750Y-80975000D01*
X138356250Y-80975000D01*
X138380142Y-80976174D01*
X138380142Y-80976174D01*
G37*
D17*
X137900000Y-81462500D03*
D11*
G36*
X138380142Y-82851174D02*
X138403803Y-82854684D01*
X138427007Y-82860496D01*
X138449529Y-82868554D01*
X138471153Y-82878782D01*
X138491670Y-82891079D01*
X138510883Y-82905329D01*
X138528607Y-82921393D01*
X138544671Y-82939117D01*
X138558921Y-82958330D01*
X138571218Y-82978847D01*
X138581446Y-83000471D01*
X138589504Y-83022993D01*
X138595316Y-83046197D01*
X138598826Y-83069858D01*
X138600000Y-83093750D01*
X138600000Y-83581250D01*
X138598826Y-83605142D01*
X138595316Y-83628803D01*
X138589504Y-83652007D01*
X138581446Y-83674529D01*
X138571218Y-83696153D01*
X138558921Y-83716670D01*
X138544671Y-83735883D01*
X138528607Y-83753607D01*
X138510883Y-83769671D01*
X138491670Y-83783921D01*
X138471153Y-83796218D01*
X138449529Y-83806446D01*
X138427007Y-83814504D01*
X138403803Y-83820316D01*
X138380142Y-83823826D01*
X138356250Y-83825000D01*
X137443750Y-83825000D01*
X137419858Y-83823826D01*
X137396197Y-83820316D01*
X137372993Y-83814504D01*
X137350471Y-83806446D01*
X137328847Y-83796218D01*
X137308330Y-83783921D01*
X137289117Y-83769671D01*
X137271393Y-83753607D01*
X137255329Y-83735883D01*
X137241079Y-83716670D01*
X137228782Y-83696153D01*
X137218554Y-83674529D01*
X137210496Y-83652007D01*
X137204684Y-83628803D01*
X137201174Y-83605142D01*
X137200000Y-83581250D01*
X137200000Y-83093750D01*
X137201174Y-83069858D01*
X137204684Y-83046197D01*
X137210496Y-83022993D01*
X137218554Y-83000471D01*
X137228782Y-82978847D01*
X137241079Y-82958330D01*
X137255329Y-82939117D01*
X137271393Y-82921393D01*
X137289117Y-82905329D01*
X137308330Y-82891079D01*
X137328847Y-82878782D01*
X137350471Y-82868554D01*
X137372993Y-82860496D01*
X137396197Y-82854684D01*
X137419858Y-82851174D01*
X137443750Y-82850000D01*
X138356250Y-82850000D01*
X138380142Y-82851174D01*
X138380142Y-82851174D01*
G37*
D17*
X137900000Y-83337500D03*
G04 #@! TD*
D11*
G04 #@! TO.C,C13*
G36*
X172180142Y-86876174D02*
X172203803Y-86879684D01*
X172227007Y-86885496D01*
X172249529Y-86893554D01*
X172271153Y-86903782D01*
X172291670Y-86916079D01*
X172310883Y-86930329D01*
X172328607Y-86946393D01*
X172344671Y-86964117D01*
X172358921Y-86983330D01*
X172371218Y-87003847D01*
X172381446Y-87025471D01*
X172389504Y-87047993D01*
X172395316Y-87071197D01*
X172398826Y-87094858D01*
X172400000Y-87118750D01*
X172400000Y-87606250D01*
X172398826Y-87630142D01*
X172395316Y-87653803D01*
X172389504Y-87677007D01*
X172381446Y-87699529D01*
X172371218Y-87721153D01*
X172358921Y-87741670D01*
X172344671Y-87760883D01*
X172328607Y-87778607D01*
X172310883Y-87794671D01*
X172291670Y-87808921D01*
X172271153Y-87821218D01*
X172249529Y-87831446D01*
X172227007Y-87839504D01*
X172203803Y-87845316D01*
X172180142Y-87848826D01*
X172156250Y-87850000D01*
X171243750Y-87850000D01*
X171219858Y-87848826D01*
X171196197Y-87845316D01*
X171172993Y-87839504D01*
X171150471Y-87831446D01*
X171128847Y-87821218D01*
X171108330Y-87808921D01*
X171089117Y-87794671D01*
X171071393Y-87778607D01*
X171055329Y-87760883D01*
X171041079Y-87741670D01*
X171028782Y-87721153D01*
X171018554Y-87699529D01*
X171010496Y-87677007D01*
X171004684Y-87653803D01*
X171001174Y-87630142D01*
X171000000Y-87606250D01*
X171000000Y-87118750D01*
X171001174Y-87094858D01*
X171004684Y-87071197D01*
X171010496Y-87047993D01*
X171018554Y-87025471D01*
X171028782Y-87003847D01*
X171041079Y-86983330D01*
X171055329Y-86964117D01*
X171071393Y-86946393D01*
X171089117Y-86930329D01*
X171108330Y-86916079D01*
X171128847Y-86903782D01*
X171150471Y-86893554D01*
X171172993Y-86885496D01*
X171196197Y-86879684D01*
X171219858Y-86876174D01*
X171243750Y-86875000D01*
X172156250Y-86875000D01*
X172180142Y-86876174D01*
X172180142Y-86876174D01*
G37*
D17*
X171700000Y-87362500D03*
D11*
G36*
X172180142Y-88751174D02*
X172203803Y-88754684D01*
X172227007Y-88760496D01*
X172249529Y-88768554D01*
X172271153Y-88778782D01*
X172291670Y-88791079D01*
X172310883Y-88805329D01*
X172328607Y-88821393D01*
X172344671Y-88839117D01*
X172358921Y-88858330D01*
X172371218Y-88878847D01*
X172381446Y-88900471D01*
X172389504Y-88922993D01*
X172395316Y-88946197D01*
X172398826Y-88969858D01*
X172400000Y-88993750D01*
X172400000Y-89481250D01*
X172398826Y-89505142D01*
X172395316Y-89528803D01*
X172389504Y-89552007D01*
X172381446Y-89574529D01*
X172371218Y-89596153D01*
X172358921Y-89616670D01*
X172344671Y-89635883D01*
X172328607Y-89653607D01*
X172310883Y-89669671D01*
X172291670Y-89683921D01*
X172271153Y-89696218D01*
X172249529Y-89706446D01*
X172227007Y-89714504D01*
X172203803Y-89720316D01*
X172180142Y-89723826D01*
X172156250Y-89725000D01*
X171243750Y-89725000D01*
X171219858Y-89723826D01*
X171196197Y-89720316D01*
X171172993Y-89714504D01*
X171150471Y-89706446D01*
X171128847Y-89696218D01*
X171108330Y-89683921D01*
X171089117Y-89669671D01*
X171071393Y-89653607D01*
X171055329Y-89635883D01*
X171041079Y-89616670D01*
X171028782Y-89596153D01*
X171018554Y-89574529D01*
X171010496Y-89552007D01*
X171004684Y-89528803D01*
X171001174Y-89505142D01*
X171000000Y-89481250D01*
X171000000Y-88993750D01*
X171001174Y-88969858D01*
X171004684Y-88946197D01*
X171010496Y-88922993D01*
X171018554Y-88900471D01*
X171028782Y-88878847D01*
X171041079Y-88858330D01*
X171055329Y-88839117D01*
X171071393Y-88821393D01*
X171089117Y-88805329D01*
X171108330Y-88791079D01*
X171128847Y-88778782D01*
X171150471Y-88768554D01*
X171172993Y-88760496D01*
X171196197Y-88754684D01*
X171219858Y-88751174D01*
X171243750Y-88750000D01*
X172156250Y-88750000D01*
X172180142Y-88751174D01*
X172180142Y-88751174D01*
G37*
D17*
X171700000Y-89237500D03*
G04 #@! TD*
D24*
G04 #@! TO.C,D37*
X150964282Y-122679204D03*
X154264282Y-122679204D03*
G04 #@! TD*
G04 #@! TO.C,D38*
X160850492Y-126948999D03*
X164150492Y-126948999D03*
G04 #@! TD*
G04 #@! TO.C,D39*
X133650000Y-134400000D03*
X136950000Y-134400000D03*
G04 #@! TD*
D25*
G04 #@! TO.C,D40*
X183300000Y-76500000D03*
X180100000Y-76500000D03*
X183300000Y-71600000D03*
X180100000Y-71600000D03*
G04 #@! TD*
G04 #@! TO.C,D41*
X180100000Y-63700000D03*
X183300000Y-63700000D03*
X180100000Y-68600000D03*
X183300000Y-68600000D03*
G04 #@! TD*
D26*
G04 #@! TO.C,D42*
X180000000Y-56800000D03*
X180000000Y-60000000D03*
X175100000Y-56800000D03*
X175100000Y-60000000D03*
G04 #@! TD*
G04 #@! TO.C,D43*
X133450000Y-56800000D03*
X133450000Y-60000000D03*
X128550000Y-56800000D03*
X128550000Y-60000000D03*
G04 #@! TD*
D25*
G04 #@! TO.C,D44*
X128700000Y-68600000D03*
X125500000Y-68600000D03*
X128700000Y-63700000D03*
X125500000Y-63700000D03*
G04 #@! TD*
G04 #@! TO.C,D45*
X125500000Y-71600000D03*
X128700000Y-71600000D03*
X125500000Y-76500000D03*
X128700000Y-76500000D03*
G04 #@! TD*
D27*
G04 #@! TO.C,5551*
X134284527Y-76857545D03*
X134934527Y-76857545D03*
X135584527Y-76857545D03*
X136234527Y-76857545D03*
X136234527Y-70957545D03*
X135584527Y-70957545D03*
X134934527Y-70957545D03*
X134284527Y-70957545D03*
G04 #@! TD*
G04 #@! TO.C,5552*
X134259527Y-79307545D03*
X134909527Y-79307545D03*
X135559527Y-79307545D03*
X136209527Y-79307545D03*
X136209527Y-85207545D03*
X135559527Y-85207545D03*
X134909527Y-85207545D03*
X134259527Y-85207545D03*
G04 #@! TD*
G04 #@! TO.C,5553*
X175877708Y-95871752D03*
X175227708Y-95871752D03*
X174577708Y-95871752D03*
X173927708Y-95871752D03*
X173927708Y-89971752D03*
X174577708Y-89971752D03*
X175227708Y-89971752D03*
X175877708Y-89971752D03*
G04 #@! TD*
G04 #@! TO.C,5554*
X175877708Y-81671752D03*
X175227708Y-81671752D03*
X174577708Y-81671752D03*
X173927708Y-81671752D03*
X173927708Y-87571752D03*
X174577708Y-87571752D03*
X175227708Y-87571752D03*
X175877708Y-87571752D03*
G04 #@! TD*
D28*
G04 #@! TO.C,J1*
X127700000Y-134400000D03*
X130240000Y-134400000D03*
G04 #@! TD*
D29*
G04 #@! TO.C,LV555*
X134202201Y-92062980D03*
X134202201Y-92712980D03*
X134202201Y-93362980D03*
X134202201Y-94012980D03*
X129802201Y-94012980D03*
X129802201Y-93362980D03*
X129802201Y-92712980D03*
X129802201Y-92062980D03*
G04 #@! TD*
D18*
G04 #@! TO.C,MAX16054*
X146564282Y-124279204D03*
X146564282Y-123329204D03*
X146564282Y-122379204D03*
X148764282Y-122379204D03*
X148764282Y-124279204D03*
X148764282Y-123329204D03*
G04 #@! TD*
D30*
G04 #@! TO.C,MAX40200*
X162414282Y-124579204D03*
X164314282Y-124579204D03*
X164314282Y-122379204D03*
X163364282Y-122379204D03*
X162414282Y-122379204D03*
G04 #@! TD*
D18*
G04 #@! TO.C,NCP1402*
X151464282Y-126879204D03*
X151464282Y-125929204D03*
X151464282Y-124979204D03*
X153664282Y-124979204D03*
X153664282Y-126879204D03*
G04 #@! TD*
D31*
G04 #@! TO.C,Q1*
X130212454Y-125884312D03*
X129262454Y-127884312D03*
X131162454Y-127884312D03*
G04 #@! TD*
G04 #@! TO.C,Q2*
X144550000Y-91600000D03*
X145500000Y-89600000D03*
X143600000Y-89600000D03*
G04 #@! TD*
G04 #@! TO.C,Q3*
X131162454Y-115284312D03*
X129262454Y-115284312D03*
X130212454Y-113284312D03*
G04 #@! TD*
G04 #@! TO.C,Q4*
X137862454Y-115484312D03*
X135962454Y-115484312D03*
X136912454Y-113484312D03*
G04 #@! TD*
G04 #@! TO.C,Q5*
X146964282Y-126279204D03*
X148864282Y-126279204D03*
X147914282Y-128279204D03*
G04 #@! TD*
G04 #@! TO.C,Q2A1*
X131162454Y-123684312D03*
X129262454Y-123684312D03*
X130212454Y-121684312D03*
G04 #@! TD*
G04 #@! TO.C,Q2B1*
X130212454Y-117484312D03*
X129262454Y-119484312D03*
X131162454Y-119484312D03*
G04 #@! TD*
D11*
G04 #@! TO.C,R1*
G36*
X134042596Y-114947986D02*
X134066257Y-114951496D01*
X134089461Y-114957308D01*
X134111983Y-114965366D01*
X134133607Y-114975594D01*
X134154124Y-114987891D01*
X134173337Y-115002141D01*
X134191061Y-115018205D01*
X134207125Y-115035929D01*
X134221375Y-115055142D01*
X134233672Y-115075659D01*
X134243900Y-115097283D01*
X134251958Y-115119805D01*
X134257770Y-115143009D01*
X134261280Y-115166670D01*
X134262454Y-115190562D01*
X134262454Y-115678062D01*
X134261280Y-115701954D01*
X134257770Y-115725615D01*
X134251958Y-115748819D01*
X134243900Y-115771341D01*
X134233672Y-115792965D01*
X134221375Y-115813482D01*
X134207125Y-115832695D01*
X134191061Y-115850419D01*
X134173337Y-115866483D01*
X134154124Y-115880733D01*
X134133607Y-115893030D01*
X134111983Y-115903258D01*
X134089461Y-115911316D01*
X134066257Y-115917128D01*
X134042596Y-115920638D01*
X134018704Y-115921812D01*
X133106204Y-115921812D01*
X133082312Y-115920638D01*
X133058651Y-115917128D01*
X133035447Y-115911316D01*
X133012925Y-115903258D01*
X132991301Y-115893030D01*
X132970784Y-115880733D01*
X132951571Y-115866483D01*
X132933847Y-115850419D01*
X132917783Y-115832695D01*
X132903533Y-115813482D01*
X132891236Y-115792965D01*
X132881008Y-115771341D01*
X132872950Y-115748819D01*
X132867138Y-115725615D01*
X132863628Y-115701954D01*
X132862454Y-115678062D01*
X132862454Y-115190562D01*
X132863628Y-115166670D01*
X132867138Y-115143009D01*
X132872950Y-115119805D01*
X132881008Y-115097283D01*
X132891236Y-115075659D01*
X132903533Y-115055142D01*
X132917783Y-115035929D01*
X132933847Y-115018205D01*
X132951571Y-115002141D01*
X132970784Y-114987891D01*
X132991301Y-114975594D01*
X133012925Y-114965366D01*
X133035447Y-114957308D01*
X133058651Y-114951496D01*
X133082312Y-114947986D01*
X133106204Y-114946812D01*
X134018704Y-114946812D01*
X134042596Y-114947986D01*
X134042596Y-114947986D01*
G37*
D17*
X133562454Y-115434312D03*
D11*
G36*
X134042596Y-113072986D02*
X134066257Y-113076496D01*
X134089461Y-113082308D01*
X134111983Y-113090366D01*
X134133607Y-113100594D01*
X134154124Y-113112891D01*
X134173337Y-113127141D01*
X134191061Y-113143205D01*
X134207125Y-113160929D01*
X134221375Y-113180142D01*
X134233672Y-113200659D01*
X134243900Y-113222283D01*
X134251958Y-113244805D01*
X134257770Y-113268009D01*
X134261280Y-113291670D01*
X134262454Y-113315562D01*
X134262454Y-113803062D01*
X134261280Y-113826954D01*
X134257770Y-113850615D01*
X134251958Y-113873819D01*
X134243900Y-113896341D01*
X134233672Y-113917965D01*
X134221375Y-113938482D01*
X134207125Y-113957695D01*
X134191061Y-113975419D01*
X134173337Y-113991483D01*
X134154124Y-114005733D01*
X134133607Y-114018030D01*
X134111983Y-114028258D01*
X134089461Y-114036316D01*
X134066257Y-114042128D01*
X134042596Y-114045638D01*
X134018704Y-114046812D01*
X133106204Y-114046812D01*
X133082312Y-114045638D01*
X133058651Y-114042128D01*
X133035447Y-114036316D01*
X133012925Y-114028258D01*
X132991301Y-114018030D01*
X132970784Y-114005733D01*
X132951571Y-113991483D01*
X132933847Y-113975419D01*
X132917783Y-113957695D01*
X132903533Y-113938482D01*
X132891236Y-113917965D01*
X132881008Y-113896341D01*
X132872950Y-113873819D01*
X132867138Y-113850615D01*
X132863628Y-113826954D01*
X132862454Y-113803062D01*
X132862454Y-113315562D01*
X132863628Y-113291670D01*
X132867138Y-113268009D01*
X132872950Y-113244805D01*
X132881008Y-113222283D01*
X132891236Y-113200659D01*
X132903533Y-113180142D01*
X132917783Y-113160929D01*
X132933847Y-113143205D01*
X132951571Y-113127141D01*
X132970784Y-113112891D01*
X132991301Y-113100594D01*
X133012925Y-113090366D01*
X133035447Y-113082308D01*
X133058651Y-113076496D01*
X133082312Y-113072986D01*
X133106204Y-113071812D01*
X134018704Y-113071812D01*
X134042596Y-113072986D01*
X134042596Y-113072986D01*
G37*
D17*
X133562454Y-113559312D03*
G04 #@! TD*
D11*
G04 #@! TO.C,R2*
G36*
X136742596Y-121397986D02*
X136766257Y-121401496D01*
X136789461Y-121407308D01*
X136811983Y-121415366D01*
X136833607Y-121425594D01*
X136854124Y-121437891D01*
X136873337Y-121452141D01*
X136891061Y-121468205D01*
X136907125Y-121485929D01*
X136921375Y-121505142D01*
X136933672Y-121525659D01*
X136943900Y-121547283D01*
X136951958Y-121569805D01*
X136957770Y-121593009D01*
X136961280Y-121616670D01*
X136962454Y-121640562D01*
X136962454Y-122128062D01*
X136961280Y-122151954D01*
X136957770Y-122175615D01*
X136951958Y-122198819D01*
X136943900Y-122221341D01*
X136933672Y-122242965D01*
X136921375Y-122263482D01*
X136907125Y-122282695D01*
X136891061Y-122300419D01*
X136873337Y-122316483D01*
X136854124Y-122330733D01*
X136833607Y-122343030D01*
X136811983Y-122353258D01*
X136789461Y-122361316D01*
X136766257Y-122367128D01*
X136742596Y-122370638D01*
X136718704Y-122371812D01*
X135806204Y-122371812D01*
X135782312Y-122370638D01*
X135758651Y-122367128D01*
X135735447Y-122361316D01*
X135712925Y-122353258D01*
X135691301Y-122343030D01*
X135670784Y-122330733D01*
X135651571Y-122316483D01*
X135633847Y-122300419D01*
X135617783Y-122282695D01*
X135603533Y-122263482D01*
X135591236Y-122242965D01*
X135581008Y-122221341D01*
X135572950Y-122198819D01*
X135567138Y-122175615D01*
X135563628Y-122151954D01*
X135562454Y-122128062D01*
X135562454Y-121640562D01*
X135563628Y-121616670D01*
X135567138Y-121593009D01*
X135572950Y-121569805D01*
X135581008Y-121547283D01*
X135591236Y-121525659D01*
X135603533Y-121505142D01*
X135617783Y-121485929D01*
X135633847Y-121468205D01*
X135651571Y-121452141D01*
X135670784Y-121437891D01*
X135691301Y-121425594D01*
X135712925Y-121415366D01*
X135735447Y-121407308D01*
X135758651Y-121401496D01*
X135782312Y-121397986D01*
X135806204Y-121396812D01*
X136718704Y-121396812D01*
X136742596Y-121397986D01*
X136742596Y-121397986D01*
G37*
D17*
X136262454Y-121884312D03*
D11*
G36*
X136742596Y-123272986D02*
X136766257Y-123276496D01*
X136789461Y-123282308D01*
X136811983Y-123290366D01*
X136833607Y-123300594D01*
X136854124Y-123312891D01*
X136873337Y-123327141D01*
X136891061Y-123343205D01*
X136907125Y-123360929D01*
X136921375Y-123380142D01*
X136933672Y-123400659D01*
X136943900Y-123422283D01*
X136951958Y-123444805D01*
X136957770Y-123468009D01*
X136961280Y-123491670D01*
X136962454Y-123515562D01*
X136962454Y-124003062D01*
X136961280Y-124026954D01*
X136957770Y-124050615D01*
X136951958Y-124073819D01*
X136943900Y-124096341D01*
X136933672Y-124117965D01*
X136921375Y-124138482D01*
X136907125Y-124157695D01*
X136891061Y-124175419D01*
X136873337Y-124191483D01*
X136854124Y-124205733D01*
X136833607Y-124218030D01*
X136811983Y-124228258D01*
X136789461Y-124236316D01*
X136766257Y-124242128D01*
X136742596Y-124245638D01*
X136718704Y-124246812D01*
X135806204Y-124246812D01*
X135782312Y-124245638D01*
X135758651Y-124242128D01*
X135735447Y-124236316D01*
X135712925Y-124228258D01*
X135691301Y-124218030D01*
X135670784Y-124205733D01*
X135651571Y-124191483D01*
X135633847Y-124175419D01*
X135617783Y-124157695D01*
X135603533Y-124138482D01*
X135591236Y-124117965D01*
X135581008Y-124096341D01*
X135572950Y-124073819D01*
X135567138Y-124050615D01*
X135563628Y-124026954D01*
X135562454Y-124003062D01*
X135562454Y-123515562D01*
X135563628Y-123491670D01*
X135567138Y-123468009D01*
X135572950Y-123444805D01*
X135581008Y-123422283D01*
X135591236Y-123400659D01*
X135603533Y-123380142D01*
X135617783Y-123360929D01*
X135633847Y-123343205D01*
X135651571Y-123327141D01*
X135670784Y-123312891D01*
X135691301Y-123300594D01*
X135712925Y-123290366D01*
X135735447Y-123282308D01*
X135758651Y-123276496D01*
X135782312Y-123272986D01*
X135806204Y-123271812D01*
X136718704Y-123271812D01*
X136742596Y-123272986D01*
X136742596Y-123272986D01*
G37*
D17*
X136262454Y-123759312D03*
G04 #@! TD*
D11*
G04 #@! TO.C,R3*
G36*
X136742596Y-119072986D02*
X136766257Y-119076496D01*
X136789461Y-119082308D01*
X136811983Y-119090366D01*
X136833607Y-119100594D01*
X136854124Y-119112891D01*
X136873337Y-119127141D01*
X136891061Y-119143205D01*
X136907125Y-119160929D01*
X136921375Y-119180142D01*
X136933672Y-119200659D01*
X136943900Y-119222283D01*
X136951958Y-119244805D01*
X136957770Y-119268009D01*
X136961280Y-119291670D01*
X136962454Y-119315562D01*
X136962454Y-119803062D01*
X136961280Y-119826954D01*
X136957770Y-119850615D01*
X136951958Y-119873819D01*
X136943900Y-119896341D01*
X136933672Y-119917965D01*
X136921375Y-119938482D01*
X136907125Y-119957695D01*
X136891061Y-119975419D01*
X136873337Y-119991483D01*
X136854124Y-120005733D01*
X136833607Y-120018030D01*
X136811983Y-120028258D01*
X136789461Y-120036316D01*
X136766257Y-120042128D01*
X136742596Y-120045638D01*
X136718704Y-120046812D01*
X135806204Y-120046812D01*
X135782312Y-120045638D01*
X135758651Y-120042128D01*
X135735447Y-120036316D01*
X135712925Y-120028258D01*
X135691301Y-120018030D01*
X135670784Y-120005733D01*
X135651571Y-119991483D01*
X135633847Y-119975419D01*
X135617783Y-119957695D01*
X135603533Y-119938482D01*
X135591236Y-119917965D01*
X135581008Y-119896341D01*
X135572950Y-119873819D01*
X135567138Y-119850615D01*
X135563628Y-119826954D01*
X135562454Y-119803062D01*
X135562454Y-119315562D01*
X135563628Y-119291670D01*
X135567138Y-119268009D01*
X135572950Y-119244805D01*
X135581008Y-119222283D01*
X135591236Y-119200659D01*
X135603533Y-119180142D01*
X135617783Y-119160929D01*
X135633847Y-119143205D01*
X135651571Y-119127141D01*
X135670784Y-119112891D01*
X135691301Y-119100594D01*
X135712925Y-119090366D01*
X135735447Y-119082308D01*
X135758651Y-119076496D01*
X135782312Y-119072986D01*
X135806204Y-119071812D01*
X136718704Y-119071812D01*
X136742596Y-119072986D01*
X136742596Y-119072986D01*
G37*
D17*
X136262454Y-119559312D03*
D11*
G36*
X136742596Y-117197986D02*
X136766257Y-117201496D01*
X136789461Y-117207308D01*
X136811983Y-117215366D01*
X136833607Y-117225594D01*
X136854124Y-117237891D01*
X136873337Y-117252141D01*
X136891061Y-117268205D01*
X136907125Y-117285929D01*
X136921375Y-117305142D01*
X136933672Y-117325659D01*
X136943900Y-117347283D01*
X136951958Y-117369805D01*
X136957770Y-117393009D01*
X136961280Y-117416670D01*
X136962454Y-117440562D01*
X136962454Y-117928062D01*
X136961280Y-117951954D01*
X136957770Y-117975615D01*
X136951958Y-117998819D01*
X136943900Y-118021341D01*
X136933672Y-118042965D01*
X136921375Y-118063482D01*
X136907125Y-118082695D01*
X136891061Y-118100419D01*
X136873337Y-118116483D01*
X136854124Y-118130733D01*
X136833607Y-118143030D01*
X136811983Y-118153258D01*
X136789461Y-118161316D01*
X136766257Y-118167128D01*
X136742596Y-118170638D01*
X136718704Y-118171812D01*
X135806204Y-118171812D01*
X135782312Y-118170638D01*
X135758651Y-118167128D01*
X135735447Y-118161316D01*
X135712925Y-118153258D01*
X135691301Y-118143030D01*
X135670784Y-118130733D01*
X135651571Y-118116483D01*
X135633847Y-118100419D01*
X135617783Y-118082695D01*
X135603533Y-118063482D01*
X135591236Y-118042965D01*
X135581008Y-118021341D01*
X135572950Y-117998819D01*
X135567138Y-117975615D01*
X135563628Y-117951954D01*
X135562454Y-117928062D01*
X135562454Y-117440562D01*
X135563628Y-117416670D01*
X135567138Y-117393009D01*
X135572950Y-117369805D01*
X135581008Y-117347283D01*
X135591236Y-117325659D01*
X135603533Y-117305142D01*
X135617783Y-117285929D01*
X135633847Y-117268205D01*
X135651571Y-117252141D01*
X135670784Y-117237891D01*
X135691301Y-117225594D01*
X135712925Y-117215366D01*
X135735447Y-117207308D01*
X135758651Y-117201496D01*
X135782312Y-117197986D01*
X135806204Y-117196812D01*
X136718704Y-117196812D01*
X136742596Y-117197986D01*
X136742596Y-117197986D01*
G37*
D17*
X136262454Y-117684312D03*
G04 #@! TD*
D11*
G04 #@! TO.C,R4*
G36*
X136692596Y-125447986D02*
X136716257Y-125451496D01*
X136739461Y-125457308D01*
X136761983Y-125465366D01*
X136783607Y-125475594D01*
X136804124Y-125487891D01*
X136823337Y-125502141D01*
X136841061Y-125518205D01*
X136857125Y-125535929D01*
X136871375Y-125555142D01*
X136883672Y-125575659D01*
X136893900Y-125597283D01*
X136901958Y-125619805D01*
X136907770Y-125643009D01*
X136911280Y-125666670D01*
X136912454Y-125690562D01*
X136912454Y-126178062D01*
X136911280Y-126201954D01*
X136907770Y-126225615D01*
X136901958Y-126248819D01*
X136893900Y-126271341D01*
X136883672Y-126292965D01*
X136871375Y-126313482D01*
X136857125Y-126332695D01*
X136841061Y-126350419D01*
X136823337Y-126366483D01*
X136804124Y-126380733D01*
X136783607Y-126393030D01*
X136761983Y-126403258D01*
X136739461Y-126411316D01*
X136716257Y-126417128D01*
X136692596Y-126420638D01*
X136668704Y-126421812D01*
X135756204Y-126421812D01*
X135732312Y-126420638D01*
X135708651Y-126417128D01*
X135685447Y-126411316D01*
X135662925Y-126403258D01*
X135641301Y-126393030D01*
X135620784Y-126380733D01*
X135601571Y-126366483D01*
X135583847Y-126350419D01*
X135567783Y-126332695D01*
X135553533Y-126313482D01*
X135541236Y-126292965D01*
X135531008Y-126271341D01*
X135522950Y-126248819D01*
X135517138Y-126225615D01*
X135513628Y-126201954D01*
X135512454Y-126178062D01*
X135512454Y-125690562D01*
X135513628Y-125666670D01*
X135517138Y-125643009D01*
X135522950Y-125619805D01*
X135531008Y-125597283D01*
X135541236Y-125575659D01*
X135553533Y-125555142D01*
X135567783Y-125535929D01*
X135583847Y-125518205D01*
X135601571Y-125502141D01*
X135620784Y-125487891D01*
X135641301Y-125475594D01*
X135662925Y-125465366D01*
X135685447Y-125457308D01*
X135708651Y-125451496D01*
X135732312Y-125447986D01*
X135756204Y-125446812D01*
X136668704Y-125446812D01*
X136692596Y-125447986D01*
X136692596Y-125447986D01*
G37*
D17*
X136212454Y-125934312D03*
D11*
G36*
X136692596Y-127322986D02*
X136716257Y-127326496D01*
X136739461Y-127332308D01*
X136761983Y-127340366D01*
X136783607Y-127350594D01*
X136804124Y-127362891D01*
X136823337Y-127377141D01*
X136841061Y-127393205D01*
X136857125Y-127410929D01*
X136871375Y-127430142D01*
X136883672Y-127450659D01*
X136893900Y-127472283D01*
X136901958Y-127494805D01*
X136907770Y-127518009D01*
X136911280Y-127541670D01*
X136912454Y-127565562D01*
X136912454Y-128053062D01*
X136911280Y-128076954D01*
X136907770Y-128100615D01*
X136901958Y-128123819D01*
X136893900Y-128146341D01*
X136883672Y-128167965D01*
X136871375Y-128188482D01*
X136857125Y-128207695D01*
X136841061Y-128225419D01*
X136823337Y-128241483D01*
X136804124Y-128255733D01*
X136783607Y-128268030D01*
X136761983Y-128278258D01*
X136739461Y-128286316D01*
X136716257Y-128292128D01*
X136692596Y-128295638D01*
X136668704Y-128296812D01*
X135756204Y-128296812D01*
X135732312Y-128295638D01*
X135708651Y-128292128D01*
X135685447Y-128286316D01*
X135662925Y-128278258D01*
X135641301Y-128268030D01*
X135620784Y-128255733D01*
X135601571Y-128241483D01*
X135583847Y-128225419D01*
X135567783Y-128207695D01*
X135553533Y-128188482D01*
X135541236Y-128167965D01*
X135531008Y-128146341D01*
X135522950Y-128123819D01*
X135517138Y-128100615D01*
X135513628Y-128076954D01*
X135512454Y-128053062D01*
X135512454Y-127565562D01*
X135513628Y-127541670D01*
X135517138Y-127518009D01*
X135522950Y-127494805D01*
X135531008Y-127472283D01*
X135541236Y-127450659D01*
X135553533Y-127430142D01*
X135567783Y-127410929D01*
X135583847Y-127393205D01*
X135601571Y-127377141D01*
X135620784Y-127362891D01*
X135641301Y-127350594D01*
X135662925Y-127340366D01*
X135685447Y-127332308D01*
X135708651Y-127326496D01*
X135732312Y-127322986D01*
X135756204Y-127321812D01*
X136668704Y-127321812D01*
X136692596Y-127322986D01*
X136692596Y-127322986D01*
G37*
D17*
X136212454Y-127809312D03*
G04 #@! TD*
D11*
G04 #@! TO.C,R5*
G36*
X139392596Y-127322986D02*
X139416257Y-127326496D01*
X139439461Y-127332308D01*
X139461983Y-127340366D01*
X139483607Y-127350594D01*
X139504124Y-127362891D01*
X139523337Y-127377141D01*
X139541061Y-127393205D01*
X139557125Y-127410929D01*
X139571375Y-127430142D01*
X139583672Y-127450659D01*
X139593900Y-127472283D01*
X139601958Y-127494805D01*
X139607770Y-127518009D01*
X139611280Y-127541670D01*
X139612454Y-127565562D01*
X139612454Y-128053062D01*
X139611280Y-128076954D01*
X139607770Y-128100615D01*
X139601958Y-128123819D01*
X139593900Y-128146341D01*
X139583672Y-128167965D01*
X139571375Y-128188482D01*
X139557125Y-128207695D01*
X139541061Y-128225419D01*
X139523337Y-128241483D01*
X139504124Y-128255733D01*
X139483607Y-128268030D01*
X139461983Y-128278258D01*
X139439461Y-128286316D01*
X139416257Y-128292128D01*
X139392596Y-128295638D01*
X139368704Y-128296812D01*
X138456204Y-128296812D01*
X138432312Y-128295638D01*
X138408651Y-128292128D01*
X138385447Y-128286316D01*
X138362925Y-128278258D01*
X138341301Y-128268030D01*
X138320784Y-128255733D01*
X138301571Y-128241483D01*
X138283847Y-128225419D01*
X138267783Y-128207695D01*
X138253533Y-128188482D01*
X138241236Y-128167965D01*
X138231008Y-128146341D01*
X138222950Y-128123819D01*
X138217138Y-128100615D01*
X138213628Y-128076954D01*
X138212454Y-128053062D01*
X138212454Y-127565562D01*
X138213628Y-127541670D01*
X138217138Y-127518009D01*
X138222950Y-127494805D01*
X138231008Y-127472283D01*
X138241236Y-127450659D01*
X138253533Y-127430142D01*
X138267783Y-127410929D01*
X138283847Y-127393205D01*
X138301571Y-127377141D01*
X138320784Y-127362891D01*
X138341301Y-127350594D01*
X138362925Y-127340366D01*
X138385447Y-127332308D01*
X138408651Y-127326496D01*
X138432312Y-127322986D01*
X138456204Y-127321812D01*
X139368704Y-127321812D01*
X139392596Y-127322986D01*
X139392596Y-127322986D01*
G37*
D17*
X138912454Y-127809312D03*
D11*
G36*
X139392596Y-125447986D02*
X139416257Y-125451496D01*
X139439461Y-125457308D01*
X139461983Y-125465366D01*
X139483607Y-125475594D01*
X139504124Y-125487891D01*
X139523337Y-125502141D01*
X139541061Y-125518205D01*
X139557125Y-125535929D01*
X139571375Y-125555142D01*
X139583672Y-125575659D01*
X139593900Y-125597283D01*
X139601958Y-125619805D01*
X139607770Y-125643009D01*
X139611280Y-125666670D01*
X139612454Y-125690562D01*
X139612454Y-126178062D01*
X139611280Y-126201954D01*
X139607770Y-126225615D01*
X139601958Y-126248819D01*
X139593900Y-126271341D01*
X139583672Y-126292965D01*
X139571375Y-126313482D01*
X139557125Y-126332695D01*
X139541061Y-126350419D01*
X139523337Y-126366483D01*
X139504124Y-126380733D01*
X139483607Y-126393030D01*
X139461983Y-126403258D01*
X139439461Y-126411316D01*
X139416257Y-126417128D01*
X139392596Y-126420638D01*
X139368704Y-126421812D01*
X138456204Y-126421812D01*
X138432312Y-126420638D01*
X138408651Y-126417128D01*
X138385447Y-126411316D01*
X138362925Y-126403258D01*
X138341301Y-126393030D01*
X138320784Y-126380733D01*
X138301571Y-126366483D01*
X138283847Y-126350419D01*
X138267783Y-126332695D01*
X138253533Y-126313482D01*
X138241236Y-126292965D01*
X138231008Y-126271341D01*
X138222950Y-126248819D01*
X138217138Y-126225615D01*
X138213628Y-126201954D01*
X138212454Y-126178062D01*
X138212454Y-125690562D01*
X138213628Y-125666670D01*
X138217138Y-125643009D01*
X138222950Y-125619805D01*
X138231008Y-125597283D01*
X138241236Y-125575659D01*
X138253533Y-125555142D01*
X138267783Y-125535929D01*
X138283847Y-125518205D01*
X138301571Y-125502141D01*
X138320784Y-125487891D01*
X138341301Y-125475594D01*
X138362925Y-125465366D01*
X138385447Y-125457308D01*
X138408651Y-125451496D01*
X138432312Y-125447986D01*
X138456204Y-125446812D01*
X139368704Y-125446812D01*
X139392596Y-125447986D01*
X139392596Y-125447986D01*
G37*
D17*
X138912454Y-125934312D03*
G04 #@! TD*
D11*
G04 #@! TO.C,R6*
G36*
X134042596Y-121322986D02*
X134066257Y-121326496D01*
X134089461Y-121332308D01*
X134111983Y-121340366D01*
X134133607Y-121350594D01*
X134154124Y-121362891D01*
X134173337Y-121377141D01*
X134191061Y-121393205D01*
X134207125Y-121410929D01*
X134221375Y-121430142D01*
X134233672Y-121450659D01*
X134243900Y-121472283D01*
X134251958Y-121494805D01*
X134257770Y-121518009D01*
X134261280Y-121541670D01*
X134262454Y-121565562D01*
X134262454Y-122053062D01*
X134261280Y-122076954D01*
X134257770Y-122100615D01*
X134251958Y-122123819D01*
X134243900Y-122146341D01*
X134233672Y-122167965D01*
X134221375Y-122188482D01*
X134207125Y-122207695D01*
X134191061Y-122225419D01*
X134173337Y-122241483D01*
X134154124Y-122255733D01*
X134133607Y-122268030D01*
X134111983Y-122278258D01*
X134089461Y-122286316D01*
X134066257Y-122292128D01*
X134042596Y-122295638D01*
X134018704Y-122296812D01*
X133106204Y-122296812D01*
X133082312Y-122295638D01*
X133058651Y-122292128D01*
X133035447Y-122286316D01*
X133012925Y-122278258D01*
X132991301Y-122268030D01*
X132970784Y-122255733D01*
X132951571Y-122241483D01*
X132933847Y-122225419D01*
X132917783Y-122207695D01*
X132903533Y-122188482D01*
X132891236Y-122167965D01*
X132881008Y-122146341D01*
X132872950Y-122123819D01*
X132867138Y-122100615D01*
X132863628Y-122076954D01*
X132862454Y-122053062D01*
X132862454Y-121565562D01*
X132863628Y-121541670D01*
X132867138Y-121518009D01*
X132872950Y-121494805D01*
X132881008Y-121472283D01*
X132891236Y-121450659D01*
X132903533Y-121430142D01*
X132917783Y-121410929D01*
X132933847Y-121393205D01*
X132951571Y-121377141D01*
X132970784Y-121362891D01*
X132991301Y-121350594D01*
X133012925Y-121340366D01*
X133035447Y-121332308D01*
X133058651Y-121326496D01*
X133082312Y-121322986D01*
X133106204Y-121321812D01*
X134018704Y-121321812D01*
X134042596Y-121322986D01*
X134042596Y-121322986D01*
G37*
D17*
X133562454Y-121809312D03*
D11*
G36*
X134042596Y-123197986D02*
X134066257Y-123201496D01*
X134089461Y-123207308D01*
X134111983Y-123215366D01*
X134133607Y-123225594D01*
X134154124Y-123237891D01*
X134173337Y-123252141D01*
X134191061Y-123268205D01*
X134207125Y-123285929D01*
X134221375Y-123305142D01*
X134233672Y-123325659D01*
X134243900Y-123347283D01*
X134251958Y-123369805D01*
X134257770Y-123393009D01*
X134261280Y-123416670D01*
X134262454Y-123440562D01*
X134262454Y-123928062D01*
X134261280Y-123951954D01*
X134257770Y-123975615D01*
X134251958Y-123998819D01*
X134243900Y-124021341D01*
X134233672Y-124042965D01*
X134221375Y-124063482D01*
X134207125Y-124082695D01*
X134191061Y-124100419D01*
X134173337Y-124116483D01*
X134154124Y-124130733D01*
X134133607Y-124143030D01*
X134111983Y-124153258D01*
X134089461Y-124161316D01*
X134066257Y-124167128D01*
X134042596Y-124170638D01*
X134018704Y-124171812D01*
X133106204Y-124171812D01*
X133082312Y-124170638D01*
X133058651Y-124167128D01*
X133035447Y-124161316D01*
X133012925Y-124153258D01*
X132991301Y-124143030D01*
X132970784Y-124130733D01*
X132951571Y-124116483D01*
X132933847Y-124100419D01*
X132917783Y-124082695D01*
X132903533Y-124063482D01*
X132891236Y-124042965D01*
X132881008Y-124021341D01*
X132872950Y-123998819D01*
X132867138Y-123975615D01*
X132863628Y-123951954D01*
X132862454Y-123928062D01*
X132862454Y-123440562D01*
X132863628Y-123416670D01*
X132867138Y-123393009D01*
X132872950Y-123369805D01*
X132881008Y-123347283D01*
X132891236Y-123325659D01*
X132903533Y-123305142D01*
X132917783Y-123285929D01*
X132933847Y-123268205D01*
X132951571Y-123252141D01*
X132970784Y-123237891D01*
X132991301Y-123225594D01*
X133012925Y-123215366D01*
X133035447Y-123207308D01*
X133058651Y-123201496D01*
X133082312Y-123197986D01*
X133106204Y-123196812D01*
X134018704Y-123196812D01*
X134042596Y-123197986D01*
X134042596Y-123197986D01*
G37*
D17*
X133562454Y-123684312D03*
G04 #@! TD*
D11*
G04 #@! TO.C,R7*
G36*
X134042596Y-117172986D02*
X134066257Y-117176496D01*
X134089461Y-117182308D01*
X134111983Y-117190366D01*
X134133607Y-117200594D01*
X134154124Y-117212891D01*
X134173337Y-117227141D01*
X134191061Y-117243205D01*
X134207125Y-117260929D01*
X134221375Y-117280142D01*
X134233672Y-117300659D01*
X134243900Y-117322283D01*
X134251958Y-117344805D01*
X134257770Y-117368009D01*
X134261280Y-117391670D01*
X134262454Y-117415562D01*
X134262454Y-117903062D01*
X134261280Y-117926954D01*
X134257770Y-117950615D01*
X134251958Y-117973819D01*
X134243900Y-117996341D01*
X134233672Y-118017965D01*
X134221375Y-118038482D01*
X134207125Y-118057695D01*
X134191061Y-118075419D01*
X134173337Y-118091483D01*
X134154124Y-118105733D01*
X134133607Y-118118030D01*
X134111983Y-118128258D01*
X134089461Y-118136316D01*
X134066257Y-118142128D01*
X134042596Y-118145638D01*
X134018704Y-118146812D01*
X133106204Y-118146812D01*
X133082312Y-118145638D01*
X133058651Y-118142128D01*
X133035447Y-118136316D01*
X133012925Y-118128258D01*
X132991301Y-118118030D01*
X132970784Y-118105733D01*
X132951571Y-118091483D01*
X132933847Y-118075419D01*
X132917783Y-118057695D01*
X132903533Y-118038482D01*
X132891236Y-118017965D01*
X132881008Y-117996341D01*
X132872950Y-117973819D01*
X132867138Y-117950615D01*
X132863628Y-117926954D01*
X132862454Y-117903062D01*
X132862454Y-117415562D01*
X132863628Y-117391670D01*
X132867138Y-117368009D01*
X132872950Y-117344805D01*
X132881008Y-117322283D01*
X132891236Y-117300659D01*
X132903533Y-117280142D01*
X132917783Y-117260929D01*
X132933847Y-117243205D01*
X132951571Y-117227141D01*
X132970784Y-117212891D01*
X132991301Y-117200594D01*
X133012925Y-117190366D01*
X133035447Y-117182308D01*
X133058651Y-117176496D01*
X133082312Y-117172986D01*
X133106204Y-117171812D01*
X134018704Y-117171812D01*
X134042596Y-117172986D01*
X134042596Y-117172986D01*
G37*
D17*
X133562454Y-117659312D03*
D11*
G36*
X134042596Y-119047986D02*
X134066257Y-119051496D01*
X134089461Y-119057308D01*
X134111983Y-119065366D01*
X134133607Y-119075594D01*
X134154124Y-119087891D01*
X134173337Y-119102141D01*
X134191061Y-119118205D01*
X134207125Y-119135929D01*
X134221375Y-119155142D01*
X134233672Y-119175659D01*
X134243900Y-119197283D01*
X134251958Y-119219805D01*
X134257770Y-119243009D01*
X134261280Y-119266670D01*
X134262454Y-119290562D01*
X134262454Y-119778062D01*
X134261280Y-119801954D01*
X134257770Y-119825615D01*
X134251958Y-119848819D01*
X134243900Y-119871341D01*
X134233672Y-119892965D01*
X134221375Y-119913482D01*
X134207125Y-119932695D01*
X134191061Y-119950419D01*
X134173337Y-119966483D01*
X134154124Y-119980733D01*
X134133607Y-119993030D01*
X134111983Y-120003258D01*
X134089461Y-120011316D01*
X134066257Y-120017128D01*
X134042596Y-120020638D01*
X134018704Y-120021812D01*
X133106204Y-120021812D01*
X133082312Y-120020638D01*
X133058651Y-120017128D01*
X133035447Y-120011316D01*
X133012925Y-120003258D01*
X132991301Y-119993030D01*
X132970784Y-119980733D01*
X132951571Y-119966483D01*
X132933847Y-119950419D01*
X132917783Y-119932695D01*
X132903533Y-119913482D01*
X132891236Y-119892965D01*
X132881008Y-119871341D01*
X132872950Y-119848819D01*
X132867138Y-119825615D01*
X132863628Y-119801954D01*
X132862454Y-119778062D01*
X132862454Y-119290562D01*
X132863628Y-119266670D01*
X132867138Y-119243009D01*
X132872950Y-119219805D01*
X132881008Y-119197283D01*
X132891236Y-119175659D01*
X132903533Y-119155142D01*
X132917783Y-119135929D01*
X132933847Y-119118205D01*
X132951571Y-119102141D01*
X132970784Y-119087891D01*
X132991301Y-119075594D01*
X133012925Y-119065366D01*
X133035447Y-119057308D01*
X133058651Y-119051496D01*
X133082312Y-119047986D01*
X133106204Y-119046812D01*
X134018704Y-119046812D01*
X134042596Y-119047986D01*
X134042596Y-119047986D01*
G37*
D17*
X133562454Y-119534312D03*
G04 #@! TD*
D11*
G04 #@! TO.C,R8*
G36*
X139392596Y-119072986D02*
X139416257Y-119076496D01*
X139439461Y-119082308D01*
X139461983Y-119090366D01*
X139483607Y-119100594D01*
X139504124Y-119112891D01*
X139523337Y-119127141D01*
X139541061Y-119143205D01*
X139557125Y-119160929D01*
X139571375Y-119180142D01*
X139583672Y-119200659D01*
X139593900Y-119222283D01*
X139601958Y-119244805D01*
X139607770Y-119268009D01*
X139611280Y-119291670D01*
X139612454Y-119315562D01*
X139612454Y-119803062D01*
X139611280Y-119826954D01*
X139607770Y-119850615D01*
X139601958Y-119873819D01*
X139593900Y-119896341D01*
X139583672Y-119917965D01*
X139571375Y-119938482D01*
X139557125Y-119957695D01*
X139541061Y-119975419D01*
X139523337Y-119991483D01*
X139504124Y-120005733D01*
X139483607Y-120018030D01*
X139461983Y-120028258D01*
X139439461Y-120036316D01*
X139416257Y-120042128D01*
X139392596Y-120045638D01*
X139368704Y-120046812D01*
X138456204Y-120046812D01*
X138432312Y-120045638D01*
X138408651Y-120042128D01*
X138385447Y-120036316D01*
X138362925Y-120028258D01*
X138341301Y-120018030D01*
X138320784Y-120005733D01*
X138301571Y-119991483D01*
X138283847Y-119975419D01*
X138267783Y-119957695D01*
X138253533Y-119938482D01*
X138241236Y-119917965D01*
X138231008Y-119896341D01*
X138222950Y-119873819D01*
X138217138Y-119850615D01*
X138213628Y-119826954D01*
X138212454Y-119803062D01*
X138212454Y-119315562D01*
X138213628Y-119291670D01*
X138217138Y-119268009D01*
X138222950Y-119244805D01*
X138231008Y-119222283D01*
X138241236Y-119200659D01*
X138253533Y-119180142D01*
X138267783Y-119160929D01*
X138283847Y-119143205D01*
X138301571Y-119127141D01*
X138320784Y-119112891D01*
X138341301Y-119100594D01*
X138362925Y-119090366D01*
X138385447Y-119082308D01*
X138408651Y-119076496D01*
X138432312Y-119072986D01*
X138456204Y-119071812D01*
X139368704Y-119071812D01*
X139392596Y-119072986D01*
X139392596Y-119072986D01*
G37*
D17*
X138912454Y-119559312D03*
D11*
G36*
X139392596Y-117197986D02*
X139416257Y-117201496D01*
X139439461Y-117207308D01*
X139461983Y-117215366D01*
X139483607Y-117225594D01*
X139504124Y-117237891D01*
X139523337Y-117252141D01*
X139541061Y-117268205D01*
X139557125Y-117285929D01*
X139571375Y-117305142D01*
X139583672Y-117325659D01*
X139593900Y-117347283D01*
X139601958Y-117369805D01*
X139607770Y-117393009D01*
X139611280Y-117416670D01*
X139612454Y-117440562D01*
X139612454Y-117928062D01*
X139611280Y-117951954D01*
X139607770Y-117975615D01*
X139601958Y-117998819D01*
X139593900Y-118021341D01*
X139583672Y-118042965D01*
X139571375Y-118063482D01*
X139557125Y-118082695D01*
X139541061Y-118100419D01*
X139523337Y-118116483D01*
X139504124Y-118130733D01*
X139483607Y-118143030D01*
X139461983Y-118153258D01*
X139439461Y-118161316D01*
X139416257Y-118167128D01*
X139392596Y-118170638D01*
X139368704Y-118171812D01*
X138456204Y-118171812D01*
X138432312Y-118170638D01*
X138408651Y-118167128D01*
X138385447Y-118161316D01*
X138362925Y-118153258D01*
X138341301Y-118143030D01*
X138320784Y-118130733D01*
X138301571Y-118116483D01*
X138283847Y-118100419D01*
X138267783Y-118082695D01*
X138253533Y-118063482D01*
X138241236Y-118042965D01*
X138231008Y-118021341D01*
X138222950Y-117998819D01*
X138217138Y-117975615D01*
X138213628Y-117951954D01*
X138212454Y-117928062D01*
X138212454Y-117440562D01*
X138213628Y-117416670D01*
X138217138Y-117393009D01*
X138222950Y-117369805D01*
X138231008Y-117347283D01*
X138241236Y-117325659D01*
X138253533Y-117305142D01*
X138267783Y-117285929D01*
X138283847Y-117268205D01*
X138301571Y-117252141D01*
X138320784Y-117237891D01*
X138341301Y-117225594D01*
X138362925Y-117215366D01*
X138385447Y-117207308D01*
X138408651Y-117201496D01*
X138432312Y-117197986D01*
X138456204Y-117196812D01*
X139368704Y-117196812D01*
X139392596Y-117197986D01*
X139392596Y-117197986D01*
G37*
D17*
X138912454Y-117684312D03*
G04 #@! TD*
D11*
G04 #@! TO.C,R9*
G36*
X134042596Y-125472986D02*
X134066257Y-125476496D01*
X134089461Y-125482308D01*
X134111983Y-125490366D01*
X134133607Y-125500594D01*
X134154124Y-125512891D01*
X134173337Y-125527141D01*
X134191061Y-125543205D01*
X134207125Y-125560929D01*
X134221375Y-125580142D01*
X134233672Y-125600659D01*
X134243900Y-125622283D01*
X134251958Y-125644805D01*
X134257770Y-125668009D01*
X134261280Y-125691670D01*
X134262454Y-125715562D01*
X134262454Y-126203062D01*
X134261280Y-126226954D01*
X134257770Y-126250615D01*
X134251958Y-126273819D01*
X134243900Y-126296341D01*
X134233672Y-126317965D01*
X134221375Y-126338482D01*
X134207125Y-126357695D01*
X134191061Y-126375419D01*
X134173337Y-126391483D01*
X134154124Y-126405733D01*
X134133607Y-126418030D01*
X134111983Y-126428258D01*
X134089461Y-126436316D01*
X134066257Y-126442128D01*
X134042596Y-126445638D01*
X134018704Y-126446812D01*
X133106204Y-126446812D01*
X133082312Y-126445638D01*
X133058651Y-126442128D01*
X133035447Y-126436316D01*
X133012925Y-126428258D01*
X132991301Y-126418030D01*
X132970784Y-126405733D01*
X132951571Y-126391483D01*
X132933847Y-126375419D01*
X132917783Y-126357695D01*
X132903533Y-126338482D01*
X132891236Y-126317965D01*
X132881008Y-126296341D01*
X132872950Y-126273819D01*
X132867138Y-126250615D01*
X132863628Y-126226954D01*
X132862454Y-126203062D01*
X132862454Y-125715562D01*
X132863628Y-125691670D01*
X132867138Y-125668009D01*
X132872950Y-125644805D01*
X132881008Y-125622283D01*
X132891236Y-125600659D01*
X132903533Y-125580142D01*
X132917783Y-125560929D01*
X132933847Y-125543205D01*
X132951571Y-125527141D01*
X132970784Y-125512891D01*
X132991301Y-125500594D01*
X133012925Y-125490366D01*
X133035447Y-125482308D01*
X133058651Y-125476496D01*
X133082312Y-125472986D01*
X133106204Y-125471812D01*
X134018704Y-125471812D01*
X134042596Y-125472986D01*
X134042596Y-125472986D01*
G37*
D17*
X133562454Y-125959312D03*
D11*
G36*
X134042596Y-127347986D02*
X134066257Y-127351496D01*
X134089461Y-127357308D01*
X134111983Y-127365366D01*
X134133607Y-127375594D01*
X134154124Y-127387891D01*
X134173337Y-127402141D01*
X134191061Y-127418205D01*
X134207125Y-127435929D01*
X134221375Y-127455142D01*
X134233672Y-127475659D01*
X134243900Y-127497283D01*
X134251958Y-127519805D01*
X134257770Y-127543009D01*
X134261280Y-127566670D01*
X134262454Y-127590562D01*
X134262454Y-128078062D01*
X134261280Y-128101954D01*
X134257770Y-128125615D01*
X134251958Y-128148819D01*
X134243900Y-128171341D01*
X134233672Y-128192965D01*
X134221375Y-128213482D01*
X134207125Y-128232695D01*
X134191061Y-128250419D01*
X134173337Y-128266483D01*
X134154124Y-128280733D01*
X134133607Y-128293030D01*
X134111983Y-128303258D01*
X134089461Y-128311316D01*
X134066257Y-128317128D01*
X134042596Y-128320638D01*
X134018704Y-128321812D01*
X133106204Y-128321812D01*
X133082312Y-128320638D01*
X133058651Y-128317128D01*
X133035447Y-128311316D01*
X133012925Y-128303258D01*
X132991301Y-128293030D01*
X132970784Y-128280733D01*
X132951571Y-128266483D01*
X132933847Y-128250419D01*
X132917783Y-128232695D01*
X132903533Y-128213482D01*
X132891236Y-128192965D01*
X132881008Y-128171341D01*
X132872950Y-128148819D01*
X132867138Y-128125615D01*
X132863628Y-128101954D01*
X132862454Y-128078062D01*
X132862454Y-127590562D01*
X132863628Y-127566670D01*
X132867138Y-127543009D01*
X132872950Y-127519805D01*
X132881008Y-127497283D01*
X132891236Y-127475659D01*
X132903533Y-127455142D01*
X132917783Y-127435929D01*
X132933847Y-127418205D01*
X132951571Y-127402141D01*
X132970784Y-127387891D01*
X132991301Y-127375594D01*
X133012925Y-127365366D01*
X133035447Y-127357308D01*
X133058651Y-127351496D01*
X133082312Y-127347986D01*
X133106204Y-127346812D01*
X134018704Y-127346812D01*
X134042596Y-127347986D01*
X134042596Y-127347986D01*
G37*
D17*
X133562454Y-127834312D03*
G04 #@! TD*
D11*
G04 #@! TO.C,R10*
G36*
X137380739Y-91340187D02*
X137404400Y-91343697D01*
X137427604Y-91349509D01*
X137450126Y-91357567D01*
X137471750Y-91367795D01*
X137492267Y-91380092D01*
X137511480Y-91394342D01*
X137529204Y-91410406D01*
X137545268Y-91428130D01*
X137559518Y-91447343D01*
X137571815Y-91467860D01*
X137582043Y-91489484D01*
X137590101Y-91512006D01*
X137595913Y-91535210D01*
X137599423Y-91558871D01*
X137600597Y-91582763D01*
X137600597Y-92070263D01*
X137599423Y-92094155D01*
X137595913Y-92117816D01*
X137590101Y-92141020D01*
X137582043Y-92163542D01*
X137571815Y-92185166D01*
X137559518Y-92205683D01*
X137545268Y-92224896D01*
X137529204Y-92242620D01*
X137511480Y-92258684D01*
X137492267Y-92272934D01*
X137471750Y-92285231D01*
X137450126Y-92295459D01*
X137427604Y-92303517D01*
X137404400Y-92309329D01*
X137380739Y-92312839D01*
X137356847Y-92314013D01*
X136444347Y-92314013D01*
X136420455Y-92312839D01*
X136396794Y-92309329D01*
X136373590Y-92303517D01*
X136351068Y-92295459D01*
X136329444Y-92285231D01*
X136308927Y-92272934D01*
X136289714Y-92258684D01*
X136271990Y-92242620D01*
X136255926Y-92224896D01*
X136241676Y-92205683D01*
X136229379Y-92185166D01*
X136219151Y-92163542D01*
X136211093Y-92141020D01*
X136205281Y-92117816D01*
X136201771Y-92094155D01*
X136200597Y-92070263D01*
X136200597Y-91582763D01*
X136201771Y-91558871D01*
X136205281Y-91535210D01*
X136211093Y-91512006D01*
X136219151Y-91489484D01*
X136229379Y-91467860D01*
X136241676Y-91447343D01*
X136255926Y-91428130D01*
X136271990Y-91410406D01*
X136289714Y-91394342D01*
X136308927Y-91380092D01*
X136329444Y-91367795D01*
X136351068Y-91357567D01*
X136373590Y-91349509D01*
X136396794Y-91343697D01*
X136420455Y-91340187D01*
X136444347Y-91339013D01*
X137356847Y-91339013D01*
X137380739Y-91340187D01*
X137380739Y-91340187D01*
G37*
D17*
X136900597Y-91826513D03*
D11*
G36*
X137380739Y-93215187D02*
X137404400Y-93218697D01*
X137427604Y-93224509D01*
X137450126Y-93232567D01*
X137471750Y-93242795D01*
X137492267Y-93255092D01*
X137511480Y-93269342D01*
X137529204Y-93285406D01*
X137545268Y-93303130D01*
X137559518Y-93322343D01*
X137571815Y-93342860D01*
X137582043Y-93364484D01*
X137590101Y-93387006D01*
X137595913Y-93410210D01*
X137599423Y-93433871D01*
X137600597Y-93457763D01*
X137600597Y-93945263D01*
X137599423Y-93969155D01*
X137595913Y-93992816D01*
X137590101Y-94016020D01*
X137582043Y-94038542D01*
X137571815Y-94060166D01*
X137559518Y-94080683D01*
X137545268Y-94099896D01*
X137529204Y-94117620D01*
X137511480Y-94133684D01*
X137492267Y-94147934D01*
X137471750Y-94160231D01*
X137450126Y-94170459D01*
X137427604Y-94178517D01*
X137404400Y-94184329D01*
X137380739Y-94187839D01*
X137356847Y-94189013D01*
X136444347Y-94189013D01*
X136420455Y-94187839D01*
X136396794Y-94184329D01*
X136373590Y-94178517D01*
X136351068Y-94170459D01*
X136329444Y-94160231D01*
X136308927Y-94147934D01*
X136289714Y-94133684D01*
X136271990Y-94117620D01*
X136255926Y-94099896D01*
X136241676Y-94080683D01*
X136229379Y-94060166D01*
X136219151Y-94038542D01*
X136211093Y-94016020D01*
X136205281Y-93992816D01*
X136201771Y-93969155D01*
X136200597Y-93945263D01*
X136200597Y-93457763D01*
X136201771Y-93433871D01*
X136205281Y-93410210D01*
X136211093Y-93387006D01*
X136219151Y-93364484D01*
X136229379Y-93342860D01*
X136241676Y-93322343D01*
X136255926Y-93303130D01*
X136271990Y-93285406D01*
X136289714Y-93269342D01*
X136308927Y-93255092D01*
X136329444Y-93242795D01*
X136351068Y-93232567D01*
X136373590Y-93224509D01*
X136396794Y-93218697D01*
X136420455Y-93215187D01*
X136444347Y-93214013D01*
X137356847Y-93214013D01*
X137380739Y-93215187D01*
X137380739Y-93215187D01*
G37*
D17*
X136900597Y-93701513D03*
G04 #@! TD*
D11*
G04 #@! TO.C,R11*
G36*
X129818239Y-89152687D02*
X129841900Y-89156197D01*
X129865104Y-89162009D01*
X129887626Y-89170067D01*
X129909250Y-89180295D01*
X129929767Y-89192592D01*
X129948980Y-89206842D01*
X129966704Y-89222906D01*
X129982768Y-89240630D01*
X129997018Y-89259843D01*
X130009315Y-89280360D01*
X130019543Y-89301984D01*
X130027601Y-89324506D01*
X130033413Y-89347710D01*
X130036923Y-89371371D01*
X130038097Y-89395263D01*
X130038097Y-90307763D01*
X130036923Y-90331655D01*
X130033413Y-90355316D01*
X130027601Y-90378520D01*
X130019543Y-90401042D01*
X130009315Y-90422666D01*
X129997018Y-90443183D01*
X129982768Y-90462396D01*
X129966704Y-90480120D01*
X129948980Y-90496184D01*
X129929767Y-90510434D01*
X129909250Y-90522731D01*
X129887626Y-90532959D01*
X129865104Y-90541017D01*
X129841900Y-90546829D01*
X129818239Y-90550339D01*
X129794347Y-90551513D01*
X129306847Y-90551513D01*
X129282955Y-90550339D01*
X129259294Y-90546829D01*
X129236090Y-90541017D01*
X129213568Y-90532959D01*
X129191944Y-90522731D01*
X129171427Y-90510434D01*
X129152214Y-90496184D01*
X129134490Y-90480120D01*
X129118426Y-90462396D01*
X129104176Y-90443183D01*
X129091879Y-90422666D01*
X129081651Y-90401042D01*
X129073593Y-90378520D01*
X129067781Y-90355316D01*
X129064271Y-90331655D01*
X129063097Y-90307763D01*
X129063097Y-89395263D01*
X129064271Y-89371371D01*
X129067781Y-89347710D01*
X129073593Y-89324506D01*
X129081651Y-89301984D01*
X129091879Y-89280360D01*
X129104176Y-89259843D01*
X129118426Y-89240630D01*
X129134490Y-89222906D01*
X129152214Y-89206842D01*
X129171427Y-89192592D01*
X129191944Y-89180295D01*
X129213568Y-89170067D01*
X129236090Y-89162009D01*
X129259294Y-89156197D01*
X129282955Y-89152687D01*
X129306847Y-89151513D01*
X129794347Y-89151513D01*
X129818239Y-89152687D01*
X129818239Y-89152687D01*
G37*
D17*
X129550597Y-89851513D03*
D11*
G36*
X131693239Y-89152687D02*
X131716900Y-89156197D01*
X131740104Y-89162009D01*
X131762626Y-89170067D01*
X131784250Y-89180295D01*
X131804767Y-89192592D01*
X131823980Y-89206842D01*
X131841704Y-89222906D01*
X131857768Y-89240630D01*
X131872018Y-89259843D01*
X131884315Y-89280360D01*
X131894543Y-89301984D01*
X131902601Y-89324506D01*
X131908413Y-89347710D01*
X131911923Y-89371371D01*
X131913097Y-89395263D01*
X131913097Y-90307763D01*
X131911923Y-90331655D01*
X131908413Y-90355316D01*
X131902601Y-90378520D01*
X131894543Y-90401042D01*
X131884315Y-90422666D01*
X131872018Y-90443183D01*
X131857768Y-90462396D01*
X131841704Y-90480120D01*
X131823980Y-90496184D01*
X131804767Y-90510434D01*
X131784250Y-90522731D01*
X131762626Y-90532959D01*
X131740104Y-90541017D01*
X131716900Y-90546829D01*
X131693239Y-90550339D01*
X131669347Y-90551513D01*
X131181847Y-90551513D01*
X131157955Y-90550339D01*
X131134294Y-90546829D01*
X131111090Y-90541017D01*
X131088568Y-90532959D01*
X131066944Y-90522731D01*
X131046427Y-90510434D01*
X131027214Y-90496184D01*
X131009490Y-90480120D01*
X130993426Y-90462396D01*
X130979176Y-90443183D01*
X130966879Y-90422666D01*
X130956651Y-90401042D01*
X130948593Y-90378520D01*
X130942781Y-90355316D01*
X130939271Y-90331655D01*
X130938097Y-90307763D01*
X130938097Y-89395263D01*
X130939271Y-89371371D01*
X130942781Y-89347710D01*
X130948593Y-89324506D01*
X130956651Y-89301984D01*
X130966879Y-89280360D01*
X130979176Y-89259843D01*
X130993426Y-89240630D01*
X131009490Y-89222906D01*
X131027214Y-89206842D01*
X131046427Y-89192592D01*
X131066944Y-89180295D01*
X131088568Y-89170067D01*
X131111090Y-89162009D01*
X131134294Y-89156197D01*
X131157955Y-89152687D01*
X131181847Y-89151513D01*
X131669347Y-89151513D01*
X131693239Y-89152687D01*
X131693239Y-89152687D01*
G37*
D17*
X131425597Y-89851513D03*
G04 #@! TD*
D11*
G04 #@! TO.C,R12*
G36*
X135893239Y-89152687D02*
X135916900Y-89156197D01*
X135940104Y-89162009D01*
X135962626Y-89170067D01*
X135984250Y-89180295D01*
X136004767Y-89192592D01*
X136023980Y-89206842D01*
X136041704Y-89222906D01*
X136057768Y-89240630D01*
X136072018Y-89259843D01*
X136084315Y-89280360D01*
X136094543Y-89301984D01*
X136102601Y-89324506D01*
X136108413Y-89347710D01*
X136111923Y-89371371D01*
X136113097Y-89395263D01*
X136113097Y-90307763D01*
X136111923Y-90331655D01*
X136108413Y-90355316D01*
X136102601Y-90378520D01*
X136094543Y-90401042D01*
X136084315Y-90422666D01*
X136072018Y-90443183D01*
X136057768Y-90462396D01*
X136041704Y-90480120D01*
X136023980Y-90496184D01*
X136004767Y-90510434D01*
X135984250Y-90522731D01*
X135962626Y-90532959D01*
X135940104Y-90541017D01*
X135916900Y-90546829D01*
X135893239Y-90550339D01*
X135869347Y-90551513D01*
X135381847Y-90551513D01*
X135357955Y-90550339D01*
X135334294Y-90546829D01*
X135311090Y-90541017D01*
X135288568Y-90532959D01*
X135266944Y-90522731D01*
X135246427Y-90510434D01*
X135227214Y-90496184D01*
X135209490Y-90480120D01*
X135193426Y-90462396D01*
X135179176Y-90443183D01*
X135166879Y-90422666D01*
X135156651Y-90401042D01*
X135148593Y-90378520D01*
X135142781Y-90355316D01*
X135139271Y-90331655D01*
X135138097Y-90307763D01*
X135138097Y-89395263D01*
X135139271Y-89371371D01*
X135142781Y-89347710D01*
X135148593Y-89324506D01*
X135156651Y-89301984D01*
X135166879Y-89280360D01*
X135179176Y-89259843D01*
X135193426Y-89240630D01*
X135209490Y-89222906D01*
X135227214Y-89206842D01*
X135246427Y-89192592D01*
X135266944Y-89180295D01*
X135288568Y-89170067D01*
X135311090Y-89162009D01*
X135334294Y-89156197D01*
X135357955Y-89152687D01*
X135381847Y-89151513D01*
X135869347Y-89151513D01*
X135893239Y-89152687D01*
X135893239Y-89152687D01*
G37*
D17*
X135625597Y-89851513D03*
D11*
G36*
X134018239Y-89152687D02*
X134041900Y-89156197D01*
X134065104Y-89162009D01*
X134087626Y-89170067D01*
X134109250Y-89180295D01*
X134129767Y-89192592D01*
X134148980Y-89206842D01*
X134166704Y-89222906D01*
X134182768Y-89240630D01*
X134197018Y-89259843D01*
X134209315Y-89280360D01*
X134219543Y-89301984D01*
X134227601Y-89324506D01*
X134233413Y-89347710D01*
X134236923Y-89371371D01*
X134238097Y-89395263D01*
X134238097Y-90307763D01*
X134236923Y-90331655D01*
X134233413Y-90355316D01*
X134227601Y-90378520D01*
X134219543Y-90401042D01*
X134209315Y-90422666D01*
X134197018Y-90443183D01*
X134182768Y-90462396D01*
X134166704Y-90480120D01*
X134148980Y-90496184D01*
X134129767Y-90510434D01*
X134109250Y-90522731D01*
X134087626Y-90532959D01*
X134065104Y-90541017D01*
X134041900Y-90546829D01*
X134018239Y-90550339D01*
X133994347Y-90551513D01*
X133506847Y-90551513D01*
X133482955Y-90550339D01*
X133459294Y-90546829D01*
X133436090Y-90541017D01*
X133413568Y-90532959D01*
X133391944Y-90522731D01*
X133371427Y-90510434D01*
X133352214Y-90496184D01*
X133334490Y-90480120D01*
X133318426Y-90462396D01*
X133304176Y-90443183D01*
X133291879Y-90422666D01*
X133281651Y-90401042D01*
X133273593Y-90378520D01*
X133267781Y-90355316D01*
X133264271Y-90331655D01*
X133263097Y-90307763D01*
X133263097Y-89395263D01*
X133264271Y-89371371D01*
X133267781Y-89347710D01*
X133273593Y-89324506D01*
X133281651Y-89301984D01*
X133291879Y-89280360D01*
X133304176Y-89259843D01*
X133318426Y-89240630D01*
X133334490Y-89222906D01*
X133352214Y-89206842D01*
X133371427Y-89192592D01*
X133391944Y-89180295D01*
X133413568Y-89170067D01*
X133436090Y-89162009D01*
X133459294Y-89156197D01*
X133482955Y-89152687D01*
X133506847Y-89151513D01*
X133994347Y-89151513D01*
X134018239Y-89152687D01*
X134018239Y-89152687D01*
G37*
D17*
X133750597Y-89851513D03*
G04 #@! TD*
D11*
G04 #@! TO.C,R13*
G36*
X139580142Y-71913674D02*
X139603803Y-71917184D01*
X139627007Y-71922996D01*
X139649529Y-71931054D01*
X139671153Y-71941282D01*
X139691670Y-71953579D01*
X139710883Y-71967829D01*
X139728607Y-71983893D01*
X139744671Y-72001617D01*
X139758921Y-72020830D01*
X139771218Y-72041347D01*
X139781446Y-72062971D01*
X139789504Y-72085493D01*
X139795316Y-72108697D01*
X139798826Y-72132358D01*
X139800000Y-72156250D01*
X139800000Y-72643750D01*
X139798826Y-72667642D01*
X139795316Y-72691303D01*
X139789504Y-72714507D01*
X139781446Y-72737029D01*
X139771218Y-72758653D01*
X139758921Y-72779170D01*
X139744671Y-72798383D01*
X139728607Y-72816107D01*
X139710883Y-72832171D01*
X139691670Y-72846421D01*
X139671153Y-72858718D01*
X139649529Y-72868946D01*
X139627007Y-72877004D01*
X139603803Y-72882816D01*
X139580142Y-72886326D01*
X139556250Y-72887500D01*
X138643750Y-72887500D01*
X138619858Y-72886326D01*
X138596197Y-72882816D01*
X138572993Y-72877004D01*
X138550471Y-72868946D01*
X138528847Y-72858718D01*
X138508330Y-72846421D01*
X138489117Y-72832171D01*
X138471393Y-72816107D01*
X138455329Y-72798383D01*
X138441079Y-72779170D01*
X138428782Y-72758653D01*
X138418554Y-72737029D01*
X138410496Y-72714507D01*
X138404684Y-72691303D01*
X138401174Y-72667642D01*
X138400000Y-72643750D01*
X138400000Y-72156250D01*
X138401174Y-72132358D01*
X138404684Y-72108697D01*
X138410496Y-72085493D01*
X138418554Y-72062971D01*
X138428782Y-72041347D01*
X138441079Y-72020830D01*
X138455329Y-72001617D01*
X138471393Y-71983893D01*
X138489117Y-71967829D01*
X138508330Y-71953579D01*
X138528847Y-71941282D01*
X138550471Y-71931054D01*
X138572993Y-71922996D01*
X138596197Y-71917184D01*
X138619858Y-71913674D01*
X138643750Y-71912500D01*
X139556250Y-71912500D01*
X139580142Y-71913674D01*
X139580142Y-71913674D01*
G37*
D17*
X139100000Y-72400000D03*
D11*
G36*
X139580142Y-73788674D02*
X139603803Y-73792184D01*
X139627007Y-73797996D01*
X139649529Y-73806054D01*
X139671153Y-73816282D01*
X139691670Y-73828579D01*
X139710883Y-73842829D01*
X139728607Y-73858893D01*
X139744671Y-73876617D01*
X139758921Y-73895830D01*
X139771218Y-73916347D01*
X139781446Y-73937971D01*
X139789504Y-73960493D01*
X139795316Y-73983697D01*
X139798826Y-74007358D01*
X139800000Y-74031250D01*
X139800000Y-74518750D01*
X139798826Y-74542642D01*
X139795316Y-74566303D01*
X139789504Y-74589507D01*
X139781446Y-74612029D01*
X139771218Y-74633653D01*
X139758921Y-74654170D01*
X139744671Y-74673383D01*
X139728607Y-74691107D01*
X139710883Y-74707171D01*
X139691670Y-74721421D01*
X139671153Y-74733718D01*
X139649529Y-74743946D01*
X139627007Y-74752004D01*
X139603803Y-74757816D01*
X139580142Y-74761326D01*
X139556250Y-74762500D01*
X138643750Y-74762500D01*
X138619858Y-74761326D01*
X138596197Y-74757816D01*
X138572993Y-74752004D01*
X138550471Y-74743946D01*
X138528847Y-74733718D01*
X138508330Y-74721421D01*
X138489117Y-74707171D01*
X138471393Y-74691107D01*
X138455329Y-74673383D01*
X138441079Y-74654170D01*
X138428782Y-74633653D01*
X138418554Y-74612029D01*
X138410496Y-74589507D01*
X138404684Y-74566303D01*
X138401174Y-74542642D01*
X138400000Y-74518750D01*
X138400000Y-74031250D01*
X138401174Y-74007358D01*
X138404684Y-73983697D01*
X138410496Y-73960493D01*
X138418554Y-73937971D01*
X138428782Y-73916347D01*
X138441079Y-73895830D01*
X138455329Y-73876617D01*
X138471393Y-73858893D01*
X138489117Y-73842829D01*
X138508330Y-73828579D01*
X138528847Y-73816282D01*
X138550471Y-73806054D01*
X138572993Y-73797996D01*
X138596197Y-73792184D01*
X138619858Y-73788674D01*
X138643750Y-73787500D01*
X139556250Y-73787500D01*
X139580142Y-73788674D01*
X139580142Y-73788674D01*
G37*
D17*
X139100000Y-74275000D03*
G04 #@! TD*
D11*
G04 #@! TO.C,R14*
G36*
X132880142Y-82951174D02*
X132903803Y-82954684D01*
X132927007Y-82960496D01*
X132949529Y-82968554D01*
X132971153Y-82978782D01*
X132991670Y-82991079D01*
X133010883Y-83005329D01*
X133028607Y-83021393D01*
X133044671Y-83039117D01*
X133058921Y-83058330D01*
X133071218Y-83078847D01*
X133081446Y-83100471D01*
X133089504Y-83122993D01*
X133095316Y-83146197D01*
X133098826Y-83169858D01*
X133100000Y-83193750D01*
X133100000Y-83681250D01*
X133098826Y-83705142D01*
X133095316Y-83728803D01*
X133089504Y-83752007D01*
X133081446Y-83774529D01*
X133071218Y-83796153D01*
X133058921Y-83816670D01*
X133044671Y-83835883D01*
X133028607Y-83853607D01*
X133010883Y-83869671D01*
X132991670Y-83883921D01*
X132971153Y-83896218D01*
X132949529Y-83906446D01*
X132927007Y-83914504D01*
X132903803Y-83920316D01*
X132880142Y-83923826D01*
X132856250Y-83925000D01*
X131943750Y-83925000D01*
X131919858Y-83923826D01*
X131896197Y-83920316D01*
X131872993Y-83914504D01*
X131850471Y-83906446D01*
X131828847Y-83896218D01*
X131808330Y-83883921D01*
X131789117Y-83869671D01*
X131771393Y-83853607D01*
X131755329Y-83835883D01*
X131741079Y-83816670D01*
X131728782Y-83796153D01*
X131718554Y-83774529D01*
X131710496Y-83752007D01*
X131704684Y-83728803D01*
X131701174Y-83705142D01*
X131700000Y-83681250D01*
X131700000Y-83193750D01*
X131701174Y-83169858D01*
X131704684Y-83146197D01*
X131710496Y-83122993D01*
X131718554Y-83100471D01*
X131728782Y-83078847D01*
X131741079Y-83058330D01*
X131755329Y-83039117D01*
X131771393Y-83021393D01*
X131789117Y-83005329D01*
X131808330Y-82991079D01*
X131828847Y-82978782D01*
X131850471Y-82968554D01*
X131872993Y-82960496D01*
X131896197Y-82954684D01*
X131919858Y-82951174D01*
X131943750Y-82950000D01*
X132856250Y-82950000D01*
X132880142Y-82951174D01*
X132880142Y-82951174D01*
G37*
D17*
X132400000Y-83437500D03*
D11*
G36*
X132880142Y-81076174D02*
X132903803Y-81079684D01*
X132927007Y-81085496D01*
X132949529Y-81093554D01*
X132971153Y-81103782D01*
X132991670Y-81116079D01*
X133010883Y-81130329D01*
X133028607Y-81146393D01*
X133044671Y-81164117D01*
X133058921Y-81183330D01*
X133071218Y-81203847D01*
X133081446Y-81225471D01*
X133089504Y-81247993D01*
X133095316Y-81271197D01*
X133098826Y-81294858D01*
X133100000Y-81318750D01*
X133100000Y-81806250D01*
X133098826Y-81830142D01*
X133095316Y-81853803D01*
X133089504Y-81877007D01*
X133081446Y-81899529D01*
X133071218Y-81921153D01*
X133058921Y-81941670D01*
X133044671Y-81960883D01*
X133028607Y-81978607D01*
X133010883Y-81994671D01*
X132991670Y-82008921D01*
X132971153Y-82021218D01*
X132949529Y-82031446D01*
X132927007Y-82039504D01*
X132903803Y-82045316D01*
X132880142Y-82048826D01*
X132856250Y-82050000D01*
X131943750Y-82050000D01*
X131919858Y-82048826D01*
X131896197Y-82045316D01*
X131872993Y-82039504D01*
X131850471Y-82031446D01*
X131828847Y-82021218D01*
X131808330Y-82008921D01*
X131789117Y-81994671D01*
X131771393Y-81978607D01*
X131755329Y-81960883D01*
X131741079Y-81941670D01*
X131728782Y-81921153D01*
X131718554Y-81899529D01*
X131710496Y-81877007D01*
X131704684Y-81853803D01*
X131701174Y-81830142D01*
X131700000Y-81806250D01*
X131700000Y-81318750D01*
X131701174Y-81294858D01*
X131704684Y-81271197D01*
X131710496Y-81247993D01*
X131718554Y-81225471D01*
X131728782Y-81203847D01*
X131741079Y-81183330D01*
X131755329Y-81164117D01*
X131771393Y-81146393D01*
X131789117Y-81130329D01*
X131808330Y-81116079D01*
X131828847Y-81103782D01*
X131850471Y-81093554D01*
X131872993Y-81085496D01*
X131896197Y-81079684D01*
X131919858Y-81076174D01*
X131943750Y-81075000D01*
X132856250Y-81075000D01*
X132880142Y-81076174D01*
X132880142Y-81076174D01*
G37*
D17*
X132400000Y-81562500D03*
G04 #@! TD*
D11*
G04 #@! TO.C,R15*
G36*
X172180142Y-93451174D02*
X172203803Y-93454684D01*
X172227007Y-93460496D01*
X172249529Y-93468554D01*
X172271153Y-93478782D01*
X172291670Y-93491079D01*
X172310883Y-93505329D01*
X172328607Y-93521393D01*
X172344671Y-93539117D01*
X172358921Y-93558330D01*
X172371218Y-93578847D01*
X172381446Y-93600471D01*
X172389504Y-93622993D01*
X172395316Y-93646197D01*
X172398826Y-93669858D01*
X172400000Y-93693750D01*
X172400000Y-94181250D01*
X172398826Y-94205142D01*
X172395316Y-94228803D01*
X172389504Y-94252007D01*
X172381446Y-94274529D01*
X172371218Y-94296153D01*
X172358921Y-94316670D01*
X172344671Y-94335883D01*
X172328607Y-94353607D01*
X172310883Y-94369671D01*
X172291670Y-94383921D01*
X172271153Y-94396218D01*
X172249529Y-94406446D01*
X172227007Y-94414504D01*
X172203803Y-94420316D01*
X172180142Y-94423826D01*
X172156250Y-94425000D01*
X171243750Y-94425000D01*
X171219858Y-94423826D01*
X171196197Y-94420316D01*
X171172993Y-94414504D01*
X171150471Y-94406446D01*
X171128847Y-94396218D01*
X171108330Y-94383921D01*
X171089117Y-94369671D01*
X171071393Y-94353607D01*
X171055329Y-94335883D01*
X171041079Y-94316670D01*
X171028782Y-94296153D01*
X171018554Y-94274529D01*
X171010496Y-94252007D01*
X171004684Y-94228803D01*
X171001174Y-94205142D01*
X171000000Y-94181250D01*
X171000000Y-93693750D01*
X171001174Y-93669858D01*
X171004684Y-93646197D01*
X171010496Y-93622993D01*
X171018554Y-93600471D01*
X171028782Y-93578847D01*
X171041079Y-93558330D01*
X171055329Y-93539117D01*
X171071393Y-93521393D01*
X171089117Y-93505329D01*
X171108330Y-93491079D01*
X171128847Y-93478782D01*
X171150471Y-93468554D01*
X171172993Y-93460496D01*
X171196197Y-93454684D01*
X171219858Y-93451174D01*
X171243750Y-93450000D01*
X172156250Y-93450000D01*
X172180142Y-93451174D01*
X172180142Y-93451174D01*
G37*
D17*
X171700000Y-93937500D03*
D11*
G36*
X172180142Y-91576174D02*
X172203803Y-91579684D01*
X172227007Y-91585496D01*
X172249529Y-91593554D01*
X172271153Y-91603782D01*
X172291670Y-91616079D01*
X172310883Y-91630329D01*
X172328607Y-91646393D01*
X172344671Y-91664117D01*
X172358921Y-91683330D01*
X172371218Y-91703847D01*
X172381446Y-91725471D01*
X172389504Y-91747993D01*
X172395316Y-91771197D01*
X172398826Y-91794858D01*
X172400000Y-91818750D01*
X172400000Y-92306250D01*
X172398826Y-92330142D01*
X172395316Y-92353803D01*
X172389504Y-92377007D01*
X172381446Y-92399529D01*
X172371218Y-92421153D01*
X172358921Y-92441670D01*
X172344671Y-92460883D01*
X172328607Y-92478607D01*
X172310883Y-92494671D01*
X172291670Y-92508921D01*
X172271153Y-92521218D01*
X172249529Y-92531446D01*
X172227007Y-92539504D01*
X172203803Y-92545316D01*
X172180142Y-92548826D01*
X172156250Y-92550000D01*
X171243750Y-92550000D01*
X171219858Y-92548826D01*
X171196197Y-92545316D01*
X171172993Y-92539504D01*
X171150471Y-92531446D01*
X171128847Y-92521218D01*
X171108330Y-92508921D01*
X171089117Y-92494671D01*
X171071393Y-92478607D01*
X171055329Y-92460883D01*
X171041079Y-92441670D01*
X171028782Y-92421153D01*
X171018554Y-92399529D01*
X171010496Y-92377007D01*
X171004684Y-92353803D01*
X171001174Y-92330142D01*
X171000000Y-92306250D01*
X171000000Y-91818750D01*
X171001174Y-91794858D01*
X171004684Y-91771197D01*
X171010496Y-91747993D01*
X171018554Y-91725471D01*
X171028782Y-91703847D01*
X171041079Y-91683330D01*
X171055329Y-91664117D01*
X171071393Y-91646393D01*
X171089117Y-91630329D01*
X171108330Y-91616079D01*
X171128847Y-91603782D01*
X171150471Y-91593554D01*
X171172993Y-91585496D01*
X171196197Y-91579684D01*
X171219858Y-91576174D01*
X171243750Y-91575000D01*
X172156250Y-91575000D01*
X172180142Y-91576174D01*
X172180142Y-91576174D01*
G37*
D17*
X171700000Y-92062500D03*
G04 #@! TD*
D11*
G04 #@! TO.C,R16*
G36*
X146305142Y-74001174D02*
X146328803Y-74004684D01*
X146352007Y-74010496D01*
X146374529Y-74018554D01*
X146396153Y-74028782D01*
X146416670Y-74041079D01*
X146435883Y-74055329D01*
X146453607Y-74071393D01*
X146469671Y-74089117D01*
X146483921Y-74108330D01*
X146496218Y-74128847D01*
X146506446Y-74150471D01*
X146514504Y-74172993D01*
X146520316Y-74196197D01*
X146523826Y-74219858D01*
X146525000Y-74243750D01*
X146525000Y-75156250D01*
X146523826Y-75180142D01*
X146520316Y-75203803D01*
X146514504Y-75227007D01*
X146506446Y-75249529D01*
X146496218Y-75271153D01*
X146483921Y-75291670D01*
X146469671Y-75310883D01*
X146453607Y-75328607D01*
X146435883Y-75344671D01*
X146416670Y-75358921D01*
X146396153Y-75371218D01*
X146374529Y-75381446D01*
X146352007Y-75389504D01*
X146328803Y-75395316D01*
X146305142Y-75398826D01*
X146281250Y-75400000D01*
X145793750Y-75400000D01*
X145769858Y-75398826D01*
X145746197Y-75395316D01*
X145722993Y-75389504D01*
X145700471Y-75381446D01*
X145678847Y-75371218D01*
X145658330Y-75358921D01*
X145639117Y-75344671D01*
X145621393Y-75328607D01*
X145605329Y-75310883D01*
X145591079Y-75291670D01*
X145578782Y-75271153D01*
X145568554Y-75249529D01*
X145560496Y-75227007D01*
X145554684Y-75203803D01*
X145551174Y-75180142D01*
X145550000Y-75156250D01*
X145550000Y-74243750D01*
X145551174Y-74219858D01*
X145554684Y-74196197D01*
X145560496Y-74172993D01*
X145568554Y-74150471D01*
X145578782Y-74128847D01*
X145591079Y-74108330D01*
X145605329Y-74089117D01*
X145621393Y-74071393D01*
X145639117Y-74055329D01*
X145658330Y-74041079D01*
X145678847Y-74028782D01*
X145700471Y-74018554D01*
X145722993Y-74010496D01*
X145746197Y-74004684D01*
X145769858Y-74001174D01*
X145793750Y-74000000D01*
X146281250Y-74000000D01*
X146305142Y-74001174D01*
X146305142Y-74001174D01*
G37*
D17*
X146037500Y-74700000D03*
D11*
G36*
X144430142Y-74001174D02*
X144453803Y-74004684D01*
X144477007Y-74010496D01*
X144499529Y-74018554D01*
X144521153Y-74028782D01*
X144541670Y-74041079D01*
X144560883Y-74055329D01*
X144578607Y-74071393D01*
X144594671Y-74089117D01*
X144608921Y-74108330D01*
X144621218Y-74128847D01*
X144631446Y-74150471D01*
X144639504Y-74172993D01*
X144645316Y-74196197D01*
X144648826Y-74219858D01*
X144650000Y-74243750D01*
X144650000Y-75156250D01*
X144648826Y-75180142D01*
X144645316Y-75203803D01*
X144639504Y-75227007D01*
X144631446Y-75249529D01*
X144621218Y-75271153D01*
X144608921Y-75291670D01*
X144594671Y-75310883D01*
X144578607Y-75328607D01*
X144560883Y-75344671D01*
X144541670Y-75358921D01*
X144521153Y-75371218D01*
X144499529Y-75381446D01*
X144477007Y-75389504D01*
X144453803Y-75395316D01*
X144430142Y-75398826D01*
X144406250Y-75400000D01*
X143918750Y-75400000D01*
X143894858Y-75398826D01*
X143871197Y-75395316D01*
X143847993Y-75389504D01*
X143825471Y-75381446D01*
X143803847Y-75371218D01*
X143783330Y-75358921D01*
X143764117Y-75344671D01*
X143746393Y-75328607D01*
X143730329Y-75310883D01*
X143716079Y-75291670D01*
X143703782Y-75271153D01*
X143693554Y-75249529D01*
X143685496Y-75227007D01*
X143679684Y-75203803D01*
X143676174Y-75180142D01*
X143675000Y-75156250D01*
X143675000Y-74243750D01*
X143676174Y-74219858D01*
X143679684Y-74196197D01*
X143685496Y-74172993D01*
X143693554Y-74150471D01*
X143703782Y-74128847D01*
X143716079Y-74108330D01*
X143730329Y-74089117D01*
X143746393Y-74071393D01*
X143764117Y-74055329D01*
X143783330Y-74041079D01*
X143803847Y-74028782D01*
X143825471Y-74018554D01*
X143847993Y-74010496D01*
X143871197Y-74004684D01*
X143894858Y-74001174D01*
X143918750Y-74000000D01*
X144406250Y-74000000D01*
X144430142Y-74001174D01*
X144430142Y-74001174D01*
G37*
D17*
X144162500Y-74700000D03*
G04 #@! TD*
D11*
G04 #@! TO.C,R18*
G36*
X140080142Y-63451174D02*
X140103803Y-63454684D01*
X140127007Y-63460496D01*
X140149529Y-63468554D01*
X140171153Y-63478782D01*
X140191670Y-63491079D01*
X140210883Y-63505329D01*
X140228607Y-63521393D01*
X140244671Y-63539117D01*
X140258921Y-63558330D01*
X140271218Y-63578847D01*
X140281446Y-63600471D01*
X140289504Y-63622993D01*
X140295316Y-63646197D01*
X140298826Y-63669858D01*
X140300000Y-63693750D01*
X140300000Y-64181250D01*
X140298826Y-64205142D01*
X140295316Y-64228803D01*
X140289504Y-64252007D01*
X140281446Y-64274529D01*
X140271218Y-64296153D01*
X140258921Y-64316670D01*
X140244671Y-64335883D01*
X140228607Y-64353607D01*
X140210883Y-64369671D01*
X140191670Y-64383921D01*
X140171153Y-64396218D01*
X140149529Y-64406446D01*
X140127007Y-64414504D01*
X140103803Y-64420316D01*
X140080142Y-64423826D01*
X140056250Y-64425000D01*
X139143750Y-64425000D01*
X139119858Y-64423826D01*
X139096197Y-64420316D01*
X139072993Y-64414504D01*
X139050471Y-64406446D01*
X139028847Y-64396218D01*
X139008330Y-64383921D01*
X138989117Y-64369671D01*
X138971393Y-64353607D01*
X138955329Y-64335883D01*
X138941079Y-64316670D01*
X138928782Y-64296153D01*
X138918554Y-64274529D01*
X138910496Y-64252007D01*
X138904684Y-64228803D01*
X138901174Y-64205142D01*
X138900000Y-64181250D01*
X138900000Y-63693750D01*
X138901174Y-63669858D01*
X138904684Y-63646197D01*
X138910496Y-63622993D01*
X138918554Y-63600471D01*
X138928782Y-63578847D01*
X138941079Y-63558330D01*
X138955329Y-63539117D01*
X138971393Y-63521393D01*
X138989117Y-63505329D01*
X139008330Y-63491079D01*
X139028847Y-63478782D01*
X139050471Y-63468554D01*
X139072993Y-63460496D01*
X139096197Y-63454684D01*
X139119858Y-63451174D01*
X139143750Y-63450000D01*
X140056250Y-63450000D01*
X140080142Y-63451174D01*
X140080142Y-63451174D01*
G37*
D17*
X139600000Y-63937500D03*
D11*
G36*
X140080142Y-61576174D02*
X140103803Y-61579684D01*
X140127007Y-61585496D01*
X140149529Y-61593554D01*
X140171153Y-61603782D01*
X140191670Y-61616079D01*
X140210883Y-61630329D01*
X140228607Y-61646393D01*
X140244671Y-61664117D01*
X140258921Y-61683330D01*
X140271218Y-61703847D01*
X140281446Y-61725471D01*
X140289504Y-61747993D01*
X140295316Y-61771197D01*
X140298826Y-61794858D01*
X140300000Y-61818750D01*
X140300000Y-62306250D01*
X140298826Y-62330142D01*
X140295316Y-62353803D01*
X140289504Y-62377007D01*
X140281446Y-62399529D01*
X140271218Y-62421153D01*
X140258921Y-62441670D01*
X140244671Y-62460883D01*
X140228607Y-62478607D01*
X140210883Y-62494671D01*
X140191670Y-62508921D01*
X140171153Y-62521218D01*
X140149529Y-62531446D01*
X140127007Y-62539504D01*
X140103803Y-62545316D01*
X140080142Y-62548826D01*
X140056250Y-62550000D01*
X139143750Y-62550000D01*
X139119858Y-62548826D01*
X139096197Y-62545316D01*
X139072993Y-62539504D01*
X139050471Y-62531446D01*
X139028847Y-62521218D01*
X139008330Y-62508921D01*
X138989117Y-62494671D01*
X138971393Y-62478607D01*
X138955329Y-62460883D01*
X138941079Y-62441670D01*
X138928782Y-62421153D01*
X138918554Y-62399529D01*
X138910496Y-62377007D01*
X138904684Y-62353803D01*
X138901174Y-62330142D01*
X138900000Y-62306250D01*
X138900000Y-61818750D01*
X138901174Y-61794858D01*
X138904684Y-61771197D01*
X138910496Y-61747993D01*
X138918554Y-61725471D01*
X138928782Y-61703847D01*
X138941079Y-61683330D01*
X138955329Y-61664117D01*
X138971393Y-61646393D01*
X138989117Y-61630329D01*
X139008330Y-61616079D01*
X139028847Y-61603782D01*
X139050471Y-61593554D01*
X139072993Y-61585496D01*
X139096197Y-61579684D01*
X139119858Y-61576174D01*
X139143750Y-61575000D01*
X140056250Y-61575000D01*
X140080142Y-61576174D01*
X140080142Y-61576174D01*
G37*
D17*
X139600000Y-62062500D03*
G04 #@! TD*
D11*
G04 #@! TO.C,R19*
G36*
X149467642Y-67001174D02*
X149491303Y-67004684D01*
X149514507Y-67010496D01*
X149537029Y-67018554D01*
X149558653Y-67028782D01*
X149579170Y-67041079D01*
X149598383Y-67055329D01*
X149616107Y-67071393D01*
X149632171Y-67089117D01*
X149646421Y-67108330D01*
X149658718Y-67128847D01*
X149668946Y-67150471D01*
X149677004Y-67172993D01*
X149682816Y-67196197D01*
X149686326Y-67219858D01*
X149687500Y-67243750D01*
X149687500Y-68156250D01*
X149686326Y-68180142D01*
X149682816Y-68203803D01*
X149677004Y-68227007D01*
X149668946Y-68249529D01*
X149658718Y-68271153D01*
X149646421Y-68291670D01*
X149632171Y-68310883D01*
X149616107Y-68328607D01*
X149598383Y-68344671D01*
X149579170Y-68358921D01*
X149558653Y-68371218D01*
X149537029Y-68381446D01*
X149514507Y-68389504D01*
X149491303Y-68395316D01*
X149467642Y-68398826D01*
X149443750Y-68400000D01*
X148956250Y-68400000D01*
X148932358Y-68398826D01*
X148908697Y-68395316D01*
X148885493Y-68389504D01*
X148862971Y-68381446D01*
X148841347Y-68371218D01*
X148820830Y-68358921D01*
X148801617Y-68344671D01*
X148783893Y-68328607D01*
X148767829Y-68310883D01*
X148753579Y-68291670D01*
X148741282Y-68271153D01*
X148731054Y-68249529D01*
X148722996Y-68227007D01*
X148717184Y-68203803D01*
X148713674Y-68180142D01*
X148712500Y-68156250D01*
X148712500Y-67243750D01*
X148713674Y-67219858D01*
X148717184Y-67196197D01*
X148722996Y-67172993D01*
X148731054Y-67150471D01*
X148741282Y-67128847D01*
X148753579Y-67108330D01*
X148767829Y-67089117D01*
X148783893Y-67071393D01*
X148801617Y-67055329D01*
X148820830Y-67041079D01*
X148841347Y-67028782D01*
X148862971Y-67018554D01*
X148885493Y-67010496D01*
X148908697Y-67004684D01*
X148932358Y-67001174D01*
X148956250Y-67000000D01*
X149443750Y-67000000D01*
X149467642Y-67001174D01*
X149467642Y-67001174D01*
G37*
D17*
X149200000Y-67700000D03*
D11*
G36*
X151342642Y-67001174D02*
X151366303Y-67004684D01*
X151389507Y-67010496D01*
X151412029Y-67018554D01*
X151433653Y-67028782D01*
X151454170Y-67041079D01*
X151473383Y-67055329D01*
X151491107Y-67071393D01*
X151507171Y-67089117D01*
X151521421Y-67108330D01*
X151533718Y-67128847D01*
X151543946Y-67150471D01*
X151552004Y-67172993D01*
X151557816Y-67196197D01*
X151561326Y-67219858D01*
X151562500Y-67243750D01*
X151562500Y-68156250D01*
X151561326Y-68180142D01*
X151557816Y-68203803D01*
X151552004Y-68227007D01*
X151543946Y-68249529D01*
X151533718Y-68271153D01*
X151521421Y-68291670D01*
X151507171Y-68310883D01*
X151491107Y-68328607D01*
X151473383Y-68344671D01*
X151454170Y-68358921D01*
X151433653Y-68371218D01*
X151412029Y-68381446D01*
X151389507Y-68389504D01*
X151366303Y-68395316D01*
X151342642Y-68398826D01*
X151318750Y-68400000D01*
X150831250Y-68400000D01*
X150807358Y-68398826D01*
X150783697Y-68395316D01*
X150760493Y-68389504D01*
X150737971Y-68381446D01*
X150716347Y-68371218D01*
X150695830Y-68358921D01*
X150676617Y-68344671D01*
X150658893Y-68328607D01*
X150642829Y-68310883D01*
X150628579Y-68291670D01*
X150616282Y-68271153D01*
X150606054Y-68249529D01*
X150597996Y-68227007D01*
X150592184Y-68203803D01*
X150588674Y-68180142D01*
X150587500Y-68156250D01*
X150587500Y-67243750D01*
X150588674Y-67219858D01*
X150592184Y-67196197D01*
X150597996Y-67172993D01*
X150606054Y-67150471D01*
X150616282Y-67128847D01*
X150628579Y-67108330D01*
X150642829Y-67089117D01*
X150658893Y-67071393D01*
X150676617Y-67055329D01*
X150695830Y-67041079D01*
X150716347Y-67028782D01*
X150737971Y-67018554D01*
X150760493Y-67010496D01*
X150783697Y-67004684D01*
X150807358Y-67001174D01*
X150831250Y-67000000D01*
X151318750Y-67000000D01*
X151342642Y-67001174D01*
X151342642Y-67001174D01*
G37*
D17*
X151075000Y-67700000D03*
G04 #@! TD*
D11*
G04 #@! TO.C,R20*
G36*
X139580142Y-67651174D02*
X139603803Y-67654684D01*
X139627007Y-67660496D01*
X139649529Y-67668554D01*
X139671153Y-67678782D01*
X139691670Y-67691079D01*
X139710883Y-67705329D01*
X139728607Y-67721393D01*
X139744671Y-67739117D01*
X139758921Y-67758330D01*
X139771218Y-67778847D01*
X139781446Y-67800471D01*
X139789504Y-67822993D01*
X139795316Y-67846197D01*
X139798826Y-67869858D01*
X139800000Y-67893750D01*
X139800000Y-68381250D01*
X139798826Y-68405142D01*
X139795316Y-68428803D01*
X139789504Y-68452007D01*
X139781446Y-68474529D01*
X139771218Y-68496153D01*
X139758921Y-68516670D01*
X139744671Y-68535883D01*
X139728607Y-68553607D01*
X139710883Y-68569671D01*
X139691670Y-68583921D01*
X139671153Y-68596218D01*
X139649529Y-68606446D01*
X139627007Y-68614504D01*
X139603803Y-68620316D01*
X139580142Y-68623826D01*
X139556250Y-68625000D01*
X138643750Y-68625000D01*
X138619858Y-68623826D01*
X138596197Y-68620316D01*
X138572993Y-68614504D01*
X138550471Y-68606446D01*
X138528847Y-68596218D01*
X138508330Y-68583921D01*
X138489117Y-68569671D01*
X138471393Y-68553607D01*
X138455329Y-68535883D01*
X138441079Y-68516670D01*
X138428782Y-68496153D01*
X138418554Y-68474529D01*
X138410496Y-68452007D01*
X138404684Y-68428803D01*
X138401174Y-68405142D01*
X138400000Y-68381250D01*
X138400000Y-67893750D01*
X138401174Y-67869858D01*
X138404684Y-67846197D01*
X138410496Y-67822993D01*
X138418554Y-67800471D01*
X138428782Y-67778847D01*
X138441079Y-67758330D01*
X138455329Y-67739117D01*
X138471393Y-67721393D01*
X138489117Y-67705329D01*
X138508330Y-67691079D01*
X138528847Y-67678782D01*
X138550471Y-67668554D01*
X138572993Y-67660496D01*
X138596197Y-67654684D01*
X138619858Y-67651174D01*
X138643750Y-67650000D01*
X139556250Y-67650000D01*
X139580142Y-67651174D01*
X139580142Y-67651174D01*
G37*
D17*
X139100000Y-68137500D03*
D11*
G36*
X139580142Y-65776174D02*
X139603803Y-65779684D01*
X139627007Y-65785496D01*
X139649529Y-65793554D01*
X139671153Y-65803782D01*
X139691670Y-65816079D01*
X139710883Y-65830329D01*
X139728607Y-65846393D01*
X139744671Y-65864117D01*
X139758921Y-65883330D01*
X139771218Y-65903847D01*
X139781446Y-65925471D01*
X139789504Y-65947993D01*
X139795316Y-65971197D01*
X139798826Y-65994858D01*
X139800000Y-66018750D01*
X139800000Y-66506250D01*
X139798826Y-66530142D01*
X139795316Y-66553803D01*
X139789504Y-66577007D01*
X139781446Y-66599529D01*
X139771218Y-66621153D01*
X139758921Y-66641670D01*
X139744671Y-66660883D01*
X139728607Y-66678607D01*
X139710883Y-66694671D01*
X139691670Y-66708921D01*
X139671153Y-66721218D01*
X139649529Y-66731446D01*
X139627007Y-66739504D01*
X139603803Y-66745316D01*
X139580142Y-66748826D01*
X139556250Y-66750000D01*
X138643750Y-66750000D01*
X138619858Y-66748826D01*
X138596197Y-66745316D01*
X138572993Y-66739504D01*
X138550471Y-66731446D01*
X138528847Y-66721218D01*
X138508330Y-66708921D01*
X138489117Y-66694671D01*
X138471393Y-66678607D01*
X138455329Y-66660883D01*
X138441079Y-66641670D01*
X138428782Y-66621153D01*
X138418554Y-66599529D01*
X138410496Y-66577007D01*
X138404684Y-66553803D01*
X138401174Y-66530142D01*
X138400000Y-66506250D01*
X138400000Y-66018750D01*
X138401174Y-65994858D01*
X138404684Y-65971197D01*
X138410496Y-65947993D01*
X138418554Y-65925471D01*
X138428782Y-65903847D01*
X138441079Y-65883330D01*
X138455329Y-65864117D01*
X138471393Y-65846393D01*
X138489117Y-65830329D01*
X138508330Y-65816079D01*
X138528847Y-65803782D01*
X138550471Y-65793554D01*
X138572993Y-65785496D01*
X138596197Y-65779684D01*
X138619858Y-65776174D01*
X138643750Y-65775000D01*
X139556250Y-65775000D01*
X139580142Y-65776174D01*
X139580142Y-65776174D01*
G37*
D17*
X139100000Y-66262500D03*
G04 #@! TD*
D11*
G04 #@! TO.C,R21*
G36*
X149780142Y-71651174D02*
X149803803Y-71654684D01*
X149827007Y-71660496D01*
X149849529Y-71668554D01*
X149871153Y-71678782D01*
X149891670Y-71691079D01*
X149910883Y-71705329D01*
X149928607Y-71721393D01*
X149944671Y-71739117D01*
X149958921Y-71758330D01*
X149971218Y-71778847D01*
X149981446Y-71800471D01*
X149989504Y-71822993D01*
X149995316Y-71846197D01*
X149998826Y-71869858D01*
X150000000Y-71893750D01*
X150000000Y-72381250D01*
X149998826Y-72405142D01*
X149995316Y-72428803D01*
X149989504Y-72452007D01*
X149981446Y-72474529D01*
X149971218Y-72496153D01*
X149958921Y-72516670D01*
X149944671Y-72535883D01*
X149928607Y-72553607D01*
X149910883Y-72569671D01*
X149891670Y-72583921D01*
X149871153Y-72596218D01*
X149849529Y-72606446D01*
X149827007Y-72614504D01*
X149803803Y-72620316D01*
X149780142Y-72623826D01*
X149756250Y-72625000D01*
X148843750Y-72625000D01*
X148819858Y-72623826D01*
X148796197Y-72620316D01*
X148772993Y-72614504D01*
X148750471Y-72606446D01*
X148728847Y-72596218D01*
X148708330Y-72583921D01*
X148689117Y-72569671D01*
X148671393Y-72553607D01*
X148655329Y-72535883D01*
X148641079Y-72516670D01*
X148628782Y-72496153D01*
X148618554Y-72474529D01*
X148610496Y-72452007D01*
X148604684Y-72428803D01*
X148601174Y-72405142D01*
X148600000Y-72381250D01*
X148600000Y-71893750D01*
X148601174Y-71869858D01*
X148604684Y-71846197D01*
X148610496Y-71822993D01*
X148618554Y-71800471D01*
X148628782Y-71778847D01*
X148641079Y-71758330D01*
X148655329Y-71739117D01*
X148671393Y-71721393D01*
X148689117Y-71705329D01*
X148708330Y-71691079D01*
X148728847Y-71678782D01*
X148750471Y-71668554D01*
X148772993Y-71660496D01*
X148796197Y-71654684D01*
X148819858Y-71651174D01*
X148843750Y-71650000D01*
X149756250Y-71650000D01*
X149780142Y-71651174D01*
X149780142Y-71651174D01*
G37*
D17*
X149300000Y-72137500D03*
D11*
G36*
X149780142Y-69776174D02*
X149803803Y-69779684D01*
X149827007Y-69785496D01*
X149849529Y-69793554D01*
X149871153Y-69803782D01*
X149891670Y-69816079D01*
X149910883Y-69830329D01*
X149928607Y-69846393D01*
X149944671Y-69864117D01*
X149958921Y-69883330D01*
X149971218Y-69903847D01*
X149981446Y-69925471D01*
X149989504Y-69947993D01*
X149995316Y-69971197D01*
X149998826Y-69994858D01*
X150000000Y-70018750D01*
X150000000Y-70506250D01*
X149998826Y-70530142D01*
X149995316Y-70553803D01*
X149989504Y-70577007D01*
X149981446Y-70599529D01*
X149971218Y-70621153D01*
X149958921Y-70641670D01*
X149944671Y-70660883D01*
X149928607Y-70678607D01*
X149910883Y-70694671D01*
X149891670Y-70708921D01*
X149871153Y-70721218D01*
X149849529Y-70731446D01*
X149827007Y-70739504D01*
X149803803Y-70745316D01*
X149780142Y-70748826D01*
X149756250Y-70750000D01*
X148843750Y-70750000D01*
X148819858Y-70748826D01*
X148796197Y-70745316D01*
X148772993Y-70739504D01*
X148750471Y-70731446D01*
X148728847Y-70721218D01*
X148708330Y-70708921D01*
X148689117Y-70694671D01*
X148671393Y-70678607D01*
X148655329Y-70660883D01*
X148641079Y-70641670D01*
X148628782Y-70621153D01*
X148618554Y-70599529D01*
X148610496Y-70577007D01*
X148604684Y-70553803D01*
X148601174Y-70530142D01*
X148600000Y-70506250D01*
X148600000Y-70018750D01*
X148601174Y-69994858D01*
X148604684Y-69971197D01*
X148610496Y-69947993D01*
X148618554Y-69925471D01*
X148628782Y-69903847D01*
X148641079Y-69883330D01*
X148655329Y-69864117D01*
X148671393Y-69846393D01*
X148689117Y-69830329D01*
X148708330Y-69816079D01*
X148728847Y-69803782D01*
X148750471Y-69793554D01*
X148772993Y-69785496D01*
X148796197Y-69779684D01*
X148819858Y-69776174D01*
X148843750Y-69775000D01*
X149756250Y-69775000D01*
X149780142Y-69776174D01*
X149780142Y-69776174D01*
G37*
D17*
X149300000Y-70262500D03*
G04 #@! TD*
D11*
G04 #@! TO.C,R22*
G36*
X155305142Y-60901174D02*
X155328803Y-60904684D01*
X155352007Y-60910496D01*
X155374529Y-60918554D01*
X155396153Y-60928782D01*
X155416670Y-60941079D01*
X155435883Y-60955329D01*
X155453607Y-60971393D01*
X155469671Y-60989117D01*
X155483921Y-61008330D01*
X155496218Y-61028847D01*
X155506446Y-61050471D01*
X155514504Y-61072993D01*
X155520316Y-61096197D01*
X155523826Y-61119858D01*
X155525000Y-61143750D01*
X155525000Y-62056250D01*
X155523826Y-62080142D01*
X155520316Y-62103803D01*
X155514504Y-62127007D01*
X155506446Y-62149529D01*
X155496218Y-62171153D01*
X155483921Y-62191670D01*
X155469671Y-62210883D01*
X155453607Y-62228607D01*
X155435883Y-62244671D01*
X155416670Y-62258921D01*
X155396153Y-62271218D01*
X155374529Y-62281446D01*
X155352007Y-62289504D01*
X155328803Y-62295316D01*
X155305142Y-62298826D01*
X155281250Y-62300000D01*
X154793750Y-62300000D01*
X154769858Y-62298826D01*
X154746197Y-62295316D01*
X154722993Y-62289504D01*
X154700471Y-62281446D01*
X154678847Y-62271218D01*
X154658330Y-62258921D01*
X154639117Y-62244671D01*
X154621393Y-62228607D01*
X154605329Y-62210883D01*
X154591079Y-62191670D01*
X154578782Y-62171153D01*
X154568554Y-62149529D01*
X154560496Y-62127007D01*
X154554684Y-62103803D01*
X154551174Y-62080142D01*
X154550000Y-62056250D01*
X154550000Y-61143750D01*
X154551174Y-61119858D01*
X154554684Y-61096197D01*
X154560496Y-61072993D01*
X154568554Y-61050471D01*
X154578782Y-61028847D01*
X154591079Y-61008330D01*
X154605329Y-60989117D01*
X154621393Y-60971393D01*
X154639117Y-60955329D01*
X154658330Y-60941079D01*
X154678847Y-60928782D01*
X154700471Y-60918554D01*
X154722993Y-60910496D01*
X154746197Y-60904684D01*
X154769858Y-60901174D01*
X154793750Y-60900000D01*
X155281250Y-60900000D01*
X155305142Y-60901174D01*
X155305142Y-60901174D01*
G37*
D17*
X155037500Y-61600000D03*
D11*
G36*
X153430142Y-60901174D02*
X153453803Y-60904684D01*
X153477007Y-60910496D01*
X153499529Y-60918554D01*
X153521153Y-60928782D01*
X153541670Y-60941079D01*
X153560883Y-60955329D01*
X153578607Y-60971393D01*
X153594671Y-60989117D01*
X153608921Y-61008330D01*
X153621218Y-61028847D01*
X153631446Y-61050471D01*
X153639504Y-61072993D01*
X153645316Y-61096197D01*
X153648826Y-61119858D01*
X153650000Y-61143750D01*
X153650000Y-62056250D01*
X153648826Y-62080142D01*
X153645316Y-62103803D01*
X153639504Y-62127007D01*
X153631446Y-62149529D01*
X153621218Y-62171153D01*
X153608921Y-62191670D01*
X153594671Y-62210883D01*
X153578607Y-62228607D01*
X153560883Y-62244671D01*
X153541670Y-62258921D01*
X153521153Y-62271218D01*
X153499529Y-62281446D01*
X153477007Y-62289504D01*
X153453803Y-62295316D01*
X153430142Y-62298826D01*
X153406250Y-62300000D01*
X152918750Y-62300000D01*
X152894858Y-62298826D01*
X152871197Y-62295316D01*
X152847993Y-62289504D01*
X152825471Y-62281446D01*
X152803847Y-62271218D01*
X152783330Y-62258921D01*
X152764117Y-62244671D01*
X152746393Y-62228607D01*
X152730329Y-62210883D01*
X152716079Y-62191670D01*
X152703782Y-62171153D01*
X152693554Y-62149529D01*
X152685496Y-62127007D01*
X152679684Y-62103803D01*
X152676174Y-62080142D01*
X152675000Y-62056250D01*
X152675000Y-61143750D01*
X152676174Y-61119858D01*
X152679684Y-61096197D01*
X152685496Y-61072993D01*
X152693554Y-61050471D01*
X152703782Y-61028847D01*
X152716079Y-61008330D01*
X152730329Y-60989117D01*
X152746393Y-60971393D01*
X152764117Y-60955329D01*
X152783330Y-60941079D01*
X152803847Y-60928782D01*
X152825471Y-60918554D01*
X152847993Y-60910496D01*
X152871197Y-60904684D01*
X152894858Y-60901174D01*
X152918750Y-60900000D01*
X153406250Y-60900000D01*
X153430142Y-60901174D01*
X153430142Y-60901174D01*
G37*
D17*
X153162500Y-61600000D03*
G04 #@! TD*
D11*
G04 #@! TO.C,R23*
G36*
X158080142Y-67788674D02*
X158103803Y-67792184D01*
X158127007Y-67797996D01*
X158149529Y-67806054D01*
X158171153Y-67816282D01*
X158191670Y-67828579D01*
X158210883Y-67842829D01*
X158228607Y-67858893D01*
X158244671Y-67876617D01*
X158258921Y-67895830D01*
X158271218Y-67916347D01*
X158281446Y-67937971D01*
X158289504Y-67960493D01*
X158295316Y-67983697D01*
X158298826Y-68007358D01*
X158300000Y-68031250D01*
X158300000Y-68518750D01*
X158298826Y-68542642D01*
X158295316Y-68566303D01*
X158289504Y-68589507D01*
X158281446Y-68612029D01*
X158271218Y-68633653D01*
X158258921Y-68654170D01*
X158244671Y-68673383D01*
X158228607Y-68691107D01*
X158210883Y-68707171D01*
X158191670Y-68721421D01*
X158171153Y-68733718D01*
X158149529Y-68743946D01*
X158127007Y-68752004D01*
X158103803Y-68757816D01*
X158080142Y-68761326D01*
X158056250Y-68762500D01*
X157143750Y-68762500D01*
X157119858Y-68761326D01*
X157096197Y-68757816D01*
X157072993Y-68752004D01*
X157050471Y-68743946D01*
X157028847Y-68733718D01*
X157008330Y-68721421D01*
X156989117Y-68707171D01*
X156971393Y-68691107D01*
X156955329Y-68673383D01*
X156941079Y-68654170D01*
X156928782Y-68633653D01*
X156918554Y-68612029D01*
X156910496Y-68589507D01*
X156904684Y-68566303D01*
X156901174Y-68542642D01*
X156900000Y-68518750D01*
X156900000Y-68031250D01*
X156901174Y-68007358D01*
X156904684Y-67983697D01*
X156910496Y-67960493D01*
X156918554Y-67937971D01*
X156928782Y-67916347D01*
X156941079Y-67895830D01*
X156955329Y-67876617D01*
X156971393Y-67858893D01*
X156989117Y-67842829D01*
X157008330Y-67828579D01*
X157028847Y-67816282D01*
X157050471Y-67806054D01*
X157072993Y-67797996D01*
X157096197Y-67792184D01*
X157119858Y-67788674D01*
X157143750Y-67787500D01*
X158056250Y-67787500D01*
X158080142Y-67788674D01*
X158080142Y-67788674D01*
G37*
D17*
X157600000Y-68275000D03*
D11*
G36*
X158080142Y-65913674D02*
X158103803Y-65917184D01*
X158127007Y-65922996D01*
X158149529Y-65931054D01*
X158171153Y-65941282D01*
X158191670Y-65953579D01*
X158210883Y-65967829D01*
X158228607Y-65983893D01*
X158244671Y-66001617D01*
X158258921Y-66020830D01*
X158271218Y-66041347D01*
X158281446Y-66062971D01*
X158289504Y-66085493D01*
X158295316Y-66108697D01*
X158298826Y-66132358D01*
X158300000Y-66156250D01*
X158300000Y-66643750D01*
X158298826Y-66667642D01*
X158295316Y-66691303D01*
X158289504Y-66714507D01*
X158281446Y-66737029D01*
X158271218Y-66758653D01*
X158258921Y-66779170D01*
X158244671Y-66798383D01*
X158228607Y-66816107D01*
X158210883Y-66832171D01*
X158191670Y-66846421D01*
X158171153Y-66858718D01*
X158149529Y-66868946D01*
X158127007Y-66877004D01*
X158103803Y-66882816D01*
X158080142Y-66886326D01*
X158056250Y-66887500D01*
X157143750Y-66887500D01*
X157119858Y-66886326D01*
X157096197Y-66882816D01*
X157072993Y-66877004D01*
X157050471Y-66868946D01*
X157028847Y-66858718D01*
X157008330Y-66846421D01*
X156989117Y-66832171D01*
X156971393Y-66816107D01*
X156955329Y-66798383D01*
X156941079Y-66779170D01*
X156928782Y-66758653D01*
X156918554Y-66737029D01*
X156910496Y-66714507D01*
X156904684Y-66691303D01*
X156901174Y-66667642D01*
X156900000Y-66643750D01*
X156900000Y-66156250D01*
X156901174Y-66132358D01*
X156904684Y-66108697D01*
X156910496Y-66085493D01*
X156918554Y-66062971D01*
X156928782Y-66041347D01*
X156941079Y-66020830D01*
X156955329Y-66001617D01*
X156971393Y-65983893D01*
X156989117Y-65967829D01*
X157008330Y-65953579D01*
X157028847Y-65941282D01*
X157050471Y-65931054D01*
X157072993Y-65922996D01*
X157096197Y-65917184D01*
X157119858Y-65913674D01*
X157143750Y-65912500D01*
X158056250Y-65912500D01*
X158080142Y-65913674D01*
X158080142Y-65913674D01*
G37*
D17*
X157600000Y-66400000D03*
G04 #@! TD*
D11*
G04 #@! TO.C,R24*
G36*
X160542642Y-60901174D02*
X160566303Y-60904684D01*
X160589507Y-60910496D01*
X160612029Y-60918554D01*
X160633653Y-60928782D01*
X160654170Y-60941079D01*
X160673383Y-60955329D01*
X160691107Y-60971393D01*
X160707171Y-60989117D01*
X160721421Y-61008330D01*
X160733718Y-61028847D01*
X160743946Y-61050471D01*
X160752004Y-61072993D01*
X160757816Y-61096197D01*
X160761326Y-61119858D01*
X160762500Y-61143750D01*
X160762500Y-62056250D01*
X160761326Y-62080142D01*
X160757816Y-62103803D01*
X160752004Y-62127007D01*
X160743946Y-62149529D01*
X160733718Y-62171153D01*
X160721421Y-62191670D01*
X160707171Y-62210883D01*
X160691107Y-62228607D01*
X160673383Y-62244671D01*
X160654170Y-62258921D01*
X160633653Y-62271218D01*
X160612029Y-62281446D01*
X160589507Y-62289504D01*
X160566303Y-62295316D01*
X160542642Y-62298826D01*
X160518750Y-62300000D01*
X160031250Y-62300000D01*
X160007358Y-62298826D01*
X159983697Y-62295316D01*
X159960493Y-62289504D01*
X159937971Y-62281446D01*
X159916347Y-62271218D01*
X159895830Y-62258921D01*
X159876617Y-62244671D01*
X159858893Y-62228607D01*
X159842829Y-62210883D01*
X159828579Y-62191670D01*
X159816282Y-62171153D01*
X159806054Y-62149529D01*
X159797996Y-62127007D01*
X159792184Y-62103803D01*
X159788674Y-62080142D01*
X159787500Y-62056250D01*
X159787500Y-61143750D01*
X159788674Y-61119858D01*
X159792184Y-61096197D01*
X159797996Y-61072993D01*
X159806054Y-61050471D01*
X159816282Y-61028847D01*
X159828579Y-61008330D01*
X159842829Y-60989117D01*
X159858893Y-60971393D01*
X159876617Y-60955329D01*
X159895830Y-60941079D01*
X159916347Y-60928782D01*
X159937971Y-60918554D01*
X159960493Y-60910496D01*
X159983697Y-60904684D01*
X160007358Y-60901174D01*
X160031250Y-60900000D01*
X160518750Y-60900000D01*
X160542642Y-60901174D01*
X160542642Y-60901174D01*
G37*
D17*
X160275000Y-61600000D03*
D11*
G36*
X158667642Y-60901174D02*
X158691303Y-60904684D01*
X158714507Y-60910496D01*
X158737029Y-60918554D01*
X158758653Y-60928782D01*
X158779170Y-60941079D01*
X158798383Y-60955329D01*
X158816107Y-60971393D01*
X158832171Y-60989117D01*
X158846421Y-61008330D01*
X158858718Y-61028847D01*
X158868946Y-61050471D01*
X158877004Y-61072993D01*
X158882816Y-61096197D01*
X158886326Y-61119858D01*
X158887500Y-61143750D01*
X158887500Y-62056250D01*
X158886326Y-62080142D01*
X158882816Y-62103803D01*
X158877004Y-62127007D01*
X158868946Y-62149529D01*
X158858718Y-62171153D01*
X158846421Y-62191670D01*
X158832171Y-62210883D01*
X158816107Y-62228607D01*
X158798383Y-62244671D01*
X158779170Y-62258921D01*
X158758653Y-62271218D01*
X158737029Y-62281446D01*
X158714507Y-62289504D01*
X158691303Y-62295316D01*
X158667642Y-62298826D01*
X158643750Y-62300000D01*
X158156250Y-62300000D01*
X158132358Y-62298826D01*
X158108697Y-62295316D01*
X158085493Y-62289504D01*
X158062971Y-62281446D01*
X158041347Y-62271218D01*
X158020830Y-62258921D01*
X158001617Y-62244671D01*
X157983893Y-62228607D01*
X157967829Y-62210883D01*
X157953579Y-62191670D01*
X157941282Y-62171153D01*
X157931054Y-62149529D01*
X157922996Y-62127007D01*
X157917184Y-62103803D01*
X157913674Y-62080142D01*
X157912500Y-62056250D01*
X157912500Y-61143750D01*
X157913674Y-61119858D01*
X157917184Y-61096197D01*
X157922996Y-61072993D01*
X157931054Y-61050471D01*
X157941282Y-61028847D01*
X157953579Y-61008330D01*
X157967829Y-60989117D01*
X157983893Y-60971393D01*
X158001617Y-60955329D01*
X158020830Y-60941079D01*
X158041347Y-60928782D01*
X158062971Y-60918554D01*
X158085493Y-60910496D01*
X158108697Y-60904684D01*
X158132358Y-60901174D01*
X158156250Y-60900000D01*
X158643750Y-60900000D01*
X158667642Y-60901174D01*
X158667642Y-60901174D01*
G37*
D17*
X158400000Y-61600000D03*
G04 #@! TD*
D11*
G04 #@! TO.C,R25*
G36*
X160667642Y-74201174D02*
X160691303Y-74204684D01*
X160714507Y-74210496D01*
X160737029Y-74218554D01*
X160758653Y-74228782D01*
X160779170Y-74241079D01*
X160798383Y-74255329D01*
X160816107Y-74271393D01*
X160832171Y-74289117D01*
X160846421Y-74308330D01*
X160858718Y-74328847D01*
X160868946Y-74350471D01*
X160877004Y-74372993D01*
X160882816Y-74396197D01*
X160886326Y-74419858D01*
X160887500Y-74443750D01*
X160887500Y-75356250D01*
X160886326Y-75380142D01*
X160882816Y-75403803D01*
X160877004Y-75427007D01*
X160868946Y-75449529D01*
X160858718Y-75471153D01*
X160846421Y-75491670D01*
X160832171Y-75510883D01*
X160816107Y-75528607D01*
X160798383Y-75544671D01*
X160779170Y-75558921D01*
X160758653Y-75571218D01*
X160737029Y-75581446D01*
X160714507Y-75589504D01*
X160691303Y-75595316D01*
X160667642Y-75598826D01*
X160643750Y-75600000D01*
X160156250Y-75600000D01*
X160132358Y-75598826D01*
X160108697Y-75595316D01*
X160085493Y-75589504D01*
X160062971Y-75581446D01*
X160041347Y-75571218D01*
X160020830Y-75558921D01*
X160001617Y-75544671D01*
X159983893Y-75528607D01*
X159967829Y-75510883D01*
X159953579Y-75491670D01*
X159941282Y-75471153D01*
X159931054Y-75449529D01*
X159922996Y-75427007D01*
X159917184Y-75403803D01*
X159913674Y-75380142D01*
X159912500Y-75356250D01*
X159912500Y-74443750D01*
X159913674Y-74419858D01*
X159917184Y-74396197D01*
X159922996Y-74372993D01*
X159931054Y-74350471D01*
X159941282Y-74328847D01*
X159953579Y-74308330D01*
X159967829Y-74289117D01*
X159983893Y-74271393D01*
X160001617Y-74255329D01*
X160020830Y-74241079D01*
X160041347Y-74228782D01*
X160062971Y-74218554D01*
X160085493Y-74210496D01*
X160108697Y-74204684D01*
X160132358Y-74201174D01*
X160156250Y-74200000D01*
X160643750Y-74200000D01*
X160667642Y-74201174D01*
X160667642Y-74201174D01*
G37*
D17*
X160400000Y-74900000D03*
D11*
G36*
X162542642Y-74201174D02*
X162566303Y-74204684D01*
X162589507Y-74210496D01*
X162612029Y-74218554D01*
X162633653Y-74228782D01*
X162654170Y-74241079D01*
X162673383Y-74255329D01*
X162691107Y-74271393D01*
X162707171Y-74289117D01*
X162721421Y-74308330D01*
X162733718Y-74328847D01*
X162743946Y-74350471D01*
X162752004Y-74372993D01*
X162757816Y-74396197D01*
X162761326Y-74419858D01*
X162762500Y-74443750D01*
X162762500Y-75356250D01*
X162761326Y-75380142D01*
X162757816Y-75403803D01*
X162752004Y-75427007D01*
X162743946Y-75449529D01*
X162733718Y-75471153D01*
X162721421Y-75491670D01*
X162707171Y-75510883D01*
X162691107Y-75528607D01*
X162673383Y-75544671D01*
X162654170Y-75558921D01*
X162633653Y-75571218D01*
X162612029Y-75581446D01*
X162589507Y-75589504D01*
X162566303Y-75595316D01*
X162542642Y-75598826D01*
X162518750Y-75600000D01*
X162031250Y-75600000D01*
X162007358Y-75598826D01*
X161983697Y-75595316D01*
X161960493Y-75589504D01*
X161937971Y-75581446D01*
X161916347Y-75571218D01*
X161895830Y-75558921D01*
X161876617Y-75544671D01*
X161858893Y-75528607D01*
X161842829Y-75510883D01*
X161828579Y-75491670D01*
X161816282Y-75471153D01*
X161806054Y-75449529D01*
X161797996Y-75427007D01*
X161792184Y-75403803D01*
X161788674Y-75380142D01*
X161787500Y-75356250D01*
X161787500Y-74443750D01*
X161788674Y-74419858D01*
X161792184Y-74396197D01*
X161797996Y-74372993D01*
X161806054Y-74350471D01*
X161816282Y-74328847D01*
X161828579Y-74308330D01*
X161842829Y-74289117D01*
X161858893Y-74271393D01*
X161876617Y-74255329D01*
X161895830Y-74241079D01*
X161916347Y-74228782D01*
X161937971Y-74218554D01*
X161960493Y-74210496D01*
X161983697Y-74204684D01*
X162007358Y-74201174D01*
X162031250Y-74200000D01*
X162518750Y-74200000D01*
X162542642Y-74201174D01*
X162542642Y-74201174D01*
G37*
D17*
X162275000Y-74900000D03*
G04 #@! TD*
D11*
G04 #@! TO.C,R26*
G36*
X162567642Y-66801174D02*
X162591303Y-66804684D01*
X162614507Y-66810496D01*
X162637029Y-66818554D01*
X162658653Y-66828782D01*
X162679170Y-66841079D01*
X162698383Y-66855329D01*
X162716107Y-66871393D01*
X162732171Y-66889117D01*
X162746421Y-66908330D01*
X162758718Y-66928847D01*
X162768946Y-66950471D01*
X162777004Y-66972993D01*
X162782816Y-66996197D01*
X162786326Y-67019858D01*
X162787500Y-67043750D01*
X162787500Y-67956250D01*
X162786326Y-67980142D01*
X162782816Y-68003803D01*
X162777004Y-68027007D01*
X162768946Y-68049529D01*
X162758718Y-68071153D01*
X162746421Y-68091670D01*
X162732171Y-68110883D01*
X162716107Y-68128607D01*
X162698383Y-68144671D01*
X162679170Y-68158921D01*
X162658653Y-68171218D01*
X162637029Y-68181446D01*
X162614507Y-68189504D01*
X162591303Y-68195316D01*
X162567642Y-68198826D01*
X162543750Y-68200000D01*
X162056250Y-68200000D01*
X162032358Y-68198826D01*
X162008697Y-68195316D01*
X161985493Y-68189504D01*
X161962971Y-68181446D01*
X161941347Y-68171218D01*
X161920830Y-68158921D01*
X161901617Y-68144671D01*
X161883893Y-68128607D01*
X161867829Y-68110883D01*
X161853579Y-68091670D01*
X161841282Y-68071153D01*
X161831054Y-68049529D01*
X161822996Y-68027007D01*
X161817184Y-68003803D01*
X161813674Y-67980142D01*
X161812500Y-67956250D01*
X161812500Y-67043750D01*
X161813674Y-67019858D01*
X161817184Y-66996197D01*
X161822996Y-66972993D01*
X161831054Y-66950471D01*
X161841282Y-66928847D01*
X161853579Y-66908330D01*
X161867829Y-66889117D01*
X161883893Y-66871393D01*
X161901617Y-66855329D01*
X161920830Y-66841079D01*
X161941347Y-66828782D01*
X161962971Y-66818554D01*
X161985493Y-66810496D01*
X162008697Y-66804684D01*
X162032358Y-66801174D01*
X162056250Y-66800000D01*
X162543750Y-66800000D01*
X162567642Y-66801174D01*
X162567642Y-66801174D01*
G37*
D17*
X162300000Y-67500000D03*
D11*
G36*
X164442642Y-66801174D02*
X164466303Y-66804684D01*
X164489507Y-66810496D01*
X164512029Y-66818554D01*
X164533653Y-66828782D01*
X164554170Y-66841079D01*
X164573383Y-66855329D01*
X164591107Y-66871393D01*
X164607171Y-66889117D01*
X164621421Y-66908330D01*
X164633718Y-66928847D01*
X164643946Y-66950471D01*
X164652004Y-66972993D01*
X164657816Y-66996197D01*
X164661326Y-67019858D01*
X164662500Y-67043750D01*
X164662500Y-67956250D01*
X164661326Y-67980142D01*
X164657816Y-68003803D01*
X164652004Y-68027007D01*
X164643946Y-68049529D01*
X164633718Y-68071153D01*
X164621421Y-68091670D01*
X164607171Y-68110883D01*
X164591107Y-68128607D01*
X164573383Y-68144671D01*
X164554170Y-68158921D01*
X164533653Y-68171218D01*
X164512029Y-68181446D01*
X164489507Y-68189504D01*
X164466303Y-68195316D01*
X164442642Y-68198826D01*
X164418750Y-68200000D01*
X163931250Y-68200000D01*
X163907358Y-68198826D01*
X163883697Y-68195316D01*
X163860493Y-68189504D01*
X163837971Y-68181446D01*
X163816347Y-68171218D01*
X163795830Y-68158921D01*
X163776617Y-68144671D01*
X163758893Y-68128607D01*
X163742829Y-68110883D01*
X163728579Y-68091670D01*
X163716282Y-68071153D01*
X163706054Y-68049529D01*
X163697996Y-68027007D01*
X163692184Y-68003803D01*
X163688674Y-67980142D01*
X163687500Y-67956250D01*
X163687500Y-67043750D01*
X163688674Y-67019858D01*
X163692184Y-66996197D01*
X163697996Y-66972993D01*
X163706054Y-66950471D01*
X163716282Y-66928847D01*
X163728579Y-66908330D01*
X163742829Y-66889117D01*
X163758893Y-66871393D01*
X163776617Y-66855329D01*
X163795830Y-66841079D01*
X163816347Y-66828782D01*
X163837971Y-66818554D01*
X163860493Y-66810496D01*
X163883697Y-66804684D01*
X163907358Y-66801174D01*
X163931250Y-66800000D01*
X164418750Y-66800000D01*
X164442642Y-66801174D01*
X164442642Y-66801174D01*
G37*
D17*
X164175000Y-67500000D03*
G04 #@! TD*
D11*
G04 #@! TO.C,R27*
G36*
X171680142Y-70576174D02*
X171703803Y-70579684D01*
X171727007Y-70585496D01*
X171749529Y-70593554D01*
X171771153Y-70603782D01*
X171791670Y-70616079D01*
X171810883Y-70630329D01*
X171828607Y-70646393D01*
X171844671Y-70664117D01*
X171858921Y-70683330D01*
X171871218Y-70703847D01*
X171881446Y-70725471D01*
X171889504Y-70747993D01*
X171895316Y-70771197D01*
X171898826Y-70794858D01*
X171900000Y-70818750D01*
X171900000Y-71306250D01*
X171898826Y-71330142D01*
X171895316Y-71353803D01*
X171889504Y-71377007D01*
X171881446Y-71399529D01*
X171871218Y-71421153D01*
X171858921Y-71441670D01*
X171844671Y-71460883D01*
X171828607Y-71478607D01*
X171810883Y-71494671D01*
X171791670Y-71508921D01*
X171771153Y-71521218D01*
X171749529Y-71531446D01*
X171727007Y-71539504D01*
X171703803Y-71545316D01*
X171680142Y-71548826D01*
X171656250Y-71550000D01*
X170743750Y-71550000D01*
X170719858Y-71548826D01*
X170696197Y-71545316D01*
X170672993Y-71539504D01*
X170650471Y-71531446D01*
X170628847Y-71521218D01*
X170608330Y-71508921D01*
X170589117Y-71494671D01*
X170571393Y-71478607D01*
X170555329Y-71460883D01*
X170541079Y-71441670D01*
X170528782Y-71421153D01*
X170518554Y-71399529D01*
X170510496Y-71377007D01*
X170504684Y-71353803D01*
X170501174Y-71330142D01*
X170500000Y-71306250D01*
X170500000Y-70818750D01*
X170501174Y-70794858D01*
X170504684Y-70771197D01*
X170510496Y-70747993D01*
X170518554Y-70725471D01*
X170528782Y-70703847D01*
X170541079Y-70683330D01*
X170555329Y-70664117D01*
X170571393Y-70646393D01*
X170589117Y-70630329D01*
X170608330Y-70616079D01*
X170628847Y-70603782D01*
X170650471Y-70593554D01*
X170672993Y-70585496D01*
X170696197Y-70579684D01*
X170719858Y-70576174D01*
X170743750Y-70575000D01*
X171656250Y-70575000D01*
X171680142Y-70576174D01*
X171680142Y-70576174D01*
G37*
D17*
X171200000Y-71062500D03*
D11*
G36*
X171680142Y-72451174D02*
X171703803Y-72454684D01*
X171727007Y-72460496D01*
X171749529Y-72468554D01*
X171771153Y-72478782D01*
X171791670Y-72491079D01*
X171810883Y-72505329D01*
X171828607Y-72521393D01*
X171844671Y-72539117D01*
X171858921Y-72558330D01*
X171871218Y-72578847D01*
X171881446Y-72600471D01*
X171889504Y-72622993D01*
X171895316Y-72646197D01*
X171898826Y-72669858D01*
X171900000Y-72693750D01*
X171900000Y-73181250D01*
X171898826Y-73205142D01*
X171895316Y-73228803D01*
X171889504Y-73252007D01*
X171881446Y-73274529D01*
X171871218Y-73296153D01*
X171858921Y-73316670D01*
X171844671Y-73335883D01*
X171828607Y-73353607D01*
X171810883Y-73369671D01*
X171791670Y-73383921D01*
X171771153Y-73396218D01*
X171749529Y-73406446D01*
X171727007Y-73414504D01*
X171703803Y-73420316D01*
X171680142Y-73423826D01*
X171656250Y-73425000D01*
X170743750Y-73425000D01*
X170719858Y-73423826D01*
X170696197Y-73420316D01*
X170672993Y-73414504D01*
X170650471Y-73406446D01*
X170628847Y-73396218D01*
X170608330Y-73383921D01*
X170589117Y-73369671D01*
X170571393Y-73353607D01*
X170555329Y-73335883D01*
X170541079Y-73316670D01*
X170528782Y-73296153D01*
X170518554Y-73274529D01*
X170510496Y-73252007D01*
X170504684Y-73228803D01*
X170501174Y-73205142D01*
X170500000Y-73181250D01*
X170500000Y-72693750D01*
X170501174Y-72669858D01*
X170504684Y-72646197D01*
X170510496Y-72622993D01*
X170518554Y-72600471D01*
X170528782Y-72578847D01*
X170541079Y-72558330D01*
X170555329Y-72539117D01*
X170571393Y-72521393D01*
X170589117Y-72505329D01*
X170608330Y-72491079D01*
X170628847Y-72478782D01*
X170650471Y-72468554D01*
X170672993Y-72460496D01*
X170696197Y-72454684D01*
X170719858Y-72451174D01*
X170743750Y-72450000D01*
X171656250Y-72450000D01*
X171680142Y-72451174D01*
X171680142Y-72451174D01*
G37*
D17*
X171200000Y-72937500D03*
G04 #@! TD*
D11*
G04 #@! TO.C,R28*
G36*
X167242642Y-74201174D02*
X167266303Y-74204684D01*
X167289507Y-74210496D01*
X167312029Y-74218554D01*
X167333653Y-74228782D01*
X167354170Y-74241079D01*
X167373383Y-74255329D01*
X167391107Y-74271393D01*
X167407171Y-74289117D01*
X167421421Y-74308330D01*
X167433718Y-74328847D01*
X167443946Y-74350471D01*
X167452004Y-74372993D01*
X167457816Y-74396197D01*
X167461326Y-74419858D01*
X167462500Y-74443750D01*
X167462500Y-75356250D01*
X167461326Y-75380142D01*
X167457816Y-75403803D01*
X167452004Y-75427007D01*
X167443946Y-75449529D01*
X167433718Y-75471153D01*
X167421421Y-75491670D01*
X167407171Y-75510883D01*
X167391107Y-75528607D01*
X167373383Y-75544671D01*
X167354170Y-75558921D01*
X167333653Y-75571218D01*
X167312029Y-75581446D01*
X167289507Y-75589504D01*
X167266303Y-75595316D01*
X167242642Y-75598826D01*
X167218750Y-75600000D01*
X166731250Y-75600000D01*
X166707358Y-75598826D01*
X166683697Y-75595316D01*
X166660493Y-75589504D01*
X166637971Y-75581446D01*
X166616347Y-75571218D01*
X166595830Y-75558921D01*
X166576617Y-75544671D01*
X166558893Y-75528607D01*
X166542829Y-75510883D01*
X166528579Y-75491670D01*
X166516282Y-75471153D01*
X166506054Y-75449529D01*
X166497996Y-75427007D01*
X166492184Y-75403803D01*
X166488674Y-75380142D01*
X166487500Y-75356250D01*
X166487500Y-74443750D01*
X166488674Y-74419858D01*
X166492184Y-74396197D01*
X166497996Y-74372993D01*
X166506054Y-74350471D01*
X166516282Y-74328847D01*
X166528579Y-74308330D01*
X166542829Y-74289117D01*
X166558893Y-74271393D01*
X166576617Y-74255329D01*
X166595830Y-74241079D01*
X166616347Y-74228782D01*
X166637971Y-74218554D01*
X166660493Y-74210496D01*
X166683697Y-74204684D01*
X166707358Y-74201174D01*
X166731250Y-74200000D01*
X167218750Y-74200000D01*
X167242642Y-74201174D01*
X167242642Y-74201174D01*
G37*
D17*
X166975000Y-74900000D03*
D11*
G36*
X165367642Y-74201174D02*
X165391303Y-74204684D01*
X165414507Y-74210496D01*
X165437029Y-74218554D01*
X165458653Y-74228782D01*
X165479170Y-74241079D01*
X165498383Y-74255329D01*
X165516107Y-74271393D01*
X165532171Y-74289117D01*
X165546421Y-74308330D01*
X165558718Y-74328847D01*
X165568946Y-74350471D01*
X165577004Y-74372993D01*
X165582816Y-74396197D01*
X165586326Y-74419858D01*
X165587500Y-74443750D01*
X165587500Y-75356250D01*
X165586326Y-75380142D01*
X165582816Y-75403803D01*
X165577004Y-75427007D01*
X165568946Y-75449529D01*
X165558718Y-75471153D01*
X165546421Y-75491670D01*
X165532171Y-75510883D01*
X165516107Y-75528607D01*
X165498383Y-75544671D01*
X165479170Y-75558921D01*
X165458653Y-75571218D01*
X165437029Y-75581446D01*
X165414507Y-75589504D01*
X165391303Y-75595316D01*
X165367642Y-75598826D01*
X165343750Y-75600000D01*
X164856250Y-75600000D01*
X164832358Y-75598826D01*
X164808697Y-75595316D01*
X164785493Y-75589504D01*
X164762971Y-75581446D01*
X164741347Y-75571218D01*
X164720830Y-75558921D01*
X164701617Y-75544671D01*
X164683893Y-75528607D01*
X164667829Y-75510883D01*
X164653579Y-75491670D01*
X164641282Y-75471153D01*
X164631054Y-75449529D01*
X164622996Y-75427007D01*
X164617184Y-75403803D01*
X164613674Y-75380142D01*
X164612500Y-75356250D01*
X164612500Y-74443750D01*
X164613674Y-74419858D01*
X164617184Y-74396197D01*
X164622996Y-74372993D01*
X164631054Y-74350471D01*
X164641282Y-74328847D01*
X164653579Y-74308330D01*
X164667829Y-74289117D01*
X164683893Y-74271393D01*
X164701617Y-74255329D01*
X164720830Y-74241079D01*
X164741347Y-74228782D01*
X164762971Y-74218554D01*
X164785493Y-74210496D01*
X164808697Y-74204684D01*
X164832358Y-74201174D01*
X164856250Y-74200000D01*
X165343750Y-74200000D01*
X165367642Y-74201174D01*
X165367642Y-74201174D01*
G37*
D17*
X165100000Y-74900000D03*
G04 #@! TD*
D11*
G04 #@! TO.C,R29*
G36*
X153467642Y-74001174D02*
X153491303Y-74004684D01*
X153514507Y-74010496D01*
X153537029Y-74018554D01*
X153558653Y-74028782D01*
X153579170Y-74041079D01*
X153598383Y-74055329D01*
X153616107Y-74071393D01*
X153632171Y-74089117D01*
X153646421Y-74108330D01*
X153658718Y-74128847D01*
X153668946Y-74150471D01*
X153677004Y-74172993D01*
X153682816Y-74196197D01*
X153686326Y-74219858D01*
X153687500Y-74243750D01*
X153687500Y-75156250D01*
X153686326Y-75180142D01*
X153682816Y-75203803D01*
X153677004Y-75227007D01*
X153668946Y-75249529D01*
X153658718Y-75271153D01*
X153646421Y-75291670D01*
X153632171Y-75310883D01*
X153616107Y-75328607D01*
X153598383Y-75344671D01*
X153579170Y-75358921D01*
X153558653Y-75371218D01*
X153537029Y-75381446D01*
X153514507Y-75389504D01*
X153491303Y-75395316D01*
X153467642Y-75398826D01*
X153443750Y-75400000D01*
X152956250Y-75400000D01*
X152932358Y-75398826D01*
X152908697Y-75395316D01*
X152885493Y-75389504D01*
X152862971Y-75381446D01*
X152841347Y-75371218D01*
X152820830Y-75358921D01*
X152801617Y-75344671D01*
X152783893Y-75328607D01*
X152767829Y-75310883D01*
X152753579Y-75291670D01*
X152741282Y-75271153D01*
X152731054Y-75249529D01*
X152722996Y-75227007D01*
X152717184Y-75203803D01*
X152713674Y-75180142D01*
X152712500Y-75156250D01*
X152712500Y-74243750D01*
X152713674Y-74219858D01*
X152717184Y-74196197D01*
X152722996Y-74172993D01*
X152731054Y-74150471D01*
X152741282Y-74128847D01*
X152753579Y-74108330D01*
X152767829Y-74089117D01*
X152783893Y-74071393D01*
X152801617Y-74055329D01*
X152820830Y-74041079D01*
X152841347Y-74028782D01*
X152862971Y-74018554D01*
X152885493Y-74010496D01*
X152908697Y-74004684D01*
X152932358Y-74001174D01*
X152956250Y-74000000D01*
X153443750Y-74000000D01*
X153467642Y-74001174D01*
X153467642Y-74001174D01*
G37*
D17*
X153200000Y-74700000D03*
D11*
G36*
X155342642Y-74001174D02*
X155366303Y-74004684D01*
X155389507Y-74010496D01*
X155412029Y-74018554D01*
X155433653Y-74028782D01*
X155454170Y-74041079D01*
X155473383Y-74055329D01*
X155491107Y-74071393D01*
X155507171Y-74089117D01*
X155521421Y-74108330D01*
X155533718Y-74128847D01*
X155543946Y-74150471D01*
X155552004Y-74172993D01*
X155557816Y-74196197D01*
X155561326Y-74219858D01*
X155562500Y-74243750D01*
X155562500Y-75156250D01*
X155561326Y-75180142D01*
X155557816Y-75203803D01*
X155552004Y-75227007D01*
X155543946Y-75249529D01*
X155533718Y-75271153D01*
X155521421Y-75291670D01*
X155507171Y-75310883D01*
X155491107Y-75328607D01*
X155473383Y-75344671D01*
X155454170Y-75358921D01*
X155433653Y-75371218D01*
X155412029Y-75381446D01*
X155389507Y-75389504D01*
X155366303Y-75395316D01*
X155342642Y-75398826D01*
X155318750Y-75400000D01*
X154831250Y-75400000D01*
X154807358Y-75398826D01*
X154783697Y-75395316D01*
X154760493Y-75389504D01*
X154737971Y-75381446D01*
X154716347Y-75371218D01*
X154695830Y-75358921D01*
X154676617Y-75344671D01*
X154658893Y-75328607D01*
X154642829Y-75310883D01*
X154628579Y-75291670D01*
X154616282Y-75271153D01*
X154606054Y-75249529D01*
X154597996Y-75227007D01*
X154592184Y-75203803D01*
X154588674Y-75180142D01*
X154587500Y-75156250D01*
X154587500Y-74243750D01*
X154588674Y-74219858D01*
X154592184Y-74196197D01*
X154597996Y-74172993D01*
X154606054Y-74150471D01*
X154616282Y-74128847D01*
X154628579Y-74108330D01*
X154642829Y-74089117D01*
X154658893Y-74071393D01*
X154676617Y-74055329D01*
X154695830Y-74041079D01*
X154716347Y-74028782D01*
X154737971Y-74018554D01*
X154760493Y-74010496D01*
X154783697Y-74004684D01*
X154807358Y-74001174D01*
X154831250Y-74000000D01*
X155318750Y-74000000D01*
X155342642Y-74001174D01*
X155342642Y-74001174D01*
G37*
D17*
X155075000Y-74700000D03*
G04 #@! TD*
D11*
G04 #@! TO.C,R30*
G36*
X150342642Y-74001174D02*
X150366303Y-74004684D01*
X150389507Y-74010496D01*
X150412029Y-74018554D01*
X150433653Y-74028782D01*
X150454170Y-74041079D01*
X150473383Y-74055329D01*
X150491107Y-74071393D01*
X150507171Y-74089117D01*
X150521421Y-74108330D01*
X150533718Y-74128847D01*
X150543946Y-74150471D01*
X150552004Y-74172993D01*
X150557816Y-74196197D01*
X150561326Y-74219858D01*
X150562500Y-74243750D01*
X150562500Y-75156250D01*
X150561326Y-75180142D01*
X150557816Y-75203803D01*
X150552004Y-75227007D01*
X150543946Y-75249529D01*
X150533718Y-75271153D01*
X150521421Y-75291670D01*
X150507171Y-75310883D01*
X150491107Y-75328607D01*
X150473383Y-75344671D01*
X150454170Y-75358921D01*
X150433653Y-75371218D01*
X150412029Y-75381446D01*
X150389507Y-75389504D01*
X150366303Y-75395316D01*
X150342642Y-75398826D01*
X150318750Y-75400000D01*
X149831250Y-75400000D01*
X149807358Y-75398826D01*
X149783697Y-75395316D01*
X149760493Y-75389504D01*
X149737971Y-75381446D01*
X149716347Y-75371218D01*
X149695830Y-75358921D01*
X149676617Y-75344671D01*
X149658893Y-75328607D01*
X149642829Y-75310883D01*
X149628579Y-75291670D01*
X149616282Y-75271153D01*
X149606054Y-75249529D01*
X149597996Y-75227007D01*
X149592184Y-75203803D01*
X149588674Y-75180142D01*
X149587500Y-75156250D01*
X149587500Y-74243750D01*
X149588674Y-74219858D01*
X149592184Y-74196197D01*
X149597996Y-74172993D01*
X149606054Y-74150471D01*
X149616282Y-74128847D01*
X149628579Y-74108330D01*
X149642829Y-74089117D01*
X149658893Y-74071393D01*
X149676617Y-74055329D01*
X149695830Y-74041079D01*
X149716347Y-74028782D01*
X149737971Y-74018554D01*
X149760493Y-74010496D01*
X149783697Y-74004684D01*
X149807358Y-74001174D01*
X149831250Y-74000000D01*
X150318750Y-74000000D01*
X150342642Y-74001174D01*
X150342642Y-74001174D01*
G37*
D17*
X150075000Y-74700000D03*
D11*
G36*
X148467642Y-74001174D02*
X148491303Y-74004684D01*
X148514507Y-74010496D01*
X148537029Y-74018554D01*
X148558653Y-74028782D01*
X148579170Y-74041079D01*
X148598383Y-74055329D01*
X148616107Y-74071393D01*
X148632171Y-74089117D01*
X148646421Y-74108330D01*
X148658718Y-74128847D01*
X148668946Y-74150471D01*
X148677004Y-74172993D01*
X148682816Y-74196197D01*
X148686326Y-74219858D01*
X148687500Y-74243750D01*
X148687500Y-75156250D01*
X148686326Y-75180142D01*
X148682816Y-75203803D01*
X148677004Y-75227007D01*
X148668946Y-75249529D01*
X148658718Y-75271153D01*
X148646421Y-75291670D01*
X148632171Y-75310883D01*
X148616107Y-75328607D01*
X148598383Y-75344671D01*
X148579170Y-75358921D01*
X148558653Y-75371218D01*
X148537029Y-75381446D01*
X148514507Y-75389504D01*
X148491303Y-75395316D01*
X148467642Y-75398826D01*
X148443750Y-75400000D01*
X147956250Y-75400000D01*
X147932358Y-75398826D01*
X147908697Y-75395316D01*
X147885493Y-75389504D01*
X147862971Y-75381446D01*
X147841347Y-75371218D01*
X147820830Y-75358921D01*
X147801617Y-75344671D01*
X147783893Y-75328607D01*
X147767829Y-75310883D01*
X147753579Y-75291670D01*
X147741282Y-75271153D01*
X147731054Y-75249529D01*
X147722996Y-75227007D01*
X147717184Y-75203803D01*
X147713674Y-75180142D01*
X147712500Y-75156250D01*
X147712500Y-74243750D01*
X147713674Y-74219858D01*
X147717184Y-74196197D01*
X147722996Y-74172993D01*
X147731054Y-74150471D01*
X147741282Y-74128847D01*
X147753579Y-74108330D01*
X147767829Y-74089117D01*
X147783893Y-74071393D01*
X147801617Y-74055329D01*
X147820830Y-74041079D01*
X147841347Y-74028782D01*
X147862971Y-74018554D01*
X147885493Y-74010496D01*
X147908697Y-74004684D01*
X147932358Y-74001174D01*
X147956250Y-74000000D01*
X148443750Y-74000000D01*
X148467642Y-74001174D01*
X148467642Y-74001174D01*
G37*
D17*
X148200000Y-74700000D03*
G04 #@! TD*
D11*
G04 #@! TO.C,R31*
G36*
X144167642Y-131601174D02*
X144191303Y-131604684D01*
X144214507Y-131610496D01*
X144237029Y-131618554D01*
X144258653Y-131628782D01*
X144279170Y-131641079D01*
X144298383Y-131655329D01*
X144316107Y-131671393D01*
X144332171Y-131689117D01*
X144346421Y-131708330D01*
X144358718Y-131728847D01*
X144368946Y-131750471D01*
X144377004Y-131772993D01*
X144382816Y-131796197D01*
X144386326Y-131819858D01*
X144387500Y-131843750D01*
X144387500Y-132756250D01*
X144386326Y-132780142D01*
X144382816Y-132803803D01*
X144377004Y-132827007D01*
X144368946Y-132849529D01*
X144358718Y-132871153D01*
X144346421Y-132891670D01*
X144332171Y-132910883D01*
X144316107Y-132928607D01*
X144298383Y-132944671D01*
X144279170Y-132958921D01*
X144258653Y-132971218D01*
X144237029Y-132981446D01*
X144214507Y-132989504D01*
X144191303Y-132995316D01*
X144167642Y-132998826D01*
X144143750Y-133000000D01*
X143656250Y-133000000D01*
X143632358Y-132998826D01*
X143608697Y-132995316D01*
X143585493Y-132989504D01*
X143562971Y-132981446D01*
X143541347Y-132971218D01*
X143520830Y-132958921D01*
X143501617Y-132944671D01*
X143483893Y-132928607D01*
X143467829Y-132910883D01*
X143453579Y-132891670D01*
X143441282Y-132871153D01*
X143431054Y-132849529D01*
X143422996Y-132827007D01*
X143417184Y-132803803D01*
X143413674Y-132780142D01*
X143412500Y-132756250D01*
X143412500Y-131843750D01*
X143413674Y-131819858D01*
X143417184Y-131796197D01*
X143422996Y-131772993D01*
X143431054Y-131750471D01*
X143441282Y-131728847D01*
X143453579Y-131708330D01*
X143467829Y-131689117D01*
X143483893Y-131671393D01*
X143501617Y-131655329D01*
X143520830Y-131641079D01*
X143541347Y-131628782D01*
X143562971Y-131618554D01*
X143585493Y-131610496D01*
X143608697Y-131604684D01*
X143632358Y-131601174D01*
X143656250Y-131600000D01*
X144143750Y-131600000D01*
X144167642Y-131601174D01*
X144167642Y-131601174D01*
G37*
D17*
X143900000Y-132300000D03*
D11*
G36*
X142292642Y-131601174D02*
X142316303Y-131604684D01*
X142339507Y-131610496D01*
X142362029Y-131618554D01*
X142383653Y-131628782D01*
X142404170Y-131641079D01*
X142423383Y-131655329D01*
X142441107Y-131671393D01*
X142457171Y-131689117D01*
X142471421Y-131708330D01*
X142483718Y-131728847D01*
X142493946Y-131750471D01*
X142502004Y-131772993D01*
X142507816Y-131796197D01*
X142511326Y-131819858D01*
X142512500Y-131843750D01*
X142512500Y-132756250D01*
X142511326Y-132780142D01*
X142507816Y-132803803D01*
X142502004Y-132827007D01*
X142493946Y-132849529D01*
X142483718Y-132871153D01*
X142471421Y-132891670D01*
X142457171Y-132910883D01*
X142441107Y-132928607D01*
X142423383Y-132944671D01*
X142404170Y-132958921D01*
X142383653Y-132971218D01*
X142362029Y-132981446D01*
X142339507Y-132989504D01*
X142316303Y-132995316D01*
X142292642Y-132998826D01*
X142268750Y-133000000D01*
X141781250Y-133000000D01*
X141757358Y-132998826D01*
X141733697Y-132995316D01*
X141710493Y-132989504D01*
X141687971Y-132981446D01*
X141666347Y-132971218D01*
X141645830Y-132958921D01*
X141626617Y-132944671D01*
X141608893Y-132928607D01*
X141592829Y-132910883D01*
X141578579Y-132891670D01*
X141566282Y-132871153D01*
X141556054Y-132849529D01*
X141547996Y-132827007D01*
X141542184Y-132803803D01*
X141538674Y-132780142D01*
X141537500Y-132756250D01*
X141537500Y-131843750D01*
X141538674Y-131819858D01*
X141542184Y-131796197D01*
X141547996Y-131772993D01*
X141556054Y-131750471D01*
X141566282Y-131728847D01*
X141578579Y-131708330D01*
X141592829Y-131689117D01*
X141608893Y-131671393D01*
X141626617Y-131655329D01*
X141645830Y-131641079D01*
X141666347Y-131628782D01*
X141687971Y-131618554D01*
X141710493Y-131610496D01*
X141733697Y-131604684D01*
X141757358Y-131601174D01*
X141781250Y-131600000D01*
X142268750Y-131600000D01*
X142292642Y-131601174D01*
X142292642Y-131601174D01*
G37*
D17*
X142025000Y-132300000D03*
G04 #@! TD*
D11*
G04 #@! TO.C,R32*
G36*
X144567623Y-98924697D02*
X144591284Y-98928207D01*
X144614488Y-98934019D01*
X144637010Y-98942077D01*
X144658634Y-98952305D01*
X144679151Y-98964602D01*
X144698364Y-98978852D01*
X144716088Y-98994916D01*
X144732152Y-99012640D01*
X144746402Y-99031853D01*
X144758699Y-99052370D01*
X144768927Y-99073994D01*
X144776985Y-99096516D01*
X144782797Y-99119720D01*
X144786307Y-99143381D01*
X144787481Y-99167273D01*
X144787481Y-99654773D01*
X144786307Y-99678665D01*
X144782797Y-99702326D01*
X144776985Y-99725530D01*
X144768927Y-99748052D01*
X144758699Y-99769676D01*
X144746402Y-99790193D01*
X144732152Y-99809406D01*
X144716088Y-99827130D01*
X144698364Y-99843194D01*
X144679151Y-99857444D01*
X144658634Y-99869741D01*
X144637010Y-99879969D01*
X144614488Y-99888027D01*
X144591284Y-99893839D01*
X144567623Y-99897349D01*
X144543731Y-99898523D01*
X143631231Y-99898523D01*
X143607339Y-99897349D01*
X143583678Y-99893839D01*
X143560474Y-99888027D01*
X143537952Y-99879969D01*
X143516328Y-99869741D01*
X143495811Y-99857444D01*
X143476598Y-99843194D01*
X143458874Y-99827130D01*
X143442810Y-99809406D01*
X143428560Y-99790193D01*
X143416263Y-99769676D01*
X143406035Y-99748052D01*
X143397977Y-99725530D01*
X143392165Y-99702326D01*
X143388655Y-99678665D01*
X143387481Y-99654773D01*
X143387481Y-99167273D01*
X143388655Y-99143381D01*
X143392165Y-99119720D01*
X143397977Y-99096516D01*
X143406035Y-99073994D01*
X143416263Y-99052370D01*
X143428560Y-99031853D01*
X143442810Y-99012640D01*
X143458874Y-98994916D01*
X143476598Y-98978852D01*
X143495811Y-98964602D01*
X143516328Y-98952305D01*
X143537952Y-98942077D01*
X143560474Y-98934019D01*
X143583678Y-98928207D01*
X143607339Y-98924697D01*
X143631231Y-98923523D01*
X144543731Y-98923523D01*
X144567623Y-98924697D01*
X144567623Y-98924697D01*
G37*
D17*
X144087481Y-99411023D03*
D11*
G36*
X144567623Y-100799697D02*
X144591284Y-100803207D01*
X144614488Y-100809019D01*
X144637010Y-100817077D01*
X144658634Y-100827305D01*
X144679151Y-100839602D01*
X144698364Y-100853852D01*
X144716088Y-100869916D01*
X144732152Y-100887640D01*
X144746402Y-100906853D01*
X144758699Y-100927370D01*
X144768927Y-100948994D01*
X144776985Y-100971516D01*
X144782797Y-100994720D01*
X144786307Y-101018381D01*
X144787481Y-101042273D01*
X144787481Y-101529773D01*
X144786307Y-101553665D01*
X144782797Y-101577326D01*
X144776985Y-101600530D01*
X144768927Y-101623052D01*
X144758699Y-101644676D01*
X144746402Y-101665193D01*
X144732152Y-101684406D01*
X144716088Y-101702130D01*
X144698364Y-101718194D01*
X144679151Y-101732444D01*
X144658634Y-101744741D01*
X144637010Y-101754969D01*
X144614488Y-101763027D01*
X144591284Y-101768839D01*
X144567623Y-101772349D01*
X144543731Y-101773523D01*
X143631231Y-101773523D01*
X143607339Y-101772349D01*
X143583678Y-101768839D01*
X143560474Y-101763027D01*
X143537952Y-101754969D01*
X143516328Y-101744741D01*
X143495811Y-101732444D01*
X143476598Y-101718194D01*
X143458874Y-101702130D01*
X143442810Y-101684406D01*
X143428560Y-101665193D01*
X143416263Y-101644676D01*
X143406035Y-101623052D01*
X143397977Y-101600530D01*
X143392165Y-101577326D01*
X143388655Y-101553665D01*
X143387481Y-101529773D01*
X143387481Y-101042273D01*
X143388655Y-101018381D01*
X143392165Y-100994720D01*
X143397977Y-100971516D01*
X143406035Y-100948994D01*
X143416263Y-100927370D01*
X143428560Y-100906853D01*
X143442810Y-100887640D01*
X143458874Y-100869916D01*
X143476598Y-100853852D01*
X143495811Y-100839602D01*
X143516328Y-100827305D01*
X143537952Y-100817077D01*
X143560474Y-100809019D01*
X143583678Y-100803207D01*
X143607339Y-100799697D01*
X143631231Y-100798523D01*
X144543731Y-100798523D01*
X144567623Y-100799697D01*
X144567623Y-100799697D01*
G37*
D17*
X144087481Y-101286023D03*
G04 #@! TD*
D11*
G04 #@! TO.C,R33*
G36*
X143067623Y-110799697D02*
X143091284Y-110803207D01*
X143114488Y-110809019D01*
X143137010Y-110817077D01*
X143158634Y-110827305D01*
X143179151Y-110839602D01*
X143198364Y-110853852D01*
X143216088Y-110869916D01*
X143232152Y-110887640D01*
X143246402Y-110906853D01*
X143258699Y-110927370D01*
X143268927Y-110948994D01*
X143276985Y-110971516D01*
X143282797Y-110994720D01*
X143286307Y-111018381D01*
X143287481Y-111042273D01*
X143287481Y-111529773D01*
X143286307Y-111553665D01*
X143282797Y-111577326D01*
X143276985Y-111600530D01*
X143268927Y-111623052D01*
X143258699Y-111644676D01*
X143246402Y-111665193D01*
X143232152Y-111684406D01*
X143216088Y-111702130D01*
X143198364Y-111718194D01*
X143179151Y-111732444D01*
X143158634Y-111744741D01*
X143137010Y-111754969D01*
X143114488Y-111763027D01*
X143091284Y-111768839D01*
X143067623Y-111772349D01*
X143043731Y-111773523D01*
X142131231Y-111773523D01*
X142107339Y-111772349D01*
X142083678Y-111768839D01*
X142060474Y-111763027D01*
X142037952Y-111754969D01*
X142016328Y-111744741D01*
X141995811Y-111732444D01*
X141976598Y-111718194D01*
X141958874Y-111702130D01*
X141942810Y-111684406D01*
X141928560Y-111665193D01*
X141916263Y-111644676D01*
X141906035Y-111623052D01*
X141897977Y-111600530D01*
X141892165Y-111577326D01*
X141888655Y-111553665D01*
X141887481Y-111529773D01*
X141887481Y-111042273D01*
X141888655Y-111018381D01*
X141892165Y-110994720D01*
X141897977Y-110971516D01*
X141906035Y-110948994D01*
X141916263Y-110927370D01*
X141928560Y-110906853D01*
X141942810Y-110887640D01*
X141958874Y-110869916D01*
X141976598Y-110853852D01*
X141995811Y-110839602D01*
X142016328Y-110827305D01*
X142037952Y-110817077D01*
X142060474Y-110809019D01*
X142083678Y-110803207D01*
X142107339Y-110799697D01*
X142131231Y-110798523D01*
X143043731Y-110798523D01*
X143067623Y-110799697D01*
X143067623Y-110799697D01*
G37*
D17*
X142587481Y-111286023D03*
D11*
G36*
X143067623Y-112674697D02*
X143091284Y-112678207D01*
X143114488Y-112684019D01*
X143137010Y-112692077D01*
X143158634Y-112702305D01*
X143179151Y-112714602D01*
X143198364Y-112728852D01*
X143216088Y-112744916D01*
X143232152Y-112762640D01*
X143246402Y-112781853D01*
X143258699Y-112802370D01*
X143268927Y-112823994D01*
X143276985Y-112846516D01*
X143282797Y-112869720D01*
X143286307Y-112893381D01*
X143287481Y-112917273D01*
X143287481Y-113404773D01*
X143286307Y-113428665D01*
X143282797Y-113452326D01*
X143276985Y-113475530D01*
X143268927Y-113498052D01*
X143258699Y-113519676D01*
X143246402Y-113540193D01*
X143232152Y-113559406D01*
X143216088Y-113577130D01*
X143198364Y-113593194D01*
X143179151Y-113607444D01*
X143158634Y-113619741D01*
X143137010Y-113629969D01*
X143114488Y-113638027D01*
X143091284Y-113643839D01*
X143067623Y-113647349D01*
X143043731Y-113648523D01*
X142131231Y-113648523D01*
X142107339Y-113647349D01*
X142083678Y-113643839D01*
X142060474Y-113638027D01*
X142037952Y-113629969D01*
X142016328Y-113619741D01*
X141995811Y-113607444D01*
X141976598Y-113593194D01*
X141958874Y-113577130D01*
X141942810Y-113559406D01*
X141928560Y-113540193D01*
X141916263Y-113519676D01*
X141906035Y-113498052D01*
X141897977Y-113475530D01*
X141892165Y-113452326D01*
X141888655Y-113428665D01*
X141887481Y-113404773D01*
X141887481Y-112917273D01*
X141888655Y-112893381D01*
X141892165Y-112869720D01*
X141897977Y-112846516D01*
X141906035Y-112823994D01*
X141916263Y-112802370D01*
X141928560Y-112781853D01*
X141942810Y-112762640D01*
X141958874Y-112744916D01*
X141976598Y-112728852D01*
X141995811Y-112714602D01*
X142016328Y-112702305D01*
X142037952Y-112692077D01*
X142060474Y-112684019D01*
X142083678Y-112678207D01*
X142107339Y-112674697D01*
X142131231Y-112673523D01*
X143043731Y-112673523D01*
X143067623Y-112674697D01*
X143067623Y-112674697D01*
G37*
D17*
X142587481Y-113161023D03*
G04 #@! TD*
D11*
G04 #@! TO.C,R34*
G36*
X142267623Y-100799697D02*
X142291284Y-100803207D01*
X142314488Y-100809019D01*
X142337010Y-100817077D01*
X142358634Y-100827305D01*
X142379151Y-100839602D01*
X142398364Y-100853852D01*
X142416088Y-100869916D01*
X142432152Y-100887640D01*
X142446402Y-100906853D01*
X142458699Y-100927370D01*
X142468927Y-100948994D01*
X142476985Y-100971516D01*
X142482797Y-100994720D01*
X142486307Y-101018381D01*
X142487481Y-101042273D01*
X142487481Y-101529773D01*
X142486307Y-101553665D01*
X142482797Y-101577326D01*
X142476985Y-101600530D01*
X142468927Y-101623052D01*
X142458699Y-101644676D01*
X142446402Y-101665193D01*
X142432152Y-101684406D01*
X142416088Y-101702130D01*
X142398364Y-101718194D01*
X142379151Y-101732444D01*
X142358634Y-101744741D01*
X142337010Y-101754969D01*
X142314488Y-101763027D01*
X142291284Y-101768839D01*
X142267623Y-101772349D01*
X142243731Y-101773523D01*
X141331231Y-101773523D01*
X141307339Y-101772349D01*
X141283678Y-101768839D01*
X141260474Y-101763027D01*
X141237952Y-101754969D01*
X141216328Y-101744741D01*
X141195811Y-101732444D01*
X141176598Y-101718194D01*
X141158874Y-101702130D01*
X141142810Y-101684406D01*
X141128560Y-101665193D01*
X141116263Y-101644676D01*
X141106035Y-101623052D01*
X141097977Y-101600530D01*
X141092165Y-101577326D01*
X141088655Y-101553665D01*
X141087481Y-101529773D01*
X141087481Y-101042273D01*
X141088655Y-101018381D01*
X141092165Y-100994720D01*
X141097977Y-100971516D01*
X141106035Y-100948994D01*
X141116263Y-100927370D01*
X141128560Y-100906853D01*
X141142810Y-100887640D01*
X141158874Y-100869916D01*
X141176598Y-100853852D01*
X141195811Y-100839602D01*
X141216328Y-100827305D01*
X141237952Y-100817077D01*
X141260474Y-100809019D01*
X141283678Y-100803207D01*
X141307339Y-100799697D01*
X141331231Y-100798523D01*
X142243731Y-100798523D01*
X142267623Y-100799697D01*
X142267623Y-100799697D01*
G37*
D17*
X141787481Y-101286023D03*
D11*
G36*
X142267623Y-98924697D02*
X142291284Y-98928207D01*
X142314488Y-98934019D01*
X142337010Y-98942077D01*
X142358634Y-98952305D01*
X142379151Y-98964602D01*
X142398364Y-98978852D01*
X142416088Y-98994916D01*
X142432152Y-99012640D01*
X142446402Y-99031853D01*
X142458699Y-99052370D01*
X142468927Y-99073994D01*
X142476985Y-99096516D01*
X142482797Y-99119720D01*
X142486307Y-99143381D01*
X142487481Y-99167273D01*
X142487481Y-99654773D01*
X142486307Y-99678665D01*
X142482797Y-99702326D01*
X142476985Y-99725530D01*
X142468927Y-99748052D01*
X142458699Y-99769676D01*
X142446402Y-99790193D01*
X142432152Y-99809406D01*
X142416088Y-99827130D01*
X142398364Y-99843194D01*
X142379151Y-99857444D01*
X142358634Y-99869741D01*
X142337010Y-99879969D01*
X142314488Y-99888027D01*
X142291284Y-99893839D01*
X142267623Y-99897349D01*
X142243731Y-99898523D01*
X141331231Y-99898523D01*
X141307339Y-99897349D01*
X141283678Y-99893839D01*
X141260474Y-99888027D01*
X141237952Y-99879969D01*
X141216328Y-99869741D01*
X141195811Y-99857444D01*
X141176598Y-99843194D01*
X141158874Y-99827130D01*
X141142810Y-99809406D01*
X141128560Y-99790193D01*
X141116263Y-99769676D01*
X141106035Y-99748052D01*
X141097977Y-99725530D01*
X141092165Y-99702326D01*
X141088655Y-99678665D01*
X141087481Y-99654773D01*
X141087481Y-99167273D01*
X141088655Y-99143381D01*
X141092165Y-99119720D01*
X141097977Y-99096516D01*
X141106035Y-99073994D01*
X141116263Y-99052370D01*
X141128560Y-99031853D01*
X141142810Y-99012640D01*
X141158874Y-98994916D01*
X141176598Y-98978852D01*
X141195811Y-98964602D01*
X141216328Y-98952305D01*
X141237952Y-98942077D01*
X141260474Y-98934019D01*
X141283678Y-98928207D01*
X141307339Y-98924697D01*
X141331231Y-98923523D01*
X142243731Y-98923523D01*
X142267623Y-98924697D01*
X142267623Y-98924697D01*
G37*
D17*
X141787481Y-99411023D03*
G04 #@! TD*
D11*
G04 #@! TO.C,R35*
G36*
X140067623Y-100799697D02*
X140091284Y-100803207D01*
X140114488Y-100809019D01*
X140137010Y-100817077D01*
X140158634Y-100827305D01*
X140179151Y-100839602D01*
X140198364Y-100853852D01*
X140216088Y-100869916D01*
X140232152Y-100887640D01*
X140246402Y-100906853D01*
X140258699Y-100927370D01*
X140268927Y-100948994D01*
X140276985Y-100971516D01*
X140282797Y-100994720D01*
X140286307Y-101018381D01*
X140287481Y-101042273D01*
X140287481Y-101529773D01*
X140286307Y-101553665D01*
X140282797Y-101577326D01*
X140276985Y-101600530D01*
X140268927Y-101623052D01*
X140258699Y-101644676D01*
X140246402Y-101665193D01*
X140232152Y-101684406D01*
X140216088Y-101702130D01*
X140198364Y-101718194D01*
X140179151Y-101732444D01*
X140158634Y-101744741D01*
X140137010Y-101754969D01*
X140114488Y-101763027D01*
X140091284Y-101768839D01*
X140067623Y-101772349D01*
X140043731Y-101773523D01*
X139131231Y-101773523D01*
X139107339Y-101772349D01*
X139083678Y-101768839D01*
X139060474Y-101763027D01*
X139037952Y-101754969D01*
X139016328Y-101744741D01*
X138995811Y-101732444D01*
X138976598Y-101718194D01*
X138958874Y-101702130D01*
X138942810Y-101684406D01*
X138928560Y-101665193D01*
X138916263Y-101644676D01*
X138906035Y-101623052D01*
X138897977Y-101600530D01*
X138892165Y-101577326D01*
X138888655Y-101553665D01*
X138887481Y-101529773D01*
X138887481Y-101042273D01*
X138888655Y-101018381D01*
X138892165Y-100994720D01*
X138897977Y-100971516D01*
X138906035Y-100948994D01*
X138916263Y-100927370D01*
X138928560Y-100906853D01*
X138942810Y-100887640D01*
X138958874Y-100869916D01*
X138976598Y-100853852D01*
X138995811Y-100839602D01*
X139016328Y-100827305D01*
X139037952Y-100817077D01*
X139060474Y-100809019D01*
X139083678Y-100803207D01*
X139107339Y-100799697D01*
X139131231Y-100798523D01*
X140043731Y-100798523D01*
X140067623Y-100799697D01*
X140067623Y-100799697D01*
G37*
D17*
X139587481Y-101286023D03*
D11*
G36*
X140067623Y-98924697D02*
X140091284Y-98928207D01*
X140114488Y-98934019D01*
X140137010Y-98942077D01*
X140158634Y-98952305D01*
X140179151Y-98964602D01*
X140198364Y-98978852D01*
X140216088Y-98994916D01*
X140232152Y-99012640D01*
X140246402Y-99031853D01*
X140258699Y-99052370D01*
X140268927Y-99073994D01*
X140276985Y-99096516D01*
X140282797Y-99119720D01*
X140286307Y-99143381D01*
X140287481Y-99167273D01*
X140287481Y-99654773D01*
X140286307Y-99678665D01*
X140282797Y-99702326D01*
X140276985Y-99725530D01*
X140268927Y-99748052D01*
X140258699Y-99769676D01*
X140246402Y-99790193D01*
X140232152Y-99809406D01*
X140216088Y-99827130D01*
X140198364Y-99843194D01*
X140179151Y-99857444D01*
X140158634Y-99869741D01*
X140137010Y-99879969D01*
X140114488Y-99888027D01*
X140091284Y-99893839D01*
X140067623Y-99897349D01*
X140043731Y-99898523D01*
X139131231Y-99898523D01*
X139107339Y-99897349D01*
X139083678Y-99893839D01*
X139060474Y-99888027D01*
X139037952Y-99879969D01*
X139016328Y-99869741D01*
X138995811Y-99857444D01*
X138976598Y-99843194D01*
X138958874Y-99827130D01*
X138942810Y-99809406D01*
X138928560Y-99790193D01*
X138916263Y-99769676D01*
X138906035Y-99748052D01*
X138897977Y-99725530D01*
X138892165Y-99702326D01*
X138888655Y-99678665D01*
X138887481Y-99654773D01*
X138887481Y-99167273D01*
X138888655Y-99143381D01*
X138892165Y-99119720D01*
X138897977Y-99096516D01*
X138906035Y-99073994D01*
X138916263Y-99052370D01*
X138928560Y-99031853D01*
X138942810Y-99012640D01*
X138958874Y-98994916D01*
X138976598Y-98978852D01*
X138995811Y-98964602D01*
X139016328Y-98952305D01*
X139037952Y-98942077D01*
X139060474Y-98934019D01*
X139083678Y-98928207D01*
X139107339Y-98924697D01*
X139131231Y-98923523D01*
X140043731Y-98923523D01*
X140067623Y-98924697D01*
X140067623Y-98924697D01*
G37*
D17*
X139587481Y-99411023D03*
G04 #@! TD*
D11*
G04 #@! TO.C,R36*
G36*
X144544424Y-122042878D02*
X144568085Y-122046388D01*
X144591289Y-122052200D01*
X144613811Y-122060258D01*
X144635435Y-122070486D01*
X144655952Y-122082783D01*
X144675165Y-122097033D01*
X144692889Y-122113097D01*
X144708953Y-122130821D01*
X144723203Y-122150034D01*
X144735500Y-122170551D01*
X144745728Y-122192175D01*
X144753786Y-122214697D01*
X144759598Y-122237901D01*
X144763108Y-122261562D01*
X144764282Y-122285454D01*
X144764282Y-122772954D01*
X144763108Y-122796846D01*
X144759598Y-122820507D01*
X144753786Y-122843711D01*
X144745728Y-122866233D01*
X144735500Y-122887857D01*
X144723203Y-122908374D01*
X144708953Y-122927587D01*
X144692889Y-122945311D01*
X144675165Y-122961375D01*
X144655952Y-122975625D01*
X144635435Y-122987922D01*
X144613811Y-122998150D01*
X144591289Y-123006208D01*
X144568085Y-123012020D01*
X144544424Y-123015530D01*
X144520532Y-123016704D01*
X143608032Y-123016704D01*
X143584140Y-123015530D01*
X143560479Y-123012020D01*
X143537275Y-123006208D01*
X143514753Y-122998150D01*
X143493129Y-122987922D01*
X143472612Y-122975625D01*
X143453399Y-122961375D01*
X143435675Y-122945311D01*
X143419611Y-122927587D01*
X143405361Y-122908374D01*
X143393064Y-122887857D01*
X143382836Y-122866233D01*
X143374778Y-122843711D01*
X143368966Y-122820507D01*
X143365456Y-122796846D01*
X143364282Y-122772954D01*
X143364282Y-122285454D01*
X143365456Y-122261562D01*
X143368966Y-122237901D01*
X143374778Y-122214697D01*
X143382836Y-122192175D01*
X143393064Y-122170551D01*
X143405361Y-122150034D01*
X143419611Y-122130821D01*
X143435675Y-122113097D01*
X143453399Y-122097033D01*
X143472612Y-122082783D01*
X143493129Y-122070486D01*
X143514753Y-122060258D01*
X143537275Y-122052200D01*
X143560479Y-122046388D01*
X143584140Y-122042878D01*
X143608032Y-122041704D01*
X144520532Y-122041704D01*
X144544424Y-122042878D01*
X144544424Y-122042878D01*
G37*
D17*
X144064282Y-122529204D03*
D11*
G36*
X144544424Y-123917878D02*
X144568085Y-123921388D01*
X144591289Y-123927200D01*
X144613811Y-123935258D01*
X144635435Y-123945486D01*
X144655952Y-123957783D01*
X144675165Y-123972033D01*
X144692889Y-123988097D01*
X144708953Y-124005821D01*
X144723203Y-124025034D01*
X144735500Y-124045551D01*
X144745728Y-124067175D01*
X144753786Y-124089697D01*
X144759598Y-124112901D01*
X144763108Y-124136562D01*
X144764282Y-124160454D01*
X144764282Y-124647954D01*
X144763108Y-124671846D01*
X144759598Y-124695507D01*
X144753786Y-124718711D01*
X144745728Y-124741233D01*
X144735500Y-124762857D01*
X144723203Y-124783374D01*
X144708953Y-124802587D01*
X144692889Y-124820311D01*
X144675165Y-124836375D01*
X144655952Y-124850625D01*
X144635435Y-124862922D01*
X144613811Y-124873150D01*
X144591289Y-124881208D01*
X144568085Y-124887020D01*
X144544424Y-124890530D01*
X144520532Y-124891704D01*
X143608032Y-124891704D01*
X143584140Y-124890530D01*
X143560479Y-124887020D01*
X143537275Y-124881208D01*
X143514753Y-124873150D01*
X143493129Y-124862922D01*
X143472612Y-124850625D01*
X143453399Y-124836375D01*
X143435675Y-124820311D01*
X143419611Y-124802587D01*
X143405361Y-124783374D01*
X143393064Y-124762857D01*
X143382836Y-124741233D01*
X143374778Y-124718711D01*
X143368966Y-124695507D01*
X143365456Y-124671846D01*
X143364282Y-124647954D01*
X143364282Y-124160454D01*
X143365456Y-124136562D01*
X143368966Y-124112901D01*
X143374778Y-124089697D01*
X143382836Y-124067175D01*
X143393064Y-124045551D01*
X143405361Y-124025034D01*
X143419611Y-124005821D01*
X143435675Y-123988097D01*
X143453399Y-123972033D01*
X143472612Y-123957783D01*
X143493129Y-123945486D01*
X143514753Y-123935258D01*
X143537275Y-123927200D01*
X143560479Y-123921388D01*
X143584140Y-123917878D01*
X143608032Y-123916704D01*
X144520532Y-123916704D01*
X144544424Y-123917878D01*
X144544424Y-123917878D01*
G37*
D17*
X144064282Y-124404204D03*
G04 #@! TD*
D11*
G04 #@! TO.C,R37*
G36*
X174180142Y-116576174D02*
X174203803Y-116579684D01*
X174227007Y-116585496D01*
X174249529Y-116593554D01*
X174271153Y-116603782D01*
X174291670Y-116616079D01*
X174310883Y-116630329D01*
X174328607Y-116646393D01*
X174344671Y-116664117D01*
X174358921Y-116683330D01*
X174371218Y-116703847D01*
X174381446Y-116725471D01*
X174389504Y-116747993D01*
X174395316Y-116771197D01*
X174398826Y-116794858D01*
X174400000Y-116818750D01*
X174400000Y-117306250D01*
X174398826Y-117330142D01*
X174395316Y-117353803D01*
X174389504Y-117377007D01*
X174381446Y-117399529D01*
X174371218Y-117421153D01*
X174358921Y-117441670D01*
X174344671Y-117460883D01*
X174328607Y-117478607D01*
X174310883Y-117494671D01*
X174291670Y-117508921D01*
X174271153Y-117521218D01*
X174249529Y-117531446D01*
X174227007Y-117539504D01*
X174203803Y-117545316D01*
X174180142Y-117548826D01*
X174156250Y-117550000D01*
X173243750Y-117550000D01*
X173219858Y-117548826D01*
X173196197Y-117545316D01*
X173172993Y-117539504D01*
X173150471Y-117531446D01*
X173128847Y-117521218D01*
X173108330Y-117508921D01*
X173089117Y-117494671D01*
X173071393Y-117478607D01*
X173055329Y-117460883D01*
X173041079Y-117441670D01*
X173028782Y-117421153D01*
X173018554Y-117399529D01*
X173010496Y-117377007D01*
X173004684Y-117353803D01*
X173001174Y-117330142D01*
X173000000Y-117306250D01*
X173000000Y-116818750D01*
X173001174Y-116794858D01*
X173004684Y-116771197D01*
X173010496Y-116747993D01*
X173018554Y-116725471D01*
X173028782Y-116703847D01*
X173041079Y-116683330D01*
X173055329Y-116664117D01*
X173071393Y-116646393D01*
X173089117Y-116630329D01*
X173108330Y-116616079D01*
X173128847Y-116603782D01*
X173150471Y-116593554D01*
X173172993Y-116585496D01*
X173196197Y-116579684D01*
X173219858Y-116576174D01*
X173243750Y-116575000D01*
X174156250Y-116575000D01*
X174180142Y-116576174D01*
X174180142Y-116576174D01*
G37*
D17*
X173700000Y-117062500D03*
D11*
G36*
X174180142Y-118451174D02*
X174203803Y-118454684D01*
X174227007Y-118460496D01*
X174249529Y-118468554D01*
X174271153Y-118478782D01*
X174291670Y-118491079D01*
X174310883Y-118505329D01*
X174328607Y-118521393D01*
X174344671Y-118539117D01*
X174358921Y-118558330D01*
X174371218Y-118578847D01*
X174381446Y-118600471D01*
X174389504Y-118622993D01*
X174395316Y-118646197D01*
X174398826Y-118669858D01*
X174400000Y-118693750D01*
X174400000Y-119181250D01*
X174398826Y-119205142D01*
X174395316Y-119228803D01*
X174389504Y-119252007D01*
X174381446Y-119274529D01*
X174371218Y-119296153D01*
X174358921Y-119316670D01*
X174344671Y-119335883D01*
X174328607Y-119353607D01*
X174310883Y-119369671D01*
X174291670Y-119383921D01*
X174271153Y-119396218D01*
X174249529Y-119406446D01*
X174227007Y-119414504D01*
X174203803Y-119420316D01*
X174180142Y-119423826D01*
X174156250Y-119425000D01*
X173243750Y-119425000D01*
X173219858Y-119423826D01*
X173196197Y-119420316D01*
X173172993Y-119414504D01*
X173150471Y-119406446D01*
X173128847Y-119396218D01*
X173108330Y-119383921D01*
X173089117Y-119369671D01*
X173071393Y-119353607D01*
X173055329Y-119335883D01*
X173041079Y-119316670D01*
X173028782Y-119296153D01*
X173018554Y-119274529D01*
X173010496Y-119252007D01*
X173004684Y-119228803D01*
X173001174Y-119205142D01*
X173000000Y-119181250D01*
X173000000Y-118693750D01*
X173001174Y-118669858D01*
X173004684Y-118646197D01*
X173010496Y-118622993D01*
X173018554Y-118600471D01*
X173028782Y-118578847D01*
X173041079Y-118558330D01*
X173055329Y-118539117D01*
X173071393Y-118521393D01*
X173089117Y-118505329D01*
X173108330Y-118491079D01*
X173128847Y-118478782D01*
X173150471Y-118468554D01*
X173172993Y-118460496D01*
X173196197Y-118454684D01*
X173219858Y-118451174D01*
X173243750Y-118450000D01*
X174156250Y-118450000D01*
X174180142Y-118451174D01*
X174180142Y-118451174D01*
G37*
D17*
X173700000Y-118937500D03*
G04 #@! TD*
M02*
